<?xml version="1.0" encoding="utf-8"?>
<!-- Generator: Adobe Illustrator 23.0.3, SVG Export Plug-In . SVG Version: 6.00 Build 0)  -->
<svg version="1.1" id="圖層_1" xmlns="http://www.w3.org/2000/svg" xmlns:xlink="http://www.w3.org/1999/xlink" x="0px" y="0px"
	 viewBox="0 0 300 350" style="enable-background:new 0 0 300 350;" xml:space="preserve">
<style type="text/css">
	.st0{fill:#A52224;}
	.st1{fill:#D93030;}
	.st2{fill:none;stroke:#18191F;stroke-width:4.2762;stroke-linecap:round;stroke-linejoin:round;stroke-miterlimit:10;}
	.st3{fill:#E83C3C;}
	.st4{fill:none;stroke:#18191F;stroke-width:5.4044;stroke-linecap:round;stroke-linejoin:round;stroke-miterlimit:10;}
	.st5{fill:#F08E93;}
	.st6{fill:#18191F;}
	.st7{fill:#FF353B;}
	.st8{fill:#FFFFFF;}
	.st9{fill:#23B5F3;}
	.st10{fill:#CCCCFF;}
	.st11{fill:#6460FF;}
	.st12{fill:#DB9451;}
	.st13{fill:#F4B55E;}
	.st14{fill:#EC6519;}
	.st15{fill:#EF7C33;}
	.st16{fill:#CCCCCC;}
	.st17{fill:#E6E6E5;}
	.st18{fill:#B75320;}
	.st19{fill:#B3B3B3;}
	.st20{fill-rule:evenodd;clip-rule:evenodd;fill:#4D4D4D;}
	.st21{fill:#4D4D4D;}
	.st22{fill:#323333;}
	.st23{fill:#9C4623;}
	.st24{fill-rule:evenodd;clip-rule:evenodd;fill:#CBE8F0;}
	.st25{fill-rule:evenodd;clip-rule:evenodd;fill:#E1F0F3;}
	.st26{fill-rule:evenodd;clip-rule:evenodd;fill:#9ECCD5;}
	.st27{fill-rule:evenodd;clip-rule:evenodd;fill:#323333;}
	.st28{fill-rule:evenodd;clip-rule:evenodd;fill:#666666;}
	.st29{fill:none;stroke:#F4B55E;stroke-width:2.051;stroke-linecap:round;stroke-linejoin:round;stroke-miterlimit:10;}
	.st30{fill:#C7B79C;}
	.st31{fill:#D4C9B4;}
	.st32{fill:#51524E;}
	.st33{fill:#E1E1E1;}
	.st34{fill:#43312B;}
	.st35{fill:#C6C6C6;}
	.st36{fill:#AAAAAA;}
	.st37{fill:#939393;}
	.st38{fill:#E0E0E0;}
	.st39{fill:#2B451C;}
	.st40{fill:#395527;}
	.st41{fill:none;stroke:#18191F;stroke-width:5.3533;stroke-linecap:round;stroke-linejoin:round;stroke-miterlimit:10;}
	.st42{fill:none;stroke:#18191F;stroke-width:4.5;stroke-linecap:round;stroke-linejoin:round;stroke-miterlimit:10;}
	.st43{fill:none;stroke:#F4B55E;stroke-width:2.378;stroke-linecap:round;stroke-linejoin:round;stroke-miterlimit:10;}
	.st44{fill:none;stroke:#F4B55E;stroke-width:3.459;stroke-linecap:round;stroke-linejoin:round;stroke-miterlimit:10;}
	.st45{fill:#FF9398;}
	.st46{fill:none;stroke:#18191F;stroke-width:4.5;stroke-linecap:round;stroke-miterlimit:10;}
	.st47{fill:none;stroke:#18191F;stroke-width:4.0241;stroke-linecap:round;stroke-linejoin:round;stroke-miterlimit:10;}
	.st48{fill:none;stroke:#F4B55E;stroke-width:1.5623;stroke-linecap:round;stroke-linejoin:round;stroke-miterlimit:10;}
	.st49{fill:none;stroke:#18191F;stroke-width:3.0579;stroke-linecap:round;stroke-linejoin:round;stroke-miterlimit:10;}
	.st50{fill:none;stroke:#18191F;stroke-width:2.7483;stroke-linecap:round;stroke-linejoin:round;stroke-miterlimit:10;}
</style>
<path class="st30" d="M89.1,14.1c-0.8,0.7-1.5,1.6-2.4,2.3c-5.2,4.3-11,7.7-17.5,9.8c-4,1.3-8.1,2.1-12.3,2.3
	c-3.5,0.2-6.9,0-10.3-0.4c-0.8-0.1-1.6,0-2.3-0.2c0.3-1.3,0.6-2.7,0.9-4c0.7-4,2.2-7.8,4.6-11.3c2.5-3.7,5.8-6.8,10-8.8
	c3.8-1.8,7.8-2.5,11.9-1.9c4.9,0.7,9.2,2.5,12.6,5.7c1.7,1.6,3.3,3.5,4.9,5.2c0.3,0.3,0.9,0.5,0.9,1.1
	C89.7,13.7,89.4,13.8,89.1,14.1z"/>
<path class="st31" d="M45,32c1.5,1.6,3.5,2.3,5.7,2.6c3.9,0.6,7.9,0.2,11.9-0.7c5-1.1,9.9-2.6,14.5-4.8c3-1.4,6-3,8.6-5
	c2.1-1.6,3.9-3.4,5.3-5.6c0.6-0.8,0.8-1.6,0.1-2.4c-0.2-0.2-0.4-0.5-0.1-0.9c2.3,1.9,5,3.4,7.8,4.6c1,0.4,2.1,0.8,3,1.4
	c-1.1,1.4-2.4,2.7-3.9,3.9c-5.8,4.8-12.3,8.6-19.2,11.6c-2,0.9-4.1,1.6-6.1,2.5c-3.1,1.3-6.3,2.2-9.6,2.9c-8.5,2-16.8,1.7-25,0
	c-0.2-0.1-0.5-0.1-0.6-0.3c0.2-0.4,0.5-0.8,0.7-1.2c2.1-3,4.3-6,6.4-9C44.7,31.8,44.8,31.9,45,32z"/>
<path class="st30" d="M104.3,22.7c0.2,0.2,0.4,0.3,0.1,0.6c-1.6,2.1-3,4.3-4.9,6.2c-5.3,5.4-11.7,9.6-18.7,12.7
	c-2.8,1.2-5.6,2.3-8.5,3.3c-3.5,1.1-7,1.9-10.5,2.2c-6.8,0.6-13.3-0.3-19.5-2.3c-1.6-0.5-3.1-1-4.7-1.4c-0.8-0.2-1-0.6-0.6-1.4
	c0.1-0.2,0.2-0.4,0.4-0.6c0.4,0,0.7,0.1,1.1,0.1c4,0.7,8,1.2,12.2,1.3c6.6,0.1,13.1-1.2,19.5-3.4c3.6-1.2,7.2-2.7,10.7-4.3
	c2.6-1.3,5.2-2.5,7.7-4c4.7-2.8,9.1-5.8,12.7-9.8c0.2-0.2,0.4-0.4,0.7-0.5C102.7,21.6,103.6,22.1,104.3,22.7z"/>
<path class="st32" d="M44.4,27.8c0.7-0.1,1.4,0,2.1,0c7.7,0.9,15.3,0.7,23-1.9c3.8-1.3,7.3-3,10.7-5.1c3.3-2,6.3-4.4,9-7.1
	c0.4-0.4,0.6-0.4,0.9,0c0.3,0.5,0.6,1,0.8,1.5c0.2,0.4,0.3,0.8,0.6,1.2c0.4,0.6,0.3,1.1-0.1,1.8c-2,3-4.6,5.5-7.7,7.5
	c-7,4.5-14.8,7.2-22.9,8.8c-3.4,0.7-6.9,1-10.2,0.4c-2.4-0.4-4.7-1.1-6.1-3.1C44.4,30.5,44.4,29.1,44.4,27.8z"/>
<path class="st33" d="M67,20.5c1.3-0.5,2.7-0.1,3.1,1c0.4,1.1-0.1,2.3-1.2,2.8c-1.5,0.6-2.6,0.2-3.1-1C65.5,22.2,66,20.9,67,20.5z"
	/>
<path class="st33" d="M75.8,21.8c-1.3,0.5-2.4,0.1-2.9-1C72.5,19.7,73,18.3,74,18c1.5-0.4,2.7-0.4,3.1,1
	C77.6,20.2,77.1,21.2,75.8,21.8z"/>
<path class="st34" d="M67.4,21c0.9-0.3,1.8,0,2.1,0.8c0.3,0.8-0.1,1.6-0.9,2c-0.9,0.3-1.7,0-2-0.8C66.2,22.1,66.6,21.3,67.4,21z"/>
<path class="st34" d="M74.3,18.5c0.9-0.3,1.9,0,2.2,0.8c0.3,0.8-0.1,1.7-0.9,2c-0.8,0.3-1.7,0-2-0.8C73.2,19.6,73.6,18.8,74.3,18.5z
	"/>
</svg>
