<svg width="124" height="20" viewBox="0 0 124 20" fill="none" xmlns="http://www.w3.org/2000/svg">
<path d="M9.14681 0.363708H1.64643C0.731745 0.363708 0 1.09471 0 2.00846V17.7859C0 18.6997 0.731745 19.4307 1.64643 19.4307H4.81732C5.732 19.4307 6.46375 18.6997 6.46375 17.7859V15.1665C6.46375 14.9228 6.64668 14.7401 6.8906 14.7401H9.14681C14.452 14.7401 17.8058 11.9379 17.8058 7.5519C17.8668 3.16589 14.5129 0.363708 9.14681 0.363708ZM8.78094 9.80583H6.8906C6.64668 9.80583 6.40277 9.62308 6.40277 9.31849V5.78531C6.40277 5.54164 6.5857 5.29798 6.8906 5.29798H8.78094C10.5493 5.29798 11.403 6.15081 11.403 7.5519C11.403 8.95299 10.5493 9.80583 8.78094 9.80583Z" fill="#2E1ED3"/>
<path d="M68.9059 0.363708H66.4668C65.918 0.363708 65.3692 0.668293 65.0643 1.15563L62.6251 5.23706C62.1983 5.96806 61.1006 5.96806 60.6128 5.23706L58.1737 1.15563C57.9297 0.668293 57.4419 0.363708 56.8321 0.363708H53.8442C52.6246 0.363708 51.8319 1.7648 52.4417 2.8613L57.9297 12.0598C58.0517 12.3034 58.1737 12.608 58.1737 12.9126V17.8469C58.1737 18.7606 58.9054 19.4916 59.8201 19.4916H62.991C63.9057 19.4916 64.6374 18.7606 64.6374 17.8469V13.0344C64.6374 12.7298 64.6984 12.4253 64.8813 12.1816L70.3694 2.92222C70.9792 1.7648 70.1865 0.363708 68.9059 0.363708Z" fill="#2E1ED3"/>
<path d="M103.359 0.363708H99.6394C98.9076 0.363708 98.2979 0.972877 98.2979 1.70388V18.0296C98.2979 18.7606 98.9076 19.3698 99.6394 19.3698H103.359C104.091 19.3698 104.701 18.7606 104.701 18.0296V1.70388C104.762 0.972877 104.152 0.363708 103.359 0.363708Z" fill="#2E1ED3"/>
<path d="M122.629 0.363708H107.75C107.018 0.363708 106.408 0.972877 106.408 1.70388V4.01872C106.408 4.74972 107.018 5.35889 107.75 5.35889H110.616C111.347 5.35889 111.957 5.96806 111.957 6.69906V18.0296C111.957 18.7606 112.567 19.3698 113.299 19.3698H117.018C117.75 19.3698 118.36 18.7606 118.36 18.0296V6.69906C118.36 5.96806 118.97 5.35889 119.702 5.35889H122.568C123.299 5.35889 123.909 4.74972 123.909 4.01872V1.70388C123.97 0.972877 123.36 0.363708 122.629 0.363708Z" fill="#2E1ED3"/>
<path d="M54.5758 17.1158L48.5389 3.22679C47.5632 1.03378 45.0021 -0.245473 42.502 0.607364C41.2214 1.03378 40.1848 2.06937 39.636 3.34862C38.5384 5.90713 36.0382 11.6333 35.2455 13.3999C35.1236 13.7045 34.7577 13.9482 34.3918 13.9482H31.4039C30.4892 13.9482 29.7574 13.2172 29.7574 12.3034V9.07481C30.7941 8.83114 31.5258 7.91739 31.5258 6.75997V5.84622H32.3185V6.27263C32.3185 7.30822 33.1722 8.16106 34.2089 8.16106C35.2455 8.16106 36.0992 7.30822 36.0992 6.27263V2.92221C36.0992 1.88662 35.2455 1.03378 34.2089 1.03378C33.1722 1.03378 32.3185 1.88662 32.3185 2.92221V3.34862H31.5258C31.5258 2.06937 30.4282 1.03378 29.1476 1.03378H25.6718C24.3913 1.03378 23.2937 2.06937 23.2937 3.34862H22.5619V2.92221C22.5619 1.88662 21.7082 1.03378 20.6716 1.03378C19.635 1.03378 18.7812 1.88662 18.7812 2.92221V6.27263C18.7812 7.30822 19.635 8.16106 20.6716 8.16106C21.7082 8.16106 22.5619 7.30822 22.5619 6.27263V5.84622H23.2937V7.97831V9.19664V15.0447C23.2937 17.4204 25.245 19.4307 27.6842 19.4307H34.8187H52.1976H53.0513C54.2709 19.4307 55.0636 18.2123 54.5758 17.1158ZM42.441 7.55189C42.0751 7.55189 41.8312 7.18639 41.8312 6.69905C41.8312 6.21172 42.1361 5.84622 42.441 5.84622C42.8069 5.84622 43.0508 6.21172 43.0508 6.69905C43.0508 7.18639 42.8069 7.55189 42.441 7.55189ZM45.7339 7.55189C45.368 7.55189 45.1241 7.18639 45.1241 6.69905C45.1241 6.21172 45.368 5.84622 45.7339 5.84622C46.0997 5.84622 46.3437 6.21172 46.3437 6.69905C46.3437 7.18639 46.0997 7.55189 45.7339 7.55189Z" fill="#2E1ED3"/>
<path d="M94.8829 0.363708H82.0774C81.3456 0.363708 80.7358 0.972877 80.7358 1.70388V18.0296C80.7358 18.7606 81.3456 19.3698 82.0774 19.3698H85.7971C86.5288 19.3698 87.1386 18.7606 87.1386 18.0296V14.6183C87.1386 13.8873 87.7484 13.2781 88.4802 13.2781H93.7243C94.4561 13.2781 95.0659 12.6689 95.0659 11.9379V9.80582C95.0659 9.07482 94.4561 8.46565 93.7243 8.46565H93.4804H88.2972C87.6265 8.46565 87.1386 7.9174 87.1386 7.30823V6.33356C87.1386 5.66348 87.6874 5.17614 88.2972 5.17614H93.4804H94.822C95.5537 5.17614 96.1635 4.56697 96.1635 3.83597V1.70388C96.2854 0.972877 95.6757 0.363708 94.8829 0.363708Z" fill="#2E1ED3"/>
</svg>
