<svg width="25" height="28" viewBox="0 0 25 28" fill="none" xmlns="http://www.w3.org/2000/svg">
<path d="M19.3076 3.56791C19.3076 3.45384 19.3076 3.22571 19.3076 3.11164C19.0794 1.5147 17.8247 0.145898 16.1137 0.0318312C14.4026 -0.196303 13.0338 0.830301 12.3494 2.19911C12.0072 2.99758 11.3228 3.56791 10.4103 3.68198C4.36467 4.59451 -0.426178 10.0697 0.0300934 16.5716C0.486365 22.503 5.27721 27.4079 11.3228 27.8642C18.395 28.3205 24.3265 22.7312 24.3265 15.7731C24.3265 12.4651 22.9577 9.4994 20.9045 7.33212C19.8779 6.30552 19.3076 4.93672 19.3076 3.56791Z" fill="#2E1ED3"/>
<path d="M9.61182 13.948C10.1788 13.948 10.6384 13.3352 10.6384 12.5792C10.6384 11.8232 10.1788 11.2104 9.61182 11.2104C9.04483 11.2104 8.58521 11.8232 8.58521 12.5792C8.58521 13.3352 9.04483 13.948 9.61182 13.948Z" fill="white"/>
<path d="M14.7448 13.948C15.3117 13.948 15.7712 13.3352 15.7712 12.5792C15.7712 11.8232 15.3117 11.2104 14.7448 11.2104C14.1778 11.2104 13.7183 11.8232 13.7183 12.5792C13.7183 13.3352 14.1778 13.948 14.7448 13.948Z" fill="white"/>
</svg>
