<?xml version="1.0" encoding="utf-8"?>
<!-- Generator: Adobe Illustrator 23.0.3, SVG Export Plug-In . SVG Version: 6.00 Build 0)  -->
<svg version="1.1" id="圖層_1" xmlns="http://www.w3.org/2000/svg" xmlns:xlink="http://www.w3.org/1999/xlink" x="0px" y="0px"
	 viewBox="0 0 300 350" style="enable-background:new 0 0 300 350;" xml:space="preserve">
<style type="text/css">
	.st0{fill:#A52224;}
	.st1{fill:#D93030;}
	.st2{fill:none;stroke:#18191F;stroke-width:4.2762;stroke-linecap:round;stroke-linejoin:round;stroke-miterlimit:10;}
	.st3{fill:#E83C3C;}
	.st4{fill:none;stroke:#18191F;stroke-width:5.4044;stroke-linecap:round;stroke-linejoin:round;stroke-miterlimit:10;}
	.st5{fill:#F08E93;}
	.st6{fill:#18191F;}
	.st7{fill:#FF353B;}
	.st8{fill:#FFFFFF;}
	.st9{fill:#23B5F3;}
	.st10{fill:#CCCCFF;}
	.st11{fill:#6460FF;}
	.st12{fill:#DB9451;}
	.st13{fill:#F4B55E;}
	.st14{fill:#EC6519;}
	.st15{fill:#EF7C33;}
	.st16{fill:#CCCCCC;}
	.st17{fill:#E6E6E5;}
	.st18{fill:#B75320;}
	.st19{fill:#B3B3B3;}
	.st20{fill-rule:evenodd;clip-rule:evenodd;fill:#4D4D4D;}
	.st21{fill:#4D4D4D;}
	.st22{fill:#323333;}
	.st23{fill:#9C4623;}
	.st24{fill-rule:evenodd;clip-rule:evenodd;fill:#CBE8F0;}
	.st25{fill-rule:evenodd;clip-rule:evenodd;fill:#E1F0F3;}
	.st26{fill-rule:evenodd;clip-rule:evenodd;fill:#9ECCD5;}
	.st27{fill-rule:evenodd;clip-rule:evenodd;fill:#323333;}
	.st28{fill-rule:evenodd;clip-rule:evenodd;fill:#666666;}
	.st29{fill:none;stroke:#F4B55E;stroke-width:2.051;stroke-linecap:round;stroke-linejoin:round;stroke-miterlimit:10;}
	.st30{fill:#C7B79C;}
	.st31{fill:#D4C9B4;}
	.st32{fill:#51524E;}
	.st33{fill:#E1E1E1;}
	.st34{fill:#43312B;}
	.st35{fill:#C6C6C6;}
	.st36{fill:#AAAAAA;}
	.st37{fill:#939393;}
	.st38{fill:#E0E0E0;}
	.st39{fill:#2B451C;}
	.st40{fill:#395527;}
	.st41{fill:none;stroke:#18191F;stroke-width:5.3533;stroke-linecap:round;stroke-linejoin:round;stroke-miterlimit:10;}
	.st42{fill:none;stroke:#18191F;stroke-width:4.5;stroke-linecap:round;stroke-linejoin:round;stroke-miterlimit:10;}
	.st43{fill:none;stroke:#F4B55E;stroke-width:2.378;stroke-linecap:round;stroke-linejoin:round;stroke-miterlimit:10;}
	.st44{fill:none;stroke:#F4B55E;stroke-width:3.459;stroke-linecap:round;stroke-linejoin:round;stroke-miterlimit:10;}
	.st45{fill:#FF9398;}
	.st46{fill:none;stroke:#18191F;stroke-width:4.5;stroke-linecap:round;stroke-miterlimit:10;}
	.st47{fill:none;stroke:#18191F;stroke-width:4.0241;stroke-linecap:round;stroke-linejoin:round;stroke-miterlimit:10;}
	.st48{fill:none;stroke:#F4B55E;stroke-width:1.5623;stroke-linecap:round;stroke-linejoin:round;stroke-miterlimit:10;}
	.st49{fill:none;stroke:#18191F;stroke-width:3.0579;stroke-linecap:round;stroke-linejoin:round;stroke-miterlimit:10;}
	.st50{fill:none;stroke:#18191F;stroke-width:2.7483;stroke-linecap:round;stroke-linejoin:round;stroke-miterlimit:10;}
</style>
<path class="st30" d="M140.8,15.6c0-0.6,0.6-0.8,0.9-1.2c1.7-1.9,3.4-3.9,5.3-5.7c3.6-3.5,8.2-5.6,13.6-6.4c4.4-0.7,8.8,0,13,1.9
	c4.7,2.2,8.3,5.4,11.1,9.5c2.7,3.8,4.3,7.9,5.2,12.3c0.3,1.5,0.7,2.9,1,4.3c-0.8,0.3-1.6,0.2-2.5,0.3c-3.7,0.5-7.5,0.8-11.3,0.6
	c-4.5-0.2-9-0.9-13.4-2.3c-7.1-2.2-13.5-5.8-19.2-10.4c-0.9-0.8-1.7-1.6-2.6-2.4C141.6,15.7,141.3,15.6,140.8,15.6z"/>
<path class="st31" d="M190.8,34.6c2.4,3.2,4.7,6.5,7.1,9.7c0.3,0.4,0.6,0.8,0.8,1.3c-0.2,0.2-0.4,0.2-0.7,0.3
	c-8.9,1.9-18,2.4-27.3,0.4c-3.6-0.8-7.1-1.7-10.5-3.1c-2.2-0.9-4.5-1.7-6.7-2.6c-7.6-3.2-14.8-7.2-21.1-12.4c-1.6-1.3-3-2.6-4.3-4.2
	c1-0.7,2.1-1.1,3.3-1.6c3.1-1.4,6-3.1,8.5-5.2c0.3,0.4,0.1,0.7-0.1,1c-0.7,0.9-0.5,1.8,0.2,2.7c1.6,2.3,3.6,4.3,5.9,6
	c2.9,2.2,6.1,3.9,9.4,5.4c5.1,2.3,10.4,3.9,15.9,5c4.3,0.9,8.7,1.4,13,0.6c2.4-0.4,4.6-1.2,6.2-3C190.4,34.7,190.6,34.6,190.8,34.6z
	"/>
<path class="st30" d="M128.2,24c0.3,0.1,0.6,0.3,0.8,0.6c4,4.3,8.9,7.5,14,10.5c2.7,1.6,5.6,3,8.4,4.3c3.8,1.8,7.7,3.3,11.7,4.6
	c6.9,2.3,14,3.5,21.3,3.4c4.5-0.1,8.9-0.7,13.2-1.6c0.4-0.1,0.8-0.1,1.2-0.2c0.1,0.2,0.3,0.4,0.4,0.6c0.5,0.8,0.2,1.3-0.7,1.5
	c-1.7,0.5-3.4,1.1-5.1,1.7c-6.7,2.3-13.7,3.4-21.2,2.8c-3.9-0.3-7.7-1-11.5-2.2c-3.2-1-6.2-2.1-9.3-3.4c-7.7-3.4-14.7-7.8-20.6-13.6
	c-2.1-2.1-3.6-4.4-5.4-6.7c-0.3-0.3-0.1-0.5,0.1-0.7C126.3,25,127.2,24.4,128.2,24z"/>
<path class="st32" d="M190.8,34.6c-1.5,2.2-4,3-6.6,3.5c-3.7,0.7-7.4,0.4-11.1-0.3c-8.9-1.6-17.4-4.4-25.1-9.2
	c-3.4-2.2-6.4-4.8-8.5-8.1c-0.5-0.7-0.5-1.3-0.1-2c0.3-0.4,0.4-0.8,0.6-1.3c0.3-0.6,0.6-1.1,0.9-1.7c0.3-0.5,0.6-0.5,1,0
	c2.9,3,6.3,5.5,9.9,7.6c3.7,2.2,7.6,4,11.8,5.3c8.4,2.7,16.7,2.9,25,1.8c0.8-0.1,1.5-0.2,2.3-0.1C190.9,31.7,190.8,33.2,190.8,34.6z
	"/>
<path class="st33" d="M167.3,25.6c-0.5,1.4-1.7,1.8-3.3,1.2c-1.2-0.5-1.8-1.8-1.3-3c0.5-1.2,2-1.7,3.4-1.1
	C167.2,23.1,167.7,24.4,167.3,25.6z"/>
<path class="st33" d="M155.1,21.2c0.4-1.5,1.8-1.5,3.4-1.1c1.1,0.3,1.7,1.8,1.3,3c-0.5,1.2-1.7,1.7-3.1,1.1
	C155.1,23.6,154.6,22.5,155.1,21.2z"/>
<path class="st34" d="M166.6,25.3c-0.3,0.9-1.2,1.2-2.2,0.9c-0.9-0.3-1.4-1.3-1-2.1c0.3-0.8,1.4-1.2,2.3-0.9
	C166.6,23.5,167,24.4,166.6,25.3z"/>
<path class="st34" d="M159,22.7c-0.3,0.9-1.2,1.3-2.2,0.9c-0.9-0.3-1.4-1.3-1.1-2.1c0.3-0.8,1.4-1.2,2.3-0.9
	C158.9,20.9,159.3,21.8,159,22.7z"/>
</svg>
