<?xml version="1.0" encoding="utf-8"?>
<!-- Generator: Adobe Illustrator 23.0.3, SVG Export Plug-In . SVG Version: 6.00 Build 0)  -->
<svg version="1.1" id="圖層_1" xmlns="http://www.w3.org/2000/svg" xmlns:xlink="http://www.w3.org/1999/xlink" x="0px" y="0px"
	 viewBox="0 0 300 350" style="enable-background:new 0 0 300 350;" xml:space="preserve">
<style type="text/css">
	.st0{fill:#A52224;}
	.st1{fill:#D93030;}
	.st2{fill:none;stroke:#18191F;stroke-width:4.2762;stroke-linecap:round;stroke-linejoin:round;stroke-miterlimit:10;}
	.st3{fill:#E83C3C;}
	.st4{fill:none;stroke:#18191F;stroke-width:5.4044;stroke-linecap:round;stroke-linejoin:round;stroke-miterlimit:10;}
	.st5{fill:#F08E93;}
	.st6{fill:#18191F;}
	.st7{fill:#FF353B;}
	.st8{fill:#FFFFFF;}
	.st9{fill:#23B5F3;}
	.st10{fill:#CCCCFF;}
	.st11{fill:#6460FF;}
	.st12{fill:#DB9451;}
	.st13{fill:#F4B55E;}
	.st14{fill:#EC6519;}
	.st15{fill:#EF7C33;}
	.st16{fill:#CCCCCC;}
	.st17{fill:#E6E6E5;}
	.st18{fill:#B75320;}
	.st19{fill:#B3B3B3;}
	.st20{fill-rule:evenodd;clip-rule:evenodd;fill:#4D4D4D;}
	.st21{fill:#4D4D4D;}
	.st22{fill:#323333;}
	.st23{fill:#9C4623;}
	.st24{fill-rule:evenodd;clip-rule:evenodd;fill:#CBE8F0;}
	.st25{fill-rule:evenodd;clip-rule:evenodd;fill:#E1F0F3;}
	.st26{fill-rule:evenodd;clip-rule:evenodd;fill:#9ECCD5;}
	.st27{fill-rule:evenodd;clip-rule:evenodd;fill:#323333;}
	.st28{fill-rule:evenodd;clip-rule:evenodd;fill:#666666;}
	.st29{fill:none;stroke:#F4B55E;stroke-width:2.051;stroke-linecap:round;stroke-linejoin:round;stroke-miterlimit:10;}
	.st30{fill:#C7B79C;}
	.st31{fill:#D4C9B4;}
	.st32{fill:#51524E;}
	.st33{fill:#E1E1E1;}
	.st34{fill:#43312B;}
	.st35{fill:#C6C6C6;}
	.st36{fill:#AAAAAA;}
	.st37{fill:#939393;}
	.st38{fill:#E0E0E0;}
	.st39{fill:#2B451C;}
	.st40{fill:#395527;}
	.st41{fill:none;stroke:#18191F;stroke-width:5.3533;stroke-linecap:round;stroke-linejoin:round;stroke-miterlimit:10;}
	.st42{fill:none;stroke:#18191F;stroke-width:4.5;stroke-linecap:round;stroke-linejoin:round;stroke-miterlimit:10;}
	.st43{fill:none;stroke:#F4B55E;stroke-width:2.378;stroke-linecap:round;stroke-linejoin:round;stroke-miterlimit:10;}
	.st44{fill:none;stroke:#F4B55E;stroke-width:3.459;stroke-linecap:round;stroke-linejoin:round;stroke-miterlimit:10;}
	.st45{fill:#FF9398;}
	.st46{fill:none;stroke:#18191F;stroke-width:4.5;stroke-linecap:round;stroke-miterlimit:10;}
	.st47{fill:none;stroke:#18191F;stroke-width:4.0241;stroke-linecap:round;stroke-linejoin:round;stroke-miterlimit:10;}
	.st48{fill:none;stroke:#F4B55E;stroke-width:1.5623;stroke-linecap:round;stroke-linejoin:round;stroke-miterlimit:10;}
	.st49{fill:none;stroke:#18191F;stroke-width:3.0579;stroke-linecap:round;stroke-linejoin:round;stroke-miterlimit:10;}
	.st50{fill:none;stroke:#18191F;stroke-width:2.7483;stroke-linecap:round;stroke-linejoin:round;stroke-miterlimit:10;}
</style>
<path class="st30" d="M55.8,39.3c-0.5-0.4-0.3-1.1-0.4-1.6c-0.4-2.8-1-5.5-1.3-8.4c-0.5-5.5,0.8-10.8,3.8-15.9
	c2.4-4.2,5.9-7.5,10.4-9.7c5-2.5,10.2-3.3,15.5-3c5.1,0.3,9.7,1.7,13.9,3.9c1.4,0.7,2.9,1.4,4.4,2.1c-0.2,0.9-0.9,1.5-1.4,2.3
	c-2.1,3.5-4.4,6.8-7.1,10c-3.2,3.7-6.9,7-11,9.8c-6.7,4.5-14,7.5-21.8,9.2c-1.3,0.3-2.6,0.3-3.8,0.6C56.4,38.7,56.1,38.9,55.8,39.3z
	"/>
<path class="st31" d="M105.7,9.8c4.4,0.2,8.7,0.4,13.1,0.6c0.5,0,1.1,0.1,1.6,0.2c0,0.3-0.1,0.5-0.2,0.8
	c-4.4,8.9-10.2,16.8-18.2,23.3c-3.1,2.5-6.2,4.8-9.7,6.8c-2.3,1.3-4.5,2.7-6.8,3.9c-7.9,4.3-16.1,7.6-24.8,9.5
	c-2.1,0.5-4.3,0.8-6.4,0.8c0-1.3,0.5-2.6,0.8-3.8c0.9-3.6,1.4-7.1,1.4-10.7c0.5,0,0.6,0.4,0.7,0.8c0.3,1.2,1.2,1.6,2.4,1.7
	c3,0.2,6-0.2,9-0.9c3.8-1,7.4-2.6,10.9-4.4c5.4-2.8,10.4-6.2,15-10.1c3.7-3.1,7-6.4,9.3-10.6c1.3-2.3,2.1-4.7,1.7-7.2
	C105.6,10.2,105.6,10,105.7,9.8z"/>
<path class="st30" d="M54.4,55.7c0.3-0.2,0.7-0.2,1-0.3c6.3-0.5,12.4-2.4,18.4-4.8c3.2-1.2,6.3-2.7,9.3-4.2c4.1-2,8-4.3,11.8-6.8
	c6.6-4.3,12.5-9.5,17.3-15.7c3-3.9,5.4-8,7.6-12.3c0.2-0.4,0.5-0.7,0.7-1.1c0.3,0,0.6,0,0.8,0.1c1,0.2,1.2,0.7,0.8,1.6
	c-0.7,1.8-1.4,3.6-2.1,5.5c-2.6,7.2-6.4,14-12,19.9c-2.9,3.1-6.1,5.8-9.7,8.2c-3,2-6,3.8-9.2,5.5c-8.1,4.3-16.6,7.2-25.5,8.2
	c-3.1,0.4-6.2,0.1-9.3,0.1c-0.5,0-0.5-0.2-0.5-0.6C53.9,57.9,54,56.8,54.4,55.7z"/>
<path class="st32" d="M105.7,9.8c0.8,2.8-0.2,5.4-1.6,8c-1.9,3.5-4.7,6.5-7.8,9.3C89,33.5,80.9,38.8,71.6,42
	c-4.1,1.4-8.4,2.1-12.6,1.8c-0.9-0.1-1.5-0.4-1.8-1.2c-0.2-0.5-0.4-0.9-0.7-1.4c-0.3-0.6-0.5-1.3-0.8-1.9c-0.2-0.6,0-0.8,0.7-0.9
	c4.5-0.5,8.9-1.6,13.2-3.2c4.4-1.6,8.6-3.7,12.5-6.3c8-5.2,13.8-12.2,18.5-20c0.4-0.7,0.9-1.4,1.5-2C103.3,7.8,104.6,8.8,105.7,9.8z
	"/>
<path class="st33" d="M82.2,23.6c0.8,1.4,0.4,2.7-1.3,3.6c-1.2,0.7-2.7,0.3-3.4-0.9c-0.7-1.2-0.1-2.9,1.4-3.7
	C80,22,81.5,22.5,82.2,23.6z"/>
<path class="st33" d="M70.1,31c-1-1.4-0.1-2.5,1.3-3.6c1-0.8,2.7-0.2,3.4,1c0.7,1.3,0.3,2.6-1.2,3.4C72.2,32.6,70.9,32.3,70.1,31z"
	/>
<path class="st34" d="M81.5,24c0.5,0.9,0.2,1.9-0.7,2.5c-0.9,0.6-2,0.3-2.5-0.6c-0.5-0.9-0.1-2,0.8-2.6C79.9,22.8,81,23.1,81.5,24z"
	/>
<path class="st34" d="M74.1,28.7c0.5,0.9,0.2,1.9-0.7,2.5c-0.9,0.5-2,0.3-2.5-0.6c-0.5-0.8-0.1-2,0.8-2.6
	C72.5,27.5,73.5,27.8,74.1,28.7z"/>
</svg>
