<?xml version="1.0" encoding="utf-8"?>
<!-- Generator: Adobe Illustrator 23.0.3, SVG Export Plug-In . SVG Version: 6.00 Build 0)  -->
<svg version="1.1" id="圖層_1" xmlns="http://www.w3.org/2000/svg" xmlns:xlink="http://www.w3.org/1999/xlink" x="0px" y="0px"
	 viewBox="0 0 300 350" style="enable-background:new 0 0 300 350;" xml:space="preserve">
<style type="text/css">
	.st0{fill:#A52224;}
	.st1{fill:#D93030;}
	.st2{fill:none;stroke:#18191F;stroke-width:4.2762;stroke-linecap:round;stroke-linejoin:round;stroke-miterlimit:10;}
	.st3{fill:#E83C3C;}
	.st4{fill:none;stroke:#18191F;stroke-width:5.4044;stroke-linecap:round;stroke-linejoin:round;stroke-miterlimit:10;}
	.st5{fill:#F08E93;}
	.st6{fill:#18191F;}
	.st7{fill:#FF353B;}
	.st8{fill:#FFFFFF;}
	.st9{fill:#23B5F3;}
	.st10{fill:#CCCCFF;}
	.st11{fill:#6460FF;}
	.st12{fill:#DB9451;}
	.st13{fill:#F4B55E;}
	.st14{fill:#EC6519;}
	.st15{fill:#EF7C33;}
	.st16{fill:#CCCCCC;}
	.st17{fill:#E6E6E5;}
	.st18{fill:#B75320;}
	.st19{fill:#B3B3B3;}
	.st20{fill-rule:evenodd;clip-rule:evenodd;fill:#4D4D4D;}
	.st21{fill:#4D4D4D;}
	.st22{fill:#323333;}
	.st23{fill:#9C4623;}
	.st24{fill-rule:evenodd;clip-rule:evenodd;fill:#CBE8F0;}
	.st25{fill-rule:evenodd;clip-rule:evenodd;fill:#E1F0F3;}
	.st26{fill-rule:evenodd;clip-rule:evenodd;fill:#9ECCD5;}
	.st27{fill-rule:evenodd;clip-rule:evenodd;fill:#323333;}
	.st28{fill-rule:evenodd;clip-rule:evenodd;fill:#666666;}
	.st29{fill:none;stroke:#F4B55E;stroke-width:2.051;stroke-linecap:round;stroke-linejoin:round;stroke-miterlimit:10;}
	.st30{fill:#C7B79C;}
	.st31{fill:#D4C9B4;}
	.st32{fill:#51524E;}
	.st33{fill:#E1E1E1;}
	.st34{fill:#43312B;}
	.st35{fill:#C6C6C6;}
	.st36{fill:#AAAAAA;}
	.st37{fill:#939393;}
	.st38{fill:#E0E0E0;}
	.st39{fill:#2B451C;}
	.st40{fill:#395527;}
	.st41{fill:none;stroke:#18191F;stroke-width:5.3533;stroke-linecap:round;stroke-linejoin:round;stroke-miterlimit:10;}
	.st42{fill:none;stroke:#18191F;stroke-width:4.5;stroke-linecap:round;stroke-linejoin:round;stroke-miterlimit:10;}
	.st43{fill:none;stroke:#F4B55E;stroke-width:2.378;stroke-linecap:round;stroke-linejoin:round;stroke-miterlimit:10;}
	.st44{fill:none;stroke:#F4B55E;stroke-width:3.459;stroke-linecap:round;stroke-linejoin:round;stroke-miterlimit:10;}
	.st45{fill:#FF9398;}
	.st46{fill:none;stroke:#18191F;stroke-width:4.5;stroke-linecap:round;stroke-miterlimit:10;}
	.st47{fill:none;stroke:#18191F;stroke-width:4.0241;stroke-linecap:round;stroke-linejoin:round;stroke-miterlimit:10;}
	.st48{fill:none;stroke:#F4B55E;stroke-width:1.5623;stroke-linecap:round;stroke-linejoin:round;stroke-miterlimit:10;}
	.st49{fill:none;stroke:#18191F;stroke-width:3.0579;stroke-linecap:round;stroke-linejoin:round;stroke-miterlimit:10;}
	.st50{fill:none;stroke:#18191F;stroke-width:2.7483;stroke-linecap:round;stroke-linejoin:round;stroke-miterlimit:10;}
</style>
<path class="st35" d="M138.6,130.5c1.3-0.7,2.7-1.4,4-2.2c3.8-2.1,7.5-4.1,11.3-6.2c2.5-1.4,5.2-1,7.2,1c1.3,1.3,1.7,3,1.8,4.9
	c0.2,4.4,0.5,8.7,0.7,13.1c0,0.1,0,0.2,0,0.3c-0.2,0-0.2-0.1-0.3-0.2c-0.4-1.3-1.4-2-2.4-2.5c-1.7-0.9-3.5-1.2-5.4-1.4
	c-4.5-0.4-8.8,0.7-13,2.1c-1.1,0.3-2.1,0.7-3.2,1.1c-0.3,0.1-0.5,0.2-0.8,0.1c-0.3-0.2-0.2-0.5-0.2-0.7c0.1-2.2,0.1-4.4,0.2-6.7
	c0-0.7,0.1-1.3-0.1-2C138.5,130.9,138.4,130.7,138.6,130.5z"/>
<path class="st35" d="M103.9,139.9c0.2-1.9,0.4-3.7,0.6-5.5c0.3-2.8,0.6-5.7,0.9-8.5c0.5-4.6,5.1-7.2,8.9-5c3.1,1.8,6.2,3.8,9.3,5.7
	c1.9,1.2,3.8,2.4,5.7,3.6c0,0,0.1,0,0.2,0c0.1,0.1,0.1,0.2,0.1,0.3c-0.4,2.8-0.2,5.7-0.4,8.5c0,0.4,0,0.8-0.2,1.1
	c-0.3,0.2-0.6,0-0.9-0.1c-3.1-1.3-6.2-2.5-9.4-3.3c-3.4-0.8-6.8-1-10.2-0.2c-1.3,0.3-2.6,0.7-3.5,1.8c-0.3,0.4-0.7,0.7-0.8,1.2
	C104.2,139.7,104.1,139.9,103.9,139.9z"/>
<path class="st36" d="M145.8,144.9c0.2,0.9,0.6,1.6,1,2.4c2.3,5,4.5,10,6.8,15c0.1,0.2,0.2,0.4,0.3,0.7c-0.3,0.1-0.5-0.1-0.6-0.2
	c-2.2-1.3-4.4-2.5-6.5-3.8c-0.4-0.2-0.6-0.3-0.6,0.3c-0.4,2.7-0.9,5.4-1.3,8.2c0,0.2-0.1,0.3-0.1,0.4c-0.2,0-0.2-0.2-0.3-0.3
	c-3.6-7.9-7.1-15.8-10.7-23.7c0-0.1-0.1-0.2-0.1-0.3c0-0.1-0.1-0.2-0.1-0.3c-0.3-0.5-0.2-0.6,0.3-0.7c0.4,0,0.8,0,1.1,0
	c0.9,0.1,1.8-0.2,2.4-0.9c0.2-0.2,0.3-0.4,0.6-0.4c0.7,0.6,1.6,0.9,2.4,1.2c1.6,0.7,3.2,1.3,4.9,1.9
	C145.5,144.6,145.7,144.7,145.8,144.9z"/>
<path class="st36" d="M133.1,143.5c-1.1,2.1-2.2,4.3-3.3,6.4c-2.9,5.6-5.8,11.2-8.8,16.9c-0.1,0.2-0.2,0.4-0.4,0.7
	c-0.2-1.4-0.3-2.6-0.4-3.8c-0.2-1.7-0.3-3.4-0.5-5.1c0-0.5-0.2-0.6-0.6-0.4c-2.3,1.2-4.5,2.3-6.8,3.4c-0.2,0.1-0.4,0.2-0.6,0.3
	c-0.1-0.3,0.1-0.4,0.2-0.6c2.8-5.4,5.6-10.8,8.4-16.2c0.1-0.2,0.3-0.4,0.2-0.7c0.2-0.4,0.5-0.3,0.8-0.4c2.4-0.6,4.8-1.4,7.1-2.3
	c0.4-0.1,0.6-0.4,0.7-0.8c0.4,0,0.6,0.4,0.7,0.6c0.4,0.8,1.1,0.9,1.8,1.1c0.3,0.1,0.6,0,0.8,0C133.3,142.7,133.4,142.8,133.1,143.5z
	"/>
<path class="st37" d="M129.3,141c0.2,0.4,0,0.6-0.4,0.8c-2.6,1-5.2,1.9-7.9,2.5c-0.1,0-0.3,0.1-0.4,0.1c-2.6,0.6-5.2,1.1-7.8,0.9
	c-2.2-0.2-4.3-0.5-6.4-1.5c-0.8-0.4-1.6-0.9-2.1-1.8c-0.4-0.7-0.7-1.4-0.4-2.2c0.5-2.1,2.2-2.7,3.9-3.3c1.4-0.5,2.9-0.6,4.4-0.7
	c4-0.2,7.7,0.9,11.5,2.2c1.7,0.6,3.5,1.4,5.2,2.1C129.3,140.2,129.4,140.5,129.3,141z"/>
<path class="st37" d="M145.8,144.9c-2.5-0.8-4.9-1.8-7.3-2.8c-0.2-0.1-0.5-0.2-0.4-0.6c0-0.5,0.2-0.9,0.7-1.1
	c3.7-1.4,7.4-2.6,11.2-3.2c2.5-0.4,5.1-0.3,7.6,0.1c1.5,0.3,2.9,0.7,4.2,1.6c0.9,0.6,1.6,1.3,1.9,2.5c0.2,1.3-0.3,2.2-1.2,3
	c-1.5,1.3-3.3,1.7-5.1,1.9c-3.5,0.5-7,0-10.4-1C146.5,145.1,146.1,145,145.8,144.9z"/>
<path class="st38" d="M138.7,140.4c-0.4,0.3-0.4,0.7-0.7,1.1c-0.2,0.2-0.4,0.3-0.6,0.5c-0.6,0.7-1.3,1-2.2,0.9c-0.4,0-0.7,0-1.1,0
	c-0.7,0-0.7,0-0.6,0.7c-0.1-0.1-0.2-0.5-0.5-0.2c0.1-0.6-0.2-0.7-0.6-0.6c-0.5,0-1,0-1.4-0.2c-0.5-0.2-0.9-0.4-1.2-0.9
	c-0.1-0.2-0.3-0.6-0.6-0.7c-0.2-0.3-0.2-0.7-0.5-0.8c0.2-0.2,0.1-0.5,0.1-0.7c0.1-2.3,0.1-4.6,0.2-7c0-0.8,0-1.5,0.3-2.3
	c0.5-1.3,1.5-2,2.8-2c1.2,0,2.4,0,3.6,0.1c1.4,0.1,2.2,0.8,2.7,2.2c0.2,0.8,0.2,1.6,0.2,2.4c-0.1,2.5-0.2,4.9-0.3,7.3
	C138.5,140.4,138.6,140.4,138.7,140.4z"/>
</svg>
