<?xml version="1.0" encoding="utf-8"?>
<!-- Generator: Adobe Illustrator 23.0.3, SVG Export Plug-In . SVG Version: 6.00 Build 0)  -->
<svg version="1.1" id="圖層_1" xmlns="http://www.w3.org/2000/svg" xmlns:xlink="http://www.w3.org/1999/xlink" x="0px" y="0px"
	 viewBox="0 0 300 350" style="enable-background:new 0 0 300 350;" xml:space="preserve">
<style type="text/css">
	.st0{fill:#A52224;}
	.st1{fill:#D93030;}
	.st2{fill:none;stroke:#18191F;stroke-width:4.2762;stroke-linecap:round;stroke-linejoin:round;stroke-miterlimit:10;}
	.st3{fill:#E83C3C;}
	.st4{fill:none;stroke:#18191F;stroke-width:5.4044;stroke-linecap:round;stroke-linejoin:round;stroke-miterlimit:10;}
	.st5{fill:#F08E93;}
	.st6{fill:#18191F;}
	.st7{fill:#FF353B;}
	.st8{fill:#FFFFFF;}
	.st9{fill:#23B5F3;}
	.st10{fill:#CCCCFF;}
	.st11{fill:#6460FF;}
	.st12{fill:#DB9451;}
	.st13{fill:#F4B55E;}
	.st14{fill:#EC6519;}
	.st15{fill:#EF7C33;}
	.st16{fill:#CCCCCC;}
	.st17{fill:#E6E6E5;}
	.st18{fill:#B75320;}
	.st19{fill:#B3B3B3;}
	.st20{fill-rule:evenodd;clip-rule:evenodd;fill:#4D4D4D;}
	.st21{fill:#4D4D4D;}
	.st22{fill:#323333;}
	.st23{fill:#9C4623;}
	.st24{fill-rule:evenodd;clip-rule:evenodd;fill:#CBE8F0;}
	.st25{fill-rule:evenodd;clip-rule:evenodd;fill:#E1F0F3;}
	.st26{fill-rule:evenodd;clip-rule:evenodd;fill:#9ECCD5;}
	.st27{fill-rule:evenodd;clip-rule:evenodd;fill:#323333;}
	.st28{fill-rule:evenodd;clip-rule:evenodd;fill:#666666;}
	.st29{fill:none;stroke:#F4B55E;stroke-width:2.051;stroke-linecap:round;stroke-linejoin:round;stroke-miterlimit:10;}
	.st30{fill:#C7B79C;}
	.st31{fill:#D4C9B4;}
	.st32{fill:#51524E;}
	.st33{fill:#E1E1E1;}
	.st34{fill:#43312B;}
	.st35{fill:#C6C6C6;}
	.st36{fill:#AAAAAA;}
	.st37{fill:#939393;}
	.st38{fill:#E0E0E0;}
	.st39{fill:#2B451C;}
	.st40{fill:#395527;}
	.st41{fill:none;stroke:#18191F;stroke-width:5.3533;stroke-linecap:round;stroke-linejoin:round;stroke-miterlimit:10;}
	.st42{fill:none;stroke:#18191F;stroke-width:4.5;stroke-linecap:round;stroke-linejoin:round;stroke-miterlimit:10;}
	.st43{fill:none;stroke:#F4B55E;stroke-width:2.378;stroke-linecap:round;stroke-linejoin:round;stroke-miterlimit:10;}
	.st44{fill:none;stroke:#F4B55E;stroke-width:3.459;stroke-linecap:round;stroke-linejoin:round;stroke-miterlimit:10;}
	.st45{fill:#FF9398;}
	.st46{fill:none;stroke:#18191F;stroke-width:4.5;stroke-linecap:round;stroke-miterlimit:10;}
	.st47{fill:none;stroke:#18191F;stroke-width:4.0241;stroke-linecap:round;stroke-linejoin:round;stroke-miterlimit:10;}
	.st48{fill:none;stroke:#F4B55E;stroke-width:1.5623;stroke-linecap:round;stroke-linejoin:round;stroke-miterlimit:10;}
	.st49{fill:none;stroke:#18191F;stroke-width:3.0579;stroke-linecap:round;stroke-linejoin:round;stroke-miterlimit:10;}
	.st50{fill:none;stroke:#18191F;stroke-width:2.7483;stroke-linecap:round;stroke-linejoin:round;stroke-miterlimit:10;}
</style>
<path class="st6" d="M141.5,130.8l-4.9,2.6c-0.6,0.3-1.2,0.1-1.6-0.4c-1.2-1.5-3-2.5-5-2.5c-2.1-0.1-3.9,0.8-5.1,2.3
	c-0.4,0.5-1.1,0.7-1.6,0.3l-4.7-2.9l-8.1-5c-1.4-0.9-3.3,0.1-3.4,1.8c2.6,6.1,2.4,13-0.5,18.9c0,1.7,1.8,2.8,3.3,2l8.3-4.5l4.9-2.6
	c0.6-0.3,1.2-0.1,1.6,0.4c1.2,1.5,3,2.5,5,2.5c2.1,0.1,3.9-0.8,5.1-2.3c0.4-0.5,1.1-0.7,1.6-0.3l4.7,2.9l8.1,5
	c1.4,0.9,3.3-0.1,3.4-1.8c-2.6-6.1-2.4-13,0.5-18.9c0-1.7-1.8-2.8-3.3-2L141.5,130.8z"/>
</svg>
