<?xml version="1.0" encoding="utf-8"?>
<!-- Generator: Adobe Illustrator 23.0.3, SVG Export Plug-In . SVG Version: 6.00 Build 0)  -->
<svg version="1.1" id="圖層_1" xmlns="http://www.w3.org/2000/svg" xmlns:xlink="http://www.w3.org/1999/xlink" x="0px" y="0px"
	 viewBox="0 0 300 350" style="enable-background:new 0 0 300 350;" xml:space="preserve">
<style type="text/css">
	.st0{fill:#A52224;}
	.st1{fill:#D93030;}
	.st2{fill:none;stroke:#18191F;stroke-width:4.2762;stroke-linecap:round;stroke-linejoin:round;stroke-miterlimit:10;}
	.st3{fill:#E83C3C;}
	.st4{fill:none;stroke:#18191F;stroke-width:5.4044;stroke-linecap:round;stroke-linejoin:round;stroke-miterlimit:10;}
	.st5{fill:#F08E93;}
	.st6{fill:#18191F;}
	.st7{fill:#FF353B;}
	.st8{fill:#FFFFFF;}
	.st9{fill:#23B5F3;}
	.st10{fill:#CCCCFF;}
	.st11{fill:#6460FF;}
	.st12{fill:#DB9451;}
	.st13{fill:#F4B55E;}
	.st14{fill:#EC6519;}
	.st15{fill:#EF7C33;}
	.st16{fill:#CCCCCC;}
	.st17{fill:#E6E6E5;}
	.st18{fill:#B75320;}
	.st19{fill:#B3B3B3;}
	.st20{fill-rule:evenodd;clip-rule:evenodd;fill:#4D4D4D;}
	.st21{fill:#4D4D4D;}
	.st22{fill:#323333;}
	.st23{fill:#9C4623;}
	.st24{fill-rule:evenodd;clip-rule:evenodd;fill:#CBE8F0;}
	.st25{fill-rule:evenodd;clip-rule:evenodd;fill:#E1F0F3;}
	.st26{fill-rule:evenodd;clip-rule:evenodd;fill:#9ECCD5;}
	.st27{fill-rule:evenodd;clip-rule:evenodd;fill:#323333;}
	.st28{fill-rule:evenodd;clip-rule:evenodd;fill:#666666;}
	.st29{fill:none;stroke:#F4B55E;stroke-width:2.051;stroke-linecap:round;stroke-linejoin:round;stroke-miterlimit:10;}
	.st30{fill:#C7B79C;}
	.st31{fill:#D4C9B4;}
	.st32{fill:#51524E;}
	.st33{fill:#E1E1E1;}
	.st34{fill:#43312B;}
	.st35{fill:#C6C6C6;}
	.st36{fill:#AAAAAA;}
	.st37{fill:#939393;}
	.st38{fill:#E0E0E0;}
	.st39{fill:#2B451C;}
	.st40{fill:#395527;}
	.st41{fill:none;stroke:#18191F;stroke-width:5.3533;stroke-linecap:round;stroke-linejoin:round;stroke-miterlimit:10;}
	.st42{fill:none;stroke:#18191F;stroke-width:4.5;stroke-linecap:round;stroke-linejoin:round;stroke-miterlimit:10;}
	.st43{fill:none;stroke:#F4B55E;stroke-width:2.378;stroke-linecap:round;stroke-linejoin:round;stroke-miterlimit:10;}
	.st44{fill:none;stroke:#F4B55E;stroke-width:3.459;stroke-linecap:round;stroke-linejoin:round;stroke-miterlimit:10;}
	.st45{fill:#FF9398;}
	.st46{fill:none;stroke:#18191F;stroke-width:4.5;stroke-linecap:round;stroke-miterlimit:10;}
	.st47{fill:none;stroke:#18191F;stroke-width:4.0241;stroke-linecap:round;stroke-linejoin:round;stroke-miterlimit:10;}
	.st48{fill:none;stroke:#F4B55E;stroke-width:1.5623;stroke-linecap:round;stroke-linejoin:round;stroke-miterlimit:10;}
	.st49{fill:none;stroke:#18191F;stroke-width:3.0579;stroke-linecap:round;stroke-linejoin:round;stroke-miterlimit:10;}
	.st50{fill:none;stroke:#18191F;stroke-width:2.7483;stroke-linecap:round;stroke-linejoin:round;stroke-miterlimit:10;}
</style>
<path class="st14" d="M105.9,149.1l53.3,3.6l-2.1,31.5l-53.3-3.6L105.9,149.1z"/>
<path class="st15" d="M152.7,160.1l6,0.4l-1.1,15.8l-6-0.4L152.7,160.1z"/>
<path class="st16" d="M103.8,180.4l53.3,3.6l-0.5,7.8l-53.3-3.6L103.8,180.4z"/>
<path class="st17" d="M151.1,183.6l6,0.4l-0.5,7.8l-6-0.4L151.1,183.6z"/>
<path class="st16" d="M105.9,149.1l53.3,3.6l-0.5,7.8l-53.3-3.6L105.9,149.1z"/>
<path class="st18" d="M105.4,156.9l6,0.4l-1.1,15.8l-6-0.4L105.4,156.9z"/>
<path class="st19" d="M103.8,180.4l6,0.4l-0.5,7.8l-6-0.4L103.8,180.4z"/>
<path class="st20" d="M124.9,146.4c4.8,0.3,11.1,0.8,16,1.1l1.2,4c-5.8-0.4-13.1-0.9-18.9-1.3L124.9,146.4z"/>
<path class="st21" d="M147.8,149.2l6.9,0.5l-0.2,2.7l-6.9-0.5L147.8,149.2z"/>
<path class="st21" d="M110.8,146.7l6.9,0.5l-0.2,2.7l-6.9-0.5L110.8,146.7z"/>
<path class="st22" d="M151.1,149.4l0.5,0l-0.2,2.7l-0.5,0L151.1,149.4z"/>
<path class="st22" d="M153.4,149.5l0.5,0l-0.2,2.7l-0.5,0L153.4,149.5z"/>
<path class="st22" d="M152.2,149.5l0.5,0l-0.2,2.7l-0.5,0L152.2,149.5z"/>
<path class="st22" d="M149.9,149.3l0.5,0l-0.2,2.7l-0.5,0L149.9,149.3z"/>
<path class="st22" d="M148.7,149.2l0.5,0L149,152l-0.5,0L148.7,149.2z"/>
<path class="st18" d="M111.3,157.3l41.4,2.8l-0.1,0.8l-41.4-2.8L111.3,157.3L111.3,157.3z"/>
<path class="st23" d="M105.4,156.9l6,0.4l-0.1,0.8l-6-0.4L105.4,156.9z"/>
<path class="st14" d="M152.7,160.1l6,0.4l-0.1,0.8l-6-0.4L152.7,160.1z"/>
<path class="st18" d="M110.3,172.3l41.4,2.8l-0.1,0.8l-41.4-2.8L110.3,172.3L110.3,172.3z"/>
<path class="st23" d="M104.3,171.9l6,0.4l-0.1,0.8l-6-0.4L104.3,171.9z"/>
<path class="st14" d="M151.7,175.1l6,0.4l-0.1,0.8l-6-0.4L151.7,175.1z"/>
<path class="st21" d="M130.5,180.1c-7.4-0.6-13-7-12.4-14.5c0.6-7.4,7-13,14.5-12.4c7.4,0.6,13,7,12.4,14.5
	C144.4,175.1,137.9,180.6,130.5,180.1z"/>
<path class="st24" d="M121,165.9c0.4-5.8,5.4-10.2,11.3-9.8c5.8,0.4,10.2,5.4,9.8,11.3c-0.4,5.8-5.4,10.2-11.3,9.8
	C125,176.8,120.6,171.7,121,165.9z"/>
<path class="st25" d="M136,164.5c-2.3-2.7-3.9-5.7-4.6-8.4c0.2,0,0.5,0,0.8,0c5.8,0.4,10.2,5.4,9.8,11.3c0,0.7-0.2,1.4-0.3,2.1
	C139.7,168.2,137.7,166.6,136,164.5z"/>
<path class="st26" d="M128.1,166.4c0.1-1.9,1.8-3.4,3.7-3.2c1.9,0.1,3.4,1.8,3.2,3.7c-0.1,1.9-1.8,3.4-3.7,3.2
	C129.4,169.9,127.9,168.3,128.1,166.4z"/>
<path class="st27" d="M124.9,146.4l5,0.3l-1.8,3.8l-4.9-0.3L124.9,146.4z"/>
<path class="st28" d="M159.7,156.8l-0.7,0l0.1-1l1.3,0.1c0.4,0,0.7,0.4,0.7,0.8l-0.2,2.3c0,0.4-0.4,0.8-0.8,0.7l-1.3-0.1l0.1-1
	l0.7,0c0.2,0,0.3-0.2,0.3-0.3l0.1-1.1C160,157,159.9,156.9,159.7,156.8z"/>
<path class="st48" d="M198.1,139.5c0,0-21.9,14.5-40.1,18.3"/>
<path class="st28" d="M104.8,155.1l0.7,0l-0.1,1l-1.3-0.1c-0.4,0-0.7-0.4-0.7-0.8l0.2-2.3c0-0.4,0.4-0.8,0.8-0.7l1.3,0.1l-0.1,1
	l-0.7,0c-0.2,0-0.3,0.2-0.3,0.3l-0.1,1.1C104.4,154.8,104.6,155,104.8,155.1z"/>
<path class="st48" d="M107.3,154.8c0,0-11.2-20.9-11.1-30.6"/>
<path class="st17" d="M153.3,152.3l6,0.4l-0.5,7.8l-6-0.4L153.3,152.3z"/>
<path class="st19" d="M105.9,149.1l6,0.4l-0.5,7.8l-6-0.4L105.9,149.1z"/>
</svg>
