<?xml version="1.0" encoding="utf-8"?>
<!-- Generator: Adobe Illustrator 23.0.3, SVG Export Plug-In . SVG Version: 6.00 Build 0)  -->
<svg version="1.1" id="圖層_1" xmlns="http://www.w3.org/2000/svg" xmlns:xlink="http://www.w3.org/1999/xlink" x="0px" y="0px"
	 viewBox="0 0 300 350" style="enable-background:new 0 0 300 350;" xml:space="preserve">
<style type="text/css">
	.st0{fill:#A52224;}
	.st1{fill:#D93030;}
	.st2{fill:none;stroke:#040000;stroke-width:4.2762;stroke-linecap:round;stroke-linejoin:round;stroke-miterlimit:10;}
	.st3{fill:#E83C3C;}
	.st4{fill:none;stroke:#040000;stroke-width:5.4044;stroke-linecap:round;stroke-linejoin:round;stroke-miterlimit:10;}
	.st5{fill:#6460FF;}
	.st6{fill:#CCCCFF;}
	.st7{fill:url(#SVGID_1_);}
	.st8{fill:#FF353B;}
	.st9{fill:#FFFFFF;}
	.st10{fill:#F08E93;}
	.st11{fill:#DB9451;}
	.st12{fill:#F4B55E;}
	.st13{fill:#EC6519;}
	.st14{fill:#EF7C33;}
	.st15{fill:#CCCCCC;}
	.st16{fill:#E6E6E5;}
	.st17{fill:#B75320;}
	.st18{fill:#B3B3B3;}
	.st19{fill-rule:evenodd;clip-rule:evenodd;fill:#4D4D4D;}
	.st20{fill:#4D4D4D;}
	.st21{fill:#323333;}
	.st22{fill:#9C4623;}
	.st23{fill-rule:evenodd;clip-rule:evenodd;fill:#CBE8F0;}
	.st24{fill-rule:evenodd;clip-rule:evenodd;fill:#E1F0F3;}
	.st25{fill-rule:evenodd;clip-rule:evenodd;fill:#9ECCD5;}
	.st26{fill-rule:evenodd;clip-rule:evenodd;fill:#323333;}
	.st27{fill-rule:evenodd;clip-rule:evenodd;fill:#666666;}
	.st28{fill:none;stroke:#F4B55E;stroke-width:2.051;stroke-linecap:round;stroke-linejoin:round;stroke-miterlimit:10;}
	.st29{fill:#231F20;}
	.st30{fill:#C7B79C;}
	.st31{fill:#D4C9B4;}
	.st32{fill:#51524E;}
	.st33{fill:#E1E1E1;}
	.st34{fill:#43312B;}
	.st35{fill:#C6C6C6;}
	.st36{fill:#AAAAAA;}
	.st37{fill:#939393;}
	.st38{fill:#E0E0E0;}
	.st39{fill:#2B451C;}
	.st40{fill:#395527;}
	.st41{fill:none;stroke:#040000;stroke-width:5.3533;stroke-linecap:round;stroke-linejoin:round;stroke-miterlimit:10;}
	.st42{fill:none;stroke:#040000;stroke-width:4.5;stroke-linecap:round;stroke-linejoin:round;stroke-miterlimit:10;}
	.st43{fill:#040000;}
	.st44{fill:url(#SVGID_2_);}
	.st45{fill:none;stroke:#F4B55E;stroke-width:2.378;stroke-linecap:round;stroke-linejoin:round;stroke-miterlimit:10;}
	.st46{fill:none;stroke:#F4B55E;stroke-width:3.459;stroke-linecap:round;stroke-linejoin:round;stroke-miterlimit:10;}
	.st47{fill:none;stroke:#000000;stroke-width:4.5;stroke-linecap:round;stroke-linejoin:round;stroke-miterlimit:10;}
	.st48{fill:url(#SVGID_3_);}
	.st49{fill:#FF9398;}
	.st50{fill:url(#SVGID_4_);}
	.st51{fill:none;stroke:#000000;stroke-width:4.5;stroke-linecap:round;stroke-miterlimit:10;}
	.st52{fill:url(#SVGID_5_);}
	.st53{fill:none;stroke:#040000;stroke-width:4.0241;stroke-linecap:round;stroke-linejoin:round;stroke-miterlimit:10;}
	.st54{fill:none;stroke:#F4B55E;stroke-width:1.5623;stroke-linecap:round;stroke-linejoin:round;stroke-miterlimit:10;}
	.st55{fill:none;stroke:#040000;stroke-width:3.0579;stroke-linecap:round;stroke-linejoin:round;stroke-miterlimit:10;}
	.st56{fill:none;stroke:#040000;stroke-width:2.7483;stroke-linecap:round;stroke-linejoin:round;stroke-miterlimit:10;}
</style>
<linearGradient id="SVGID_1_" gradientUnits="userSpaceOnUse" x1="100.8908" y1="333.9434" x2="150.3709" y2="204.534">
	<stop  offset="0" style="stop-color:#2E1ED3"/>
	<stop  offset="6.548816e-02" style="stop-color:#2D26D2"/>
	<stop  offset="0.4945" style="stop-color:#2859CB"/>
	<stop  offset="0.8194" style="stop-color:#2578C8"/>
	<stop  offset="1" style="stop-color:#2484C6"/>
</linearGradient>
<path class="st7" d="M260,293.2c-0.8-4.6-5.2-7.9-11.3-9.2c-3.2-0.7-5.4-4.1-4.7-7.5c1.2-5.9,2-12.1,2.3-18.8
	c2.4-50.7-23.5-104-65.2-129.4C162.8,117,159.4,91.7,148,73.7c-13.6-21.4-33.9-34.9-58.7-27.4c-15.5,4.7-53.1,12.5-49.2,147.3
	c3.9,134.7,57,161.9,117,155.6c29.6-3.1,54.1-14.5,70-34.8c1.2-1.6,3.1-2.4,5-2.4c2.4,0.1,4.9-0.1,7.5-0.7
	C252.2,308.9,261.3,300.7,260,293.2z"/>
<path class="st47" d="M105.9,174.2c2.3,10.5,7,21.5,13.1,21.3c14.2-0.4,8.6-24.3,8.6-24.3"/>
<path class="st47" d="M165.6,161.1c1.8,11.2-1.1,28.6-14.3,25.9c-5.9-1.2-8.5-10.6-6-20.4"/>
<path class="st47" d="M155.8,293.3c11.6-6.8,24.4-6.7,28.5,0.4c4.1,7-2,12.4-13.6,19.2"/>
<ellipse transform="matrix(0.8899 -0.4561 0.4561 0.8899 -20.7004 47.2204)" cx="87.5" cy="66.5" rx="4.4" ry="6"/>
<ellipse transform="matrix(0.8899 -0.4561 0.4561 0.8899 -15.9643 52.7254)" cx="101.2" cy="59.4" rx="4.4" ry="6"/>
<path class="st47" d="M72,58.2c0,0,0.7-10.8,8.1-14"/>
<path class="st47" d="M88.2,40.2c0,0,5.2-2.7,15,0"/>
</svg>
