<?xml version="1.0" encoding="utf-8"?>
<!-- Generator: Adobe Illustrator 23.0.3, SVG Export Plug-In . SVG Version: 6.00 Build 0)  -->
<svg version="1.1" id="圖層_1" xmlns="http://www.w3.org/2000/svg" xmlns:xlink="http://www.w3.org/1999/xlink" x="0px" y="0px"
	 viewBox="0 0 300 350" style="enable-background:new 0 0 300 350;" xml:space="preserve">
<style type="text/css">
	.st0{fill:#A52224;}
	.st1{fill:#D93030;}
	.st2{fill:none;stroke:#040000;stroke-width:4.2762;stroke-linecap:round;stroke-linejoin:round;stroke-miterlimit:10;}
	.st3{fill:#E83C3C;}
	.st4{fill:none;stroke:#040000;stroke-width:5.4044;stroke-linecap:round;stroke-linejoin:round;stroke-miterlimit:10;}
	.st5{fill:#6460FF;}
	.st6{fill:#CCCCFF;}
	.st7{fill:url(#SVGID_1_);}
	.st8{fill:#FF353B;}
	.st9{fill:#FFFFFF;}
	.st10{fill:#F08E93;}
	.st11{fill:#DB9451;}
	.st12{fill:#F4B55E;}
	.st13{fill:#EC6519;}
	.st14{fill:#EF7C33;}
	.st15{fill:#CCCCCC;}
	.st16{fill:#E6E6E5;}
	.st17{fill:#B75320;}
	.st18{fill:#B3B3B3;}
	.st19{fill-rule:evenodd;clip-rule:evenodd;fill:#4D4D4D;}
	.st20{fill:#4D4D4D;}
	.st21{fill:#323333;}
	.st22{fill:#9C4623;}
	.st23{fill-rule:evenodd;clip-rule:evenodd;fill:#CBE8F0;}
	.st24{fill-rule:evenodd;clip-rule:evenodd;fill:#E1F0F3;}
	.st25{fill-rule:evenodd;clip-rule:evenodd;fill:#9ECCD5;}
	.st26{fill-rule:evenodd;clip-rule:evenodd;fill:#323333;}
	.st27{fill-rule:evenodd;clip-rule:evenodd;fill:#666666;}
	.st28{fill:none;stroke:#F4B55E;stroke-width:2.051;stroke-linecap:round;stroke-linejoin:round;stroke-miterlimit:10;}
	.st29{fill:#231F20;}
	.st30{fill:#C7B79C;}
	.st31{fill:#D4C9B4;}
	.st32{fill:#51524E;}
	.st33{fill:#E1E1E1;}
	.st34{fill:#43312B;}
	.st35{fill:#C6C6C6;}
	.st36{fill:#AAAAAA;}
	.st37{fill:#939393;}
	.st38{fill:#E0E0E0;}
	.st39{fill:#2B451C;}
	.st40{fill:#395527;}
	.st41{fill:none;stroke:#040000;stroke-width:5.3533;stroke-linecap:round;stroke-linejoin:round;stroke-miterlimit:10;}
	.st42{fill:none;stroke:#040000;stroke-width:4.5;stroke-linecap:round;stroke-linejoin:round;stroke-miterlimit:10;}
	.st43{fill:#040000;}
	.st44{fill:url(#SVGID_2_);}
	.st45{fill:none;stroke:#F4B55E;stroke-width:2.378;stroke-linecap:round;stroke-linejoin:round;stroke-miterlimit:10;}
	.st46{fill:none;stroke:#F4B55E;stroke-width:3.459;stroke-linecap:round;stroke-linejoin:round;stroke-miterlimit:10;}
	.st47{fill:none;stroke:#000000;stroke-width:4.5;stroke-linecap:round;stroke-linejoin:round;stroke-miterlimit:10;}
	.st48{fill:url(#SVGID_3_);}
	.st49{fill:#FF9398;}
	.st50{fill:url(#SVGID_4_);}
	.st51{fill:none;stroke:#000000;stroke-width:4.5;stroke-linecap:round;stroke-miterlimit:10;}
	.st52{fill:url(#SVGID_5_);}
	.st53{fill:none;stroke:#040000;stroke-width:4.0241;stroke-linecap:round;stroke-linejoin:round;stroke-miterlimit:10;}
	.st54{fill:none;stroke:#F4B55E;stroke-width:1.5623;stroke-linecap:round;stroke-linejoin:round;stroke-miterlimit:10;}
	.st55{fill:none;stroke:#040000;stroke-width:3.0579;stroke-linecap:round;stroke-linejoin:round;stroke-miterlimit:10;}
	.st56{fill:none;stroke:#040000;stroke-width:2.7483;stroke-linecap:round;stroke-linejoin:round;stroke-miterlimit:10;}
</style>
<path d="M126.4,101.4l-3.5,5.1c-0.4,0.6-1.2,0.7-1.8,0.4c-1.9-0.9-4.2-1-6.3,0s-3.5,2.8-4,4.9c-0.2,0.7-0.7,1.2-1.5,1.2l-6.2-0.5
	l-10.6-0.8c-1.9-0.1-3.2,1.8-2.4,3.5c5.7,4.7,9.1,11.7,9.2,19.2c0.8,1.7,3.2,1.9,4.3,0.3l6-8.8l3.5-5.1c0.4-0.6,1.2-0.7,1.8-0.4
	c1.9,0.9,4.2,1,6.3,0s3.5-2.8,4-4.9c0.2-0.7,0.7-1.2,1.5-1.2l6.2,0.5l10.6,0.8c1.9,0.1,3.2-1.8,2.4-3.5c-5.7-4.7-9.1-11.7-9.2-19.2
	c-0.8-1.7-3.2-1.9-4.3-0.3L126.4,101.4z"/>
</svg>
