<?xml version="1.0" encoding="utf-8"?>
<!-- Generator: Adobe Illustrator 23.0.3, SVG Export Plug-In . SVG Version: 6.00 Build 0)  -->
<svg version="1.1" id="圖層_1" xmlns="http://www.w3.org/2000/svg" xmlns:xlink="http://www.w3.org/1999/xlink" x="0px" y="0px"
	 viewBox="0 0 300 350" style="enable-background:new 0 0 300 350;" xml:space="preserve">
<style type="text/css">
	.st0{fill:#A52224;}
	.st1{fill:#D93030;}
	.st2{fill:none;stroke:#18191F;stroke-width:4.2762;stroke-linecap:round;stroke-linejoin:round;stroke-miterlimit:10;}
	.st3{fill:#E83C3C;}
	.st4{fill:none;stroke:#18191F;stroke-width:5.4044;stroke-linecap:round;stroke-linejoin:round;stroke-miterlimit:10;}
	.st5{fill:#F08E93;}
	.st6{fill:#18191F;}
	.st7{fill:#FF353B;}
	.st8{fill:#FFFFFF;}
	.st9{fill:#23B5F3;}
	.st10{fill:#CCCCFF;}
	.st11{fill:#6460FF;}
	.st12{fill:#DB9451;}
	.st13{fill:#F4B55E;}
	.st14{fill:#EC6519;}
	.st15{fill:#EF7C33;}
	.st16{fill:#CCCCCC;}
	.st17{fill:#E6E6E5;}
	.st18{fill:#B75320;}
	.st19{fill:#B3B3B3;}
	.st20{fill-rule:evenodd;clip-rule:evenodd;fill:#4D4D4D;}
	.st21{fill:#4D4D4D;}
	.st22{fill:#323333;}
	.st23{fill:#9C4623;}
	.st24{fill-rule:evenodd;clip-rule:evenodd;fill:#CBE8F0;}
	.st25{fill-rule:evenodd;clip-rule:evenodd;fill:#E1F0F3;}
	.st26{fill-rule:evenodd;clip-rule:evenodd;fill:#9ECCD5;}
	.st27{fill-rule:evenodd;clip-rule:evenodd;fill:#323333;}
	.st28{fill-rule:evenodd;clip-rule:evenodd;fill:#666666;}
	.st29{fill:none;stroke:#F4B55E;stroke-width:2.051;stroke-linecap:round;stroke-linejoin:round;stroke-miterlimit:10;}
	.st30{fill:#C7B79C;}
	.st31{fill:#D4C9B4;}
	.st32{fill:#51524E;}
	.st33{fill:#E1E1E1;}
	.st34{fill:#43312B;}
	.st35{fill:#C6C6C6;}
	.st36{fill:#AAAAAA;}
	.st37{fill:#939393;}
	.st38{fill:#E0E0E0;}
	.st39{fill:#2B451C;}
	.st40{fill:#395527;}
	.st41{fill:none;stroke:#18191F;stroke-width:5.3533;stroke-linecap:round;stroke-linejoin:round;stroke-miterlimit:10;}
	.st42{fill:none;stroke:#18191F;stroke-width:4.5;stroke-linecap:round;stroke-linejoin:round;stroke-miterlimit:10;}
	.st43{fill:none;stroke:#F4B55E;stroke-width:2.378;stroke-linecap:round;stroke-linejoin:round;stroke-miterlimit:10;}
	.st44{fill:none;stroke:#F4B55E;stroke-width:3.459;stroke-linecap:round;stroke-linejoin:round;stroke-miterlimit:10;}
	.st45{fill:#FF9398;}
	.st46{fill:none;stroke:#18191F;stroke-width:4.5;stroke-linecap:round;stroke-miterlimit:10;}
	.st47{fill:none;stroke:#18191F;stroke-width:4.0241;stroke-linecap:round;stroke-linejoin:round;stroke-miterlimit:10;}
	.st48{fill:none;stroke:#F4B55E;stroke-width:1.5623;stroke-linecap:round;stroke-linejoin:round;stroke-miterlimit:10;}
	.st49{fill:none;stroke:#18191F;stroke-width:3.0579;stroke-linecap:round;stroke-linejoin:round;stroke-miterlimit:10;}
	.st50{fill:none;stroke:#18191F;stroke-width:2.7483;stroke-linecap:round;stroke-linejoin:round;stroke-miterlimit:10;}
</style>
<path class="st7" d="M296.6,206.3c0-24.5-7-49.3-18.9-72.2c-2.9-5.6-1.8-12.7,2.4-17.1c9-9.3,13.2-19.7,9.9-26.8
	c-4.2-9-19.2-9.9-35.6-3c-4.5,1.9-9.5,0.8-13.1-2.7C213.7,57.2,179.1,39,145.3,39C71.6,39.1,4.4,133,3.4,214.3
	c-0.8,62.1,49.2,78.1,69.8,89.9c5.7,3.2,11.5,9.6,12.3,16.6c0,0,0,0,0,0.1c2.9,17.6,11.8,30.6,24.7,28.9c10-1.3,17.3-12.8,19.1-27.9
	c0.4-3.9,3.5-6.7,7-6.6c2.7,0.1,5.4,0.1,8.2,0.1c6.4,0,12.8-0.2,19.2-0.6c3.5-0.3,6.6,2.7,6.9,6.6c1.6,15.4,9,28.4,19.2,28.6
	c9.3,0.2,22.4-16.8,24.1-34.8l0.3-2.4c0.4-4.1,3-7.6,6.6-9C262,288.3,296.6,257.3,296.6,206.3z"/>
<path class="st42" d="M95.2,119c14.5-1.2,26.9,4.8,27.6,13.2c0.7,8.4-10.6,16.3-25.1,17.4L84,150.7"/>
<path class="st8" d="M142.2,69.8c2.9-1.5,3.6-5.9,1.6-9.9c-2.1-4-6-6-9-4.5c-2.9,1.5-3.6,5.9-1.6,9.9
	C135.3,69.4,139.3,71.4,142.2,69.8z"/>
<path class="st8" d="M160.9,60.3c2.9-1.5,3.6-5.9,1.6-9.9c-2.1-4-6-6-9-4.5c-2.9,1.5-3.6,5.9-1.6,9.9C154,59.8,158,61.8,160.9,60.3z
	"/>
<path class="st42" d="M106.7,58.5c0,0,2.6-26.1,23.5-21.4c4,0.9,7.9-0.3,11-2.9c3.8-3.1,10.2-5.9,19.8-1.9"/>
</svg>
