<svg width="231" height="64" viewBox="0 0 231 64" fill="none" xmlns="http://www.w3.org/2000/svg">
<path d="M28.0383 15.6644L40.6154 14.3129L40.1401 23.2942L41.4257 30.6315L27.7545 26.6874L26.6519 17.7895L28.0383 15.6644Z" fill="#F08265"/>
<path d="M14.0661 24.0014C14.0661 24.0014 20.8119 29.1151 25.3764 31.8436C26.4517 32.4862 30.3922 22.8522 29.6879 20.5741C28.857 17.8881 25.1815 13.5717 23.1506 12.8458C22.1762 12.4973 17.5057 10.9231 13.9225 12.0961C10.035 13.3677 8.42118 16.3258 7.08603 18.0513C6.57488 18.7143 11.9172 23.4795 14.0661 24.0014Z" fill="#F8BA8E"/>
<path d="M15.5563 13.8596C15.3341 13.7831 15.1118 13.7168 14.8947 13.6641C13.4399 13.3105 11.6141 14.0687 10.4738 14.912C9.42588 15.6855 8.59675 16.7344 7.99499 17.8802C7.77275 18.3035 7.69411 18.8424 7.31288 19.1467C6.96072 19.4289 6.2222 19.5479 5.78797 19.6465C4.76909 19.8794 3.6784 19.9151 2.70567 19.4833C1.10554 18.771 0.237092 16.9792 0.038785 15.2469C-0.0911401 14.1095 0.0695568 12.8243 0.938004 12.0729C1.36881 11.6989 2.04921 11.6394 2.43898 11.2739C2.79969 10.9356 3.01852 10.1961 3.32623 9.77957C4.00492 8.85816 4.86311 8.06764 5.8461 7.47603C6.25639 7.22783 6.69403 7.01023 7.04961 6.68892C7.82062 5.99361 8.1044 4.92089 8.67539 4.05558C9.88232 2.22975 11.7355 2.02915 13.7083 2.19575C15.4007 2.33855 16.8077 0.779627 18.5463 1.02443C20.331 1.27603 21.3892 3.34327 23.1552 3.70027C23.9382 3.85838 24.7502 3.65097 25.5451 3.71727C26.9914 3.83628 28.2052 4.87839 28.8497 6.12451C29.4925 7.36553 29.4173 8.94486 30.3729 10.0142C30.9285 10.6364 31.997 10.9492 32.5782 10.3525C32.6927 10.2352 32.7782 10.0924 32.8979 9.98188C33.2518 9.65377 33.8381 9.68267 34.2433 9.94618C34.6467 10.2097 34.8963 10.6551 35.057 11.109C35.3391 11.8978 35.4058 12.775 35.1647 13.5774C34.9237 14.3798 34.3647 15.099 33.6056 15.4611C32.6432 15.9218 31.2909 15.9133 30.2566 15.7484C29.2121 15.5818 28.2103 15.7229 27.1555 15.6209C26.2649 15.5359 25.528 14.8066 24.7502 14.4257C24.0031 14.0585 22.8851 14.0721 22.5637 14.8372C22.3774 15.2809 22.5415 15.8181 22.3244 16.2482C22.0884 16.714 21.473 16.8755 20.9602 16.7633C20.449 16.6511 20.0131 16.3315 19.5806 16.0374C18.4181 15.2486 16.9547 14.3424 15.5563 13.8596Z" fill="#16253E"/>
<path d="M22.6037 15.4299C22.6037 15.4299 20.1231 11.2632 24.1166 10.2958C25.8518 9.87593 28.8367 13.5072 28.7973 15.1528C28.758 16.7984 27.4554 18.3999 27.4554 18.3999L22.6037 15.4299Z" fill="#F8BA8E"/>
<path d="M20.1231 28.3161C20.1231 28.3161 18.7333 30.7692 18.0956 29.8597C17.1554 28.5184 13.8013 23.709 13.8013 23.709L20.1231 28.3161Z" fill="#F8BA8E"/>
<path d="M10.6708 23.1253L9.604 22.3144C9.604 22.3144 11.1101 18.7273 14.0009 18.6423L14.0762 18.7885C14.0762 18.7885 12.3393 18.9602 10.6708 23.1253Z" fill="#16253E"/>
<path d="M21.0479 29.0182C21.0479 29.0182 22.5916 26.9731 23.1729 25.3376L20.8257 28.8482L21.0479 29.0182Z" fill="white"/>
<path d="M173.005 40.4474C173.005 40.4474 176.17 41.0713 178.973 40.9064C178.973 40.9064 192.557 44.4425 204.933 41.8551C217.877 39.1503 224.946 39.7963 224.946 39.7963C224.946 39.7963 225.336 33.8394 222.561 32.5627C221.903 32.2601 210.061 32.3094 204.939 30.7743C199.819 29.2392 193.725 23.7668 182.17 28.0338C170.615 32.2975 170.725 34.5687 173.005 40.4474Z" fill="#16253E"/>
<path d="M103.786 36.3793C103.786 36.3793 119.23 37.6203 125.714 36.8553C125.714 36.8553 147.949 42.8122 176.184 40.7245C176.184 40.7245 184.371 28.7836 179.126 29.2239C165.851 30.3374 135.688 15.457 135.688 15.457C135.688 15.457 129.925 5.89439 113.744 12.4956C99.55 18.2859 103.786 36.3793 103.786 36.3793Z" fill="#16253E"/>
<path d="M220.418 31.6958L220.295 32.8297L221.001 41.4794L222.782 50.4964L217.843 57.1078L216.929 59.8839L227.902 59.668C227.902 59.668 231.272 50.3094 230.983 43.4532C230.732 37.4487 230.716 30.7914 230.716 30.7914C230.716 30.7914 221.972 30.4463 220.418 31.6958Z" fill="#E1F1EF"/>
<path d="M38.0698 59.379C38.9827 59.243 48.7801 57.7572 48.7801 57.7572L52.9223 56.4022C52.9223 56.4022 57.0012 55.4655 59.3296 56.9564C59.3296 56.9564 59.1536 59.5235 58.8099 60.5724C58.4646 61.6213 57.5551 62.4543 53.6283 61.5686C51.3136 61.0467 49.9306 61.0229 49.1869 61.0909C49.1733 61.0824 49.1579 61.079 49.1442 61.0739C46.9697 61.1079 38.6528 61.2235 38.0989 60.9073C37.4698 60.5486 38.0698 59.379 38.0698 59.379Z" fill="#F08265"/>
<path d="M56.0473 11.9227C56.0473 11.9227 57.2918 11.7 59.0715 12.9648C60.8511 14.2296 64.7369 18.1516 65.2036 24.0592C65.8412 32.1564 60.3741 53.2571 59.2373 57.2522C59.2373 57.2522 54.0112 55.3516 52.9171 56.6946C52.9171 56.6946 51.8999 39.7028 49.6382 33.8581C47.3748 28.0134 50.2485 14.5101 56.0473 11.9227Z" fill="#F08265"/>
<path d="M168.945 40.6804C168.945 40.6804 172.109 41.3043 174.913 41.1394C174.913 41.1394 188.904 45.267 201.546 45.5714C223.956 46.1086 220.912 45.3181 220.912 45.3181C220.912 45.3181 221.274 34.0724 218.501 32.7956C217.843 32.493 206.001 32.5423 200.879 31.0072C195.759 29.4721 189.665 24.0014 178.11 28.2668C166.555 32.5321 166.665 34.8017 168.945 40.6804Z" fill="#16253E"/>
<path d="M99.579 39.4938C99.579 39.4938 115.021 40.7348 121.506 39.9681C121.506 39.9681 143.885 43.0435 172.122 40.9576C172.122 40.9576 180.309 29.0166 175.064 29.4569C161.787 30.5704 133.549 16.739 133.549 16.739C133.549 16.739 125.159 4.66368 110.064 13.4239C96.8147 21.1131 99.579 39.4938 99.579 39.4938Z" fill="#16253E"/>
<path d="M38.9843 30.0348C38.9843 30.0348 44.3522 40.6311 61.4681 45.5187L108.186 50.736C108.186 50.736 120.237 30.2133 110.594 13.1246C110.594 13.1246 97.8985 18.5596 85.959 15.7648C68.3849 11.6507 61.916 3.94109 46.4652 9.25367C42.1572 10.7344 44.5933 12.2423 39.068 19.2498C36.1225 22.9848 38.9843 30.0348 38.9843 30.0348Z" fill="white"/>
<path d="M61.9383 21.9512C61.9777 14.8434 56.2148 9.04799 49.0672 9.00719C41.9196 8.96809 36.0918 14.6989 36.0525 21.8067C36.0114 28.9145 41.7743 34.7099 48.9236 34.7507C56.0712 34.7898 61.899 29.059 61.9383 21.9512Z" fill="white"/>
<path d="M44.1336 28.7003C44.1336 28.7003 46.7509 34.5569 59.487 34.8153C63.701 34.9003 69.9955 32.6886 68.7133 23.9726C67.4329 15.2565 62.983 11.7783 53.8797 11.3023C49.6485 11.0796 40.3315 14.7873 44.1336 28.7003Z" fill="white"/>
<path d="M60.427 14.4285C60.427 14.4285 61.0817 12.9138 62.9058 14.114C64.7282 15.3143 68.7524 19.1002 69.4277 24.9874C70.3525 33.0574 65.6359 54.3367 64.641 58.3691C64.641 58.3691 59.3499 56.6538 58.3037 58.0325C58.3037 58.0325 56.6848 41.0867 54.2179 35.3253C51.7528 29.5639 54.7256 17.2183 60.427 14.4285Z" fill="#F8BA8E"/>
<path d="M216.358 31.9287L216.235 33.0626L216.941 41.7123L218.722 50.7293L213.783 57.3424L212.869 60.1168L223.842 59.9009C223.842 59.9009 227.212 50.5423 226.923 43.6844C226.67 37.6799 226.656 31.0243 226.656 31.0243C226.656 31.0243 217.912 30.6791 216.358 31.9287Z" fill="white"/>
<path d="M43.5916 61.0773C44.4977 60.909 54.2387 59.0814 54.2387 59.0814L58.3296 57.582C58.3296 57.582 62.3727 56.5025 64.7541 57.9118C64.7541 57.9118 64.6686 60.484 64.3609 61.5448C64.0549 62.6056 63.1744 63.4692 59.2186 62.7212C56.885 62.2826 55.5037 62.3047 54.7618 62.3999C54.7498 62.3931 54.7344 62.3897 54.7208 62.3829C52.5496 62.4934 44.2396 62.8997 43.6771 62.6039C43.0326 62.2656 43.5916 61.0773 43.5916 61.0773Z" fill="#F8BA8E"/>
<path d="M15.871 23.4723C16.2664 23.2707 16.3627 22.6719 16.0861 22.1349C15.8094 21.598 15.2646 21.3261 14.8692 21.5277C14.4738 21.7293 14.3776 22.3281 14.6542 22.8651C14.9308 23.4021 15.4756 23.6739 15.871 23.4723Z" fill="black"/>
</svg>
