<svg width="27" height="30" viewBox="0 0 27 30" fill="none" xmlns="http://www.w3.org/2000/svg">
<path fill-rule="evenodd" clip-rule="evenodd" d="M12.455 2.75191C13.2732 1.11555 14.9878 -0.244948 17.2132 0.036395C19.4412 0.201343 21.0133 1.98082 21.2975 3.97024C21.3042 4.01709 21.3075 4.06435 21.3075 4.11167V4.11233V4.11301V4.11368V4.11436V4.11504V4.11572V4.11641V4.11709V4.11778V4.11848V4.11917V4.11987V4.12057V4.12127V4.12198V4.12269V4.1234V4.12411V4.12482V4.12554V4.12626V4.12698V4.12771V4.12843V4.12916V4.12989V4.13063V4.13137V4.1321V4.13285V4.13359V4.13433V4.13508V4.13583V4.13658V4.13734V4.1381V4.13885V4.13962V4.14038V4.14115V4.14191V4.14268V4.14346V4.14423V4.14501V4.14579V4.14657V4.14735V4.14813V4.14892V4.14971V4.1505V4.1513V4.15209V4.15289V4.15369V4.15449V4.15529V4.1561V4.15691V4.15772V4.15853V4.15934V4.16016V4.16097V4.16179V4.16262V4.16344V4.16426V4.16509V4.16592V4.16675V4.16758V4.16842V4.16925V4.17009V4.17093V4.17177V4.17262V4.17346V4.17431V4.17516V4.17601V4.17686V4.17772V4.17857V4.17943V4.18029V4.18115V4.18202V4.18288V4.18375V4.18461V4.18548V4.18635V4.18723V4.1881V4.18898V4.18986V4.19073V4.19162V4.1925V4.19338V4.19427V4.19515V4.19604V4.19693V4.19782V4.19872V4.19961V4.20051V4.20141V4.20231V4.20321V4.20411V4.20501V4.20592V4.20682V4.20773V4.20864V4.20955V4.21046V4.21137V4.21229V4.2132V4.21412V4.21504V4.21596V4.21688V4.2178V4.21872V4.21965V4.22058V4.2215V4.22243V4.22336V4.22429V4.22522V4.22616V4.22709V4.22803V4.22896V4.2299V4.23084V4.23178V4.23272V4.23367V4.23461V4.23555V4.2365V4.23745V4.23839V4.23934V4.24029V4.24124V4.2422V4.24315V4.2441V4.24506V4.24601V4.24697V4.24793V4.24889V4.24985V4.25081V4.25177V4.25273V4.2537V4.25466V4.25563V4.25659V4.25756V4.25853V4.2595V4.26047V4.26144V4.26241V4.26338V4.26435V4.26533V4.2663V4.26727V4.26825V4.26923V4.2702V4.27118V4.27216V4.27314V4.27412V4.2751V4.27608V4.27706V4.27805V4.27903V4.28001V4.281V4.28198V4.28297V4.28396V4.28494V4.28593V4.28692V4.28791V4.28889V4.28988V4.29087V4.29187V4.29286V4.29385V4.29484V4.29583V4.29683V4.29782V4.29881V4.29981V4.3008V4.3018V4.30279V4.30379V4.30478V4.30578V4.30678V4.30777V4.30877V4.30977V4.31077V4.31177V4.31276V4.31376V4.31476V4.31576V4.31676V4.31776V4.31876V4.31976V4.32076V4.32176V4.32276V4.32377V4.32477V4.32577V4.32677V4.32777V4.32877V4.32978V4.33078V4.33178V4.33278V4.33378V4.33479V4.33579V4.33679V4.33779V4.3388V4.3398V4.3408V4.3418V4.34281V4.34381V4.34481V4.34581V4.34682V4.34782V4.34882V4.34982V4.35083V4.35183V4.35283V4.35383V4.35483V4.35583V4.35683V4.35784V4.35884V4.35984V4.36084V4.36184V4.36284V4.36384V4.36484V4.36584V4.36683V4.36783V4.36883V4.36983V4.37083V4.37183V4.37282V4.37382V4.37482V4.37581V4.37681V4.3778V4.3788V4.37979V4.38079V4.38178V4.38277V4.38377V4.38476V4.38575V4.38674V4.38773V4.38872V4.38971V4.3907V4.39169V4.39268V4.39367V4.39466V4.39564V4.39663V4.39762V4.3986V4.39958V4.40057V4.40155V4.40253V4.40352V4.4045V4.40548V4.40646V4.40744V4.40842V4.40939V4.41037V4.41135V4.41232V4.4133V4.41427V4.41525V4.41622V4.41719V4.41816V4.41913V4.4201V4.42107V4.42204V4.42301V4.42397V4.42494V4.4259V4.42686V4.42783V4.42879V4.42975V4.43071V4.43167V4.43263V4.43358V4.43454V4.43549V4.43645V4.4374V4.43835V4.4393V4.44025V4.4412V4.44215V4.4431V4.44404V4.44499V4.44593V4.44687V4.44782V4.44876V4.4497V4.45063V4.45157V4.45251V4.45344V4.45437V4.45531V4.45624V4.45717V4.4581V4.45902V4.45995V4.46087V4.4618V4.46272V4.46364V4.46456V4.46548V4.4664V4.46731V4.46823V4.46914V4.47005V4.47096V4.47187V4.47278V4.47368V4.47459V4.47549V4.47639V4.47729V4.47819V4.47909V4.47999V4.48088V4.48177V4.48267V4.48356V4.48444V4.48533V4.48622V4.4871V4.48798V4.48886V4.48974V4.49062V4.4915V4.49237V4.49324V4.49412V4.49498V4.49585V4.49672V4.49758V4.49845V4.49931V4.50017V4.50102V4.50188V4.50273V4.50359V4.50444V4.50529V4.50613V4.50698V4.50782V4.50867V4.50951V4.51034V4.51118V4.51202V4.51285V4.51368V4.51451V4.51533V4.51616V4.51698V4.5178V4.51862V4.51944V4.52026V4.52107V4.52188V4.52269V4.5235V4.52431V4.52511V4.52591V4.52671V4.52751V4.5283V4.5291V4.52989V4.53068V4.53146V4.53225V4.53303V4.53381V4.53459V4.53537V4.53614V4.53692V4.53769V4.53845V4.53922V4.53998V4.54074V4.5415V4.54226V4.54301V4.54377V4.54452V4.54526V4.54601V4.54675V4.54749V4.54823V4.54897V4.5497V4.55043V4.55116V4.55189V4.55262V4.55334V4.55406V4.55477V4.55549V4.5562V4.55691V4.55762V4.55833V4.55903V4.55973V4.56043V4.56112V4.56181V4.5625V4.56319V4.56388V4.56456V4.56524V4.56592V4.56659V4.56726V4.56793C21.3075 5.66176 21.7655 6.77896 22.6116 7.62504C22.618 7.63141 22.6242 7.63786 22.6304 7.6444C24.841 9.97777 26.3265 13.1834 26.3265 16.7731C26.3265 24.3128 19.9031 30.3553 12.2584 29.8621L12.2475 29.8614L12.2475 29.8614C5.70213 29.3674 0.526593 24.0646 0.0330247 17.6483L0.03251 17.6416L0.0325324 17.6416C-0.462127 10.5927 4.72697 4.67946 11.261 3.6932C11.2694 3.69193 11.2778 3.69077 11.2862 3.68972C11.8179 3.62326 12.2164 3.30431 12.4303 2.80521C12.438 2.7872 12.4462 2.76943 12.455 2.75191ZM11.5482 5.67251C12.8226 5.50825 13.7817 4.70222 14.2553 3.62367C14.8045 2.54359 15.8089 1.86673 16.9815 2.02308C17.0033 2.02599 17.0252 2.02818 17.0471 2.02964C18.2023 2.10665 19.1133 3.0242 19.3075 4.18819V4.18898V4.18986V4.19073V4.19162V4.1925V4.19338V4.19427V4.19515V4.19604V4.19693V4.19782V4.19872V4.19961V4.20051V4.20141V4.20231V4.20321V4.20411V4.20501V4.20592V4.20682V4.20773V4.20864V4.20955V4.21046V4.21137V4.21229V4.2132V4.21412V4.21504V4.21596V4.21688V4.2178V4.21872V4.21965V4.22058V4.2215V4.22243V4.22336V4.22429V4.22522V4.22616V4.22709V4.22803V4.22896V4.2299V4.23084V4.23178V4.23272V4.23367V4.23461V4.23555V4.2365V4.23745V4.23839V4.23934V4.24029V4.24124V4.2422V4.24315V4.2441V4.24506V4.24601V4.24697V4.24793V4.24889V4.24985V4.25081V4.25177V4.25273V4.2537V4.25466V4.25563V4.25659V4.25756V4.25853V4.2595V4.26047V4.26144V4.26241V4.26338V4.26435V4.26533V4.2663V4.26727V4.26825V4.26923V4.2702V4.27118V4.27216V4.27314V4.27412V4.2751V4.27608V4.27706V4.27805V4.27903V4.28001V4.281V4.28198V4.28297V4.28396V4.28494V4.28593V4.28692V4.28791V4.28889V4.28988V4.29087V4.29187V4.29286V4.29385V4.29484V4.29583V4.29683V4.29782V4.29881V4.29981V4.3008V4.3018V4.30279V4.30379V4.30478V4.30578V4.30678V4.30777V4.30877V4.30977V4.31077V4.31177V4.31276V4.31376V4.31476V4.31576V4.31676V4.31776V4.31876V4.31976V4.32076V4.32176V4.32276V4.32377V4.32477V4.32577V4.32677V4.32777V4.32877V4.32978V4.33078V4.33178V4.33278V4.33378V4.33479V4.33579V4.33679V4.33779V4.3388V4.3398V4.3408V4.3418V4.34281V4.34381V4.34481V4.34581V4.34682V4.34782V4.34882V4.34982V4.35083V4.35183V4.35283V4.35383V4.35483V4.35583V4.35683V4.35784V4.35884V4.35984V4.36084V4.36184V4.36284V4.36384V4.36484V4.36584V4.36683V4.36783V4.36883V4.36983V4.37083V4.37183V4.37282V4.37382V4.37482V4.37581V4.37681V4.3778V4.3788V4.37979V4.38079V4.38178V4.38277V4.38377V4.38476V4.38575V4.38674V4.38773V4.38872V4.38971V4.3907V4.39169V4.39268V4.39367V4.39466V4.39564V4.39663V4.39762V4.3986V4.39958V4.40057V4.40155V4.40253V4.40352V4.4045V4.40548V4.40646V4.40744V4.40842V4.40939V4.41037V4.41135V4.41232V4.4133V4.41427V4.41525V4.41622V4.41719V4.41816V4.41913V4.4201V4.42107V4.42204V4.42301V4.42397V4.42494V4.4259V4.42686V4.42783V4.42879V4.42975V4.43071V4.43167V4.43263V4.43358V4.43454V4.43549V4.43645V4.4374V4.43835V4.4393V4.44025V4.4412V4.44215V4.4431V4.44404V4.44499V4.44593V4.44687V4.44782V4.44876V4.4497V4.45063V4.45157V4.45251V4.45344V4.45437V4.45531V4.45624V4.45717V4.4581V4.45902V4.45995V4.46087V4.4618V4.46272V4.46364V4.46456V4.46548V4.4664V4.46731V4.46823V4.46914V4.47005V4.47096V4.47187V4.47278V4.47368V4.47459V4.47549V4.47639V4.47729V4.47819V4.47909V4.47999V4.48088V4.48177V4.48267V4.48356V4.48444V4.48533V4.48622V4.4871V4.48798V4.48886V4.48974V4.49062V4.4915V4.49237V4.49324V4.49412V4.49498V4.49585V4.49672V4.49758V4.49845V4.49931V4.50017V4.50102V4.50188V4.50273V4.50359V4.50444V4.50529V4.50613V4.50698V4.50782V4.50867V4.50951V4.51034V4.51118V4.51202V4.51285V4.51368V4.51451V4.51533V4.51616V4.51698V4.5178V4.51862V4.51944V4.52026V4.52107V4.52188V4.52269V4.5235V4.52431V4.52511V4.52591V4.52671V4.52751V4.5283V4.5291V4.52989V4.53068V4.53146V4.53225V4.53303V4.53381V4.53459V4.53537V4.53614V4.53692V4.53769V4.53845V4.53922V4.53998V4.54074V4.5415V4.54226V4.54301V4.54377V4.54452V4.54526V4.54601V4.54675V4.54749V4.54823V4.54897V4.5497V4.55043V4.55116V4.55189V4.55262V4.55334V4.55406V4.55477V4.55549V4.5562V4.55691V4.55762V4.55833V4.55903V4.55973V4.56043V4.56112V4.56181V4.5625V4.56319V4.56388V4.56456V4.56524V4.56592V4.56659V4.56726V4.56793C19.3075 6.20708 19.9864 7.823 21.1872 9.02905C23.0782 11.0294 24.3265 13.7515 24.3265 16.7731C24.3265 23.1478 18.89 28.2828 12.3926 27.8666C6.85054 27.4457 2.44778 22.9416 2.02739 17.4982C1.61167 11.5489 5.99743 6.51628 11.5482 5.67251ZM10.0266 14.7376C10.5936 14.7376 11.0532 14.1248 11.0532 13.3688C11.0532 12.6129 10.5936 12 10.0266 12C9.45962 12 8.99999 12.6129 8.99999 13.3688C8.99999 14.1248 9.45962 14.7376 10.0266 14.7376ZM15.1597 14.7376C15.7266 14.7376 16.1861 14.1248 16.1861 13.3688C16.1861 12.6129 15.7266 12 15.1597 12C14.5927 12 14.1332 12.6129 14.1332 13.3688C14.1332 14.1248 14.5927 14.7376 15.1597 14.7376Z" fill="#2E1ED3"/>
</svg>
