
<!-- Generator: Adobe Illustrator 23.0.3, SVG Export Plug-In . SVG Version:
6.00 Build 0) -->
<svg contentScriptType="text/ecmascript" zoomAndPan="magnify"
     xmlns:xlink="http://www.w3.org/1999/xlink" contentStyleType="text/css"
     id="圖層_1" style="enable-background:new 0 0 300 350;" version="1.1"
     xml:space="preserve" preserveAspectRatio="xMidYMid meet"
     viewBox="0 0 300 350" xmlns="http://www.w3.org/2000/svg" x="0px" y="0px">
    <style type="text/css" xml:space="preserve">
	.st0{fill:#A52224;}
	.st1{fill:#D93030;}
	.st2{fill:none;stroke:#18191F;stroke-width:4.2762;stroke-linecap:round;stroke-linejoin:round;stroke-miterlimit:10;}
	.st3{fill:#E83C3C;}
	.st4{fill:none;stroke:#18191F;stroke-width:5.4044;stroke-linecap:round;stroke-linejoin:round;stroke-miterlimit:10;}
	.st5{fill:#F08E93;}
	.st6{fill:#18191F;}
	.st7{fill:#FF353B;}
	.st8{fill:#FFFFFF;}
	.st9{fill:#23B5F3;}
	.st10{fill:#CCCCFF;}
	.st11{fill:#6460FF;}
	.st12{fill:#DB9451;}
	.st13{fill:#F4B55E;}
	.st14{fill:#EC6519;}
	.st15{fill:#EF7C33;}
	.st16{fill:#CCCCCC;}
	.st17{fill:#E6E6E5;}
	.st18{fill:#B75320;}
	.st19{fill:#B3B3B3;}
	.st20{fill-rule:evenodd;clip-rule:evenodd;fill:#4D4D4D;}
	.st21{fill:#4D4D4D;}
	.st22{fill:#323333;}
	.st23{fill:#9C4623;}
	.st24{fill-rule:evenodd;clip-rule:evenodd;fill:#CBE8F0;}
	.st25{fill-rule:evenodd;clip-rule:evenodd;fill:#E1F0F3;}
	.st26{fill-rule:evenodd;clip-rule:evenodd;fill:#9ECCD5;}
	.st27{fill-rule:evenodd;clip-rule:evenodd;fill:#323333;}
	.st28{fill-rule:evenodd;clip-rule:evenodd;fill:#666666;}
	.st29{fill:none;stroke:#F4B55E;stroke-width:2.051;stroke-linecap:round;stroke-linejoin:round;stroke-miterlimit:10;}
	.st30{fill:#C7B79C;}
	.st31{fill:#D4C9B4;}
	.st32{fill:#51524E;}
	.st33{fill:#E1E1E1;}
	.st34{fill:#43312B;}
	.st35{fill:#C6C6C6;}
	.st36{fill:#AAAAAA;}
	.st37{fill:#939393;}
	.st38{fill:#E0E0E0;}
	.st39{fill:#2B451C;}
	.st40{fill:#395527;}
	.st41{fill:none;stroke:#18191F;stroke-width:5.3533;stroke-linecap:round;stroke-linejoin:round;stroke-miterlimit:10;}
	.st42{fill:none;stroke:#18191F;stroke-width:4.5;stroke-linecap:round;stroke-linejoin:round;stroke-miterlimit:10;}
	.st43{fill:none;stroke:#F4B55E;stroke-width:2.378;stroke-linecap:round;stroke-linejoin:round;stroke-miterlimit:10;}
	.st44{fill:none;stroke:#F4B55E;stroke-width:3.459;stroke-linecap:round;stroke-linejoin:round;stroke-miterlimit:10;}
	.st45{fill:#FF9398;}
	.st46{fill:none;stroke:#18191F;stroke-width:4.5;stroke-linecap:round;stroke-miterlimit:10;}
	.st47{fill:none;stroke:#18191F;stroke-width:4.0241;stroke-linecap:round;stroke-linejoin:round;stroke-miterlimit:10;}
	.st48{fill:none;stroke:#F4B55E;stroke-width:1.5623;stroke-linecap:round;stroke-linejoin:round;stroke-miterlimit:10;}
	.st49{fill:none;stroke:#18191F;stroke-width:3.0579;stroke-linecap:round;stroke-linejoin:round;stroke-miterlimit:10;}
	.st50{fill:none;stroke:#18191F;stroke-width:2.7483;stroke-linecap:round;stroke-linejoin:round;stroke-miterlimit:10;}
</style>

    <g id="plainAvatar">

        <path class="st10"
              d="M220.1,267.8c-3.5-37.9-17.2-73.1-21.5-110.3c-3.2-28.1,4.9-56.6-4.4-84.2c-6.3-18.9-21-30.8-37-33.6  c-16.7-2.9-34.9,4.1-46.1,23.5c-8.5,14.6-10.9,31.8-13.2,48.5c-5.4,39.6-10.7,79.2-16.1,118.8c-1.6,11.9-3.2,23.9-1.6,35.8  c2.7,20.7,14.4,34.9,30,43.8c7.4,4.2,9.8,12.8,10.5,19.9c0.4,4.7,0.8,10.6,3.7,14.3c3.4,4.3,8.4,4.6,12.5,1.9  c6.9-4.5,6.6-15.4,8.7-22.8c0.4-1.4,1.7-2.2,3.1-2.1c3.4,0.3,6.9,0.4,10.3,0.4c1.4,0,2.6,1,2.9,2.3c1.6,7,1.4,15.2,5,21.8  c4.2,7.7,13.2,3.6,15.5-3.5c3-9.2,2.1-19.6,11.3-26c4.7-3.3,10.7-4.5,15-8.5C219.2,298,221.4,282.1,220.1,267.8z"/>
        <path class="st42"
              d="M106.2,211.6c0,0,3.1,21.6,16,17.7c9.4-2.9,5-26.9,5-26.9"/>
        <path class="st42"
              d="M144.2,205.4c0,0-9.3,19.3,0,25.1c8.5,5.3,15.7-10,15.7-10"/>
        <path class="st6"
              d="M126.2,90.2c0,3.2-1.9,5.9-4.2,5.9c-2.4,0-4.3-2.6-4.3-5.8c0-3.2,1.9-5.9,4.2-5.9c1.2,0,2.3,0.6,3,1.7  C125.7,87.1,126.2,88.6,126.2,90.2z"/>
        <path class="st6"
              d="M141.4,90.1c0,3.2-1.9,5.9-4.2,5.9c-2.4,0-4.3-2.6-4.3-5.8c0-3.2,1.9-5.9,4.2-5.9c1.2,0,2.3,0.6,3,1.7  S141.4,88.5,141.4,90.1z"/>
        <path class="st42" d="M106.2,77.3c0,0,5-12.5,16.5-6.5"/>
        <path class="st42" d="M130.6,70.7c0,0,10.5-10.3,26.1,4"/></g>

    <g id="body">


        <path class="st14"
              d="M105.9,149.1l53.3,3.6l-2.1,31.5l-53.3-3.6L105.9,149.1z"/>
        <path class="st15" d="M152.7,160.1l6,0.4l-1.1,15.8l-6-0.4L152.7,160.1z"/>
        <path class="st16"
              d="M103.8,180.4l53.3,3.6l-0.5,7.8l-53.3-3.6L103.8,180.4z"/>
        <path class="st17" d="M151.1,183.6l6,0.4l-0.5,7.8l-6-0.4L151.1,183.6z"/>
        <path class="st16"
              d="M105.9,149.1l53.3,3.6l-0.5,7.8l-53.3-3.6L105.9,149.1z"/>
        <path class="st18" d="M105.4,156.9l6,0.4l-1.1,15.8l-6-0.4L105.4,156.9z"/>
        <path class="st19" d="M103.8,180.4l6,0.4l-0.5,7.8l-6-0.4L103.8,180.4z"/>
        <path class="st20"
              d="M124.9,146.4c4.8,0.3,11.1,0.8,16,1.1l1.2,4c-5.8-0.4-13.1-0.9-18.9-1.3L124.9,146.4z"/>
        <path class="st21"
              d="M147.8,149.2l6.9,0.5l-0.2,2.7l-6.9-0.5L147.8,149.2z"/>
        <path class="st21"
              d="M110.8,146.7l6.9,0.5l-0.2,2.7l-6.9-0.5L110.8,146.7z"/>
        <path class="st22" d="M151.1,149.4l0.5,0l-0.2,2.7l-0.5,0L151.1,149.4z"/>
        <path class="st22" d="M153.4,149.5l0.5,0l-0.2,2.7l-0.5,0L153.4,149.5z"/>
        <path class="st22" d="M152.2,149.5l0.5,0l-0.2,2.7l-0.5,0L152.2,149.5z"/>
        <path class="st22" d="M149.9,149.3l0.5,0l-0.2,2.7l-0.5,0L149.9,149.3z"/>
        <path class="st22" d="M148.7,149.2l0.5,0L149,152l-0.5,0L148.7,149.2z"/>
        <path class="st18"
              d="M111.3,157.3l41.4,2.8l-0.1,0.8l-41.4-2.8L111.3,157.3L111.3,157.3z"/>
        <path class="st23" d="M105.4,156.9l6,0.4l-0.1,0.8l-6-0.4L105.4,156.9z"/>
        <path class="st14" d="M152.7,160.1l6,0.4l-0.1,0.8l-6-0.4L152.7,160.1z"/>
        <path class="st18"
              d="M110.3,172.3l41.4,2.8l-0.1,0.8l-41.4-2.8L110.3,172.3L110.3,172.3z"/>
        <path class="st23" d="M104.3,171.9l6,0.4l-0.1,0.8l-6-0.4L104.3,171.9z"/>
        <path class="st14" d="M151.7,175.1l6,0.4l-0.1,0.8l-6-0.4L151.7,175.1z"/>
        <path class="st21"
              d="M130.5,180.1c-7.4-0.6-13-7-12.4-14.5c0.6-7.4,7-13,14.5-12.4c7.4,0.6,13,7,12.4,14.5  C144.4,175.1,137.9,180.6,130.5,180.1z"/>
        <path class="st24"
              d="M121,165.9c0.4-5.8,5.4-10.2,11.3-9.8c5.8,0.4,10.2,5.4,9.8,11.3c-0.4,5.8-5.4,10.2-11.3,9.8  C125,176.8,120.6,171.7,121,165.9z"/>
        <path class="st25"
              d="M136,164.5c-2.3-2.7-3.9-5.7-4.6-8.4c0.2,0,0.5,0,0.8,0c5.8,0.4,10.2,5.4,9.8,11.3c0,0.7-0.2,1.4-0.3,2.1  C139.7,168.2,137.7,166.6,136,164.5z"/>
        <path class="st26"
              d="M128.1,166.4c0.1-1.9,1.8-3.4,3.7-3.2c1.9,0.1,3.4,1.8,3.2,3.7c-0.1,1.9-1.8,3.4-3.7,3.2  C129.4,169.9,127.9,168.3,128.1,166.4z"/>
        <path class="st27" d="M124.9,146.4l5,0.3l-1.8,3.8l-4.9-0.3L124.9,146.4z"/>
        <path class="st28"
              d="M159.7,156.8l-0.7,0l0.1-1l1.3,0.1c0.4,0,0.7,0.4,0.7,0.8l-0.2,2.3c0,0.4-0.4,0.8-0.8,0.7l-1.3-0.1l0.1-1  l0.7,0c0.2,0,0.3-0.2,0.3-0.3l0.1-1.1C160,157,159.9,156.9,159.7,156.8z"/>
        <path class="st48" d="M198.1,139.5c0,0-21.9,14.5-40.1,18.3"/>
        <path class="st28"
              d="M104.8,155.1l0.7,0l-0.1,1l-1.3-0.1c-0.4,0-0.7-0.4-0.7-0.8l0.2-2.3c0-0.4,0.4-0.8,0.8-0.7l1.3,0.1l-0.1,1  l-0.7,0c-0.2,0-0.3,0.2-0.3,0.3l-0.1,1.1C104.4,154.8,104.6,155,104.8,155.1z"/>
        <path class="st48" d="M107.3,154.8c0,0-11.2-20.9-11.1-30.6"/>
        <path class="st17" d="M153.3,152.3l6,0.4l-0.5,7.8l-6-0.4L153.3,152.3z"/>
        <path class="st19" d="M105.9,149.1l6,0.4l-0.5,7.8l-6-0.4L105.9,149.1z"/></g>


    <g id="hat">

        <path class="st30"
              d="M140.8,15.6c0-0.6,0.6-0.8,0.9-1.2c1.7-1.9,3.4-3.9,5.3-5.7c3.6-3.5,8.2-5.6,13.6-6.4c4.4-0.7,8.8,0,13,1.9  c4.7,2.2,8.3,5.4,11.1,9.5c2.7,3.8,4.3,7.9,5.2,12.3c0.3,1.5,0.7,2.9,1,4.3c-0.8,0.3-1.6,0.2-2.5,0.3c-3.7,0.5-7.5,0.8-11.3,0.6  c-4.5-0.2-9-0.9-13.4-2.3c-7.1-2.2-13.5-5.8-19.2-10.4c-0.9-0.8-1.7-1.6-2.6-2.4C141.6,15.7,141.3,15.6,140.8,15.6z"/>
        <path class="st31"
              d="M190.8,34.6c2.4,3.2,4.7,6.5,7.1,9.7c0.3,0.4,0.6,0.8,0.8,1.3c-0.2,0.2-0.4,0.2-0.7,0.3  c-8.9,1.9-18,2.4-27.3,0.4c-3.6-0.8-7.1-1.7-10.5-3.1c-2.2-0.9-4.5-1.7-6.7-2.6c-7.6-3.2-14.8-7.2-21.1-12.4c-1.6-1.3-3-2.6-4.3-4.2  c1-0.7,2.1-1.1,3.3-1.6c3.1-1.4,6-3.1,8.5-5.2c0.3,0.4,0.1,0.7-0.1,1c-0.7,0.9-0.5,1.8,0.2,2.7c1.6,2.3,3.6,4.3,5.9,6  c2.9,2.2,6.1,3.9,9.4,5.4c5.1,2.3,10.4,3.9,15.9,5c4.3,0.9,8.7,1.4,13,0.6c2.4-0.4,4.6-1.2,6.2-3C190.4,34.7,190.6,34.6,190.8,34.6z  "/>
        <path class="st30"
              d="M128.2,24c0.3,0.1,0.6,0.3,0.8,0.6c4,4.3,8.9,7.5,14,10.5c2.7,1.6,5.6,3,8.4,4.3c3.8,1.8,7.7,3.3,11.7,4.6  c6.9,2.3,14,3.5,21.3,3.4c4.5-0.1,8.9-0.7,13.2-1.6c0.4-0.1,0.8-0.1,1.2-0.2c0.1,0.2,0.3,0.4,0.4,0.6c0.5,0.8,0.2,1.3-0.7,1.5  c-1.7,0.5-3.4,1.1-5.1,1.7c-6.7,2.3-13.7,3.4-21.2,2.8c-3.9-0.3-7.7-1-11.5-2.2c-3.2-1-6.2-2.1-9.3-3.4c-7.7-3.4-14.7-7.8-20.6-13.6  c-2.1-2.1-3.6-4.4-5.4-6.7c-0.3-0.3-0.1-0.5,0.1-0.7C126.3,25,127.2,24.4,128.2,24z"/>
        <path class="st32"
              d="M190.8,34.6c-1.5,2.2-4,3-6.6,3.5c-3.7,0.7-7.4,0.4-11.1-0.3c-8.9-1.6-17.4-4.4-25.1-9.2  c-3.4-2.2-6.4-4.8-8.5-8.1c-0.5-0.7-0.5-1.3-0.1-2c0.3-0.4,0.4-0.8,0.6-1.3c0.3-0.6,0.6-1.1,0.9-1.7c0.3-0.5,0.6-0.5,1,0  c2.9,3,6.3,5.5,9.9,7.6c3.7,2.2,7.6,4,11.8,5.3c8.4,2.7,16.7,2.9,25,1.8c0.8-0.1,1.5-0.2,2.3-0.1C190.9,31.7,190.8,33.2,190.8,34.6z  "/>
        <path class="st33"
              d="M167.3,25.6c-0.5,1.4-1.7,1.8-3.3,1.2c-1.2-0.5-1.8-1.8-1.3-3c0.5-1.2,2-1.7,3.4-1.1  C167.2,23.1,167.7,24.4,167.3,25.6z"/>
        <path class="st33"
              d="M155.1,21.2c0.4-1.5,1.8-1.5,3.4-1.1c1.1,0.3,1.7,1.8,1.3,3c-0.5,1.2-1.7,1.7-3.1,1.1  C155.1,23.6,154.6,22.5,155.1,21.2z"/>
        <path class="st34"
              d="M166.6,25.3c-0.3,0.9-1.2,1.2-2.2,0.9c-0.9-0.3-1.4-1.3-1-2.1c0.3-0.8,1.4-1.2,2.3-0.9  C166.6,23.5,167,24.4,166.6,25.3z"/>
        <path class="st34"
              d="M159,22.7c-0.3,0.9-1.2,1.3-2.2,0.9c-0.9-0.3-1.4-1.3-1.1-2.1c0.3-0.8,1.4-1.2,2.3-0.9  C158.9,20.9,159.3,21.8,159,22.7z"/></g>

</svg>