
<!-- Generator: Adobe Illustrator 23.0.3, SVG Export Plug-In . SVG Version:
6.00 Build 0) -->
<svg contentScriptType="text/ecmascript" zoomAndPan="magnify"
     xmlns:xlink="http://www.w3.org/1999/xlink" contentStyleType="text/css"
     id="圖層_1" style="enable-background:new 0 0 300 350;" version="1.1"
     xml:space="preserve" preserveAspectRatio="xMidYMid meet"
     viewBox="0 0 300 350" xmlns="http://www.w3.org/2000/svg" x="0px" y="0px">
    <style type="text/css" xml:space="preserve">
	.st0{fill:#A52224;}
	.st1{fill:#D93030;}
	.st2{fill:none;stroke:#18191F;stroke-width:4.2762;stroke-linecap:round;stroke-linejoin:round;stroke-miterlimit:10;}
	.st3{fill:#E83C3C;}
	.st4{fill:none;stroke:#18191F;stroke-width:5.4044;stroke-linecap:round;stroke-linejoin:round;stroke-miterlimit:10;}
	.st5{fill:#F08E93;}
	.st6{fill:#18191F;}
	.st7{fill:#FF353B;}
	.st8{fill:#FFFFFF;}
	.st9{fill:#23B5F3;}
	.st10{fill:#CCCCFF;}
	.st11{fill:#6460FF;}
	.st12{fill:#DB9451;}
	.st13{fill:#F4B55E;}
	.st14{fill:#EC6519;}
	.st15{fill:#EF7C33;}
	.st16{fill:#CCCCCC;}
	.st17{fill:#E6E6E5;}
	.st18{fill:#B75320;}
	.st19{fill:#B3B3B3;}
	.st20{fill-rule:evenodd;clip-rule:evenodd;fill:#4D4D4D;}
	.st21{fill:#4D4D4D;}
	.st22{fill:#323333;}
	.st23{fill:#9C4623;}
	.st24{fill-rule:evenodd;clip-rule:evenodd;fill:#CBE8F0;}
	.st25{fill-rule:evenodd;clip-rule:evenodd;fill:#E1F0F3;}
	.st26{fill-rule:evenodd;clip-rule:evenodd;fill:#9ECCD5;}
	.st27{fill-rule:evenodd;clip-rule:evenodd;fill:#323333;}
	.st28{fill-rule:evenodd;clip-rule:evenodd;fill:#666666;}
	.st29{fill:none;stroke:#F4B55E;stroke-width:2.051;stroke-linecap:round;stroke-linejoin:round;stroke-miterlimit:10;}
	.st30{fill:#C7B79C;}
	.st31{fill:#D4C9B4;}
	.st32{fill:#51524E;}
	.st33{fill:#E1E1E1;}
	.st34{fill:#43312B;}
	.st35{fill:#C6C6C6;}
	.st36{fill:#AAAAAA;}
	.st37{fill:#939393;}
	.st38{fill:#E0E0E0;}
	.st39{fill:#2B451C;}
	.st40{fill:#395527;}
	.st41{fill:none;stroke:#18191F;stroke-width:5.3533;stroke-linecap:round;stroke-linejoin:round;stroke-miterlimit:10;}
	.st42{fill:none;stroke:#18191F;stroke-width:4.5;stroke-linecap:round;stroke-linejoin:round;stroke-miterlimit:10;}
	.st43{fill:none;stroke:#F4B55E;stroke-width:2.378;stroke-linecap:round;stroke-linejoin:round;stroke-miterlimit:10;}
	.st44{fill:none;stroke:#F4B55E;stroke-width:3.459;stroke-linecap:round;stroke-linejoin:round;stroke-miterlimit:10;}
	.st45{fill:#FF9398;}
	.st46{fill:none;stroke:#18191F;stroke-width:4.5;stroke-linecap:round;stroke-miterlimit:10;}
	.st47{fill:none;stroke:#18191F;stroke-width:4.0241;stroke-linecap:round;stroke-linejoin:round;stroke-miterlimit:10;}
	.st48{fill:none;stroke:#F4B55E;stroke-width:1.5623;stroke-linecap:round;stroke-linejoin:round;stroke-miterlimit:10;}
	.st49{fill:none;stroke:#18191F;stroke-width:3.0579;stroke-linecap:round;stroke-linejoin:round;stroke-miterlimit:10;}
	.st50{fill:none;stroke:#18191F;stroke-width:2.7483;stroke-linecap:round;stroke-linejoin:round;stroke-miterlimit:10;}
</style>

    <g id="plainAvatar">

        <path class="st7"
              d="M260,293.2c-0.8-4.6-5.2-7.9-11.3-9.2c-3.2-0.7-5.4-4.1-4.7-7.5c1.2-5.9,2-12.1,2.3-18.8  c2.4-50.7-23.5-104-65.2-129.4C162.8,117,159.4,91.7,148,73.7c-13.6-21.4-33.9-34.9-58.7-27.4c-15.5,4.7-53.1,12.5-49.2,147.3  c3.9,134.7,57,161.9,117,155.6c29.6-3.1,54.1-14.5,70-34.8c1.2-1.6,3.1-2.4,5-2.4c2.4,0.1,4.9-0.1,7.5-0.7  C252.2,308.9,261.3,300.7,260,293.2z"/>
        <path class="st42"
              d="M105.9,174.2c2.3,10.5,7,21.5,13.1,21.3c14.2-0.4,8.6-24.3,8.6-24.3"/>
        <path class="st42"
              d="M165.6,161.1c1.8,11.2-1.1,28.6-14.3,25.9c-5.9-1.2-8.5-10.6-6-20.4"/>
        <path class="st42"
              d="M155.8,293.3c11.6-6.8,24.4-6.7,28.5,0.4c4.1,7-2,12.4-13.6,19.2"/>
        <path class="st8"
              d="M91.4,64.5c1.5,2.9,1,6.2-1.2,7.3s-5.1-0.4-6.6-3.3c-1.5-2.9-1-6.2,1.2-7.3c1-0.5,2.3-0.5,3.5,0.1  C89.4,61.9,90.6,63,91.4,64.5z"/>
        <path class="st8"
              d="M105.1,57.4c1.5,2.9,1,6.2-1.2,7.3s-5.1-0.4-6.6-3.3c-1.5-2.9-1-6.2,1.2-7.3c1.3-0.7,3-0.4,4.4,0.7  C103.8,55.5,104.6,56.3,105.1,57.4z"/>
        <path class="st42" d="M72,58.2c0,0,0.7-10.8,8.1-14"/>
        <path class="st42" d="M88.2,40.2c0,0,5.2-2.7,15,0"/></g>

    <g id="body">


        <path class="st14" d="M148.8,126l-53.3,3.6l2.1,31.5l53.3-3.6L148.8,126z"/>
        <path class="st15" d="M102,137l-6,0.4l1.1,15.8l6-0.4L102,137z"/>
        <path class="st16"
              d="M150.9,157.3l-53.3,3.6l0.5,7.8l53.3-3.6L150.9,157.3z"/>
        <path class="st17" d="M103.5,160.5l-6,0.4l0.5,7.8l6-0.4L103.5,160.5z"/>
        <path class="st16" d="M148.8,126l-53.3,3.6l0.5,7.8l53.3-3.6L148.8,126z"/>
        <path class="st18" d="M149.3,133.8l-6,0.4l1.1,15.8l6-0.4L149.3,133.8z"/>
        <path class="st19" d="M150.9,157.3l-6,0.4l0.5,7.8l6-0.4L150.9,157.3z"/>
        <path class="st20"
              d="M129.8,123.3c-4.8,0.3-11.1,0.8-16,1.1l-1.2,4c5.8-0.4,13.1-0.9,18.9-1.3L129.8,123.3z"/>
        <path class="st21"
              d="M106.9,126.1l-6.9,0.5l0.2,2.7l6.9-0.5L106.9,126.1z"/>
        <path class="st21"
              d="M143.9,123.6l-6.9,0.5l0.2,2.7l6.9-0.5L143.9,123.6z"/>
        <path class="st22" d="M103.6,126.3l-0.5,0l0.2,2.7l0.5,0L103.6,126.3z"/>
        <path class="st22" d="M101.3,126.5l-0.5,0l0.2,2.7l0.5,0L101.3,126.5z"/>
        <path class="st22" d="M102.4,126.4l-0.5,0l0.2,2.7l0.5,0L102.4,126.4z"/>
        <path class="st22" d="M104.8,126.2l-0.5,0l0.2,2.7l0.5,0L104.8,126.2z"/>
        <path class="st22" d="M106,126.2l-0.5,0l0.2,2.7l0.5,0L106,126.2z"/>
        <path class="st18"
              d="M143.4,134.2L102,137l0.1,0.8l41.4-2.8L143.4,134.2L143.4,134.2z"/>
        <path class="st23" d="M149.3,133.8l-6,0.4l0.1,0.8l6-0.4L149.3,133.8z"/>
        <path class="st14" d="M102,137l-6,0.4l0.1,0.8l6-0.4L102,137z"/>
        <path class="st18"
              d="M144.4,149.3L103,152l0.1,0.8l41.4-2.8L144.4,149.3L144.4,149.3z"/>
        <path class="st23" d="M150.3,148.9l-6,0.4l0.1,0.8l6-0.4L150.3,148.9z"/>
        <path class="st14" d="M103,152l-6,0.4l0.1,0.8l6-0.4L103,152z"/>
        <path class="st21"
              d="M124.2,157c7.4-0.6,13-7,12.4-14.5c-0.6-7.4-7-13-14.5-12.4s-13,7-12.4,14.5C110.3,152,116.8,157.6,124.2,157z  "/>
        <path class="st24"
              d="M133.7,142.9c-0.4-5.8-5.4-10.2-11.3-9.8c-5.8,0.4-10.2,5.4-9.8,11.3c0.4,5.8,5.4,10.2,11.3,9.8  C129.7,153.7,134.1,148.6,133.7,142.9z"/>
        <path class="st25"
              d="M118.7,141.5c2.3-2.7,3.9-5.7,4.6-8.4c-0.2,0-0.5,0-0.8,0c-5.8,0.4-10.2,5.4-9.8,11.3c0,0.7,0.2,1.4,0.3,2.1  C115,145.1,116.9,143.5,118.7,141.5z"/>
        <path class="st26"
              d="M126.6,143.3c-0.1-1.9-1.8-3.4-3.7-3.2s-3.4,1.8-3.2,3.7s1.8,3.4,3.7,3.2C125.3,146.8,126.8,145.2,126.6,143.3  z"/>
        <path class="st27" d="M129.8,123.3l-5,0.3l1.8,3.8l4.9-0.3L129.8,123.3z"/>
        <path class="st28"
              d="M95,133.8l0.7,0l-0.1-1l-1.3,0.1c-0.4,0-0.7,0.4-0.7,0.8l0.2,2.3c0,0.4,0.4,0.8,0.8,0.7l1.3-0.1l-0.1-1l-0.7,0  c-0.2,0-0.3-0.2-0.3-0.3l-0.1-1.1C94.7,134,94.8,133.8,95,133.8z"/>
        <path class="st48" d="M44.6,111c0,0,33.8,20,52,23.7"/>
        <path class="st28"
              d="M149.9,132l-0.7,0l0.1,1l1.3-0.1c0.4,0,0.7-0.4,0.7-0.8l-0.2-2.3c0-0.4-0.4-0.8-0.8-0.7l-1.3,0.1l0.1,1l0.7,0  c0.2,0,0.3,0.2,0.3,0.3l0.1,1.1C150.3,131.8,150.1,132,149.9,132z"/>
        <path class="st48" d="M147.4,131.7c0,0,17.4-15.9,17.3-25.5"/>
        <path class="st17" d="M101.4,129.2l-6,0.4l0.5,7.8l6-0.4L101.4,129.2z"/>
        <path class="st19" d="M148.8,126l-6,0.4l0.5,7.8l6-0.4L148.8,126z"/></g>


    <g id="hat">

        <path class="st0"
              d="M64.6,14.8c0,0-4.3-2.7-1.9-5.6c0,0,2.2-2.8,2.2-3.1c0,0,1.8-0.4,1.4,1.6c0,0-1.8,4.4,0.1,6.2L64.6,14.8z"/>
        <path class="st1"
              d="M97.4,10c-14.6-6.3-32.2,2.8-32.2,2.8s-18.3,7.8-22.7,23.1c0,0-1.7,5,2.1,7.6l8.3,5.2l23.8-11.2l23.8-11.2  l1.3-9.8C102.3,11.9,97.4,10,97.4,10z"/></g>

</svg>