<?xml version="1.0" encoding="utf-8"?>
                  <svg version="1.1" id="avatarPic" xmlns="http://www.w3.org/2000/svg" xmlns:xlink="http://www.w3.org/1999/xlink" 
                  viewBox="0 0 300 350" xml:space="preserve"><style type="text/css">
  .st0{fill:#A52224;}
  .st1{fill:#D93030;}
  .st2{fill:none;stroke:#040000;stroke-width:5.3533;stroke-linecap:round;stroke-linejoin:round;stroke-miterlimit:10;}
  .st3{fill:#E83C3C;}
  .st4{fill:#F08E93;}
  .st5{fill:none;stroke:#040000;stroke-width:4.6992;stroke-linecap:round;stroke-linejoin:round;stroke-miterlimit:10;}
  .st6{fill:#040000;}
  .st7{fill:#DB9451;}
  .st8{fill:#F4B55E;}
  .st9{fill:#EC6519;}
  .st10{fill:#EF7C33;}
  .st11{fill:#CCCCCC;}
  .st12{fill:#E6E6E5;}
  .st13{fill:#B75320;}
  .st14{fill:#B3B3B3;}
  .st15{fill-rule:evenodd;clip-rule:evenodd;fill:#4D4D4D;}
  .st16{fill:#4D4D4D;}
  .st17{fill:#323333;}
  .st18{fill:#9C4623;}
  .st19{fill-rule:evenodd;clip-rule:evenodd;fill:#CBE8F0;}
  .st20{fill-rule:evenodd;clip-rule:evenodd;fill:#E1F0F3;}
  .st21{fill-rule:evenodd;clip-rule:evenodd;fill:#9ECCD5;}
  .st22{fill-rule:evenodd;clip-rule:evenodd;fill:#323333;}
  .st23{fill-rule:evenodd;clip-rule:evenodd;fill:#666666;}
  .st24{fill:none;stroke:#F4B55E;stroke-width:2.378;stroke-linecap:round;stroke-linejoin:round;stroke-miterlimit:10;}
                 </style>
                                <g id="plainAvatar"><path class="st4" d="M259,126.7c-3.4-4.6-12.1-4.1-21,0.6c-0.7,0-1.2,0.1-1.2,0.1l-7.6-38.7c0-0.2-0.1-0.3-0.1-0.5
c-10.4-30.2-36.8-50-68.9-49.2c-18.1,0.4-37.1,8.7-47,18.8c-8.3,8.4-23,24.8-30.5,35.1c-4.8-5.3-10.2-7.9-14.3-6.1
c-6.4,2.8-7.2,14.9-1.9,27c0.3,0.8,0.7,1.5,1.1,2.2c1.6,3.1,1.7,6.7,0.4,10c-3.4,8.1-6.6,14.1-9.5,22.3c-3.3,9.4-3.1,9.5-5.8,19.1
c-2.9,10.2-5.4,20.5-7.3,30.9c-1.9,10.3-3.4,20.8-4,31.3c-0.6,9.9-0.4,20,0.9,29.8c1.2,9.1,3.5,18.1,7.4,26.4
c3.7,8,8.8,15.2,15.3,21.1c7.1,6.4,15.7,11,24.8,13.9c3.4,1.1,6.8,1.9,10.3,2.6c1.9,0.4,3.8,0.7,5.6,1c0.1,0,0.2,0,0.3,0.1
c0.1,0.1,0.1,0.2,0.1,0.3c0.6,3.1,1.2,6.3,2.1,9.4c0.9,3,2.1,5.9,3.9,8.5c0,0.1,0.2,0.2,0.2,0.3c2.4,3.2,6.1,5.9,10.3,5
c4.4-0.9,6.2-5.1,7-9.1c0.4-2.1,0.6-4.3,0.8-6.5c0.1-1.5-0.3-5.2,1.5-5.6c0.6-0.1,1.1,0,1.7,0c3.1,0.4,6.1,0.7,9.2,0.9
c2.2,0.1,4.4,0.1,6.7,0.1c1.3,0,2.2,1.4,1.7,2.7c-1.5,3.4-2.6,6.8-2.4,10.6c0.1,3.1,1.2,6.2,4,7.8c5.6,3.2,15.5-3.4,22.1-14.9
c0.5-0.8,0.9-1.6,1.3-2.4c1.1-2.2,3.1-3.8,5.6-4.2c7.4-1.3,15-2.4,21.7-6.2c6.6-3.7,12.6-8.5,17.6-14.1
c9.5-10.5,15.6-23.7,18.4-37.6c7.3-36,3.6-75.5,0.6-111.9c-0.1-1.4,0.6-2.8,1.9-3.5c1.7-0.9,3.5-2.1,5.2-3.3
C257.9,143.2,263.1,132.3,259,126.7z"></path>
<path d="M149.2,65.9c1.6-2.5,4.3-3,6.1-1.1c1.8,1.9,1.9,5.5,0.3,8c-1.6,2.5-4.3,3-6.1,1.1S147.6,68.4,149.2,65.9z"></path>
<path d="M164,68.2c1.6-2.5,4.3-3,6.1-1.1c1.8,1.9,1.9,5.5,0.3,8c-1.6,2.5-4.3,3-6.1,1.1S162.4,70.7,164,68.2z"></path></g>
                                <g id="body"><path class="st10" d="M91.4,164.1l68.5,15.3l9-40.4l-68.5-15.3L91.4,164.1z"></path>
<path class="st11" d="M154.5,167.5l7.7,1.7l4.5-20.3l-7.7-1.7L154.5,167.5z"></path>
<path class="st12" d="M89.2,173.9l68.5,15.3l2.2-10l-68.5-15.3L89.2,173.9z"></path>
<path class="st13" d="M150,187.4l7.7,1.7l2.2-10l-7.7-1.7L150,187.4z"></path>
<path class="st12" d="M98.1,133.7l68.5,15.3l2.2-10l-68.5-15.3L98.1,133.7z"></path>
<path class="st14" d="M93.6,154l7.7,1.7l4.5-20.3l-7.7-1.7L93.6,154z"></path>
<path class="st15" d="M89.2,173.9l7.7,1.7l2.2-10l-7.7-1.7L89.2,173.9z"></path>
<path class="st16" d="M122.5,128.5c7.5,1.7,16.8,3.8,24.3,5.4l-0.8-5.5c-6.2-1.4-14.3-3.2-20.5-4.6L122.5,128.5z"></path>
<path class="st17" d="M154,135.6l8.8,2l0.8-3.5l-8.8-2L154,135.6z"></path>
<path class="st17" d="M106.4,125l8.8,2l0.8-3.5l-8.8-2L106.4,125z"></path>
<path class="st18" d="M158.1,136.6l0.7,0.2l0.8-3.5l-0.7-0.2L158.1,136.6z"></path>
<path class="st18" d="M161.2,137.2l0.7,0.2l0.8-3.5l-0.7-0.2L161.2,137.2z"></path>
<path class="st18" d="M159.7,136.9l0.7,0.2l0.8-3.5l-0.7-0.2L159.7,136.9z"></path>
<path class="st18" d="M156.6,136.2l0.7,0.2l0.8-3.5l-0.7-0.2L156.6,136.2z"></path>
<path class="st18" d="M155.1,135.9l0.7,0.2l0.8-3.5l-0.7-0.2L155.1,135.9z"></path>
<path class="st14" d="M105.9,135.4l-0.2,1l53.1,11.8l0.2-1L105.9,135.4L105.9,135.4z"></path>
<path class="st19" d="M97.9,134.7l7.7,1.7l0.2-1l-7.7-1.7L97.9,134.7z"></path>
<path class="st10" d="M158.8,148.3l7.7,1.7l0.2-1l-7.7-1.7L158.8,148.3z"></path>
<path class="st14" d="M101.6,154.7l-0.2,1l53.1,11.8l0.2-1L101.6,154.7L101.6,154.7z"></path>
<path class="st19" d="M93.6,154l7.7,1.7l0.2-1l-7.7-1.7L93.6,154z"></path>
<path class="st10" d="M154.5,167.5l7.7,1.7l0.2-1l-7.7-1.7L154.5,167.5z"></path>
<path class="st17" d="M147.4,155.5c2.2-9.5-3.7-19.1-13.3-21.3c-9.5-2.2-19.1,3.7-21.3,13.3c-2.2,9.5,3.7,19.1,13.3,21.3
	C135.6,171,145.1,165.1,147.4,155.5z"></path>
<path class="st20" d="M127.1,165.1c7.5,1.7,14.9-3.1,16.6-10.5c1.7-7.5-3.1-14.9-10.5-16.6c-7.5-1.7-14.9,3.1-16.6,10.5
	C115,155.9,119.6,163.4,127.1,165.1z"></path>
<path class="st21" d="M142.9,157.2c0.3-0.8,0.6-1.7,0.8-2.6c1.7-7.5-3-14.9-10.5-16.6c-0.4-0.1-0.8-0.1-1.1-0.2
	c0.4,3.7,1.8,7.9,4.3,11.9C138.3,152.7,140.5,155.2,142.9,157.2z"></path>
<path class="st22" d="M129.2,156c2.4,0.5,4.9-1,5.4-3.4c0.5-2.4-1-4.9-3.4-5.4c-2.4-0.5-4.9,1-5.4,3.4
	C125.2,153,126.7,155.3,129.2,156z"></path>
<path class="st23" d="M122.6,128.6l6.4,1.4l3-4.6l-6.4-1.4L122.6,128.6z"></path>
<path class="st24" d="M168.9,145.1l-0.3,1.5c-0.1,0.2-0.3,0.4-0.5,0.4l-0.9-0.2l-0.3,1.2l1.6,0.4c0.5,0.1,1-0.3,1.1-0.8l0.7-3
	c0.1-0.5-0.2-1.1-0.7-1.2l-1.6-0.4l-0.3,1.3l0.9,0.2C168.9,144.5,169,144.8,168.9,145.1z"></path>
<path class="st26" d="M166.3,145.3c24.4-1.2,70.5-17.8,70.5-17.8"></path>
<path class="st24" d="M97.5,130.7l0.3-1.5c0.1-0.2,0.3-0.4,0.5-0.4l0.9,0.2l0.3-1.3l-1.6-0.4c-0.5-0.1-1,0.3-1.1,0.8l-0.7,3
	c-0.1,0.5,0.2,1.1,0.7,1.2l1.6,0.4l0.3-1.3l-0.9-0.2C97.5,131.2,97.3,130.9,97.5,130.7z"></path>
<path class="st26" d="M83.5,92.4c-2.1,12.5,17.6,39,17.6,39"></path>
<path class="st13" d="M159,147.3l7.7,1.7l2.2-10l-7.7-1.7L159,147.3z"></path>
<path class="st15" d="M98.1,133.7l7.7,1.7l2.2-10l-7.7-1.7L98.1,133.7z"></path></g>
                                <g id="hat"><path class="st8" d="M228.2,44.2c0,0,1.7-4.7-4.7-7.8c-8.6-0.5-16.3-2.6-22.7-5.2c-4.1-1.6-7.7-3.5-10.7-5.2
c-5-2.9-8.9-5.8-11.5-7.9c-2.5-0.5-8.1-1-9.4,2.6c0,0-2.3,5.8,7.5,12.5c0,0,15,10.5,40.9,14.8C217.6,48,226.8,48.6,228.2,44.2z"></path>
<path class="st9" d="M224.2,33.6l3.1-9.2c0,0,2.1-8.1-4.7-13.5c0,0-10.5-7.5-22.3-9.8c0,0-9.9-1.7-14.4,6.3l-5,9
c2.5,2,6.1,4.6,10.6,7.3C199.1,27.9,210.4,32.9,224.2,33.6z"></path></g>                     
                            </svg>