
<!-- Generator: Adobe Illustrator 23.0.3, SVG Export Plug-In . SVG Version:
6.00 Build 0) -->
<svg contentScriptType="text/ecmascript" zoomAndPan="magnify"
     xmlns:xlink="http://www.w3.org/1999/xlink" contentStyleType="text/css"
     id="圖層_1" style="enable-background:new 0 0 300 350;" version="1.1"
     xml:space="preserve" preserveAspectRatio="xMidYMid meet"
     viewBox="0 0 300 350" xmlns="http://www.w3.org/2000/svg" x="0px" y="0px">
    <style type="text/css" xml:space="preserve">
	.st0{fill:#A52224;}
	.st1{fill:#D93030;}
	.st2{fill:none;stroke:#18191F;stroke-width:4.2762;stroke-linecap:round;stroke-linejoin:round;stroke-miterlimit:10;}
	.st3{fill:#E83C3C;}
	.st4{fill:none;stroke:#18191F;stroke-width:5.4044;stroke-linecap:round;stroke-linejoin:round;stroke-miterlimit:10;}
	.st5{fill:#F08E93;}
	.st6{fill:#18191F;}
	.st7{fill:#FF353B;}
	.st8{fill:#FFFFFF;}
	.st9{fill:#23B5F3;}
	.st10{fill:#CCCCFF;}
	.st11{fill:#6460FF;}
	.st12{fill:#DB9451;}
	.st13{fill:#F4B55E;}
	.st14{fill:#EC6519;}
	.st15{fill:#EF7C33;}
	.st16{fill:#CCCCCC;}
	.st17{fill:#E6E6E5;}
	.st18{fill:#B75320;}
	.st19{fill:#B3B3B3;}
	.st20{fill-rule:evenodd;clip-rule:evenodd;fill:#4D4D4D;}
	.st21{fill:#4D4D4D;}
	.st22{fill:#323333;}
	.st23{fill:#9C4623;}
	.st24{fill-rule:evenodd;clip-rule:evenodd;fill:#CBE8F0;}
	.st25{fill-rule:evenodd;clip-rule:evenodd;fill:#E1F0F3;}
	.st26{fill-rule:evenodd;clip-rule:evenodd;fill:#9ECCD5;}
	.st27{fill-rule:evenodd;clip-rule:evenodd;fill:#323333;}
	.st28{fill-rule:evenodd;clip-rule:evenodd;fill:#666666;}
	.st29{fill:none;stroke:#F4B55E;stroke-width:2.051;stroke-linecap:round;stroke-linejoin:round;stroke-miterlimit:10;}
	.st30{fill:#C7B79C;}
	.st31{fill:#D4C9B4;}
	.st32{fill:#51524E;}
	.st33{fill:#E1E1E1;}
	.st34{fill:#43312B;}
	.st35{fill:#C6C6C6;}
	.st36{fill:#AAAAAA;}
	.st37{fill:#939393;}
	.st38{fill:#E0E0E0;}
	.st39{fill:#2B451C;}
	.st40{fill:#395527;}
	.st41{fill:none;stroke:#18191F;stroke-width:5.3533;stroke-linecap:round;stroke-linejoin:round;stroke-miterlimit:10;}
	.st42{fill:none;stroke:#18191F;stroke-width:4.5;stroke-linecap:round;stroke-linejoin:round;stroke-miterlimit:10;}
	.st43{fill:none;stroke:#F4B55E;stroke-width:2.378;stroke-linecap:round;stroke-linejoin:round;stroke-miterlimit:10;}
	.st44{fill:none;stroke:#F4B55E;stroke-width:3.459;stroke-linecap:round;stroke-linejoin:round;stroke-miterlimit:10;}
	.st45{fill:#FF9398;}
	.st46{fill:none;stroke:#18191F;stroke-width:4.5;stroke-linecap:round;stroke-miterlimit:10;}
	.st47{fill:none;stroke:#18191F;stroke-width:4.0241;stroke-linecap:round;stroke-linejoin:round;stroke-miterlimit:10;}
	.st48{fill:none;stroke:#F4B55E;stroke-width:1.5623;stroke-linecap:round;stroke-linejoin:round;stroke-miterlimit:10;}
	.st49{fill:none;stroke:#18191F;stroke-width:3.0579;stroke-linecap:round;stroke-linejoin:round;stroke-miterlimit:10;}
	.st50{fill:none;stroke:#18191F;stroke-width:2.7483;stroke-linecap:round;stroke-linejoin:round;stroke-miterlimit:10;}
</style>

    <g id="plainAvatar">

        <path class="st10"
              d="M259,126.7c-3.4-4.6-12.1-4.1-21,0.6c-0.7,0-1.2,0.1-1.2,0.1l-7.6-38.7c0-0.2-0.1-0.3-0.1-0.5  c-10.4-30.2-36.8-50-68.9-49.2c-18.1,0.4-37.1,8.7-47,18.8c-8.3,8.4-23,24.8-30.5,35.1c-4.8-5.3-10.2-7.9-14.3-6.1  c-6.4,2.8-7.2,14.9-1.9,27c0.3,0.8,0.7,1.5,1.1,2.2c1.6,3.1,1.7,6.7,0.4,10c-3.4,8.1-6.6,14.1-9.5,22.3c-3.3,9.4-3.1,9.5-5.8,19.1  c-2.9,10.2-5.4,20.5-7.3,30.9c-1.9,10.3-3.4,20.8-4,31.3c-0.6,9.9-0.4,20,0.9,29.8c1.2,9.1,3.5,18.1,7.4,26.4  c3.7,8,8.8,15.2,15.3,21.1c7.1,6.4,15.7,11,24.8,13.9c3.4,1.1,6.8,1.9,10.3,2.6c1.9,0.4,3.8,0.7,5.6,1c0.1,0,0.2,0,0.3,0.1  c0.1,0.1,0.1,0.2,0.1,0.3c0.6,3.1,1.2,6.3,2.1,9.4c0.9,3,2.1,5.9,3.9,8.5c0,0.1,0.2,0.2,0.2,0.3c2.4,3.2,6.1,5.9,10.3,5  c4.4-0.9,6.2-5.1,7-9.1c0.4-2.1,0.6-4.3,0.8-6.5c0.1-1.5-0.3-5.2,1.5-5.6c0.6-0.1,1.1,0,1.7,0c3.1,0.4,6.1,0.7,9.2,0.9  c2.2,0.1,4.4,0.1,6.7,0.1c1.3,0,2.2,1.4,1.7,2.7c-1.5,3.4-2.6,6.8-2.4,10.6c0.1,3.1,1.2,6.2,4,7.8c5.6,3.2,15.5-3.4,22.1-14.9  c0.5-0.8,0.9-1.6,1.3-2.4c1.1-2.2,3.1-3.8,5.6-4.2c7.4-1.3,15-2.4,21.7-6.2c6.6-3.7,12.6-8.5,17.6-14.1  c9.5-10.5,15.6-23.7,18.4-37.6c7.3-36,3.6-75.5,0.6-111.9c-0.1-1.4,0.6-2.8,1.9-3.5c1.7-0.9,3.5-2.1,5.2-3.3  C257.9,143.2,263.1,132.3,259,126.7z"/>
        <path class="st6"
              d="M149.3,65.5c1.8-2.9,4.9-3.4,6.9-1.3c2,2.1,2.2,6.2,0.4,9c-1.8,2.9-4.9,3.4-6.9,1.3  C147.7,72.4,147.5,68.4,149.3,65.5z"/>
        <path class="st6"
              d="M166,68.1c1.8-2.9,4.9-3.4,6.9-1.3c2,2.1,2.2,6.2,0.4,9c-1.8,2.9-4.9,3.4-6.9,1.3C164.4,75,164.2,70.9,166,68.1  z"/></g>

    <g id="body">


        <path class="st14"
              d="M91.4,164.1l68.5,15.3l9-40.4l-68.5-15.3L91.4,164.1z"/>
        <path class="st15"
              d="M154.5,167.5l7.7,1.7l4.5-20.3l-7.7-1.7L154.5,167.5z"/>
        <path class="st16"
              d="M89.2,173.9l68.5,15.3l2.2-10l-68.5-15.3L89.2,173.9z"/>
        <path class="st17" d="M150,187.4l7.7,1.7l2.2-10l-7.7-1.7L150,187.4z"/>
        <path class="st16"
              d="M98.1,133.7l68.5,15.3l2.2-10l-68.5-15.3L98.1,133.7z"/>
        <path class="st18" d="M93.6,154l7.7,1.7l4.5-20.3l-7.7-1.7L93.6,154z"/>
        <path class="st19" d="M89.2,173.9l7.7,1.7l2.2-10l-7.7-1.7L89.2,173.9z"/>
        <path class="st20"
              d="M122.5,128.5c7.5,1.7,16.8,3.8,24.3,5.4l-0.8-5.5c-6.2-1.4-14.3-3.2-20.5-4.6L122.5,128.5z"/>
        <path class="st21" d="M154,135.6l8.8,2l0.8-3.5l-8.8-2L154,135.6z"/>
        <path class="st21" d="M106.4,125l8.8,2l0.8-3.5l-8.8-2L106.4,125z"/>
        <path class="st22"
              d="M158.1,136.6l0.7,0.2l0.8-3.5l-0.7-0.2L158.1,136.6z"/>
        <path class="st22"
              d="M161.2,137.2l0.7,0.2l0.8-3.5l-0.7-0.2L161.2,137.2z"/>
        <path class="st22"
              d="M159.7,136.9l0.7,0.2l0.8-3.5l-0.7-0.2L159.7,136.9z"/>
        <path class="st22"
              d="M156.6,136.2l0.7,0.2l0.8-3.5l-0.7-0.2L156.6,136.2z"/>
        <path class="st22"
              d="M155.1,135.9l0.7,0.2l0.8-3.5l-0.7-0.2L155.1,135.9z"/>
        <path class="st18"
              d="M105.9,135.4l-0.2,1l53.1,11.8l0.2-1L105.9,135.4L105.9,135.4z"/>
        <path class="st23" d="M97.9,134.7l7.7,1.7l0.2-1l-7.7-1.7L97.9,134.7z"/>
        <path class="st14" d="M158.8,148.3l7.7,1.7l0.2-1l-7.7-1.7L158.8,148.3z"/>
        <path class="st18"
              d="M101.6,154.7l-0.2,1l53.1,11.8l0.2-1L101.6,154.7L101.6,154.7z"/>
        <path class="st23" d="M93.6,154l7.7,1.7l0.2-1l-7.7-1.7L93.6,154z"/>
        <path class="st14" d="M154.5,167.5l7.7,1.7l0.2-1l-7.7-1.7L154.5,167.5z"/>
        <path class="st21"
              d="M147.4,155.5c2.2-9.5-3.7-19.1-13.3-21.3c-9.5-2.2-19.1,3.7-21.3,13.3c-2.2,9.5,3.7,19.1,13.3,21.3  C135.6,171,145.1,165.1,147.4,155.5z"/>
        <path class="st24"
              d="M127.1,165.1c7.5,1.7,14.9-3.1,16.6-10.5c1.7-7.5-3.1-14.9-10.5-16.6c-7.5-1.7-14.9,3.1-16.6,10.5  C115,155.9,119.6,163.4,127.1,165.1z"/>
        <path class="st25"
              d="M142.9,157.2c0.3-0.8,0.6-1.7,0.8-2.6c1.7-7.5-3-14.9-10.5-16.6c-0.4-0.1-0.8-0.1-1.1-0.2  c0.4,3.7,1.8,7.9,4.3,11.9C138.3,152.7,140.5,155.2,142.9,157.2z"/>
        <path class="st26"
              d="M129.2,156c2.4,0.5,4.9-1,5.4-3.4c0.5-2.4-1-4.9-3.4-5.4c-2.4-0.5-4.9,1-5.4,3.4  C125.2,153,126.7,155.3,129.2,156z"/>
        <path class="st27" d="M122.6,128.6l6.4,1.4l3-4.6l-6.4-1.4L122.6,128.6z"/>
        <path class="st28"
              d="M168.9,145.1l-0.3,1.5c-0.1,0.2-0.3,0.4-0.5,0.4l-0.9-0.2l-0.3,1.2l1.6,0.4c0.5,0.1,1-0.3,1.1-0.8l0.7-3  c0.1-0.5-0.2-1.1-0.7-1.2l-1.6-0.4l-0.3,1.3l0.9,0.2C168.9,144.5,169,144.8,168.9,145.1z"/>
        <path class="st29" d="M166.3,145.3c24.4-1.2,70.5-17.8,70.5-17.8"/>
        <path class="st28"
              d="M97.5,130.7l0.3-1.5c0.1-0.2,0.3-0.4,0.5-0.4l0.9,0.2l0.3-1.3l-1.6-0.4c-0.5-0.1-1,0.3-1.1,0.8l-0.7,3  c-0.1,0.5,0.2,1.1,0.7,1.2l1.6,0.4l0.3-1.3l-0.9-0.2C97.5,131.2,97.3,130.9,97.5,130.7z"/>
        <path class="st29" d="M83.5,92.4c-2.1,12.5,17.6,39,17.6,39"/>
        <path class="st17" d="M159,147.3l7.7,1.7l2.2-10l-7.7-1.7L159,147.3z"/>
        <path class="st19" d="M98.1,133.7l7.7,1.7l2.2-10l-7.7-1.7L98.1,133.7z"/></g>


    <g id="hat">

        <path class="st30"
              d="M185.2,11.5c0.1-0.6,0.7-0.8,1.1-1.1c2.1-1.7,4-3.6,6.2-5.2c4.2-3.1,9.2-4.7,14.8-4.8c4.6-0.1,9,1.1,13.1,3.7  c4.5,2.8,7.8,6.7,10.1,11.2c2.3,4.3,3.4,8.8,3.7,13.3c0.1,1.5,0.3,3.1,0.5,4.6c-0.8,0.2-1.7,0-2.6,0c-3.9,0-7.8-0.2-11.7-0.9  c-4.6-0.8-9.1-2.2-13.5-4.2c-7.1-3.2-13.1-7.8-18.4-13.2c-0.9-0.9-1.6-1.9-2.4-2.9C186,11.7,185.7,11.5,185.2,11.5z"/>
        <path class="st31"
              d="M234.1,37.7c2,3.6,4,7.3,6,11c0.2,0.5,0.5,0.9,0.7,1.4c-0.2,0.2-0.5,0.2-0.7,0.2c-9.4,0.8-18.8,0-28.1-3.3  c-3.6-1.3-7.1-2.7-10.4-4.5c-2.2-1.2-4.4-2.3-6.6-3.6c-7.4-4.3-14.3-9.4-20.1-15.5c-1.4-1.5-2.8-3.1-3.8-4.9  c1.1-0.6,2.4-0.9,3.6-1.2c3.4-1,6.5-2.4,9.4-4.2c0.2,0.4,0,0.7-0.3,1c-0.8,0.8-0.7,1.7-0.2,2.8c1.4,2.6,3.1,4.9,5.3,6.9  c2.7,2.6,5.8,4.8,9,6.8c5,3.1,10.2,5.4,15.7,7.3c4.3,1.5,8.8,2.5,13.3,2.3c2.5-0.1,4.9-0.6,6.7-2.2  C233.7,37.7,233.9,37.6,234.1,37.7z"/>
        <path class="st30"
              d="M171.1,18.5c0.3,0.1,0.5,0.4,0.7,0.7c3.6,4.9,8.1,8.9,13,12.6c2.6,2,5.3,3.8,8.1,5.5c3.7,2.3,7.5,4.4,11.4,6.3  c6.8,3.3,14,5.5,21.4,6.3c4.7,0.5,9.3,0.5,13.8,0.1c0.4,0,0.8,0,1.2,0c0.1,0.2,0.2,0.5,0.3,0.7c0.4,0.9,0.1,1.3-0.9,1.5  c-1.9,0.3-3.7,0.7-5.5,1c-7.2,1.4-14.6,1.7-22.2,0.1c-4-0.8-7.8-2.1-11.5-3.8c-3.1-1.4-6.1-3-9.1-4.8c-7.5-4.5-14.1-9.9-19.4-16.7  c-1.9-2.4-3.1-5-4.7-7.6c-0.2-0.4,0-0.5,0.2-0.7C169,19.2,170,18.7,171.1,18.5z"/>
        <path class="st32"
              d="M234.1,37.7c-1.8,2-4.5,2.5-7.3,2.7c-3.8,0.2-7.7-0.6-11.4-1.8c-8.9-2.8-17.3-6.8-24.6-12.8  c-3.2-2.7-5.9-5.8-7.7-9.4c-0.4-0.8-0.4-1.4,0.1-2.1c0.3-0.4,0.5-0.8,0.8-1.2c0.4-0.5,0.8-1.1,1.1-1.6c0.4-0.4,0.6-0.4,1,0.1  c2.6,3.4,5.7,6.5,9.2,9.2c3.5,2.8,7.3,5.1,11.4,7.1c8.3,3.9,16.8,5.2,25.5,5.1c0.8,0,1.6,0,2.4,0.2  C234.6,34.7,234.3,36.2,234.1,37.7z"/>
        <path class="st33"
              d="M211.1,25.3c-0.7,1.3-2,1.6-3.6,0.7c-1.2-0.7-1.6-2.1-1-3.2c0.6-1.2,2.3-1.5,3.7-0.7  C211.3,22.7,211.7,24.1,211.1,25.3z"/>
        <path class="st33"
              d="M199.1,19.1c0.7-1.5,2-1.3,3.6-0.7c1.1,0.5,1.5,2.1,0.9,3.3c-0.7,1.2-2,1.5-3.4,0.7  C198.8,21.6,198.4,20.4,199.1,19.1z"/>
        <path class="st34"
              d="M210.5,24.9c-0.5,0.9-1.4,1.1-2.4,0.6c-0.9-0.5-1.2-1.5-0.8-2.3c0.5-0.8,1.6-1.1,2.5-0.6  C210.7,23,210.9,24,210.5,24.9z"/>
        <path class="st34"
              d="M203,21.1c-0.5,0.9-1.4,1.1-2.4,0.7c-0.9-0.5-1.3-1.5-0.8-2.3c0.4-0.8,1.6-1.1,2.5-0.6  C203.1,19.3,203.4,20.3,203,21.1z"/></g>

</svg>