<?xml version="1.0" encoding="utf-8"?>
                  <svg version="1.1" id="avatarPic" xmlns="http://www.w3.org/2000/svg" xmlns:xlink="http://www.w3.org/1999/xlink" 
                  viewBox="0 0 300 350" xml:space="preserve"><style type="text/css">
  .st0{fill:#A52224;}
  .st1{fill:#D93030;}
  .st2{fill:none;stroke:#040000;stroke-width:5.3533;stroke-linecap:round;stroke-linejoin:round;stroke-miterlimit:10;}
  .st3{fill:#E83C3C;}
  .st4{fill:#F08E93;}
  .st5{fill:none;stroke:#040000;stroke-width:4.6992;stroke-linecap:round;stroke-linejoin:round;stroke-miterlimit:10;}
  .st6{fill:#040000;}
  .st7{fill:#DB9451;}
  .st8{fill:#F4B55E;}
  .st9{fill:#EC6519;}
  .st10{fill:#EF7C33;}
  .st11{fill:#CCCCCC;}
  .st12{fill:#E6E6E5;}
  .st13{fill:#B75320;}
  .st14{fill:#B3B3B3;}
  .st15{fill-rule:evenodd;clip-rule:evenodd;fill:#4D4D4D;}
  .st16{fill:#4D4D4D;}
  .st17{fill:#323333;}
  .st18{fill:#9C4623;}
  .st19{fill-rule:evenodd;clip-rule:evenodd;fill:#CBE8F0;}
  .st20{fill-rule:evenodd;clip-rule:evenodd;fill:#E1F0F3;}
  .st21{fill-rule:evenodd;clip-rule:evenodd;fill:#9ECCD5;}
  .st22{fill-rule:evenodd;clip-rule:evenodd;fill:#323333;}
  .st23{fill-rule:evenodd;clip-rule:evenodd;fill:#666666;}
  .st24{fill:none;stroke:#F4B55E;stroke-width:2.378;stroke-linecap:round;stroke-linejoin:round;stroke-miterlimit:10;}
                 </style>
                                <g id="plainAvatar"><path class="st4" d="M259,126.7c-3.4-4.6-12.1-4.1-21,0.6c-0.7,0-1.2,0.1-1.2,0.1l-7.6-38.7c0-0.2-0.1-0.3-0.1-0.5
c-10.4-30.2-36.8-50-68.9-49.2c-18.1,0.4-37.1,8.7-47,18.8c-8.3,8.4-23,24.8-30.5,35.1c-4.8-5.3-10.2-7.9-14.3-6.1
c-6.4,2.8-7.2,14.9-1.9,27c0.3,0.8,0.7,1.5,1.1,2.2c1.6,3.1,1.7,6.7,0.4,10c-3.4,8.1-6.6,14.1-9.5,22.3c-3.3,9.4-3.1,9.5-5.8,19.1
c-2.9,10.2-5.4,20.5-7.3,30.9c-1.9,10.3-3.4,20.8-4,31.3c-0.6,9.9-0.4,20,0.9,29.8c1.2,9.1,3.5,18.1,7.4,26.4
c3.7,8,8.8,15.2,15.3,21.1c7.1,6.4,15.7,11,24.8,13.9c3.4,1.1,6.8,1.9,10.3,2.6c1.9,0.4,3.8,0.7,5.6,1c0.1,0,0.2,0,0.3,0.1
c0.1,0.1,0.1,0.2,0.1,0.3c0.6,3.1,1.2,6.3,2.1,9.4c0.9,3,2.1,5.9,3.9,8.5c0,0.1,0.2,0.2,0.2,0.3c2.4,3.2,6.1,5.9,10.3,5
c4.4-0.9,6.2-5.1,7-9.1c0.4-2.1,0.6-4.3,0.8-6.5c0.1-1.5-0.3-5.2,1.5-5.6c0.6-0.1,1.1,0,1.7,0c3.1,0.4,6.1,0.7,9.2,0.9
c2.2,0.1,4.4,0.1,6.7,0.1c1.3,0,2.2,1.4,1.7,2.7c-1.5,3.4-2.6,6.8-2.4,10.6c0.1,3.1,1.2,6.2,4,7.8c5.6,3.2,15.5-3.4,22.1-14.9
c0.5-0.8,0.9-1.6,1.3-2.4c1.1-2.2,3.1-3.8,5.6-4.2c7.4-1.3,15-2.4,21.7-6.2c6.6-3.7,12.6-8.5,17.6-14.1
c9.5-10.5,15.6-23.7,18.4-37.6c7.3-36,3.6-75.5,0.6-111.9c-0.1-1.4,0.6-2.8,1.9-3.5c1.7-0.9,3.5-2.1,5.2-3.3
C257.9,143.2,263.1,132.3,259,126.7z"></path>
<path d="M149.2,65.9c1.6-2.5,4.3-3,6.1-1.1c1.8,1.9,1.9,5.5,0.3,8c-1.6,2.5-4.3,3-6.1,1.1S147.6,68.4,149.2,65.9z"></path>
<path d="M164,68.2c1.6-2.5,4.3-3,6.1-1.1c1.8,1.9,1.9,5.5,0.3,8c-1.6,2.5-4.3,3-6.1,1.1S162.4,70.7,164,68.2z"></path></g>
                                <g id="body"><path class="st7" d="M66.7,122.4l-13.4,8.5"></path>
<path class="st7" d="M57.7,112.1l-13.4,8.5"></path>
<path class="st7" d="M73.2,131l-8.7,10"></path>
<path class="st7" d="M82.2,135.7L75.7,148"></path>
<path class="st3" d="M98.9,66c0,0,70.5,43.4,135.2,37.3c0,0,14.2,3,0,12.5c0,0,13.5,6.7,2.3,13.5c-11.2,6.7-58.8,25.3-151.8-36.8
	c0,0-11.4-18.9,4.5-13C89.2,79.4,81.1,60.5,98.9,66z"></path>
<path class="st3" d="M93.5,91.8c0,0-31,2.6-41.3,18.2c0,0,18.5,26.2,34.5,26.7l24.8-31.2L93.5,91.8z"></path></g>
                                <g id="hat"><path class="st0" d="M185.7,8.5c0,0-2-5,1.9-6c0,0,3.6-1,3.8-1.3c0,0,1.8,0.8,0.3,2.3c0,0-4.3,2.7-3.8,5.4L185.7,8.5z"></path>
<path class="st1" d="M217.1,25c-8.7-14.6-29.6-17.9-29.6-17.9s-20.8-4.8-34.2,5.7c0,0-4.7,3.3-3,7.8l4,9.7l27.7,5.4l27.7,5.4
	l7.3-7.7C220.2,29.8,217.1,25,217.1,25z"></path></g>                     
                            </svg>