<?xml version="1.0" encoding="utf-8"?>
<!-- Generator: Adobe Illustrator 23.0.3, SVG Export Plug-In . SVG Version: 6.00 Build 0)  -->
<svg version="1.1" id="圖層_1" xmlns="http://www.w3.org/2000/svg" xmlns:xlink="http://www.w3.org/1999/xlink" x="0px" y="0px"
	 viewBox="0 0 300 350" style="enable-background:new 0 0 300 350;" xml:space="preserve">
<style type="text/css">
	.st0{fill:#A52224;}
	.st1{fill:#D93030;}
	.st2{fill:none;stroke:#040000;stroke-width:4.2762;stroke-linecap:round;stroke-linejoin:round;stroke-miterlimit:10;}
	.st3{fill:#E83C3C;}
	.st4{fill:none;stroke:#040000;stroke-width:5.4044;stroke-linecap:round;stroke-linejoin:round;stroke-miterlimit:10;}
	.st5{fill:#6460FF;}
	.st6{fill:#CCCCFF;}
	.st7{fill:url(#SVGID_1_);}
	.st8{fill:#FF353B;}
	.st9{fill:#FFFFFF;}
	.st10{fill:#F08E93;}
	.st11{fill:#DB9451;}
	.st12{fill:#F4B55E;}
	.st13{fill:#EC6519;}
	.st14{fill:#EF7C33;}
	.st15{fill:#CCCCCC;}
	.st16{fill:#E6E6E5;}
	.st17{fill:#B75320;}
	.st18{fill:#B3B3B3;}
	.st19{fill-rule:evenodd;clip-rule:evenodd;fill:#4D4D4D;}
	.st20{fill:#4D4D4D;}
	.st21{fill:#323333;}
	.st22{fill:#9C4623;}
	.st23{fill-rule:evenodd;clip-rule:evenodd;fill:#CBE8F0;}
	.st24{fill-rule:evenodd;clip-rule:evenodd;fill:#E1F0F3;}
	.st25{fill-rule:evenodd;clip-rule:evenodd;fill:#9ECCD5;}
	.st26{fill-rule:evenodd;clip-rule:evenodd;fill:#323333;}
	.st27{fill-rule:evenodd;clip-rule:evenodd;fill:#666666;}
	.st28{fill:none;stroke:#F4B55E;stroke-width:2.051;stroke-linecap:round;stroke-linejoin:round;stroke-miterlimit:10;}
	.st29{fill:#231F20;}
	.st30{fill:#C7B79C;}
	.st31{fill:#D4C9B4;}
	.st32{fill:#51524E;}
	.st33{fill:#E1E1E1;}
	.st34{fill:#43312B;}
	.st35{fill:#C6C6C6;}
	.st36{fill:#AAAAAA;}
	.st37{fill:#939393;}
	.st38{fill:#E0E0E0;}
	.st39{fill:#2B451C;}
	.st40{fill:#395527;}
	.st41{fill:none;stroke:#040000;stroke-width:5.3533;stroke-linecap:round;stroke-linejoin:round;stroke-miterlimit:10;}
	.st42{fill:none;stroke:#040000;stroke-width:4.5;stroke-linecap:round;stroke-linejoin:round;stroke-miterlimit:10;}
	.st43{fill:#040000;}
	.st44{fill:url(#SVGID_2_);}
	.st45{fill:none;stroke:#F4B55E;stroke-width:2.378;stroke-linecap:round;stroke-linejoin:round;stroke-miterlimit:10;}
	.st46{fill:none;stroke:#F4B55E;stroke-width:3.459;stroke-linecap:round;stroke-linejoin:round;stroke-miterlimit:10;}
	.st47{fill:none;stroke:#000000;stroke-width:4.5;stroke-linecap:round;stroke-linejoin:round;stroke-miterlimit:10;}
	.st48{fill:url(#SVGID_3_);}
	.st49{fill:#FF9398;}
	.st50{fill:url(#SVGID_4_);}
	.st51{fill:none;stroke:#000000;stroke-width:4.5;stroke-linecap:round;stroke-miterlimit:10;}
	.st52{fill:url(#SVGID_5_);}
	.st53{fill:none;stroke:#040000;stroke-width:4.0241;stroke-linecap:round;stroke-linejoin:round;stroke-miterlimit:10;}
	.st54{fill:none;stroke:#F4B55E;stroke-width:1.5623;stroke-linecap:round;stroke-linejoin:round;stroke-miterlimit:10;}
	.st55{fill:none;stroke:#040000;stroke-width:3.0579;stroke-linecap:round;stroke-linejoin:round;stroke-miterlimit:10;}
	.st56{fill:none;stroke:#040000;stroke-width:2.7483;stroke-linecap:round;stroke-linejoin:round;stroke-miterlimit:10;}
</style>
<g>
	<path class="st35" d="M190.8,106.4c1.6-1.5,3.2-3,4.8-4.5c4.4-4.2,8.9-8.5,13.3-12.6c3-2.8,6.9-3.2,10.2-1.2
		c2.3,1.4,3.5,3.5,4.3,6.1c1.9,5.9,3.8,11.8,5.7,17.8c0,0.1,0,0.3,0.1,0.4c-0.2,0.1-0.3-0.1-0.4-0.2c-1-1.6-2.6-2.2-4.3-2.6
		c-2.7-0.6-5.3-0.4-7.9,0c-6.3,1-11.8,4.1-17.2,7.6c-1.3,0.9-2.7,1.7-4,2.7c-0.3,0.2-0.6,0.5-1.1,0.5c-0.5-0.1-0.4-0.6-0.5-1
		c-0.7-3.1-1.5-6.2-2.2-9.2c-0.2-0.9-0.4-1.8-0.8-2.7C190.8,107,190.7,106.7,190.8,106.4z"/>
	<path class="st35" d="M146.5,132c-0.4-2.6-0.8-5.2-1.3-7.9c-0.6-4-1.2-8-1.8-12c-1-6.6,4.3-11.8,10.4-10.1c5,1.4,9.9,3,14.9,4.5
		c3.1,0.9,6.1,1.9,9.2,2.9c0.1,0,0.2,0,0.3,0c0.1,0.1,0.2,0.2,0.2,0.4c0.5,4,1.8,7.9,2.6,11.9c0.1,0.5,0.3,1.1,0.1,1.6
		c-0.4,0.4-0.8,0.2-1.3,0.2c-4.7-0.7-9.4-1.2-14.2-1.1c-5,0.1-9.7,1.1-14.1,3.5c-1.7,0.9-3.3,2-4.2,3.8c-0.3,0.6-0.7,1.2-0.6,2
		C146.7,131.7,146.8,132,146.5,132z"/>
	<path class="st36" d="M206,123.7c0.6,1.1,1.5,2,2.3,2.9c4.9,6.1,9.9,12.2,14.9,18.3c0.2,0.3,0.4,0.5,0.6,0.8c-0.4,0.2-0.7,0-1-0.1
		c-3.5-0.9-6.9-1.9-10.4-2.8c-0.6-0.2-0.9-0.2-0.8,0.7c0.4,3.9,0.8,7.8,1.2,11.7c0,0.2,0,0.4,0.1,0.6c-0.3,0.1-0.4-0.1-0.5-0.3
		c-7.8-9.6-15.6-19.2-23.4-28.8c-0.1-0.1-0.2-0.3-0.3-0.4c-0.1-0.1-0.1-0.2-0.2-0.3c-0.5-0.6-0.5-0.8,0.2-1c0.5-0.2,1.1-0.3,1.6-0.4
		c1.3-0.2,2.4-0.9,3-2.2c0.2-0.3,0.3-0.6,0.7-0.7c1.2,0.6,2.5,0.6,3.8,0.8c2.5,0.4,4.9,0.6,7.4,0.8
		C205.6,123.4,205.9,123.4,206,123.7z"/>
	<path class="st36" d="M188.1,126.3c-0.7,3.3-1.4,6.7-2.2,10c-2,8.8-3.9,17.6-5.9,26.5c-0.1,0.3-0.2,0.6-0.3,1.2
		c-0.7-1.8-1.3-3.4-1.9-5c-0.9-2.3-1.7-4.6-2.6-6.9c-0.2-0.7-0.4-0.7-0.9-0.3c-2.7,2.4-5.4,4.8-8.1,7.2c-0.2,0.2-0.5,0.4-0.7,0.6
		c-0.2-0.3,0-0.6,0-0.9c1.9-8.5,3.8-17,5.7-25.4c0.1-0.3,0.3-0.7,0.1-1c0.1-0.6,0.6-0.7,1-0.9c3.1-1.7,6.1-3.7,9-5.8
		c0.5-0.3,0.7-0.7,0.7-1.3c0.5-0.1,1,0.3,1.2,0.6c0.9,1,1.9,0.9,2.9,0.8c0.4,0,0.8-0.2,1.2-0.3C188.1,125.2,188.2,125.3,188.1,126.3
		z"/>
	<path class="st37" d="M181.9,124.2c0.4,0.6,0.3,0.9-0.3,1.3c-3.2,2.3-6.5,4.5-9.9,6.4c-0.2,0.1-0.4,0.2-0.5,0.4
		c-3.4,1.7-6.8,3.4-10.5,4c-3.1,0.6-6.2,0.9-9.3,0.2c-1.3-0.3-2.5-0.7-3.5-1.7c-0.8-0.8-1.4-1.7-1.4-2.9c0-3.1,2-4.6,4.1-6
		c1.8-1.2,3.8-2,5.9-2.6c5.4-1.7,11-1.6,16.6-1.1c2.6,0.2,5.3,0.6,7.9,1C181.6,123.2,181.9,123.6,181.9,124.2z"/>
	<path class="st37" d="M206,123.7c-3.7-0.2-7.5-0.7-11.1-1.2c-0.4-0.1-0.7-0.1-0.8-0.6c-0.2-0.7-0.1-1.3,0.5-1.7
		c4.6-3.2,9.2-6.3,14.3-8.6c3.3-1.5,6.9-2.3,10.5-2.6c2.2-0.1,4.3-0.1,6.4,0.6c1.5,0.5,2.7,1.2,3.5,2.7c0.8,1.7,0.4,3.2-0.5,4.6
		c-1.6,2.3-3.9,3.5-6.4,4.5c-4.7,2-9.6,2.6-14.7,2.4C207.1,123.7,206.6,123.7,206,123.7z"/>
	<path class="st38" d="M194.6,120c-0.4,0.5-0.3,1.2-0.5,1.7c-0.2,0.3-0.4,0.6-0.6,0.9c-0.6,1.2-1.5,1.8-2.7,2.1
		c-0.5,0.1-1,0.2-1.5,0.4c-1,0.2-1,0.2-0.5,1.2c-0.2-0.1-0.5-0.7-0.7,0c0-0.9-0.5-0.9-1.1-0.6c-0.7,0.2-1.4,0.3-2.1,0.3
		c-0.7,0-1.3-0.2-1.9-0.9c-0.2-0.3-0.6-0.7-1.1-0.8c-0.3-0.3-0.5-0.9-1-1c0.2-0.4,0-0.7-0.1-1c-0.8-3.2-1.5-6.4-2.3-9.7
		c-0.3-1.1-0.6-2.1-0.4-3.3c0.2-2,1.3-3.4,3.2-3.8c1.6-0.4,3.3-0.8,4.9-1.2c1.9-0.4,3.4,0.3,4.5,2c0.5,1,0.9,2.1,1.1,3.2
		c0.8,3.4,1.6,6.8,2.3,10.2C194.4,120,194.4,120,194.6,120z"/>
</g>
</svg>
