<?xml version="1.0" encoding="utf-8"?>
<!-- Generator: Adobe Illustrator 23.0.3, SVG Export Plug-In . SVG Version: 6.00 Build 0)  -->
<svg version="1.1" id="圖層_1" xmlns="http://www.w3.org/2000/svg" xmlns:xlink="http://www.w3.org/1999/xlink" x="0px" y="0px"
	 viewBox="0 0 300 350" style="enable-background:new 0 0 300 350;" xml:space="preserve">
<style type="text/css">
	.st0{fill:#A52224;}
	.st1{fill:#D93030;}
	.st2{fill:none;stroke:#18191F;stroke-width:4.2762;stroke-linecap:round;stroke-linejoin:round;stroke-miterlimit:10;}
	.st3{fill:#E83C3C;}
	.st4{fill:none;stroke:#18191F;stroke-width:5.4044;stroke-linecap:round;stroke-linejoin:round;stroke-miterlimit:10;}
	.st5{fill:#F08E93;}
	.st6{fill:#18191F;}
	.st7{fill:#FF353B;}
	.st8{fill:#FFFFFF;}
	.st9{fill:#23B5F3;}
	.st10{fill:#CCCCFF;}
	.st11{fill:#6460FF;}
	.st12{fill:#DB9451;}
	.st13{fill:#F4B55E;}
	.st14{fill:#EC6519;}
	.st15{fill:#EF7C33;}
	.st16{fill:#CCCCCC;}
	.st17{fill:#E6E6E5;}
	.st18{fill:#B75320;}
	.st19{fill:#B3B3B3;}
	.st20{fill-rule:evenodd;clip-rule:evenodd;fill:#4D4D4D;}
	.st21{fill:#4D4D4D;}
	.st22{fill:#323333;}
	.st23{fill:#9C4623;}
	.st24{fill-rule:evenodd;clip-rule:evenodd;fill:#CBE8F0;}
	.st25{fill-rule:evenodd;clip-rule:evenodd;fill:#E1F0F3;}
	.st26{fill-rule:evenodd;clip-rule:evenodd;fill:#9ECCD5;}
	.st27{fill-rule:evenodd;clip-rule:evenodd;fill:#323333;}
	.st28{fill-rule:evenodd;clip-rule:evenodd;fill:#666666;}
	.st29{fill:none;stroke:#F4B55E;stroke-width:2.051;stroke-linecap:round;stroke-linejoin:round;stroke-miterlimit:10;}
	.st30{fill:#C7B79C;}
	.st31{fill:#D4C9B4;}
	.st32{fill:#51524E;}
	.st33{fill:#E1E1E1;}
	.st34{fill:#43312B;}
	.st35{fill:#C6C6C6;}
	.st36{fill:#AAAAAA;}
	.st37{fill:#939393;}
	.st38{fill:#E0E0E0;}
	.st39{fill:#2B451C;}
	.st40{fill:#395527;}
	.st41{fill:none;stroke:#18191F;stroke-width:5.3533;stroke-linecap:round;stroke-linejoin:round;stroke-miterlimit:10;}
	.st42{fill:none;stroke:#18191F;stroke-width:4.5;stroke-linecap:round;stroke-linejoin:round;stroke-miterlimit:10;}
	.st43{fill:none;stroke:#F4B55E;stroke-width:2.378;stroke-linecap:round;stroke-linejoin:round;stroke-miterlimit:10;}
	.st44{fill:none;stroke:#F4B55E;stroke-width:3.459;stroke-linecap:round;stroke-linejoin:round;stroke-miterlimit:10;}
	.st45{fill:#FF9398;}
	.st46{fill:none;stroke:#18191F;stroke-width:4.5;stroke-linecap:round;stroke-miterlimit:10;}
	.st47{fill:none;stroke:#18191F;stroke-width:4.0241;stroke-linecap:round;stroke-linejoin:round;stroke-miterlimit:10;}
	.st48{fill:none;stroke:#F4B55E;stroke-width:1.5623;stroke-linecap:round;stroke-linejoin:round;stroke-miterlimit:10;}
	.st49{fill:none;stroke:#18191F;stroke-width:3.0579;stroke-linecap:round;stroke-linejoin:round;stroke-miterlimit:10;}
	.st50{fill:none;stroke:#18191F;stroke-width:2.7483;stroke-linecap:round;stroke-linejoin:round;stroke-miterlimit:10;}
</style>
<path class="st35" d="M190.4,107.5c1.3-1.5,2.6-3,3.9-4.5c3.6-4.3,7.2-8.5,10.8-12.8c2.4-2.8,5.9-3.6,9.2-2.1c2.2,1,3.5,2.9,4.5,5.1
	c2.3,5.2,4.7,10.3,7,15.5c0,0.1,0.1,0.2,0.1,0.3c-0.2,0.1-0.3,0-0.4-0.2c-1.1-1.4-2.6-1.7-4.1-1.9c-2.5-0.3-4.8,0.2-7.2,0.8
	c-5.6,1.6-10.3,4.9-14.8,8.6c-1.1,0.9-2.2,1.8-3.3,2.8c-0.3,0.2-0.5,0.5-0.9,0.5c-0.4-0.1-0.5-0.5-0.6-0.8c-1-2.7-1.9-5.4-2.9-8.2
	c-0.3-0.8-0.6-1.6-1-2.4C190.4,108.1,190.3,107.8,190.4,107.5z"/>
<path class="st35" d="M152.7,135.2c-0.6-2.3-1.3-4.6-1.9-7c-0.9-3.6-1.9-7.1-2.8-10.7c-1.5-5.8,2.7-11.1,8.4-10.2
	c4.7,0.8,9.3,1.7,14,2.6c2.9,0.5,5.7,1.1,8.6,1.7c0.1,0,0.2,0,0.2,0c0.1,0.1,0.2,0.2,0.3,0.3c0.8,3.6,2.4,7,3.5,10.5
	c0.1,0.5,0.4,0.9,0.3,1.5c-0.3,0.4-0.7,0.3-1.2,0.3c-4.3-0.2-8.7-0.1-12.9,0.4c-4.5,0.6-8.7,2-12.5,4.6c-1.4,1-2.7,2.1-3.5,3.8
	c-0.2,0.6-0.5,1.2-0.4,1.9C152.9,134.9,153,135.1,152.7,135.2z"/>
<path class="st36" d="M205.8,121.7c0.7,0.9,1.5,1.6,2.3,2.4c5.1,5,10.2,10,15.3,15.1c0.2,0.2,0.4,0.5,0.7,0.7
	c-0.3,0.3-0.6,0.1-0.9,0c-3.2-0.5-6.5-1-9.7-1.5c-0.6-0.1-0.8-0.1-0.6,0.7c0.8,3.5,1.5,7,2.3,10.5c0,0.2,0.1,0.4,0.1,0.6
	c-0.3,0.1-0.4-0.1-0.5-0.2c-8-7.9-16-15.8-24.1-23.7c-0.1-0.1-0.2-0.2-0.3-0.3c-0.1-0.1-0.2-0.2-0.2-0.3c-0.6-0.5-0.5-0.7,0.1-1
	c0.4-0.2,0.9-0.4,1.4-0.5c1.2-0.4,2.1-1,2.5-2.3c0.1-0.3,0.2-0.6,0.5-0.7c1.2,0.5,2.4,0.3,3.5,0.4c2.3,0.1,4.5,0.1,6.8,0
	C205.4,121.5,205.7,121.5,205.8,121.7z"/>
<path class="st36" d="M189.8,125.9c-0.3,3.1-0.6,6.2-1,9.3c-0.9,8.2-1.8,16.4-2.7,24.6c0,0.3-0.1,0.6-0.1,1.1
	c-0.8-1.6-1.5-3-2.2-4.4c-1-2-2-4-3-6c-0.3-0.6-0.5-0.6-0.9-0.2c-2.2,2.5-4.4,4.9-6.6,7.3c-0.2,0.2-0.4,0.4-0.6,0.6
	c-0.3-0.3-0.1-0.6-0.1-0.8c0.9-7.9,1.7-15.7,2.6-23.6c0-0.3,0.2-0.6,0-0.9c0-0.5,0.5-0.7,0.8-0.9c2.6-1.9,5.2-3.9,7.6-6.1
	c0.4-0.4,0.6-0.7,0.5-1.3c0.5-0.2,0.9,0.2,1.2,0.4c0.9,0.8,1.8,0.6,2.7,0.4c0.3-0.1,0.7-0.2,1-0.3
	C189.7,124.9,189.8,125,189.8,125.9z"/>
<path class="st37" d="M184.1,124.6c0.4,0.5,0.4,0.8-0.1,1.2c-2.7,2.4-5.4,4.7-8.4,6.8c-0.2,0.1-0.3,0.3-0.4,0.4
	c-2.9,1.9-5.8,3.7-9.1,4.7c-2.7,0.8-5.5,1.4-8.4,1.1c-1.2-0.1-2.3-0.4-3.3-1.2c-0.8-0.6-1.4-1.4-1.6-2.5c-0.3-2.8,1.4-4.4,3.1-5.9
	c1.5-1.3,3.3-2.2,5.1-2.9c4.7-2.1,9.8-2.6,14.9-2.7c2.4-0.1,4.8,0,7.3,0.1C183.7,123.8,183.9,124,184.1,124.6z"/>
<path class="st37" d="M205.8,121.7c-3.4,0.2-6.8,0.1-10.2,0c-0.4,0-0.7,0-0.8-0.5c-0.2-0.6-0.2-1.2,0.3-1.6
	c3.8-3.4,7.7-6.6,12.1-9.2c2.9-1.7,6-2.8,9.3-3.4c1.9-0.3,3.9-0.5,5.9-0.1c1.4,0.3,2.6,0.8,3.4,2.1c0.9,1.4,0.7,2.9,0,4.2
	c-1.2,2.2-3.2,3.6-5.3,4.8c-4,2.3-8.5,3.3-13.1,3.6C206.8,121.6,206.4,121.7,205.8,121.7z"/>
<path class="st38" d="M195.2,119.6c-0.3,0.5-0.2,1.1-0.3,1.6c-0.2,0.3-0.3,0.6-0.5,0.9c-0.4,1.1-1.2,1.8-2.3,2.1
	c-0.5,0.1-0.9,0.3-1.3,0.5c-0.9,0.3-0.9,0.3-0.4,1.1c-0.2-0.1-0.5-0.6-0.6,0c-0.1-0.8-0.5-0.7-1-0.5c-0.6,0.3-1.2,0.4-1.8,0.5
	c-0.7,0-1.2-0.1-1.8-0.6c-0.3-0.2-0.6-0.6-1-0.6c-0.3-0.3-0.5-0.7-1-0.8c0.2-0.3-0.1-0.6-0.2-0.9c-1-2.8-2-5.7-3-8.5
	c-0.3-0.9-0.7-1.9-0.7-2.9c0-1.9,0.8-3.2,2.5-3.8c1.4-0.5,2.9-1.1,4.4-1.6c1.7-0.6,3.1-0.1,4.3,1.4c0.5,0.9,1,1.8,1.3,2.8
	c1,3,2.1,6,3.1,9C194.9,119.6,195,119.6,195.2,119.6z"/>
</svg>
