<?xml version="1.0" encoding="utf-8"?>
<!-- Generator: Adobe Illustrator 23.0.3, SVG Export Plug-In . SVG Version: 6.00 Build 0)  -->
<svg version="1.1" id="圖層_1" xmlns="http://www.w3.org/2000/svg" xmlns:xlink="http://www.w3.org/1999/xlink" x="0px" y="0px"
	 viewBox="0 0 300 350" style="enable-background:new 0 0 300 350;" xml:space="preserve">
<style type="text/css">
	.st0{fill:#A52224;}
	.st1{fill:#D93030;}
	.st2{fill:none;stroke:#18191F;stroke-width:4.2762;stroke-linecap:round;stroke-linejoin:round;stroke-miterlimit:10;}
	.st3{fill:#E83C3C;}
	.st4{fill:none;stroke:#18191F;stroke-width:5.4044;stroke-linecap:round;stroke-linejoin:round;stroke-miterlimit:10;}
	.st5{fill:#F08E93;}
	.st6{fill:#18191F;}
	.st7{fill:#FF353B;}
	.st8{fill:#FFFFFF;}
	.st9{fill:#23B5F3;}
	.st10{fill:#CCCCFF;}
	.st11{fill:#6460FF;}
	.st12{fill:#DB9451;}
	.st13{fill:#F4B55E;}
	.st14{fill:#EC6519;}
	.st15{fill:#EF7C33;}
	.st16{fill:#CCCCCC;}
	.st17{fill:#E6E6E5;}
	.st18{fill:#B75320;}
	.st19{fill:#B3B3B3;}
	.st20{fill-rule:evenodd;clip-rule:evenodd;fill:#4D4D4D;}
	.st21{fill:#4D4D4D;}
	.st22{fill:#323333;}
	.st23{fill:#9C4623;}
	.st24{fill-rule:evenodd;clip-rule:evenodd;fill:#CBE8F0;}
	.st25{fill-rule:evenodd;clip-rule:evenodd;fill:#E1F0F3;}
	.st26{fill-rule:evenodd;clip-rule:evenodd;fill:#9ECCD5;}
	.st27{fill-rule:evenodd;clip-rule:evenodd;fill:#323333;}
	.st28{fill-rule:evenodd;clip-rule:evenodd;fill:#666666;}
	.st29{fill:none;stroke:#F4B55E;stroke-width:2.051;stroke-linecap:round;stroke-linejoin:round;stroke-miterlimit:10;}
	.st30{fill:#C7B79C;}
	.st31{fill:#D4C9B4;}
	.st32{fill:#51524E;}
	.st33{fill:#E1E1E1;}
	.st34{fill:#43312B;}
	.st35{fill:#C6C6C6;}
	.st36{fill:#AAAAAA;}
	.st37{fill:#939393;}
	.st38{fill:#E0E0E0;}
	.st39{fill:#2B451C;}
	.st40{fill:#395527;}
	.st41{fill:none;stroke:#18191F;stroke-width:5.3533;stroke-linecap:round;stroke-linejoin:round;stroke-miterlimit:10;}
	.st42{fill:none;stroke:#18191F;stroke-width:4.5;stroke-linecap:round;stroke-linejoin:round;stroke-miterlimit:10;}
	.st43{fill:none;stroke:#F4B55E;stroke-width:2.378;stroke-linecap:round;stroke-linejoin:round;stroke-miterlimit:10;}
	.st44{fill:none;stroke:#F4B55E;stroke-width:3.459;stroke-linecap:round;stroke-linejoin:round;stroke-miterlimit:10;}
	.st45{fill:#FF9398;}
	.st46{fill:none;stroke:#18191F;stroke-width:4.5;stroke-linecap:round;stroke-miterlimit:10;}
	.st47{fill:none;stroke:#18191F;stroke-width:4.0241;stroke-linecap:round;stroke-linejoin:round;stroke-miterlimit:10;}
	.st48{fill:none;stroke:#F4B55E;stroke-width:1.5623;stroke-linecap:round;stroke-linejoin:round;stroke-miterlimit:10;}
	.st49{fill:none;stroke:#18191F;stroke-width:3.0579;stroke-linecap:round;stroke-linejoin:round;stroke-miterlimit:10;}
	.st50{fill:none;stroke:#18191F;stroke-width:2.7483;stroke-linecap:round;stroke-linejoin:round;stroke-miterlimit:10;}
</style>
<path class="st14" d="M213,110.1l-81.2,5.5l3.2,47.9l81.2-5.5L213,110.1z"/>
<path class="st15" d="M141.7,126.9l-9.1,0.6l1.6,24l9.1-0.6L141.7,126.9z"/>
<path class="st16" d="M216.3,157.7l-81.2,5.5l0.8,11.9l81.2-5.5L216.3,157.7z"/>
<path class="st17" d="M144.2,162.6l-9.1,0.6l0.8,11.9l9.1-0.6L144.2,162.6z"/>
<path class="st16" d="M213,110.1l-81.2,5.5l0.8,11.9l81.2-5.5L213,110.1z"/>
<path class="st18" d="M213.8,122l-9.1,0.6l1.6,24l9.1-0.6L213.8,122z"/>
<path class="st19" d="M216.3,157.7l-9.1,0.6l0.8,11.9l9.1-0.6L216.3,157.7z"/>
<path class="st20" d="M184.2,106c-7.3,0.5-17,1.1-24.3,1.6l-1.9,6.1c8.9-0.6,20-1.3,28.8-1.9L184.2,106z"/>
<path class="st21" d="M149.2,110.2l-10.4,0.7l0.3,4.2l10.4-0.7L149.2,110.2z"/>
<path class="st21" d="M205.6,106.4l-10.4,0.7l0.3,4.2l10.4-0.7L205.6,106.4z"/>
<path class="st22" d="M144.3,110.6l-0.8,0.1l0.3,4.2l0.8-0.1L144.3,110.6z"/>
<path class="st22" d="M140.7,110.8l-0.8,0.1l0.3,4.2l0.8-0.1L140.7,110.8z"/>
<path class="st22" d="M142.5,110.7l-0.8,0.1l0.3,4.2l0.8-0.1L142.5,110.7z"/>
<path class="st22" d="M146.1,110.4l-0.8,0.1l0.3,4.2l0.8-0.1L146.1,110.4z"/>
<path class="st22" d="M147.9,110.3l-0.8,0.1l0.3,4.2l0.8-0.1L147.9,110.3z"/>
<path class="st18" d="M204.8,122.6l-63,4.3l0.1,1.2l62.9-4.2L204.8,122.6L204.8,122.6z"/>
<path class="st23" d="M213.8,122l-9.1,0.6l0.1,1.2l9.1-0.6L213.8,122z"/>
<path class="st14" d="M141.7,126.9l-9.1,0.6l0.1,1.2l9.1-0.6L141.7,126.9z"/>
<path class="st18" d="M206.3,145.5l-63,4.3l0.1,1.2l62.9-4.2L206.3,145.5L206.3,145.5z"/>
<path class="st23" d="M215.4,144.8l-9.1,0.6l0.1,1.2l9.1-0.6L215.4,144.8z"/>
<path class="st14" d="M143.3,149.7l-9.1,0.6l0.1,1.2l9.1-0.6L143.3,149.7z"/>
<path class="st21" d="M175.6,157.3c11.3-0.9,19.8-10.7,18.9-22c-0.9-11.3-10.7-19.8-22-18.9s-19.8,10.7-18.9,22
	C154.5,149.7,164.4,158.1,175.6,157.3z"/>
<path class="st24" d="M190.1,135.7c-0.6-8.8-8.2-15.6-17.1-15c-8.8,0.6-15.6,8.2-15,17.1c0.6,8.8,8.2,15.6,17.1,15
	C184,152.2,190.7,144.5,190.1,135.7z"/>
<path class="st25" d="M167.3,133.6c3.5-4.2,5.9-8.7,7-12.9c-0.4,0-0.8,0-1.3,0c-8.9,0.6-15.6,8.2-15,17.1c0.1,1.1,0.2,2.2,0.5,3.2
	C161.5,139.2,164.6,136.7,167.3,133.6z"/>
<path class="st26" d="M179.3,136.4c-0.2-2.9-2.7-5.1-5.6-4.9s-5.1,2.7-4.9,5.6s2.7,5.1,5.6,4.9C177.3,141.8,179.5,139.3,179.3,136.4
	z"/>
<path class="st27" d="M184.2,106l-7.6,0.5l2.7,5.8l7.5-0.5L184.2,106z"/>
<path class="st28" d="M131.1,121.9l1.1-0.1l-0.1-1.5l-1.9,0.1c-0.6,0-1.1,0.6-1,1.3l0.2,3.5c0,0.6,0.5,1.1,1.2,1.1l1.9-0.1l-0.1-1.5
	l-1.1,0.1c-0.3,0-0.5-0.2-0.5-0.5l-0.1-1.7C130.7,122.2,130.8,121.9,131.1,121.9z"/>
<path class="st43" d="M54.5,87.2c0,0,51.5,30.4,79.2,36.1"/>
<path class="st28" d="M214.8,119.2l-1.1,0.1l0.1,1.5l1.9-0.1c0.6,0,1.1-0.6,1-1.3l-0.2-3.5c0-0.6-0.5-1.1-1.2-1.1l-1.9,0.1l0.1,1.5
	l1.1-0.1c0.3,0,0.5,0.2,0.5,0.5l0.1,1.7C215.3,118.9,215,119.2,214.8,119.2z"/>
<path class="st43" d="M210.9,118.8c0,0,26.6-24.2,26.4-38.9"/>
<path class="st17" d="M140.9,115l-9.1,0.6l0.8,11.9l9.1-0.6L140.9,115z"/>
<path class="st19" d="M213,110.1l-9.1,0.6l0.8,11.9l9.1-0.6L213,110.1z"/>
</svg>
