<?xml version="1.0" encoding="utf-8"?>
<!-- Generator: Adobe Illustrator 23.0.3, SVG Export Plug-In . SVG Version: 6.00 Build 0)  -->
<svg version="1.1" xmlns="http://www.w3.org/2000/svg" xmlns:xlink="http://www.w3.org/1999/xlink" x="0px" y="0px"
	 viewBox="0 0 350 137.3" style="enable-background:new 0 0 350 137.3;" xml:space="preserve">
<style type="text/css">
	.st0{fill:#5237FD;}
	.st1{fill:url(#SVGID_1_);}
	.st2{fill:url(#SVGID_2_);}
	.st3{fill:#F08265;}
	.st4{fill:#2E3F77;}
	.st5{fill:#D9A280;}
	.st6{fill:#EEB591;}
	.st7{fill:none;stroke:#221815;stroke-width:0.8843;stroke-miterlimit:10;}
	.st8{fill:#16253E;}
	.st9{fill:#FFFFFF;}
	.st10{fill:#14243D;}
	.st11{fill-rule:evenodd;clip-rule:evenodd;fill:#14243D;}
	.st12{fill-rule:evenodd;clip-rule:evenodd;fill:#EEB591;}
	.st13{fill-rule:evenodd;clip-rule:evenodd;fill:#FFFFFF;}
	.st14{fill:#F0B58C;}
	.st15{fill-rule:evenodd;clip-rule:evenodd;fill:#E7322B;}
	.st16{fill-rule:evenodd;clip-rule:evenodd;fill:#961E23;}
	.st17{fill-rule:evenodd;clip-rule:evenodd;fill:#D9A280;}
	.st18{fill:#D26560;}
	.st19{fill:#E2B89B;}
	.st20{fill-rule:evenodd;clip-rule:evenodd;fill:#334959;}
	.st21{fill:none;}
	.st22{fill:#DCAFA3;}
	.st23{fill:#E1BBAF;}
	.st24{fill:#548397;}
	.st25{fill:#CCCCCC;}
	.st26{fill:#C9A194;}
	.st27{fill:#C05C89;}
	.st28{fill:#F8BA8E;}
	.st29{fill:url(#SVGID_3_);}
	.st30{fill:url(#SVGID_4_);}
	.st31{fill:url(#SVGID_5_);}
	.st32{fill:url(#SVGID_6_);}
	.st33{fill:url(#SVGID_7_);}
	.st34{fill:url(#SVGID_8_);}
	.st35{fill:none;stroke:#FFFFFF;stroke-width:1.848;stroke-linecap:round;stroke-linejoin:round;}
	.st36{fill:none;stroke:#FFFFFF;stroke-width:1.848;stroke-linecap:round;stroke-linejoin:round;stroke-dasharray:3.8976,5.8464;}
	.st37{fill:none;stroke:#FFFFFF;stroke-width:1.848;stroke-linecap:round;stroke-linejoin:round;stroke-dasharray:3.4567,5.185;}
	.st38{fill:url(#SVGID_9_);}
	.st39{fill:#6460FF;}
	.st40{fill:url(#SVGID_10_);}
	.st41{fill:url(#SVGID_11_);}
	.st42{fill:url(#SVGID_12_);}
	.st43{fill:url(#SVGID_13_);}
	.st44{fill:url(#SVGID_14_);}
	.st45{fill:url(#SVGID_15_);}
	.st46{fill:url(#SVGID_16_);}
	.st47{fill:url(#SVGID_17_);}
	.st48{fill:url(#SVGID_18_);}
	.st49{fill:url(#SVGID_19_);}
	.st50{fill:url(#SVGID_20_);}
	.st51{fill:url(#SVGID_21_);}
	.st52{fill:url(#SVGID_22_);}
	.st53{display:none;}
	.st54{display:inline;}
</style>
<g id="圖層_1">
	<g>
		<g>
			<path class="st11" d="M146.2,73.8l16.9,20.2c1.9,2.2,1.2,5.6-1.4,7l-47.3,23.2l-5.9-3.3l21.8-20.3c2.9-2,9.2-7.3,12.9-7l3.9-0.5
				l-14.4-7.7l5.5-11.2L146.2,73.8z"/>
			<path class="st11" d="M161.1,72.7l36.4,15.8c1.9,0.8,2.1,3,0.4,4.1l-22,29.8c-0.5,0.3-1.2,0.5-1.9,0.5h0
				c-2.2-0.2-9.6-2.9-2.3-8.1c0.2-0.2,0.4-0.4,0.5-0.6l4.2-16.8c0.5-0.5,0.8-2.2,1.5-2.2l0.9-1.4l-26.2-5.6c-2-0.3-2.9-2.4-1.7-3.8
				L161.1,72.7L161.1,72.7z"/>
			<path class="st12" d="M265.4,50.7c-0.2-0.1-0.4-0.2-0.6-0.2l-2.5-0.7c-0.9-0.2-1.8-0.2-2.6,0.1l-0.3,0.1c-0.5,0.2-1,0.3-1.6,0.3
				l-41.3-0.8c-0.6,0-1.3-0.2-1.8-0.5l-14.8-8.2c-1.4-0.8-1.9-2.2-1.4-3.5c0.2-0.5,1.9-2.1,2.3-2.4c-1.7-0.8-2.8-1.8-4.2-3
				c-1.8-1.6,0.5-6.8-1.3-7.9l-6,6.7c-0.6,1-1.7,1.6-3,1.6c-3.2,0.1-8.1,0.7-10.1,3.1l-0.6,10.2c-0.1,1.5,1.2,2.9,2.9,3.1l13.6,1.9
				l1.2-1.8l23.2,8.9c0.6,0.2,1.3,0.3,1.9,0.2l40-4.7l1.6,0.4l3.8-0.1l0.2-0.4l-0.5-0.4l-1.4-0.1l-0.9-0.7l3-0.1
				c0.4,0,0.8,0,1.2,0.1l2.7,0.7l0.5-0.5L265.4,50.7z"/>
			<path class="st12" d="M249.1,63.1c-0.2-0.1-0.4-0.2-0.7-0.2l-2-0.5c-1-0.3-2-0.2-2.9,0.2l0,0c-0.5,0.2-1,0.3-1.5,0.3l-38-0.8
				c-0.6,0-1.2-0.2-1.7-0.4l-13.6-7.3c-1.3-0.7-1.8-2-1.3-3.2c0.1-0.3,0.7-0.9,1.3-1.4c0.4-0.3,0.3-0.9-0.1-1.2
				c-1.1-0.6-1.9-1.4-2.9-2.2c-1.4-1.2-2.3-3-3.6-4.1c-0.4-0.3-0.9-0.2-1.2,0.2l-2,2.9c-0.5,0.9-1.6,1.4-2.7,1.4
				c-2.9,0.1-7.1,0.6-9,2.6c-0.1,0.1-0.2,0.3-0.2,0.5l-0.5,8.8c-0.1,1.4,1.1,2.5,2.7,2.8l12,1.6c0.3,0,0.6-0.1,0.8-0.3l0.5-0.7
				c0.2-0.3,0.6-0.4,0.9-0.3l20.5,7.7c0.7,0.3,1.4,0.3,2.1,0.3l36.4-4.1c0.1,0,0.2,0,0.3,0l1.2,0.3c0.1,0,0.1,0,0.2,0l3.4,0l0.2-0.3
				l-0.5-0.4l-1.3-0.1l-0.8-0.6l2.6-0.1c0.5,0,0.9,0,1.3,0.1l2.4,0.6l0.4-0.4L249.1,63.1z"/>
			<polygon class="st11" points="131.3,82.3 145.4,90.7 152.7,82.3 131.3,82.3 			"/>
			<path class="st13" d="M148.3,87.3l-18.7-19.9c18.9-6.9,29.2-25.7,39.2-30c7.7-3.3,8.5-3.2,8.5-3.2c-1.1,11.4,16.3,14.6,16.2,15
				c-3.6,9.6-16.8,19.2-17.6,19.3l-14.8,4.2L148.3,87.3L148.3,87.3z"/>
			<path class="st13" d="M109.3,120.5l-4.8,2.8l-1.1,3l8.8,5l7.3,0.5c3.5-0.9,4.9-1.8,2.8-2.8c-4-1.1-6.9-2.6-7.9-4.7L109.3,120.5
				L109.3,120.5z"/>
			<path class="st11" d="M154,90.3c-26.3-1.9-29.1-8.7-24.3-22.8l31.5,5.2L157,88.6L154,90.3z"/>
			<path class="st13" d="M168.7,118l-2.6,3.7c-0.4,0.5-0.4,1.2-0.1,1.8l0.6,1.1c0.3,0.5,0.8,0.8,1.3,0.8l18.3,1.3c0.1,0,0.2,0,0.4,0
				c4.7-0.7,7.4-1.6,3.4-3.4c-5.9-0.4-11.9-1.4-14.5-4.3c-0.3-0.4-0.7-0.6-1.2-0.6L168.7,118L168.7,118z"/>
			<path class="st9" d="M177.1,39.8c0,0,4.3-7.7,9.8-6.7s11.7,6.2,11.7,6.2l-9.2-8.6c0,0,0.5,1.7-5.6,1.8
				c-6.2,0.1-12.7,4.8-12.7,4.8l5,2.7L177.1,39.8z"/>
			<g>
				<path class="st14" d="M210.7,29.1c0,0-4.7,6.6-8.1,10.4c-0.8,0.9-7.2-6.8-7.2-9.1c0-2.7,2.1-7.7,3.8-8.9
					c0.8-0.6,4.6-3.4,8.2-3.3c3.9,0.1,6.2,2.3,8,3.5C216,22.1,212.5,28,210.7,29.1z"/>
				<path class="st10" d="M206.4,20.2c0.2-0.1,0.4-0.3,0.5-0.4c1.2-0.7,3.1-0.6,4.4-0.1c1.2,0.4,2.2,1.1,3.1,2c0.3,0.3,0.6,0.8,1,1
					c0.4,0.2,1.1,0.1,1.5,0c1-0.1,2-0.4,2.8-1c1.3-1.1,1.5-3,1.2-4.6c-0.2-1.1-0.7-2.2-1.7-2.6c-0.5-0.2-1.1-0.1-1.6-0.3
					c-0.4-0.2-0.8-0.8-1.2-1.1c-0.9-0.6-1.9-1.1-3-1.4c-0.4-0.1-0.9-0.2-1.3-0.4c-0.9-0.4-1.5-1.3-2.2-1.9c-1.6-1.3-3.4-1-5.1-0.3
					c-1.5,0.6-3.2-0.4-4.8,0.3c-1.6,0.7-1.9,2.9-3.5,3.8c-0.7,0.4-1.5,0.4-2.2,0.7c-1.3,0.5-2.1,1.8-2.3,3.2c-0.2,1.3,0.3,2.7-0.3,4
					c-0.3,0.7-1.2,1.3-1.9,0.9c-0.1-0.1-0.3-0.2-0.4-0.2c-0.4-0.2-0.9,0-1.2,0.4c-0.3,0.4-0.4,0.8-0.4,1.3c0,0.8,0.2,1.6,0.6,2.3
					c0.5,0.7,1.2,1.2,2,1.3c1,0.1,2.2-0.3,3.1-0.7c0.9-0.5,1.9-0.6,2.8-1c0.8-0.3,1.3-1.2,1.9-1.8c0.6-0.5,1.6-0.9,2.1-0.2
					c0.3,0.4,0.3,0.9,0.6,1.2c0.3,0.4,1,0.3,1.4,0.1c0.4-0.2,0.7-0.7,1.1-1.1C204.2,22.3,205.3,21,206.4,20.2z"/>
				<path class="st14" d="M200.4,23.7c0,0,1.1-4.5-2.9-4.3c-1.7,0.1-3.4,4.3-2.9,5.8c0.5,1.5,2.2,2.6,2.2,2.6L200.4,23.7z"/>
				<path class="st14" d="M206.4,34.7c0,0,2,1.8,2.3,0.8c0.5-1.5,2.2-6.9,2.2-6.9L206.4,34.7z"/>
				<path class="st10" d="M213.5,27.3l0.7-1c0,0-2.4-2.9-5.1-2.1l0,0.2C209.2,24.3,210.8,24,213.5,27.3z"/>
				<path class="st9" d="M205.7,35.7c0,0-2-1.4-3-2.8l3.2,2.5L205.7,35.7z"/>
			</g>
		</g>
		<path class="st15" d="M144.4,91.8c0,0,0.7-8.7,9.4-8.9c8.7-0.2,18.7,0,18.7,0l13.7,0.6c0,0,7.9,2.6,8.2,3.5
			c0.3,0.9-35.4,4.8-35.4,4.8s-5.2,0.5-6.2,2.7C151.8,96.7,144.4,91.8,144.4,91.8z"/>
		<polygon class="st16" points="162.9,93.8 171.6,92.4 176.3,93.5 164.2,96.7 		"/>
	</g>
</g>
<g id="圖層_2" class="st53">
</g>
</svg>
