<?xml version="1.0" encoding="utf-8"?>
<!-- Generator: Adobe Illustrator 23.0.3, SVG Export Plug-In . SVG Version: 6.00 Build 0)  -->
<svg version="1.1" xmlns="http://www.w3.org/2000/svg" xmlns:xlink="http://www.w3.org/1999/xlink" x="0px" y="0px"
	 viewBox="0 0 350 137.3" style="enable-background:new 0 0 350 137.3;" xml:space="preserve">
<style type="text/css">
	.st0{fill:#5237FD;}
	.st1{fill:url(#SVGID_1_);}
	.st2{fill:url(#SVGID_2_);}
	.st3{fill:#F08265;}
	.st4{fill:#2E3F77;}
	.st5{fill:#D9A280;}
	.st6{fill:#EEB591;}
	.st7{fill:none;stroke:#221815;stroke-width:0.8843;stroke-miterlimit:10;}
	.st8{fill:#16253E;}
	.st9{fill:#FFFFFF;}
	.st10{fill:#14243D;}
	.st11{fill-rule:evenodd;clip-rule:evenodd;fill:#14243D;}
	.st12{fill-rule:evenodd;clip-rule:evenodd;fill:#EEB591;}
	.st13{fill-rule:evenodd;clip-rule:evenodd;fill:#FFFFFF;}
	.st14{fill:#F0B58C;}
	.st15{fill-rule:evenodd;clip-rule:evenodd;fill:#E7322B;}
	.st16{fill-rule:evenodd;clip-rule:evenodd;fill:#961E23;}
	.st17{fill-rule:evenodd;clip-rule:evenodd;fill:#D9A280;}
	.st18{fill:#D26560;}
	.st19{fill:#E2B89B;}
	.st20{fill-rule:evenodd;clip-rule:evenodd;fill:#334959;}
	.st21{fill:none;}
	.st22{fill:#DCAFA3;}
	.st23{fill:#E1BBAF;}
	.st24{fill:#548397;}
	.st25{fill:#CCCCCC;}
	.st26{fill:#C9A194;}
	.st27{fill:#C05C89;}
	.st28{fill:#F8BA8E;}
	.st29{fill:url(#SVGID_3_);}
	.st30{fill:url(#SVGID_4_);}
	.st31{fill:url(#SVGID_5_);}
	.st32{fill:url(#SVGID_6_);}
	.st33{fill:url(#SVGID_7_);}
	.st34{fill:url(#SVGID_8_);}
	.st35{fill:none;stroke:#FFFFFF;stroke-width:1.848;stroke-linecap:round;stroke-linejoin:round;}
	.st36{fill:none;stroke:#FFFFFF;stroke-width:1.848;stroke-linecap:round;stroke-linejoin:round;stroke-dasharray:3.8976,5.8464;}
	.st37{fill:none;stroke:#FFFFFF;stroke-width:1.848;stroke-linecap:round;stroke-linejoin:round;stroke-dasharray:3.4567,5.185;}
	.st38{fill:url(#SVGID_9_);}
	.st39{fill:#6460FF;}
	.st40{fill:url(#SVGID_10_);}
	.st41{fill:url(#SVGID_11_);}
	.st42{fill:url(#SVGID_12_);}
	.st43{fill:url(#SVGID_13_);}
	.st44{fill:url(#SVGID_14_);}
	.st45{fill:url(#SVGID_15_);}
	.st46{fill:url(#SVGID_16_);}
	.st47{fill:url(#SVGID_17_);}
	.st48{fill:url(#SVGID_18_);}
	.st49{fill:url(#SVGID_19_);}
	.st50{fill:url(#SVGID_20_);}
	.st51{fill:url(#SVGID_21_);}
	.st52{fill:url(#SVGID_22_);}
	.st53{display:none;}
	.st54{display:inline;}
</style>
<g id="圖層_1">
	<g>
		<path class="st4" d="M266.3,47.2c-1-7.3-5.3-12.7-9.6-12.1l-3.3,0.6c-4.3,0.6-7,6.9-6,14.2c1,7.3,5.3,12.7,9.6,12.1l3.3-0.6
			C264.6,60.8,267.3,54.5,266.3,47.2z"/>
		<polygon class="st5" points="198.6,81.4 188.5,91.2 190,101 198.6,102 199.3,95.5 		"/>
		<polygon class="st5" points="208.8,81.4 216.1,86.7 209.4,87.8 		"/>
		<path class="st6" d="M228.9,102.6c6.9-0.4,20.5-8,22.4-9.3c2-1.3,3.4-4.3,3.4-4.3c0.3-9.3-2.8-27.1-3.4-28.8
			c-0.6-1.7-1.1-6.7-1.1-6.7c1.9-4.5,0-9.3,0-9.3s-4.9-3.2-10.5,1.3c0,0,3.6,14.4,3.5,17.1c-0.1,2.7,0,23.4,0,23.4
			s-11.1,0.4-16.9,3.2c-2.5,1.2-8.2,4.2-11.7-1.2l-2,0.1l2.3,12.4L228.9,102.6z"/>
		<path class="st8" d="M136.4,80L174,53.3l-20-28.9c0,0-5.4-6.7-10.3-9.8c-4.9-3-10.7-2-13.3,1c-2.6,3,0.8,18.2,0.8,18.2l0,0
			c-6.7-5.6-15.5-12.9-19.3-15.8c-6.7-5-12.9-3-12.9-3s-4.9,1.7-4.7,6.5c0.2,4.9,2.3,18.3,2.3,18.3s2.7,12.5,5.5,18.3
			c2.8,5.8,5.6,13.5,5.6,15.9c0,2.4-2.1,6.4-2.1,6.4l6,5.4l6-4c0.4-2.6,1.3-14.8-1.6-22.3c-0.5-1.2-0.4-1.6-0.8-4.2
			C121.9,64,136.4,80,136.4,80z"/>
		<path class="st9" d="M107.4,76.8c0,0-4.3,4.3-5.5,4.9c-1.2,0.7-4.3,0.9-5.2,3.1c-0.9,2.2-0.6,4.2-0.6,4.2s1.7,2,5.6,2.1
			c3.9,0.1,8.1,2.4,8.1,2.4s8.1,0.8,9.3-0.6s-0.7-10.8,0-12.2c0,0-0.4-0.9-2.9-0.7s-4.9,2.7-5.7,2.5
			C109.7,82.4,105.7,80.2,107.4,76.8z"/>
		<path class="st9" d="M133.5,76.8c0,0-2.6,0.2-3.9,0.7c-1.3,0.4-3.7,2.5-3.1,4.2c0.7,1.7,1.6,2.7,1.6,2.7s7.9,1.3,10.9,0.9
			c3.1-0.4,5.9,3.1,5.9,3.1s4.9,0.5,5.6-1.2s0-3.4,0-3.4l-1.1-5.2l-14.1-5L133.5,76.8z"/>
		<path class="st10" d="M200.3,112.2c0,0-5.4,0.2-5.4-3.3s-0.9-6.8,1.8-6.3c2.7,0.6,4.5,3.6,6.4,2.1c1.9-1.5,0.6-4.3,0.6-4.3"/>
		<path class="st5" d="M186.4,109.2l-3.6-28.2l-11.7-2.4L161,89c0,0-3.3,5.5,0.6,13.2S186.4,109.2,186.4,109.2z"/>
		<path class="st6" d="M180.8,87.1c-6.8-1.9-10.9,4.6-10.9,4.6c-1.5,2.4-1.7,4.9-1.7,4.9c-4.4,0.8-8.2,1.9-11.3,3.1l-1.7,17.6
			c1.9-0.4,3.6-1.1,4.9-1.9c0,0,9.5,2.2,17.7-2.9c0,0,4.2,0.8,14-1.1L180.8,87.1z"/>
		<path class="st9" d="M160,97.7c0,0,6.2-12.4,12.8-9.8c6.6,2.7,14.4,24.3,14.4,24.3l5.4-0.8c0,0-7.4-21.6,5-25.6
			c12.3-4,13.3,3,13.3,3l-1.7-7.4l-1.3-1.2c-3.6-6.9-16.2-12.7-16.2-12.7l-19.1-15.1c0,0-18.4-2.1-32.5,22.9l3.1,2.3l9.3,4.3l6.7,11
			C159.2,92.7,158.9,94.9,160,97.7z"/>
		<path class="st6" d="M216,85.4c-1.3-0.4-4.1,0.2-4.1,0.2l-6.1-4l-1.4,2.3h-3.5l-0.6,1.4c0,0-1.9-0.9-2.7,0.6s-2,6.6-1.9,7.8
			c0.1,1.1-3,1.6-3,1.6s-3.1,3-2.7,7.4c0.5,4.4,2.6,8.9,2.6,8.9s4.8-2.2,6.3-0.4l24-20C222.4,87.2,217.3,85.7,216,85.4z"/>
		<path class="st10" d="M210.7,86.7l2.4-0.2c0,0-2.6,5.2-4.2,5C207.3,91.2,210.7,90.5,210.7,86.7z"/>
		<path class="st8" d="M219.2,118c0,0,6.5,0.6,7.7-6.5c5.5-4.4,4.2-7.9,4.2-7.9s0.3-2-0.1-4.8c-0.1-1,0.7-1.8-1.6-4.1
			c0.9-2.5-2.3-3-2.3-3c1.8-4.5-3-8.8-5.9-2.9c-3.8,7.9-6.9,7.9-6.9,7.9l-5.6-2c0,0-6.1-1.2-3.7,2c2,2.6,2.8,2.7,2.6,3.6
			c-0.7,2.9-3.6,3.5-6.8,0c0,0-5.7,4.5-2.1,9.5c3.5,5,4.9,9.1,10.3,9.5C209,119.4,214.2,122.3,219.2,118z"/>
		<path class="st4" d="M243.6,50.9c-0.9-6.5-4.5-11.5-8.3-12l0,0h-0.1c-0.4,0-0.8-0.1-1.2,0h-2.5c-0.4,0-0.8-0.1-1.2,0
			c-4.3,0.6-7,6.9-6,14.2c1,7.3,5.3,12.7,9.6,12.1h2.5c0.4,0,0.8,0.1,1.2,0C241.9,64.5,244.6,58.1,243.6,50.9z"/>
		<path class="st4" d="M170.7,59.5c-1-7.3-5.3-12.7-9.6-12.1l-3.3,0.6c-4.3,0.6-7,6.9-6,14.2c1,7.3,5.3,12.7,9.6,12.1l3.3-0.6
			C169,73.1,171.7,66.8,170.7,59.5z"/>
		<path class="st6" d="M169.9,91.8c-1.5,2.4-1.7,4.9-1.7,4.9c-13.8,2.4-21.6,8.5-21.6,8.5L144.7,90c0,0,2.1-16.1,3-18.1
			c0.9-2.1,9-4.5,9-4.5l1.5-6.2c0,0-0.2-0.8-1.5-2.7c-1.3-1.9-3.6-1-3.6-1c-1.9-1-3-0.5-3-0.5l-2.3-1.2c-4.9,2.8-8.1,11.7-8.1,11.7
			s-8.4,29.1-8.1,47.2c0,0-2.2,3.2,14.6,3.8c0,0,9.8-0.2,14-3c0,0,9.5,2.2,17.7-2.9L169.9,91.8z"/>
		<path class="st4" d="M148.8,65.8c-0.9-6.2-4.1-11.1-7.8-12l0-0.1h-0.6c-0.4,0-0.8-0.1-1.2,0h-2.5c-0.4,0-0.8-0.1-1.2,0
			c-4.3,0.6-7,6.9-6,14.2c1,7.3,5.3,12.7,9.6,12.1h2.5c0.4,0,0.8,0.1,1.2,0C147.1,79.4,149.8,73,148.8,65.8z"/>
	</g>
</g>
<g id="圖層_2" class="st53">
</g>
</svg>
