<?xml version="1.0" encoding="utf-8"?>
<!-- Generator: Adobe Illustrator 23.0.3, SVG Export Plug-In . SVG Version: 6.00 Build 0)  -->
<svg version="1.1" xmlns="http://www.w3.org/2000/svg" xmlns:xlink="http://www.w3.org/1999/xlink" x="0px" y="0px"
	 viewBox="0 0 350 137.3" style="enable-background:new 0 0 350 137.3;" xml:space="preserve">
<style type="text/css">
	.st0{fill:#5237FD;}
	.st1{fill:url(#SVGID_1_);}
	.st2{fill:url(#SVGID_2_);}
	.st3{fill:#F08265;}
	.st4{fill:#2E3F77;}
	.st5{fill:#D9A280;}
	.st6{fill:#EEB591;}
	.st7{fill:none;stroke:#221815;stroke-width:0.8843;stroke-miterlimit:10;}
	.st8{fill:#16253E;}
	.st9{fill:#FFFFFF;}
	.st10{fill:#14243D;}
	.st11{fill-rule:evenodd;clip-rule:evenodd;fill:#14243D;}
	.st12{fill-rule:evenodd;clip-rule:evenodd;fill:#EEB591;}
	.st13{fill-rule:evenodd;clip-rule:evenodd;fill:#FFFFFF;}
	.st14{fill:#F0B58C;}
	.st15{fill-rule:evenodd;clip-rule:evenodd;fill:#E7322B;}
	.st16{fill-rule:evenodd;clip-rule:evenodd;fill:#961E23;}
	.st17{fill-rule:evenodd;clip-rule:evenodd;fill:#D9A280;}
	.st18{fill:#D26560;}
	.st19{fill:#E2B89B;}
	.st20{fill-rule:evenodd;clip-rule:evenodd;fill:#334959;}
	.st21{fill:none;}
	.st22{fill:#DCAFA3;}
	.st23{fill:#E1BBAF;}
	.st24{fill:#548397;}
	.st25{fill:#CCCCCC;}
	.st26{fill:#C9A194;}
	.st27{fill:#C05C89;}
	.st28{fill:#F8BA8E;}
	.st29{fill:url(#SVGID_3_);}
	.st30{fill:url(#SVGID_4_);}
	.st31{fill:url(#SVGID_5_);}
	.st32{fill:url(#SVGID_6_);}
	.st33{fill:url(#SVGID_7_);}
	.st34{fill:url(#SVGID_8_);}
	.st35{fill:none;stroke:#FFFFFF;stroke-width:1.848;stroke-linecap:round;stroke-linejoin:round;}
	.st36{fill:none;stroke:#FFFFFF;stroke-width:1.848;stroke-linecap:round;stroke-linejoin:round;stroke-dasharray:3.8976,5.8464;}
	.st37{fill:none;stroke:#FFFFFF;stroke-width:1.848;stroke-linecap:round;stroke-linejoin:round;stroke-dasharray:3.4567,5.185;}
	.st38{fill:url(#SVGID_9_);}
	.st39{fill:#6460FF;}
	.st40{fill:url(#SVGID_10_);}
	.st41{fill:url(#SVGID_11_);}
	.st42{fill:url(#SVGID_12_);}
	.st43{fill:url(#SVGID_13_);}
	.st44{fill:url(#SVGID_14_);}
	.st45{fill:url(#SVGID_15_);}
	.st46{fill:url(#SVGID_16_);}
	.st47{fill:url(#SVGID_17_);}
	.st48{fill:url(#SVGID_18_);}
	.st49{fill:url(#SVGID_19_);}
	.st50{fill:url(#SVGID_20_);}
	.st51{fill:url(#SVGID_21_);}
	.st52{fill:url(#SVGID_22_);}
	.st53{display:none;}
	.st54{display:inline;}
</style>
<g id="圖層_1">
	<path class="st11" d="M162,85.6l-45.6-15.2l-8.4,3.8c0.2,0.2,0.3,0.5,0.5,0.7L96,113.7c0.7,0.2,1.4,0.4,2,0.7c0.5,0,1.1,0,1.6,0
		c1.3,0,2.5-0.1,3.7-0.3c0.2,0,0.4,0,0.5,0l13.5-26.2l44.2,25.9l20.8-4.5l2.5-15.5L162,85.6z"/>
	<polygon class="st20" points="118.8,85.2 118.9,85.1 119.2,85.1 	"/>
	<polygon class="st11" points="144.2,99.4 143.4,103.1 161.6,113.7 144.2,99.4 	"/>
	<path class="st11" d="M114.8,25.9l40.8,23l31.2,42.1l0,0l0.2,20l-14.4,3.9l-21.8-21.3l-6.1-34.4l-2.5-0.9c-4.1-1.4-7.8-3.8-10.8-7
		l-19.8-20.9L114.8,25.9L114.8,25.9z"/>
	<path class="st11" d="M172.4,78.2l7.3,12.7l7.1,0.2l0.2,20l-14.4,3.9c-13.3-1.2-14.5-12.9-17-23.9L172.4,78.2L172.4,78.2z"/>
	<path class="st13" d="M186.8,91.1l28.6-0.7c8.9-0.8,22.6,6.1,22.6,6.1c-7.8-5.6-0.8,18.5-12,9.9l-21.7,3.4l-17.2,1.3L186.8,91.1
		L186.8,91.1z"/>
	<path class="st12" d="M248.6,100c-0.6-0.9-1-1.8-1.2-2.7l-7.9,0l0,0l-1.6-1c-6,0-7.9,2.7-12,9.9l-28.2,0.2l-38.5,7.2l-1.7-1
		l-8.8,4.2l0.6,0.9l10.8-1.2l36.3-2l35.6,1.8c5.5,0.2,9.5-4.9,12.4-7.6l1.4-1.4l2.8-2.1l0.8,0.2C249.3,103.8,249.6,101.5,248.6,100z
		"/>
	<path class="st13" d="M111.6,30.5l-5.5-1.3l-1.1-3.2l11.2-13.7c2.9-1.9,5.3-3.2,4.9,0.2c-4.2,6-6.5,7.1-5.2,12.9L111.6,30.5
		L111.6,30.5z"/>
	<path class="st13" d="M107,105.7l3.4,6.8l-2.3,3.9l-23.8,0.1c-4.2-1.6-7.4-3.3-4-5.2c9.6-0.7,16.2-2.4,17.8-5.5L107,105.7
		L107,105.7z"/>
	<g>
		<path class="st14" d="M257.2,91.9c0,0-9.2,1.6-14.8,3.3c-1.3,0.4,3.5,10.8,5.9,11.9c2.8,1.3,9,1.6,11.1,0.5c1-0.5,5.8-3.1,7.5-6.9
			c1.9-4.1,0.7-7.6,0.3-10C267.1,89.8,259.2,90.6,257.2,91.9z"/>
		<path class="st10" d="M264.3,100.7c0.2-0.1,0.4-0.3,0.7-0.4c1.4-0.9,2.1-3,2.3-4.5c0.2-1.4-0.1-2.9-0.5-4.2
			c-0.2-0.5-0.6-1-0.5-1.5c0-0.5,0.5-1.2,0.7-1.6c0.6-1,1.4-1.9,2.4-2.4c1.8-0.8,3.9-0.1,5.4,1c1,0.7,1.9,1.8,1.9,3.1
			c0,0.6-0.5,1.2-0.5,1.8c0,0.5,0.4,1.3,0.5,1.8c0.2,1.2,0.2,2.5,0,3.8c-0.1,0.5-0.3,1-0.3,1.6c0,1.1,0.6,2.2,0.9,3.3
			c0.6,2.3-0.7,4-2.3,5.5c-1.4,1.3-1.2,3.6-2.7,4.8c-1.5,1.3-4,0.6-5.6,1.7c-0.7,0.5-1.2,1.3-1.8,1.9c-1.2,1.1-2.9,1.3-4.4,0.9
			c-1.5-0.4-2.7-1.7-4.3-1.7c-0.9,0-2,0.6-1.9,1.5c0,0.2,0.1,0.4,0.1,0.5c0,0.5-0.5,1-1,1.1c-0.5,0.1-1.1,0-1.5-0.2
			c-0.8-0.4-1.6-1-2.1-1.8c-0.5-0.8-0.6-1.8-0.4-2.7c0.3-1.1,1.4-2.2,2.3-2.9c0.9-0.7,1.6-1.6,2.4-2.4c0.7-0.7,1.9-0.7,2.8-1.1
			c0.9-0.3,1.7-1.2,1.3-2.1c-0.2-0.5-0.8-0.8-1-1.2c-0.2-0.5,0.1-1.2,0.6-1.5c0.5-0.3,1.1-0.4,1.6-0.6
			C261,102,262.8,101.5,264.3,100.7z"/>
		<path class="st14" d="M257.7,105.2c0,0,5.2,1.1,3,5.1c-1,1.7-6.1,1.4-7.4,0.2c-1.3-1.3-1.6-3.5-1.6-3.5L257.7,105.2z"/>
		<path class="st14" d="M249.1,93.6c0,0-0.9-3,0.3-2.8c1.8,0.2,8.2,1.1,8.2,1.1L249.1,93.6z"/>
		<path class="st10" d="M260.4,89.8l1.5-0.3c0,0,1.8,3.9-0.3,6.3l-0.2,0C261.4,95.8,262.5,94.3,260.4,89.8z"/>
		<path class="st9" d="M247.9,93.8c0,0,0.5,2.8,1.4,4.5l-1.1-4.5L247.9,93.8z"/>
	</g>
</g>
<g id="圖層_2" class="st53">
</g>
</svg>
