<?xml version="1.0" encoding="utf-8"?>
<!-- Generator: Adobe Illustrator 23.0.3, SVG Export Plug-In . SVG Version: 6.00 Build 0)  -->
<svg version="1.1" xmlns="http://www.w3.org/2000/svg" xmlns:xlink="http://www.w3.org/1999/xlink" x="0px" y="0px"
	 viewBox="0 0 350 137.3" style="enable-background:new 0 0 350 137.3;" xml:space="preserve">
<style type="text/css">
	.st0{fill:#5237FD;}
	.st1{fill:url(#SVGID_1_);}
	.st2{fill:url(#SVGID_2_);}
	.st3{fill:#F08265;}
	.st4{fill:#2E3F77;}
	.st5{fill:#D9A280;}
	.st6{fill:#EEB591;}
	.st7{fill:none;stroke:#221815;stroke-width:0.8843;stroke-miterlimit:10;}
	.st8{fill:#16253E;}
	.st9{fill:#FFFFFF;}
	.st10{fill:#14243D;}
	.st11{fill-rule:evenodd;clip-rule:evenodd;fill:#14243D;}
	.st12{fill-rule:evenodd;clip-rule:evenodd;fill:#EEB591;}
	.st13{fill-rule:evenodd;clip-rule:evenodd;fill:#FFFFFF;}
	.st14{fill:#F0B58C;}
	.st15{fill-rule:evenodd;clip-rule:evenodd;fill:#E7322B;}
	.st16{fill-rule:evenodd;clip-rule:evenodd;fill:#961E23;}
	.st17{fill-rule:evenodd;clip-rule:evenodd;fill:#D9A280;}
	.st18{fill:#D26560;}
	.st19{fill:#E2B89B;}
	.st20{fill-rule:evenodd;clip-rule:evenodd;fill:#334959;}
	.st21{fill:none;}
	.st22{fill:#DCAFA3;}
	.st23{fill:#E1BBAF;}
	.st24{fill:#548397;}
	.st25{fill:#CCCCCC;}
	.st26{fill:#C9A194;}
	.st27{fill:#C05C89;}
	.st28{fill:#F8BA8E;}
	.st29{fill:url(#SVGID_3_);}
	.st30{fill:url(#SVGID_4_);}
	.st31{fill:url(#SVGID_5_);}
	.st32{fill:url(#SVGID_6_);}
	.st33{fill:url(#SVGID_7_);}
	.st34{fill:url(#SVGID_8_);}
	.st35{fill:none;stroke:#FFFFFF;stroke-width:1.848;stroke-linecap:round;stroke-linejoin:round;}
	.st36{fill:none;stroke:#FFFFFF;stroke-width:1.848;stroke-linecap:round;stroke-linejoin:round;stroke-dasharray:3.8976,5.8464;}
	.st37{fill:none;stroke:#FFFFFF;stroke-width:1.848;stroke-linecap:round;stroke-linejoin:round;stroke-dasharray:3.4567,5.185;}
	.st38{fill:url(#SVGID_9_);}
	.st39{fill:#6460FF;}
	.st40{fill:url(#SVGID_10_);}
	.st41{fill:url(#SVGID_11_);}
	.st42{fill:url(#SVGID_12_);}
	.st43{fill:url(#SVGID_13_);}
	.st44{fill:url(#SVGID_14_);}
	.st45{fill:url(#SVGID_15_);}
	.st46{fill:url(#SVGID_16_);}
	.st47{fill:url(#SVGID_17_);}
	.st48{fill:url(#SVGID_18_);}
	.st49{fill:url(#SVGID_19_);}
	.st50{fill:url(#SVGID_20_);}
	.st51{fill:url(#SVGID_21_);}
	.st52{fill:url(#SVGID_22_);}
	.st53{display:none;}
	.st54{display:inline;}
</style>
<g id="圖層_1">
	<path class="st6" d="M261.6,56.2c-0.7,0.6-3.8,6.8-3.8,6.8c-2.5-3.7-5.9-3.8-9.6-4.2c-3.7-0.4-11.5-0.6-12.3-1.4
		c-1.1-1,0.3-1.5,2.1-1.8c2-0.4,7.5,0.1,7.5,0.1s3.9-1.6,4.1-2.1s-2-1.7-3-2.2s-1.2-2.3-1.2-2.3l1.1-1.6v-1.5l1.6-0.3l-0.9-1.7
		l1.4-1l-0.5-2.4l4.8-1.4l0.3-1.6l2.9-2.9l2.4-0.9l10.5,4.7l1.5,10.5L261.6,56.2z"/>
	<path class="st10" d="M261.6,56.2c11.7,0.1,11.5-10.7,11.5-10.7c1.2-2.6-1.7-5.9-1.7-5.9s0-1.4-1.5-3.3c-1.5-1.8-5.7-2.4-5.7-2.4
		s-2-3.2-5.4-2.6c-2.6,0.4-1.6,2.9-1.6,2.9s5.2,2.9,5.5,5.1c0,0-3.8,0.7-3,3.6c0,0-2.6,3.9-1.7,4.8c0.9,0.9,5.6-1.1,6.1,1.4
		c0.4,2.5-1.5,3.2-2.9,3.3S261.6,56.2,261.6,56.2z"/>
	<path class="st10" d="M253.8,38.1v0.8c0,0,1.1,0.5,1.4,0.9c0.3,0.4,0.8,1.2,0.8,1.2l0.2-0.6C256.2,40.4,255.1,38.4,253.8,38.1z"/>
	<path class="st5" d="M240.9,80.9v7.6c0,0-2.5,8.3-2.1,13.9l-1.6,6.3l-2.2-1.2l-0.9,0.4l-0.9-0.8l-1.2,0.2l-1.6-0.1c0,0-1,0.7-2,0.7
		c0,0-0.1,0.7,0,1.2l2.5,0.4l-1.9,0.6c0,0-0.9,0.8-1.3,1c-0.4,0.2,0.8,1,1.3,1s1.4-0.4,1.4-0.4l2,0.4c0,0,2.9,1.7,4.1,1.7
		s2.3,0,2.3,0s2.3-0.1,2.7-0.5s1.7-4.6,1.7-4.6l2.5-6.8l3.1-27.6L240.9,80.9z"/>
	<path class="st9" d="M110.4,38.1c0,0-2.8-8-2.7-10.3s-0.9-4.9-0.9-4.9s-5.1-9.3-3.9-12.2s2.8-4.5,3.5-3.9c0.7,0.5,3.5,8.9,3.5,8.9
		l10.3,5.9l1.5,2.9l-0.3,8.7l-7.3,3.1C114.1,36.2,112.8,37.3,110.4,38.1z"/>
	<polygon class="st10" points="192.7,68.1 200.5,67.8 200.5,76.7 191.2,80.7 	"/>
	<path class="st10" d="M204.8,93.4c0,0-0.4-13.5-7.5-20.8c-7.1-7.3-32.1-28.9-32.1-28.9l-7.6-0.1c0,0-32.5-16.2-36-19.2
		c0,0-3.7,3.1-3.3,5c0.4,1.9,3,3.7,3,3.7l12.8,10.1c0,0,7,8,12.1,9.2c5.1,1.2,13.3,3.8,13.3,3.8s6.7,11.1,12.6,20.4
		c-7.6,4.1-19.4,12.7-20.3,12.9c-1.2,0.3-4.1,5.1-7,5.8c-2.9,0.7-19.8,5.8-19.8,5.8l-14.2,2l-3.9,4.9c0,0,5.9,2.8,8.3,2.6
		c2.3-0.1,14.5-0.7,25.1-1.6c10.6-0.9,19.6-8.8,19.6-8.8l25.6-5.3c0.3,0.4,0.5,0.7,0.5,0.7s8.5,5.4,15.1,0.8
		C205.1,93.7,204.8,93.4,204.8,93.4z"/>
	<path class="st9" d="M247.2,54.9c0,0-6.5-0.5-9.8,0s-11.2,3.6-13.4,7s-16.7,3-23.5,5.9c-4.7,10.9-1,30-1,30s16.1-8.4,18.7-9.4
		c2.6-1,21-4.1,26.5-7.7c5.5-3.6,12.8-12.5,12.8-12.5s1.8-0.7,0.2-5.2C256.1,58.5,247.2,54.9,247.2,54.9z"/>
	<path class="st6" d="M250.7,60.8c2.9,0.1,8.3,1.5,6.8,7.4c0,0,0.9,4.5,0.2,7.3c-0.7,2.8-1.5,4.5-1.6,6c-0.1,1.5-4.1,15-4.1,15
		s1.1,5.8,1,8.5c-0.1,2.8-0.9,15.9-0.6,17.3l6.4,4.6c0,0-1.3,1-1.7,0.7c-0.4-0.3-1.3-0.6-1.3-0.6l1.8,2.8c0,0,0.3,1.8-0.5,1.1
		c-0.8-0.7-4.2-4.1-4.2-4.1l0.4,1.7c0,0,1.2,3,0.9,3.3c-0.4,0.2-1.6,0-1.6,0l-0.8-1.4c0,0-0.9-2.2-1.2-2.7c-0.3-0.4-0.7-1.4-0.7-1.4
		s0.9,4.4,0.6,4.8c-0.4,0.4-1.2,0.5-1.5,0.1c-0.3-0.4-0.9-2.1-0.9-2.1l-0.5-2.3l-2.8-1.2c0,0,0.1,1.6-0.4,1.8
		c-0.5,0.2-1.6,0.2-1.6,0.2v-1.1c0,0-0.8-1.7-0.4-2c0.4-0.4,1.8-1.5,1.8-1.5l2-0.9l-0.4-13.4c0,0-1.3-11.4-1.4-13s0.6-15.1,0.6-15.1
		l-1.3-0.3c0,0-8.7-11.3-2.2-17.4C244.4,60,247.8,60.7,250.7,60.8z"/>
	<path class="st9" d="M110.9,103.1c0,0,0.3,4.5,1.4,4.7c1.1,0.2,5.7,2.7,5.7,2.7l-2.2,4.9l-1.3,3c0,0-7.8-2.2-10-4.1
		c0,0-9.3-3-10.9-3.5c-1.5-0.6-2.8-3-2.8-3l1.5-2.8l7.2,0.9l7-3.6h3.4L110.9,103.1z"/>
</g>
<g id="圖層_2" class="st53">
</g>
</svg>
