<?xml version="1.0" encoding="utf-8"?>
<!-- Generator: Adobe Illustrator 23.0.3, SVG Export Plug-In . SVG Version: 6.00 Build 0)  -->
<svg version="1.1" xmlns="http://www.w3.org/2000/svg" xmlns:xlink="http://www.w3.org/1999/xlink" x="0px" y="0px"
	 viewBox="0 0 350 137.3" style="enable-background:new 0 0 350 137.3;" xml:space="preserve">
<style type="text/css">
	.st0{fill:#5237FD;}
	.st1{fill:url(#SVGID_1_);}
	.st2{fill:url(#SVGID_2_);}
	.st3{fill:#F08265;}
	.st4{fill:#2E3F77;}
	.st5{fill:#D9A280;}
	.st6{fill:#EEB591;}
	.st7{fill:none;stroke:#221815;stroke-width:0.8843;stroke-miterlimit:10;}
	.st8{fill:#16253E;}
	.st9{fill:#FFFFFF;}
	.st10{fill:#14243D;}
	.st11{fill-rule:evenodd;clip-rule:evenodd;fill:#14243D;}
	.st12{fill-rule:evenodd;clip-rule:evenodd;fill:#EEB591;}
	.st13{fill-rule:evenodd;clip-rule:evenodd;fill:#FFFFFF;}
	.st14{fill:#F0B58C;}
	.st15{fill-rule:evenodd;clip-rule:evenodd;fill:#E7322B;}
	.st16{fill-rule:evenodd;clip-rule:evenodd;fill:#961E23;}
	.st17{fill-rule:evenodd;clip-rule:evenodd;fill:#D9A280;}
	.st18{fill:#D26560;}
	.st19{fill:#E2B89B;}
	.st20{fill-rule:evenodd;clip-rule:evenodd;fill:#334959;}
	.st21{fill:none;}
	.st22{fill:#DCAFA3;}
	.st23{fill:#E1BBAF;}
	.st24{fill:#548397;}
	.st25{fill:#CCCCCC;}
	.st26{fill:#C9A194;}
	.st27{fill:#C05C89;}
	.st28{fill:#F8BA8E;}
	.st29{fill:url(#SVGID_3_);}
	.st30{fill:url(#SVGID_4_);}
	.st31{fill:url(#SVGID_5_);}
	.st32{fill:url(#SVGID_6_);}
	.st33{fill:url(#SVGID_7_);}
	.st34{fill:url(#SVGID_8_);}
	.st35{fill:none;stroke:#FFFFFF;stroke-width:1.848;stroke-linecap:round;stroke-linejoin:round;}
	.st36{fill:none;stroke:#FFFFFF;stroke-width:1.848;stroke-linecap:round;stroke-linejoin:round;stroke-dasharray:3.8976,5.8464;}
	.st37{fill:none;stroke:#FFFFFF;stroke-width:1.848;stroke-linecap:round;stroke-linejoin:round;stroke-dasharray:3.4567,5.185;}
	.st38{fill:url(#SVGID_9_);}
	.st39{fill:#6460FF;}
	.st40{fill:url(#SVGID_10_);}
	.st41{fill:url(#SVGID_11_);}
	.st42{fill:url(#SVGID_12_);}
	.st43{fill:url(#SVGID_13_);}
	.st44{fill:url(#SVGID_14_);}
	.st45{fill:url(#SVGID_15_);}
	.st46{fill:url(#SVGID_16_);}
	.st47{fill:url(#SVGID_17_);}
	.st48{fill:url(#SVGID_18_);}
	.st49{fill:url(#SVGID_19_);}
	.st50{fill:url(#SVGID_20_);}
	.st51{fill:url(#SVGID_21_);}
	.st52{fill:url(#SVGID_22_);}
	.st53{display:none;}
	.st54{display:inline;}
</style>
<g id="圖層_1">
	<g>
		<path class="st9" d="M65.8,25.5c0,0,0.6-1.4,2.7-2.5s7.2-2.7,8.6-2.7s6,1.4,7.8,1.4c1.9,0,9.9-0.6,10.7,0.2
			c0.8,0.8,2.4,6.6,4.5,7.5c0,0-4.8,3-8.4,5.9c0,0-1.1-1.2-6.3-2.6c-5.1-1.3-7.8-3.1-7.8-3.1S66.5,29.1,65.8,25.5z"/>
		<path class="st6" d="M266.8,71c0,0-4.9-5.7-9.7-7.2c-4.8-1.5-14.7-9.1-19.8-10.2c0,0-3.9-3.2-6.1-3.1c-0.9,0-2.7,3.1-2.7,3.1
			S214.2,70.9,212.8,79c-1.4,8.1,10.5-2.3,10.5-2.3s3.2-4.9,4.4-6.6s7.6-6.5,7.6-6.5s3.2,3.9,8.6,6.8C249.4,73.3,266.8,71,266.8,71z
			"/>
		<path class="st10" d="M276.8,72.8l4.8-7.6c0,0,1.9-5.2,6.6-4c0,0,7.7-2,9.5,0.9c0,0,5.3,3.4,5.9,4.5c2.2,0.2,4.6,2.3,5.4,4.5
			c0.8,2.2,3.8,13.8-4.8,11.6L289.7,87L276.8,72.8z"/>
		<path class="st6" d="M279.5,88.8c0.7,1.6,0.8,1.8,0.8,1.8s2.3,3.3,3.6,3.5c1.3,0.2,3.1-2.3,3.1-2.3l1.4,0.8l3.3-1.6l2.1,1.4
			l3.9-5.1c0,0,2.3,0.2,2.6,0.2c0.3,0,3.9-4.8,3.9-4.8c-0.1-2.3-2.8-2.8-2.8-2.8s-1.1-0.1-5.3,2.5c-4.2,2.6-3.1-1.1-3.1-1.1
			c2.5-2.4,2.7-4.2,2.6-5.3c-0.1-1.1-2.6-1.1-4.5,0.2c-1.9,1.3-1.8,4.3-1.8,4.3c-6.3-0.4-8.9-10-8.9-10l-6.5,4l-7.1,0.9l4.4,15
			l3.2-1.7L279.5,88.8z"/>
		<path class="st10" d="M297.7,86.4l1.4,0.3c0,0-0.4-1.6-1.1-2.2c-0.7-0.6-1.1-0.6-1.1-0.6L297.7,86.4z"/>
		<path class="st9" d="M271.1,73.2c0,0,1.3,10.9,0,17.3v4.5l-2.5,6.8c0,0-3.7,11.3-24.1,7.7c0,0-29.9-1.3-31.9-1.6
			c-2-0.3-7.9-0.9-7.9-0.9s5.3-26.1,8-28c0,0,18.5-3.9,21.9-4.8c3.4-0.9,8.8-5.1,18.1-5C262.1,69.2,268.2,70.8,271.1,73.2z"/>
		<path class="st10" d="M212.8,79c0,0-19.4-13.7-25.8-12.7c-6.4,1-10.9,1.8-10.9,1.8s-19.5-9.1-29.4-9.7c0,0-10.9-17.5-27.6-20.8
			L96.6,28l-4.9,7.4l21.4,13c0,0,12.3,6.6,13.4,8.8s10.3,13.2,10.3,13.2l21.4,14.8c0,0-8.2-0.4-14.6,2.5s-20.4,2.1-20.4,2.1
			s-17.7-4.9-34.2,1.2l-20.2,4.1l-10.1,8.4l10.1,2.9l21.4-1l27-1.4l13.2,4.1l65-0.3l9.4-0.7L212.8,79z"/>
		<path class="st5" d="M242.6,95.1c0,0,6.3,10.5,10,10.8c3.7,0.3,8.1-2,8.1-2l-1.1-20c0,0-12.6-5.7-15.9-0.9S242.6,95.1,242.6,95.1z
			"/>
		<path class="st6" d="M255.5,85.2c0,0-13.1-6.3-17.8-6.4c-4.7-0.1-8.3-1.4-8.3-1.4s-5,1.2-5.8,2.3c-0.7,1-14.6,13.5-17.3,17.7
			c0,0-2.8-0.4-3.1-1.7c-0.3-1.3,0-3.2,0-3.2s-2-0.7-2.1,1.3c-0.1,2.1,1,4.8,1,4.8l-1,2c0,0-3.6,3-4.2,3.6c0,0-7.1-1.9-7.3-0.9
			c-0.2,0.9,2.9,1.7,2.9,1.7s-3.3,1.1-2.9,1.7c0.4,0.6,4.1,0.1,5.8,1c1.6,0.9,5.3,1.4,6.7,1.1c1.3-0.3,3.8-3.3,4.1-3.4
			s11.2-6,12.4-7.1s11.3-4.1,13-6c1.6-1.9,5.5,3.2,12.2,4c6.8,0.8,11.6,8.3,18.3,7.5c6.7-0.8,6.7-6,6.7-6s6.1-11.7-9.3-14
			L255.5,85.2z"/>
		<path class="st9" d="M70.7,96.1c0,0-3.7-7.2-6.8-6.4s-10.3,8.2-10.3,8.2l-10.5,2.7l-3.3,3.7l4.1,2.5l11.3-0.6l13.6,0.2
			c0,0-4.9-3.3-2.9-5.8C68,98.1,70.7,96.1,70.7,96.1z"/>
	</g>
</g>
<g id="圖層_2" class="st53">
</g>
</svg>
