<?xml version="1.0" encoding="utf-8"?>
<!-- Generator: Adobe Illustrator 23.0.3, SVG Export Plug-In . SVG Version: 6.00 Build 0)  -->
<svg version="1.1" xmlns="http://www.w3.org/2000/svg" xmlns:xlink="http://www.w3.org/1999/xlink" x="0px" y="0px"
	 viewBox="0 0 350 137.3" style="enable-background:new 0 0 350 137.3;" xml:space="preserve">
<style type="text/css">
	.st0{fill:#5237FD;}
	.st1{fill:url(#SVGID_1_);}
	.st2{fill:url(#SVGID_2_);}
	.st3{fill:#F08265;}
	.st4{fill:#2E3F77;}
	.st5{fill:#D9A280;}
	.st6{fill:#EEB591;}
	.st7{fill:none;stroke:#221815;stroke-width:0.8843;stroke-miterlimit:10;}
	.st8{fill:#16253E;}
	.st9{fill:#FFFFFF;}
	.st10{fill:#14243D;}
	.st11{fill-rule:evenodd;clip-rule:evenodd;fill:#14243D;}
	.st12{fill-rule:evenodd;clip-rule:evenodd;fill:#EEB591;}
	.st13{fill-rule:evenodd;clip-rule:evenodd;fill:#FFFFFF;}
	.st14{fill:#F0B58C;}
	.st15{fill-rule:evenodd;clip-rule:evenodd;fill:#E7322B;}
	.st16{fill-rule:evenodd;clip-rule:evenodd;fill:#961E23;}
	.st17{fill-rule:evenodd;clip-rule:evenodd;fill:#D9A280;}
	.st18{fill:#D26560;}
	.st19{fill:#E2B89B;}
	.st20{fill-rule:evenodd;clip-rule:evenodd;fill:#334959;}
	.st21{fill:none;}
	.st22{fill:#DCAFA3;}
	.st23{fill:#E1BBAF;}
	.st24{fill:#548397;}
	.st25{fill:#CCCCCC;}
	.st26{fill:#C9A194;}
	.st27{fill:#C05C89;}
	.st28{fill:#F8BA8E;}
	.st29{fill:url(#SVGID_3_);}
	.st30{fill:url(#SVGID_4_);}
	.st31{fill:url(#SVGID_5_);}
	.st32{fill:url(#SVGID_6_);}
	.st33{fill:url(#SVGID_7_);}
	.st34{fill:url(#SVGID_8_);}
	.st35{fill:none;stroke:#FFFFFF;stroke-width:1.848;stroke-linecap:round;stroke-linejoin:round;}
	.st36{fill:none;stroke:#FFFFFF;stroke-width:1.848;stroke-linecap:round;stroke-linejoin:round;stroke-dasharray:3.8976,5.8464;}
	.st37{fill:none;stroke:#FFFFFF;stroke-width:1.848;stroke-linecap:round;stroke-linejoin:round;stroke-dasharray:3.4567,5.185;}
	.st38{fill:url(#SVGID_9_);}
	.st39{fill:#6460FF;}
	.st40{fill:url(#SVGID_10_);}
	.st41{fill:url(#SVGID_11_);}
	.st42{fill:url(#SVGID_12_);}
	.st43{fill:url(#SVGID_13_);}
	.st44{fill:url(#SVGID_14_);}
	.st45{fill:url(#SVGID_15_);}
	.st46{fill:url(#SVGID_16_);}
	.st47{fill:url(#SVGID_17_);}
	.st48{fill:url(#SVGID_18_);}
	.st49{fill:url(#SVGID_19_);}
	.st50{fill:url(#SVGID_20_);}
	.st51{fill:url(#SVGID_21_);}
	.st52{fill:url(#SVGID_22_);}
	.st53{display:none;}
	.st54{display:inline;}
</style>
<g id="圖層_1">
	<g>
		<path class="st6" d="M80.3,40.8l6.4-4.9c0,0,2.9-1.3,4-1.3s3.8-2.3,4.6-2.9c0.8-0.6,4.4-2.9,5.1-3.6c0.7-0.7,7.3-6.7,8.5-7.1
			s4.2-1.8,4.9-2c0.7-0.2,5.3-3.2,7-2.1c1.7,1.1,2.3,2.4,2.3,3.2c0,0.8,0.9,9.4,0.6,11.7s-1.2,4.9-1.7,5.9c-0.4,1-3.6,4-1.6,6.8
			c2,2.8-18.4,2.3-18.4,2.3s2.1-6.1,4.2-9.4s4.2-5.1,4.2-5.1l0.2-1.9c0,0-8.4,3.7-9.9,4.8c-1.4,1.1-4.2,3.9-4.2,3.9l-0.6,5l-5.4,4.4
			L90.4,46l1.8-2.3l-1.3-0.4c0,0-1.6,1.1-1.8,2.3c-0.2,1.2-1.1-3-1.1-3L87.7,42l-1.5,2.2l-1.7-0.7l0.7-2.6l-2.1,1.8L80,43.6
			l-1.1-0.7L80.3,40.8z"/>
		<path class="st10" d="M158.5,59.8c0,0,5.7-3.2,10-3.6c4.3-0.3,9.5,0,15.7,2.3c6.1,2.3,24.8,3.7,30.9,3.3
			c6.1-0.3,10.9-2.6,13.9-2.9c3-0.2,27.9,2.3,30.6,1.7s5.4-0.9,5.4-0.9l3,2l-2.4,5.2c0,0-2.2,0.5-3.7,0.7c-1.4,0.2-6.7-1.1-13.5,1.1
			s-8.8,3.7-11.7,3.7c-2.9,0-9.7-1.2-11.2-1c-1.6,0.2-6.3,3.6-9,3.7c-2.7,0.1-13.1,2.1-13.1,2.1l10.8,3.6c0,0,7.8,4,13,3.8
			c5.2-0.2,11.1-1.7,18.4-1.4s25.9,7.4,38.2,9.1h3.1l-2.2,10c0,0-4.8-1.7-7.9-2.1c-3.1-0.4-22.5-2-26.5-1.8
			c-4,0.2-15.4-1.1-15.4-1.1s-6.9,3.4-9.4,3.6c-2.6,0.1-14-1.8-14-1.8l-47.4-8L158.5,59.8z"/>
		<path class="st9" d="M259.5,60.8l4.4-2.1l0.7-4c0,0,3.3-3,4.6-2.8c1.2,0.2,2.2,2.1,2.7,3.8s2.9,1.8,2.9,1.8l2.8,9
			c0,0-3.1,2.2-7.5,1.4c0,0-4.1,1.7-5.2,1.7s-0.2-2.2-0.2-2.2s-0.9-3.9,0.7-5c1.6-1.1-2-2.2-2-2.2L259.5,60.8z"/>
		<path class="st9" d="M283.7,92.5l1-2.1h2.1l6.1-2.4l4.8-1c0,0,2.9,3.6,3.6,6.7l4.7,3.7c0,0,2.4,4.4,2.9,7.2
			c0.4,2.8,0.9,11.8,0.9,11.8s-2.7,1.8-4.4,1.1s-2.4-3.1-3.7-3.9c-1.2-0.8-12.3-7.3-15.8-8.1c-3.4-0.8-2.5-3.3-2.5-3.3
			s-0.2-6,2.5-9.6H283.7z"/>
		<path class="st10" d="M72.2,61.1c0,0-3,0.3-2.8-2.9c0,0-2.2-7.5-0.6-9.7c1.7-2.1,3.9-6.3,11.5-7.7c7.7-1.3,13.5,9.4,13.5,9.4l2,2
			l4.3,0.4l-3.8,15.9l-1.8-1.4c0,0-1,0.7-4.3,0c-3.3-0.7-3.6,0.5-6.1-0.7s-4.6-3.4-6.8-3.6l-0.9-1.6l-2.9-0.2"/>
		<path class="st6" d="M95.9,52.3l-0.6-0.6c-2.6,2.3-3.7,9.3-4.4,10.2c-0.7,0.9-3.3,0.7-4.3,0.8c-0.8,0.1-7.1-0.8-9.5-1.1
			c-0.1,0-0.2,0-0.3,0.2l0.7,1.2c2.1,0.2,4.2,2.4,6.8,3.6s2.8,0,6.1,0.7c3.3,0.7,4.3,0,4.3,0l1.8,1.4l3.8-15.9L95.9,52.3z"/>
		<path class="st9" d="M102.1,46.8L98,52.7c0,0-4.6,9.3-1.7,12.7l0.2,5.5l-2.7,3.8L107.5,87c0,0,16.8,4.5,24.9,5
			c8.1,0.6,31.5-0.8,31.5-0.8s-2.3-23-3-25.1c-0.7-2.1-2.4-6.3-2.4-6.3l-13.4,0.6c0,0-4.9-1.5-10-5c-5.1-3.6-11.2-9.5-14.5-10.9
			C117.2,43.2,104.1,44,102.1,46.8z"/>
		<path class="st6" d="M112,83.7c-6.3-14.3-16.5-9.8-16.5-9.8c-5.9,2-7.9,11.7-7.9,11.7s-2.8,2.2-4.2,3.3C82.2,90,80.2,93,80.2,93
			s-0.8-0.9-2.4-1.7c-1.6-0.7-3.7-5.8-3.7-5.8v-1.7c2.1-1,5.1-4.9,5.1-5.7s1.5-4.1,1.5-4.1l-0.8-1.3c0,0-0.4-1.4-0.9-1.3
			c-0.5,0.1-1.5,2.7-1.5,2.7l-0.7,2.2l-1-1.9l-0.2-3.9l1.3-2.7c0,0,0.4-3.7,0.5-4.1c0.1-0.4,0.1-2.7-0.8-2.4
			c-0.9,0.2-1.2,3.7-1.2,3.7l-2.7,5.3l1-4.1c0,0,0.1-3.7,0-5.1c-0.1-1.4-1.5,0-1.5,0l-0.8,3.9l-0.9,4.8l-0.5,0c0,0,0.2-6.6,0.3-7.4
			s-0.3-1.6-1.1-1.2c-0.7,0.4-1.2,4.7-1.2,4.7l-0.5,4.6l-0.9,0.7v-4.4c0,0-0.1-1.9-1-1.7c-0.9,0.2-0.9,7.6-0.9,7.6
			c-0.8,0.9-0.5,8.1-0.5,8.1l1.8,4.1c-0.2,12.2,6,21.3,6,21.3s2,4.2,2.3,4.7c0.3,0.5,6.8-0.5,8.3-1.3c1.5-0.8,7.5-6.3,7.5-6.3
			c10-5.8,13.2-13.2,13.2-13.2l4.3-3.1l0,0l4.5,1.1C112.4,86.1,112,83.7,112,83.7z"/>
	</g>
</g>
<g id="圖層_2" class="st53">
</g>
</svg>
