<?xml version="1.0" encoding="utf-8"?>
<!-- Generator: Adobe Illustrator 23.0.3, SVG Export Plug-In . SVG Version: 6.00 Build 0)  -->
<svg version="1.1" xmlns="http://www.w3.org/2000/svg" xmlns:xlink="http://www.w3.org/1999/xlink" x="0px" y="0px"
	 viewBox="0 0 350 137.3" style="enable-background:new 0 0 350 137.3;" xml:space="preserve">
<style type="text/css">
	.st0{fill:#5237FD;}
	.st1{fill:url(#SVGID_1_);}
	.st2{fill:url(#SVGID_2_);}
	.st3{fill:#F08265;}
	.st4{fill:#2E3F77;}
	.st5{fill:#D9A280;}
	.st6{fill:#EEB591;}
	.st7{fill:none;stroke:#221815;stroke-width:0.8843;stroke-miterlimit:10;}
	.st8{fill:#16253E;}
	.st9{fill:#FFFFFF;}
	.st10{fill:#14243D;}
	.st11{fill-rule:evenodd;clip-rule:evenodd;fill:#14243D;}
	.st12{fill-rule:evenodd;clip-rule:evenodd;fill:#EEB591;}
	.st13{fill-rule:evenodd;clip-rule:evenodd;fill:#FFFFFF;}
	.st14{fill:#F0B58C;}
	.st15{fill-rule:evenodd;clip-rule:evenodd;fill:#E7322B;}
	.st16{fill-rule:evenodd;clip-rule:evenodd;fill:#961E23;}
	.st17{fill-rule:evenodd;clip-rule:evenodd;fill:#D9A280;}
	.st18{fill:#D26560;}
	.st19{fill:#E2B89B;}
	.st20{fill-rule:evenodd;clip-rule:evenodd;fill:#334959;}
	.st21{fill:none;}
	.st22{fill:#DCAFA3;}
	.st23{fill:#E1BBAF;}
	.st24{fill:#548397;}
	.st25{fill:#CCCCCC;}
	.st26{fill:#C9A194;}
	.st27{fill:#C05C89;}
	.st28{fill:#F8BA8E;}
	.st29{fill:url(#SVGID_3_);}
	.st30{fill:url(#SVGID_4_);}
	.st31{fill:url(#SVGID_5_);}
	.st32{fill:url(#SVGID_6_);}
	.st33{fill:url(#SVGID_7_);}
	.st34{fill:url(#SVGID_8_);}
	.st35{fill:none;stroke:#FFFFFF;stroke-width:1.848;stroke-linecap:round;stroke-linejoin:round;}
	.st36{fill:none;stroke:#FFFFFF;stroke-width:1.848;stroke-linecap:round;stroke-linejoin:round;stroke-dasharray:3.8976,5.8464;}
	.st37{fill:none;stroke:#FFFFFF;stroke-width:1.848;stroke-linecap:round;stroke-linejoin:round;stroke-dasharray:3.4567,5.185;}
	.st38{fill:url(#SVGID_9_);}
	.st39{fill:#6460FF;}
	.st40{fill:url(#SVGID_10_);}
	.st41{fill:url(#SVGID_11_);}
	.st42{fill:url(#SVGID_12_);}
	.st43{fill:url(#SVGID_13_);}
	.st44{fill:url(#SVGID_14_);}
	.st45{fill:url(#SVGID_15_);}
	.st46{fill:url(#SVGID_16_);}
	.st47{fill:url(#SVGID_17_);}
	.st48{fill:url(#SVGID_18_);}
	.st49{fill:url(#SVGID_19_);}
	.st50{fill:url(#SVGID_20_);}
	.st51{fill:url(#SVGID_21_);}
	.st52{fill:url(#SVGID_22_);}
	.st53{display:none;}
	.st54{display:inline;}
</style>
<g id="圖層_1">
	<path class="st10" d="M278.4,39.9l7.7-4.6c0,0,4.7-1.5,6.6,0c0,0,4.8-1.1,6.7,2.9c0,0,6.4,1.6,6.2,7.2s-0.6,7.6-0.6,7.6
		s1,14.9-6.6,8.6L282,58.9L278.4,39.9z"/>
	<path class="st4" d="M199.1,37.3c0,0-16-2.7-25.6,5.8l-10,3.3c0,0-12.5,1-16.4,3.7h-10.6c0,0-14.2-8.4-29.8-6.6
		c0,0-13.7,1.1-16.1,0c-2.4-1.1-7.3-2.6-7.3-2.6L77.3,50l6.1,5.2c0,0,11-2,15.4-2c4.4,0,23.5,9.8,23.5,9.8l54.3-6.6l22.6-11.7V37.3z
		"/>
	<path class="st9" d="M78,39.4l-2.5-1.3c0,0-4.3,3.7-4.5,5.3C70.9,45,71.6,51,71.6,51s1.5,3.8,0.4,6.6c-1.1,2.8,3.4,13.6,6,13.7
		c2.6,0.1,8.7,0,8.7,0l2.4-11.5v-5.4c0,0-5.5-2.9-6.1-5.3c-0.6-2.4,0-4.4,0-4.4s2.7-1.4,2.9-2.9c0.2-1.6-2-2.3-2-2.3H78z"/>
	<path class="st10" d="M195.1,39.4c0,0-17.1,2.7-23.7,10.6c0,0-31.9,8.7-33.2,9s-11.5,1.5-11.5,1.5s-19.1-6.2-26.4-5.6
		c-7.3,0.6-11,1.7-11,1.7L63.7,54l2,12.1h11.7c0,0,6.6,0.1,10.3,1.5s14.4,5.3,16.6,5.5s15.6,1.6,17.4,1.9c1.7,0.2,6.1,2.7,9.8,2.7
		c3.7,0,55-2.5,58.9-4.6c0,0,13.4-1.3,18.6-4.2C214,66,195.1,39.4,195.1,39.4z"/>
	<path class="st9" d="M67.7,75.8c1.2,0.9,1.8,4.5,1.8,4.5s1.5,2.1-0.7,6.6c-3.2,3.4-7.9-0.2-7.9-0.2s-3.5-2.1-5-4.6
		c-1.5-2.6-1-10.7-1-10.7s-1.2-6.5-1.7-9.7c-0.5-3.2,3.4-9.5,3.4-9.5s2.8,0,3.5,1c0,0,5.3-1.6,7.3-1c2.1,0.6,1.2,3.9,0.9,4.8
		c-0.4,0.9-2.1,3.9-0.6,5.3c1.5,1.3,3.9,2,5.9,4.6c0,0-1.3,3.7-2.6,4.6C69.6,72.2,67.7,75.8,67.7,75.8z"/>
	<path class="st6" d="M271,58c0,0,1.9,4,3.1,4.8c1.2,0.8,2.9-0.4,2.9-0.4l1,1.5h4l1.4,2.3l6.4-3.2c0,0,2.2,1.3,2.4,1.4
		s6.2-2.9,6.2-2.9c1-2.3-1.4-4.1-1.4-4.1s-1-0.6-6.4-0.1c-5.5,0.6-2.5-2.5-2.5-2.5c3.6-1.2,4.6-2.9,5.1-4c0.4-1.1-2-2.4-4.6-2
		s-3.8,3.4-3.8,3.4c-6-3.4-4-14.2-4-14.2s-4.5,0.1-6.8,0S271,58,271,58z"/>
	<path class="st10" d="M291,62.5l1.3,0.9c0,0,0.4-1.8,0-2.7c-0.4-0.9-0.9-1.1-0.9-1.1L291,62.5z"/>
	<path class="st9" d="M202.9,73.2l-5.5-11.1c0,0-2.3-11.7-2.6-13.3c-0.3-1.6,0.2-12.9,1.5-12.8s7.5,3.7,8.3,3.9s15.3-1.8,15.3-1.8
		l16.3-5.4l5.5-4.1c0,0,4.7-2.1,15.2-1.8c10.4,0.3,14.8,7.6,14.8,7.6l4.7,2.5c0,0-1.3,5.2-1.8,7C274.1,45.8,271,58,271,58
		s-2.2,12-24.8,12.5C223.6,70.9,202.9,73.2,202.9,73.2z"/>
	<path class="st6" d="M247.2,46.7c0,0,7.6-9,14.2-4.6s5.1,14.7,1,18.3c0,0-4.6,7.7-9,11.5c0,0,0.7,13-0.7,17.3
		c0,0-0.5,12.5,0.2,13.6l3.5-0.7c0,0,3.6,0.1,4.6,0.1c1,0.1,3,1.3,3.7,1c0,0-0.4,2.2-1,2.1l5.7,0c0,0,6.5,2.7,7.3,2.6
		c0,0,0,2.2-1.3,2.4c0,0,3.8,0.7,3.4,2s-2.6,0.9-2.6,0.9s1.2,1.6-0.2,1.7c-1.5,0.1-5.6-0.5-5.6-0.5l-1.6,0.1c0,0,1.9,0.9,2.2,1.4
		s-1.8,1-3.1,0.7c-1.3-0.2-6.4-1.9-6.4-1.9l-12.2-2c0,0-3.8-5.1-4.2-6.5s-0.5-2.5-0.5-2.5s-4.6-9.9-4.7-14.2
		c-0.1-4.2-1.3-15.7-1.3-15.7s-0.7-2.4,0.5-3.5c1.1-1.1-0.3-4.6,2.4-6.8C241.4,63.7,243.5,54.2,247.2,46.7z"/>
</g>
<g id="圖層_2" class="st53">
</g>
</svg>
