<?xml version="1.0" encoding="utf-8"?>
<!-- Generator: Adobe Illustrator 23.0.3, SVG Export Plug-In . SVG Version: 6.00 Build 0)  -->
<svg version="1.1" xmlns="http://www.w3.org/2000/svg" xmlns:xlink="http://www.w3.org/1999/xlink" x="0px" y="0px"
	 viewBox="0 0 350 137.3" style="enable-background:new 0 0 350 137.3;" xml:space="preserve">
<style type="text/css">
	.st0{fill:#5237FD;}
	.st1{fill:url(#SVGID_1_);}
	.st2{fill:url(#SVGID_2_);}
	.st3{fill:#F08265;}
	.st4{fill:#2E3F77;}
	.st5{fill:#D9A280;}
	.st6{fill:#EEB591;}
	.st7{fill:none;stroke:#221815;stroke-width:0.8843;stroke-miterlimit:10;}
	.st8{fill:#16253E;}
	.st9{fill:#FFFFFF;}
	.st10{fill:#14243D;}
	.st11{fill-rule:evenodd;clip-rule:evenodd;fill:#14243D;}
	.st12{fill-rule:evenodd;clip-rule:evenodd;fill:#EEB591;}
	.st13{fill-rule:evenodd;clip-rule:evenodd;fill:#FFFFFF;}
	.st14{fill:#F0B58C;}
	.st15{fill-rule:evenodd;clip-rule:evenodd;fill:#E7322B;}
	.st16{fill-rule:evenodd;clip-rule:evenodd;fill:#961E23;}
	.st17{fill-rule:evenodd;clip-rule:evenodd;fill:#D9A280;}
	.st18{fill:#D26560;}
	.st19{fill:#E2B89B;}
	.st20{fill-rule:evenodd;clip-rule:evenodd;fill:#334959;}
	.st21{fill:none;}
	.st22{fill:#DCAFA3;}
	.st23{fill:#E1BBAF;}
	.st24{fill:#548397;}
	.st25{fill:#CCCCCC;}
	.st26{fill:#C9A194;}
	.st27{fill:#C05C89;}
	.st28{fill:#F8BA8E;}
	.st29{fill:url(#SVGID_3_);}
	.st30{fill:url(#SVGID_4_);}
	.st31{fill:url(#SVGID_5_);}
	.st32{fill:url(#SVGID_6_);}
	.st33{fill:url(#SVGID_7_);}
	.st34{fill:url(#SVGID_8_);}
	.st35{fill:none;stroke:#FFFFFF;stroke-width:1.848;stroke-linecap:round;stroke-linejoin:round;}
	.st36{fill:none;stroke:#FFFFFF;stroke-width:1.848;stroke-linecap:round;stroke-linejoin:round;stroke-dasharray:3.8976,5.8464;}
	.st37{fill:none;stroke:#FFFFFF;stroke-width:1.848;stroke-linecap:round;stroke-linejoin:round;stroke-dasharray:3.4567,5.185;}
	.st38{fill:url(#SVGID_9_);}
	.st39{fill:#6460FF;}
	.st40{fill:url(#SVGID_10_);}
	.st41{fill:url(#SVGID_11_);}
	.st42{fill:url(#SVGID_12_);}
	.st43{fill:url(#SVGID_13_);}
	.st44{fill:url(#SVGID_14_);}
	.st45{fill:url(#SVGID_15_);}
	.st46{fill:url(#SVGID_16_);}
	.st47{fill:url(#SVGID_17_);}
	.st48{fill:url(#SVGID_18_);}
	.st49{fill:url(#SVGID_19_);}
	.st50{fill:url(#SVGID_20_);}
	.st51{fill:url(#SVGID_21_);}
	.st52{fill:url(#SVGID_22_);}
	.st53{display:none;}
	.st54{display:inline;}
	.st55{display:inline;fill:#040000;}
	.st56{font-family:'Montserrat-SemiBold';}
	.st57{font-size:26.0105px;}
</style>
<g id="圖層_1">
	<path class="st11" d="M188.9,43.6l0.7,63.9c0.1,7.1-6.2,12.6-13.3,11.5l-46.2-7.1l0.2-6.8l33.3-3.2c0.5,0,1,0,1.4,0l8.5,1l-10-39
		l-41.1,5.5L70,47.8l3.5-8l25.3,4c4.3,0.7,8.4,2.1,12.2,4.2l9.3,5.1l3.1-0.2l33.2-12.5C165.7,42.4,179.9,41.5,188.9,43.6L188.9,43.6
		z"/>
	<path class="st11" d="M188.9,43.6l0.3,30.8c0,4.4-3.5,8-7.9,8l-6.8,0c-3.6,0-6.7-2.4-7.6-5.9l-1.5-5.7c-1-3.8-4.7-6.3-8.7-5.8v0
		c-3.8,0.5-7.4-1.8-8.6-5.4l-2.2-6.8c-1.1-3.3,0.1-6.9,2.9-8.9l9.2-6.6c0.5-0.3,1-0.6,1.5-0.8C177.1,28.9,181.7,36.1,188.9,43.6
		L188.9,43.6z"/>
	<path class="st11" d="M163.6,64l-13.5,1.8l-6-18.6l17.8-9.7c0.5-0.3,1.1-0.6,1.6-0.8C153.8,41.3,161.6,56.5,163.6,64L163.6,64z"/>
	<path class="st13" d="M179.2,34.7l12.1-1c22.8-3.8,37.5-8,50.7-3L234,45l-0.7,17.9c-12.6,2.8-18.4,1-18.4,1l-19,0.6l-6.7,1.3
		l-3.4-21.6L179.2,34.7z"/>
	<polygon class="st17" points="245.4,86.3 256.4,119.4 273.6,120.2 276.8,123.3 268.3,124.3 254.8,124 250.5,121.8 236.6,90.5 
		230.5,46.7 244.7,46.3 245.4,86.3 	"/>
	<path class="st12" d="M248.3,119.4l-7.3-33.1l5.9-30.3l4-8.4l4.9-2.4c1.3-4,4-7.8,3.4-12.2c-0.1-1-0.4-1.8-0.7-2.7
		c-0.3,0.2-0.6,0.4-1,0.5l-7.2,2.4l-8.2-2.5l-11.6,14.5l1.2,45.2l10.5,31.3l4,2.2l13.5,0.3l8.6-1l-2.9-3.1L248.3,119.4z"/>
	<path class="st13" d="M73.5,39.8l-4.8-5.6l-4.4,0.6L55.2,56c-1.6,7.1,1.3,5,4.5,2.6c2.9-7.2,4.9-9.9,10.3-10.8L73.5,39.8L73.5,39.8
		z"/>
	<path class="st13" d="M130.3,105.1l-6.2-3.3l-3.6,2c-1.4,6.5-1.8,12.7-0.9,18.4c1.6,1.9,3.2,3.8,4.7,5.8c3.6,0.1,4.6-0.6,3-3.9
		l-1.4-2.4c-1.1-1.9-1-6.8,4.2-9.9L130.3,105.1L130.3,105.1z"/>
	<g>
		<path class="st14" d="M269.4,45.7c0,0-8.9,2.9-14.6,4.1c-1.4,0.3-2-11.2-0.5-13.3c1.8-2.5,7.2-5.7,9.6-5.7c1.1,0,6.6,0,9.9,2.5
			c3.6,2.7,4.2,6.4,5,8.7C279.1,42.9,271.8,45.9,269.4,45.7z"/>
		<path class="st10" d="M271.4,34.6c0.3,0,0.5,0,0.8,0c1.6,0.2,3.3,1.6,4.2,2.9c0.8,1.2,1.3,2.6,1.5,4c0.1,0.5,0,1.1,0.3,1.6
			c0.3,0.4,1,0.8,1.4,1.1c1,0.6,2.1,1,3.3,0.9c1.9-0.2,3.5-1.7,4.3-3.5c0.5-1.1,0.8-2.5,0.2-3.6c-0.3-0.5-1-0.9-1.3-1.4
			c-0.3-0.5-0.2-1.3-0.4-1.9c-0.4-1.2-1-2.3-1.8-3.3c-0.3-0.4-0.7-0.8-1-1.3c-0.6-1-0.5-2.2-0.8-3.3c-0.6-2.3-2.5-3.2-4.6-3.7
			c-1.8-0.5-2.7-2.6-4.6-3c-2-0.4-3.8,1.4-5.8,1.1c-0.9-0.1-1.6-0.6-2.5-0.8c-1.6-0.4-3.2,0.3-4.3,1.3c-1.1,1.1-1.6,2.7-3,3.5
			c-0.8,0.5-2,0.4-2.4-0.4c-0.1-0.2-0.1-0.3-0.2-0.5c-0.3-0.5-0.9-0.6-1.4-0.5c-0.5,0.1-0.9,0.5-1.3,0.9c-0.6,0.7-1,1.6-1,2.5
			c0,0.9,0.3,1.9,0.9,2.5c0.8,0.8,2.3,1.3,3.4,1.5c1.1,0.2,2.1,0.7,3.3,1c1,0.2,2-0.3,2.9-0.4c0.9-0.1,2.1,0.3,2.1,1.2
			c0,0.5-0.3,1-0.3,1.6c0.1,0.6,0.7,1,1.2,1c0.6,0.1,1.1-0.1,1.7-0.3C268,35,269.8,34.6,271.4,34.6z"/>
		<path class="st14" d="M263.5,33.7c0,0,4.1-3.5,0.3-5.9c-1.7-1.1-6.1,1.7-6.6,3.4c-0.5,1.7,0.2,3.9,0.2,3.9L263.5,33.7z"/>
		<path class="st14" d="M261.5,48c0,0,0.6,3.1,1.6,2.3c1.5-1.1,6.7-4.9,6.7-4.9L261.5,48z"/>
		<path class="st10" d="M273.2,46l1.4-0.5c0,0-0.3-4.3-3.3-5.4l-0.1,0.1C271.2,40.3,273,41.1,273.2,46z"/>
		<path class="st9" d="M260.3,48.4c0,0-0.9-2.7-0.9-4.6l1.2,4.5L260.3,48.4z"/>
	</g>
	<path class="st13" d="M238,33.7c0,0,4.7-1.6,7.5,1.8c2.8,3.3,2.4,17.2,2.4,17.2l-1.1,3.9l4.1-9c0,0-0.2-13.6-3.9-15.3
		c-2.3-1.1-2.1-1.7-6.3-2C236.4,30,238,33.7,238,33.7z"/>
</g>
<g id="圖層_2" class="st53">
	<text transform="matrix(1 0 0 1 21.3663 -6.1762)" class="st55 st56 st57">14 min LIPT</text>
</g>
</svg>
