<?xml version="1.0" encoding="utf-8"?>
<!-- Generator: Adobe Illustrator 23.0.3, SVG Export Plug-In . SVG Version: 6.00 Build 0)  -->
<svg version="1.1" xmlns="http://www.w3.org/2000/svg" xmlns:xlink="http://www.w3.org/1999/xlink" x="0px" y="0px"
	 viewBox="0 0 350 137.3" style="enable-background:new 0 0 350 137.3;" xml:space="preserve">
<style type="text/css">
	.st0{fill:#5237FD;}
	.st1{fill:url(#SVGID_1_);}
	.st2{fill:url(#SVGID_2_);}
	.st3{fill:#F08265;}
	.st4{fill:#2E3F77;}
	.st5{fill:#D9A280;}
	.st6{fill:#EEB591;}
	.st7{fill:none;stroke:#221815;stroke-width:0.8843;stroke-miterlimit:10;}
	.st8{fill:#16253E;}
	.st9{fill:#FFFFFF;}
	.st10{fill:#14243D;}
	.st11{fill-rule:evenodd;clip-rule:evenodd;fill:#14243D;}
	.st12{fill-rule:evenodd;clip-rule:evenodd;fill:#EEB591;}
	.st13{fill-rule:evenodd;clip-rule:evenodd;fill:#FFFFFF;}
	.st14{fill:#F0B58C;}
	.st15{fill-rule:evenodd;clip-rule:evenodd;fill:#E7322B;}
	.st16{fill-rule:evenodd;clip-rule:evenodd;fill:#961E23;}
	.st17{fill-rule:evenodd;clip-rule:evenodd;fill:#D9A280;}
	.st18{fill:#D26560;}
	.st19{fill:#E2B89B;}
	.st20{fill-rule:evenodd;clip-rule:evenodd;fill:#334959;}
	.st21{fill:none;}
	.st22{fill:#DCAFA3;}
	.st23{fill:#E1BBAF;}
	.st24{fill:#548397;}
	.st25{fill:#CCCCCC;}
	.st26{fill:#C9A194;}
	.st27{fill:#C05C89;}
	.st28{fill:#F8BA8E;}
	.st29{fill:url(#SVGID_3_);}
	.st30{fill:url(#SVGID_4_);}
	.st31{fill:url(#SVGID_5_);}
	.st32{fill:url(#SVGID_6_);}
	.st33{fill:url(#SVGID_7_);}
	.st34{fill:url(#SVGID_8_);}
	.st35{fill:none;stroke:#FFFFFF;stroke-width:1.848;stroke-linecap:round;stroke-linejoin:round;}
	.st36{fill:none;stroke:#FFFFFF;stroke-width:1.848;stroke-linecap:round;stroke-linejoin:round;stroke-dasharray:3.8976,5.8464;}
	.st37{fill:none;stroke:#FFFFFF;stroke-width:1.848;stroke-linecap:round;stroke-linejoin:round;stroke-dasharray:3.4567,5.185;}
	.st38{fill:url(#SVGID_9_);}
	.st39{fill:#6460FF;}
	.st40{fill:url(#SVGID_10_);}
	.st41{fill:url(#SVGID_11_);}
	.st42{fill:url(#SVGID_12_);}
	.st43{fill:url(#SVGID_13_);}
	.st44{fill:url(#SVGID_14_);}
	.st45{fill:url(#SVGID_15_);}
	.st46{fill:url(#SVGID_16_);}
	.st47{fill:url(#SVGID_17_);}
	.st48{fill:url(#SVGID_18_);}
	.st49{fill:url(#SVGID_19_);}
	.st50{fill:url(#SVGID_20_);}
	.st51{fill:url(#SVGID_21_);}
	.st52{fill:url(#SVGID_22_);}
	.st53{display:none;}
	.st54{display:inline;}
</style>
<g id="圖層_1">
	<g>
		<g>
			<g>
				<path class="st10" d="M124.1,88.6c0,0,2.2-10.2-5.3-19.3c-7.8-9.4-4.4-17.1-4.6-20.3c-0.2-3.3-0.5-4.6-0.5-4.6s-5.9-1.4-7-0.9
					c-1,0.5-6.1,5.2-6.1,5.2l1.5,1.5c0,0,3.1,9.8,4.2,16.8c1.1,7,1.9,25.2,3.3,27.8C110.9,97.3,124.1,88.6,124.1,88.6z"/>
				<path class="st10" d="M177.6,96.4c0,0-20.4,10.7-28.2,12.2c-17.9,3.4-33.1,3.6-35.5,2.7c-2.3-0.9-4.6-2.4-5.1-9.4
					c-0.5-7-0.4-11.5-0.4-11.5s6.2-5.8,15.4-3.4c0,0,0.1,3.4,0.8,5.3c0,0,6-2.3,13.2-7.7C145.2,79.2,177.6,96.4,177.6,96.4z"/>
				<g>
					<path class="st10" d="M104.1,55.6c0,0-7.5-2.4-19.8-3.3c-12.2-0.9-17.4-3.1-20.4-4.3c-3-1.2-4.4-1.5-4.4-1.5s-3.8,4.8-3.7,5.9
						c0,1.1,2.1,7.7,2.1,7.7l2-0.7c0,0,10.2,1.3,17,3.2c6.8,1.9,18.6,7.8,21.6,7.6C101.4,70.1,104.1,55.6,104.1,55.6z"/>
					<path class="st10" d="M192.4,70.4c0,0-8.1-9.5-16.7-7.9c-8.6,1.6-10.1,4.3-13.1,4.1c-2.9-0.2-29.4,0.5-34.5-2.6
						c-8.4-4.9-15.4-10-23.9-8.8c0,0-2.6,10.4-6.9,15.1c0,0,5.6,2.1,7.8,2.3c2.2,0.2,4.8,1.8,7.5,3.7s9.9,6.8,18.9,9.9
						c9,3.1,27.7,14.8,53.5,11.4C185,97.7,194.8,76.6,192.4,70.4z"/>
				</g>
				<path class="st5" d="M215.8,69.9c0-0.7,0.3-1.2,1-1.8c0.3-0.1,5.1-2.3,12.1-3.7c4.6-0.9,16,0.8,23.7,2.2
					c-0.6,2.9-2.8,5.6-4.9,6.5c-5,2.2-18.9,4.9-18.9,4.9s0.2,3.9,0,7.5s-0.1,8.5,0.8,10.9c0.9,2.3,2.1,2.6,2.1,2.6
					c4.6,0.5,18.5,3.2,20.1,3.9c1.6,0.7-1.2,1.5-3.4,2.2c-2.2,0.7-19.2,0.4-20.6,0c-1.4-0.4-6.8-9.7-6.8-9.7
					C214.9,82.9,215.6,71.9,215.8,69.9z"/>
				<path class="st18" d="M260.2,72.4c0,0,0.5,9.6-9.3,10.8c-9.7,1.2-17.6-1.6-20.7-0.8c0,0-4-8.7-1.2-18.9c0,0,12-0.9,16-0.2
					C249.1,64.1,259.4,64.3,260.2,72.4z"/>
				<g>
					<path class="st6" d="M271.4,78c0-0.1,2.8-4,2.8-4.2c-4.4,0.7-14-3.6-16-2.4l-2.1,16.3c1.7-1.5,8.8-0.7,14.2,0.3
						C269.7,84.6,271,81.6,271.4,78z"/>
				</g>
				<path class="st9" d="M180.3,95.4c1.1-3.5,4.7-26.7,5.2-28.6c0.5-1.9-0.3-1.5,3.8-0.1c4.2,1.4,7.7,2,16.7,2.6
					c7.3,0.5,14.1-2.2,20.9-4.4c6.5-2,12.6-2,19.3-1.9v0l0,0l0,0c0.5,0.1,1,0.2,1.5,0.3c0.1,0,0.2,0,0.3,0.1
					c0.5,0.1,0.9,0.2,1.4,0.3c0.1,0,0.2,0,0.3,0.1c0.4,0.1,0.8,0.2,1.2,0.3c0.1,0,0.1,0,0.2,0c0.4,0.1,0.8,0.2,1.2,0.3
					c0.1,0,0.3,0.1,0.4,0.1c0.4,0.1,0.7,0.2,1.1,0.3c0.1,0,0.3,0.1,0.4,0.1c0.2,0.1,0.5,0.1,0.7,0.2c0.2,0.1,0.5,0.1,0.7,0.2
					c0.2,0.1,0.4,0.1,0.6,0.2c0.2,0.1,0.4,0.1,0.5,0.2c0.1,0,0.2,0.1,0.4,0.1c0.3,0.1,0.6,0.2,0.9,0.3c0.1,0,0.1,0.1,0.2,0.1
					c0.4,0.1,0.8,0.3,1.1,0.4c0,0,0,0,0,0l0,0c7.4,2.9,9.1,6.1,9.1,6.1l-9.8,3.7c-0.1,1.6-0.2,2.8-0.2,2.8l-7.6,4.1
					c0,0-3.9,3-8,10.8c-4.1,7.8-9.2,5.6-13.5,4.2c-4.3-1.4-4.3-0.6-9.9-1c-5.6-0.3-20.9,4.8-27,5.2c-6.1,0.4-12.7-0.4-12.7-0.4
					S179.1,98.8,180.3,95.4z"/>
				<path class="st6" d="M252.5,74.5c0,0-10.9,2.1-17.4,5.5c-6.5,3.4-8.9,4.4-9,6.4c-0.1,2-0.8,13,5.1,25.4c0,0,5.4,9.4,6.8,9.7
					c1.4,0.4,18.4,0.7,20.6,0c2.2-0.7,5-1.5,3.4-2.2c-1.6-0.7-15.6-3.4-20.1-3.9c0,0-1.2-0.2-2.1-2.6c-0.9-2.3-1.1-7.3-0.8-10.9
					s0-7.5,0-7.5s13.9-2.7,18.9-4.9C262.9,87.4,268.3,75.4,252.5,74.5z"/>
			</g>
		</g>
		<g>
			<path class="st14" d="M288.4,87.5c0,0-10.3,3.4-16.9,4.8c-1.6,0.3-2.3-13-0.5-15.4c2.1-2.9,8.4-6.6,11.1-6.6
				c1.3,0,7.6,0,11.5,2.9c4.2,3.2,4.9,7.4,5.8,10C299.7,84.3,291.2,87.8,288.4,87.5z"/>
			<path class="st10" d="M290.8,74.7c0.3,0,0.6,0,0.9,0c1.9,0.2,3.8,1.9,4.8,3.3c0.9,1.4,1.5,3,1.8,4.6c0.1,0.6,0,1.3,0.3,1.8
				c0.3,0.5,1.2,0.9,1.6,1.2c1.1,0.7,2.4,1.2,3.8,1.1c2.2-0.2,4-2,5-4c0.6-1.3,1-2.9,0.2-4.2c-0.4-0.6-1.2-1-1.5-1.6
				c-0.3-0.6-0.3-1.5-0.5-2.2c-0.4-1.4-1.1-2.7-2.1-3.8c-0.4-0.5-0.8-0.9-1.1-1.5c-0.6-1.2-0.5-2.6-0.9-3.9
				c-0.7-2.7-2.9-3.7-5.3-4.3c-2.1-0.5-3.2-3-5.4-3.4c-2.3-0.4-4.4,1.6-6.7,1.3c-1-0.1-1.9-0.7-2.9-1c-1.8-0.5-3.7,0.3-5,1.5
				c-1.3,1.2-1.9,3.2-3.5,4.1c-0.9,0.5-2.4,0.5-2.8-0.5c-0.1-0.2-0.1-0.4-0.2-0.6c-0.3-0.5-1-0.8-1.6-0.6c-0.6,0.2-1.1,0.6-1.5,1.1
				c-0.7,0.8-1.1,1.9-1.2,2.9c0,1.1,0.3,2.2,1.1,2.9c1,1,2.6,1.5,3.9,1.7c1.3,0.2,2.5,0.8,3.8,1.1c1.1,0.3,2.3-0.3,3.4-0.4
				c1.1-0.1,2.4,0.3,2.5,1.4c0,0.6-0.4,1.2-0.3,1.8c0.1,0.7,0.8,1.1,1.4,1.2c0.7,0.1,1.3-0.1,2-0.3
				C286.8,75.1,288.9,74.7,290.8,74.7z"/>
			<path class="st14" d="M281.7,73.6c0,0,4.7-4,0.3-6.8c-1.9-1.2-7,1.9-7.7,3.9c-0.6,2,0.3,4.5,0.3,4.5L281.7,73.6z"/>
			<path class="st14" d="M279.3,90.2c0,0,0.7,3.5,1.8,2.7c1.7-1.2,7.7-5.6,7.7-5.6L279.3,90.2z"/>
			<path class="st10" d="M292.9,87.9l1.6-0.5c0,0-0.3-5-3.8-6.3l-0.2,0.1C290.6,81.2,292.6,82.2,292.9,87.9z"/>
			<path class="st9" d="M277.9,90.7c0,0-1-3.1-1-5.3l1.4,5.2L277.9,90.7z"/>
		</g>
		<path class="st9" d="M259.6,76.2c0,0,4.8,5.6,1.2,10.9h2.8c0,0,7.2-12.1,4.8-14.6c-2.4-2.5-11,2-10.9,2.2
			C257.6,75,259.6,76.2,259.6,76.2z"/>
		<path class="st13" d="M59.7,47.6L53.2,42l-4.9,1.5l-6.7,26c-0.6,8.4,2.4,5.4,5.6,2.2c2-8.7,3.9-12.2,9.9-14.2L59.7,47.6L59.7,47.6
			z"/>
		<path class="st13" d="M110.4,43.7l0.3-8.6l-4.2-2.9L81.7,43.3c-7,4.8-2.8,5.3,1.9,5.8c8.1-3.9,12-4.7,17.4-1.2L110.4,43.7
			L110.4,43.7z"/>
	</g>
</g>
<g id="圖層_2" class="st53">
</g>
</svg>
