<?xml version="1.0" encoding="utf-8"?>
<!-- Generator: Adobe Illustrator 23.0.3, SVG Export Plug-In . SVG Version: 6.00 Build 0)  -->
<svg version="1.1" xmlns="http://www.w3.org/2000/svg" xmlns:xlink="http://www.w3.org/1999/xlink" x="0px" y="0px"
	 viewBox="0 0 350 137.3" style="enable-background:new 0 0 350 137.3;" xml:space="preserve">
<style type="text/css">
	.st0{fill:#5237FD;}
	.st1{fill:url(#SVGID_1_);}
	.st2{fill:url(#SVGID_2_);}
	.st3{fill:#F08265;}
	.st4{fill:#2E3F77;}
	.st5{fill:#D9A280;}
	.st6{fill:#EEB591;}
	.st7{fill:none;stroke:#221815;stroke-width:0.8843;stroke-miterlimit:10;}
	.st8{fill:#16253E;}
	.st9{fill:#FFFFFF;}
	.st10{fill:#14243D;}
	.st11{fill-rule:evenodd;clip-rule:evenodd;fill:#14243D;}
	.st12{fill-rule:evenodd;clip-rule:evenodd;fill:#EEB591;}
	.st13{fill-rule:evenodd;clip-rule:evenodd;fill:#FFFFFF;}
	.st14{fill:#F0B58C;}
	.st15{fill-rule:evenodd;clip-rule:evenodd;fill:#E7322B;}
	.st16{fill-rule:evenodd;clip-rule:evenodd;fill:#961E23;}
	.st17{fill-rule:evenodd;clip-rule:evenodd;fill:#D9A280;}
	.st18{fill:#D26560;}
	.st19{fill:#E2B89B;}
	.st20{fill-rule:evenodd;clip-rule:evenodd;fill:#334959;}
	.st21{fill:none;}
	.st22{fill:#DCAFA3;}
	.st23{fill:#E1BBAF;}
	.st24{fill:#548397;}
	.st25{fill:#CCCCCC;}
	.st26{fill:#C9A194;}
	.st27{fill:#C05C89;}
	.st28{fill:#F8BA8E;}
	.st29{fill:url(#SVGID_3_);}
	.st30{fill:url(#SVGID_4_);}
	.st31{fill:url(#SVGID_5_);}
	.st32{fill:url(#SVGID_6_);}
	.st33{fill:url(#SVGID_7_);}
	.st34{fill:url(#SVGID_8_);}
	.st35{fill:none;stroke:#FFFFFF;stroke-width:1.848;stroke-linecap:round;stroke-linejoin:round;}
	.st36{fill:none;stroke:#FFFFFF;stroke-width:1.848;stroke-linecap:round;stroke-linejoin:round;stroke-dasharray:3.8976,5.8464;}
	.st37{fill:none;stroke:#FFFFFF;stroke-width:1.848;stroke-linecap:round;stroke-linejoin:round;stroke-dasharray:3.4567,5.185;}
	.st38{fill:url(#SVGID_9_);}
	.st39{fill:#6460FF;}
	.st40{fill:url(#SVGID_10_);}
	.st41{fill:url(#SVGID_11_);}
	.st42{fill:url(#SVGID_12_);}
	.st43{fill:url(#SVGID_13_);}
	.st44{fill:url(#SVGID_14_);}
	.st45{fill:url(#SVGID_15_);}
	.st46{fill:url(#SVGID_16_);}
	.st47{fill:url(#SVGID_17_);}
	.st48{fill:url(#SVGID_18_);}
	.st49{fill:url(#SVGID_19_);}
	.st50{fill:url(#SVGID_20_);}
	.st51{fill:url(#SVGID_21_);}
	.st52{fill:url(#SVGID_22_);}
	.st53{display:none;}
	.st54{display:inline;}
	.st55{fill:#040000;}
	.st56{font-family:'Montserrat-SemiBold';}
	.st57{font-size:26.0105px;}
</style>
<g id="圖層_1">
	<g>
		<g>
			<path class="st21" d="M284.8,48.2c0.7-1.6,1.3-2.7,1.7-2.9c1.5-0.6,2.1,0.6,2.4,1.9C287.5,47.3,286.1,47.7,284.8,48.2z"/>
			<path class="st21" d="M284.8,48.2c0.7-1.6,1.3-2.7,1.7-2.9c1.5-0.6,2.1,0.6,2.4,1.9C287.5,47.3,286.1,47.7,284.8,48.2z"/>
			<path class="st22" d="M54.5,85.5c-0.5-3.7,2.9-6.7,4-7.4c0.1,0,0.1-0.1,0.2-0.1c0.8-0.2,1.7-0.4,2.6-0.5
				c8.8-1.4,20.5-4.4,29.7-6.6c9.2-2.3,16.5-0.6,22.2,0.5c0.1,0,0.1,0,0.2,0c0,0,0,0.1,0,0.1l1,16.2l0,0c-4.9-1.1-12.8-1.4-21.3-0.7
				c-8.5,0.7-19.5-0.2-26.1,1.7c-1.2,0.3-2.3,0.6-3.3,0.9C61.3,88.4,54.9,88.4,54.5,85.5z"/>
			<path class="st14" d="M54.5,85.5c-0.5-3.7,2.9-6.7,4-7.4c0.1,0,0.1-0.1,0.2-0.1c0.8-0.2,1.7-0.4,2.6-0.5
				c8.8-1.4,20.5-4.4,29.7-6.6c9.2-2.3,16.5-0.6,22.2,0.5c0.1,0,0.1,0,0.2,0c0,0,0,0.1,0,0.1l1,16.2l0,0c-4.9-1.1-12.8-1.4-21.3-0.7
				c-8.5,0.7-19.5-0.2-26.1,1.7c-1.2,0.3-2.3,0.6-3.3,0.9C61.3,88.4,54.9,88.4,54.5,85.5z"/>
			<path class="st23" d="M302.6,71.5c-0.9,1.6-1.7,2.7-2.1,3.3c-0.1,0.1-0.1,0.2-0.2,0.3c0.1-0.1,0.1-0.2,0.2-0.3
				C300.9,74.2,301.7,73.1,302.6,71.5z"/>
			<path class="st23" d="M302.6,71.5c-0.9,1.6-1.7,2.7-2.1,3.3c-0.1,0.1-0.1,0.2-0.2,0.3c0.1-0.1,0.1-0.2,0.2-0.3
				C300.9,74.2,301.7,73.1,302.6,71.5z"/>
			<path class="st14" d="M274.1,67c0-0.5,0-1,0-1.1c0-0.2,0-0.3-0.1-0.5c-0.3-0.9-0.3-1.1-0.3-1c0-0.2-0.1-0.3-0.1-0.4
				c0,0,0-0.1-0.1-0.1c-1.5-2.5-1.8-5-1.4-7.3c-1.4,0.5-2.9,0.7-4.4,0.4l-5.3-1.1l-0.9-0.2c0.4,0.5,0.8,1,1.2,1.6
				c2.7,4.6-1.7,10.7-1.7,10.7s0.1-1,0.3-2.2l-0.5,0.8v4.4c2.8,0.6,5.5,1.1,6.6,1.3C268.9,69.8,271.3,67.9,274.1,67z"/>
			<path class="st23" d="M273.3,56c-0.2,0.1-0.3,0.2-0.5,0.3C273,56.2,273.2,56.1,273.3,56z"/>
			<path class="st23" d="M273.3,56c-0.2,0.1-0.3,0.2-0.5,0.3C273,56.2,273.2,56.1,273.3,56z"/>
			<path class="st23" d="M274.1,55.5c-0.2,0.1-0.3,0.2-0.5,0.3C273.8,55.7,273.9,55.6,274.1,55.5z"/>
			<path class="st23" d="M274.1,55.5c-0.2,0.1-0.3,0.2-0.5,0.3C273.8,55.7,273.9,55.6,274.1,55.5z"/>
			<path class="st23" d="M275,54.8c-0.2,0.2-0.4,0.4-0.7,0.6C274.6,55.2,274.8,55,275,54.8z"/>
			<path class="st23" d="M275,54.8c-0.2,0.2-0.4,0.4-0.7,0.6C274.6,55.2,274.8,55,275,54.8z"/>
			<path class="st22" d="M198.2,73.6c1-5.2-1.5-13.9-2.4-16.5c1.8,0.4,3.5,0.8,5,1c7.2,1,22.9-3.2,22.9-3.2l0,0
				c-0.7,4-1.9,21.6-1.8,28.3c0,0.1,0,0.3,0.1,0.4c-2.2,0.2-4.4,0.5-6.5,0.6c-8.5,0.7-18,0.2-20.3,0c0.1-0.1,0.2-0.2,0.2-0.4
				C196.1,81.9,197.3,78,198.2,73.6z"/>
			<path class="st22" d="M198.2,73.6c1-5.2-1.5-13.9-2.4-16.5c1.8,0.4,3.5,0.8,5,1c7.2,1,22.9-3.2,22.9-3.2l0,0
				c-0.7,4-1.9,21.6-1.8,28.3c0,0.1,0,0.3,0.1,0.4c-2.2,0.2-4.4,0.5-6.5,0.6c-8.5,0.7-18,0.2-20.3,0c0.1-0.1,0.2-0.2,0.2-0.4
				C196.1,81.9,197.3,78,198.2,73.6z"/>
			<path class="st9" d="M193.4,53.3c0.1-0.5,30.5,0.9,30.6,0.8c0.6-0.4,8-2,11.8-2.6c3.7-0.6,11.7-0.9,14.4-1
				c2.9-0.1,8.7,1.9,11.5,5c0.4,0.5,0.8,1,1.2,1.6c2.7,4.6-1.7,10.7-1.7,10.7s0.1-1,0.3-2.2c0.2-1.8,0.5-4.2,0.5-5.5
				c0-0.7-0.4-1.7-1-2.7c0-0.4,0-0.9,0-1.3h-1c-1.3-1.6-3.1-3-4.5-3.1c-4.3-0.4-18.5,0.4-19.8,1.2c-2.8,1.8-4,5.3-1.3,13
				c1.5,4.3,6.9,7.4,11.4,9.3c0,2.2,0,4.8,0,7.5c-3.1,2.1-6.8,4-9.6,4c-6.3,0-41.4-3.4-41.4-3.4S192.7,57.3,193.4,53.3z"/>
			<path class="st24" d="M113.4,71.4c0-0.3,0.3-0.6,0.6-0.7c3.3-0.3,17.6-2,27.1-5.1c10.8-3.5,13.7-3,23.3-9.8
				c9.6-6.8,17.1-4.1,23.5-1.9c2.9,1,5.7,1.9,7,2.2c0.4,0.1,0.8,0.5,0.9,0.9c0,0,0,0,0,0c0.8,2.6,3.4,11.2,2.4,16.5
				c-0.8,4.4-2.1,8.4-2.7,10.3c0,0.1-0.1,0.3-0.2,0.4c-0.3,0.5-0.9,0.7-1.5,0.6c-3.5-0.8-13.4-2.8-17.1-2c-4.6,1-12.8,6-27.4,5.9
				c-13-0.1-30.6-0.2-34.2-0.2c-0.4,0-0.7-0.3-0.7-0.7l0-0.1l-1-16.2C113.3,71.4,113.3,71.4,113.4,71.4z"/>
			<path class="st10" d="M113.4,71.4c0-0.3,0.3-0.6,0.6-0.7c3.3-0.3,17.6-2,27.1-5.1c10.8-3.5,10.9-5.1,20.5-11.9
				c9.6-6.8,20.5-3.5,26.9-1.3c2.9,1,4.7,0.4,5.9,0.8c0.4,0.1,1.2,3.5,1.3,3.9c0,0,0,0,0,0c0.8,2.6,3.4,11.2,2.4,16.5
				c-0.8,4.4-2.1,8.4-2.7,10.3c0,0.1-0.1,0.3-0.2,0.4c-0.3,0.5-0.9,0.7-1.5,0.6c-3.5-0.8-13.4-2.8-17.1-2c-4.6,1-12.8,6-27.4,5.9
				c-13-0.1-30.6-0.2-34.2-0.2c-0.4,0-0.7-0.3-0.7-0.7l0-0.1l-1-16.2C113.3,71.4,113.3,71.4,113.4,71.4z"/>
			<path class="st25" d="M43.1,78.3c2.5-0.5,13.6-2.3,14.9-2.1c1.2,0.2,1.6,1,0.8,1.7c-0.1,0-0.1,0.1-0.2,0.1
				c-1.1,0.7-4.6,3.6-4,7.4c0.4,2.9,6.8,2.9,9.1,4.1c0.3,0.2,0.6,0.4,0.7,0.6c1,1.8-2.3,5-3.2,6c-0.9,1.1-2.4,4.6-2.5,8.1
				c-0.1,3.5,3.7,7.7,3.4,9c-0.3,1.3-2.1,3.5-5.9,2.7c-3.8-0.8-9.4-6.4-11.2-10.4c-1.8-4.1,0.5-9-1-10.4c-1.6-1.4-3.3-8.3-3.5-11.5
				C40.3,80.5,40.6,78.8,43.1,78.3z"/>
			<path class="st9" d="M43.1,78.3c2.5-0.5,13.6-2.3,14.9-2.1c1.2,0.2,1.6,1,0.8,1.7c-0.1,0-0.1,0.1-0.2,0.1c-1.1,0.7-4.6,3.6-4,7.4
				c0.4,2.9,6.8,2.9,9.1,4.1c0.3,0.2,0.6,0.4,0.7,0.6c1,1.8-2.3,5-3.2,6c-0.9,1.1-2.4,4.6-2.5,8.1c-0.1,3.5,3.7,7.7,3.4,9
				c-0.3,1.3-2.1,3.5-5.9,2.7c-3.8-0.8-9.4-6.4-11.2-10.4c-1.8-4.1,0.5-9-1-10.4c-1.6-1.4-3.3-8.3-3.5-11.5
				C40.3,80.5,40.6,78.8,43.1,78.3z"/>
			<path class="st22" d="M245.7,76.7c-4.5-1.9-9.9-5-11.4-9.3c-2.7-7.7-1.5-11.2,1.3-13c1.3-0.9,15.6-1.7,19.8-1.2
				c1.4,0.1,3.2,1.5,4.5,3.1h1c0,0.4,0,0.9,0,1.3c0.6,1,1,1.9,1,2.7c0,1.3-0.3,3.7-0.5,5.5l-0.5,0.8c0,1.7,0,3.2,0,4.4
				c0,0.2,0,0.5,0,0.7c0,3.3-2.7,8.7-2.7,12s0,8.6,0,10.8c0,2.2-0.1,9,0,9.9c0.1,0.8,2,1.4,6.9,1.5c4.9,0.1,12.3-0.2,13.2-0.6
				c0.9-0.4,2.9-5.4,3.6-6.5c0.6-1.1,1.6-1.1,3.3-1.4s3.1,1.2,3.3,1.5c0.2,0.3,2.8,0.7,3.2,0.8c0.3,0.1,1.2,1.6,1,2.1
				c-0.2,0.5,0.5,1.8,0.6,2.2c0,0.4-0.4,1.8-0.4,2.3c0,0.5-0.1,2.6-0.5,2.8c-0.4,0.2-0.8,1.4-0.8,2.3s-3.1,1.7-4.4,1.9
				c-1.3,0.1-5.1-0.9-6.9-0.5c-1.7,0.4-20.7,3.3-24.8,3.4c-4.1,0.1-6.4-0.4-7.2-3.7c-0.8-3.4-2.6-14.3-2.6-22c0-1.9,0-4.1,0-6.2
				C245.7,81.5,245.7,78.9,245.7,76.7z"/>
			<path class="st14" d="M245.7,76.7c-4.5-1.9-9.9-5-11.4-9.3c-2.7-7.7-1.5-11.2,1.3-13c1.3-0.9,15.6-1.7,19.8-1.2
				c1.4,0.1,3.2,1.5,4.5,3.1h1c0,0.4,0,0.9,0,1.3c0.6,1,1,1.9,1,2.7c0,1.3-0.3,3.7-0.5,5.5l-0.5,0.8c0,1.7,0,3.2,0,4.4
				c0,0.2,0,0.5,0,0.7c0,3.3-2.7,8.7-2.7,12s0,8.6,0,10.8c0,2.2-0.1,9,0,9.9c0.1,0.8,2,1.4,6.9,1.5c4.9,0.1,12.3-0.2,13.2-0.6
				c0.9-0.4,2.9-5.4,3.6-6.5c0.6-1.1,1.6-1.1,3.3-1.4s3.1,1.2,3.3,1.5c0.2,0.3,2.8,0.7,3.2,0.8c0.3,0.1,1.2,1.6,1,2.1
				c-0.2,0.5,0.5,1.8,0.6,2.2c0,0.4-0.4,1.8-0.4,2.3c0,0.5-0.1,2.6-0.5,2.8c-0.4,0.2-0.8,1.4-0.8,2.3s-3.1,1.7-4.4,1.9
				c-1.3,0.1-5.1-0.9-6.9-0.5c-1.7,0.4-20.7,3.3-24.8,3.4c-4.1,0.1-6.4-0.4-7.2-3.7c-0.8-3.4-2.6-14.3-2.6-22c0-1.9,0-4.1,0-6.2
				C245.7,81.5,245.7,78.9,245.7,76.7z"/>
			<g>
				<path class="st14" d="M284.1,74.9c0,0-10.3,3.4-16.9,4.8c-1.6,0.3-2.3-13-0.5-15.4c2.1-2.9,8.4-6.6,11.1-6.6
					c1.3,0,7.6,0,11.5,2.9c4.2,3.2,4.9,7.4,5.8,10C295.4,71.6,287,75.1,284.1,74.9z"/>
				<path class="st10" d="M286.6,62c0.3,0,0.6,0,0.9,0c1.9,0.2,3.8,1.9,4.8,3.3c0.9,1.4,1.5,3,1.8,4.6c0.1,0.6,0,1.3,0.3,1.8
					c0.3,0.5,1.2,0.9,1.6,1.2c1.1,0.7,2.4,1.2,3.8,1.1c2.2-0.2,4-2,5-4c0.6-1.3,1-2.9,0.2-4.2c-0.4-0.6-1.2-1-1.5-1.6
					c-0.3-0.6-0.3-1.5-0.5-2.2c-0.4-1.4-1.1-2.7-2.1-3.8c-0.4-0.5-0.8-0.9-1.1-1.5c-0.6-1.2-0.5-2.6-0.9-3.9
					c-0.7-2.7-2.9-3.7-5.3-4.3c-2.1-0.5-3.2-3-5.4-3.4c-2.3-0.4-4.4,1.6-6.7,1.3c-1-0.1-1.9-0.7-2.9-1c-1.8-0.5-3.7,0.3-5,1.5
					c-1.3,1.2-1.9,3.2-3.5,4.1c-0.9,0.5-2.4,0.5-2.8-0.5c-0.1-0.2-0.1-0.4-0.2-0.6c-0.3-0.5-1-0.8-1.6-0.6c-0.6,0.2-1.1,0.6-1.5,1.1
					c-0.7,0.8-1.1,1.9-1.2,2.9c0,1.1,0.3,2.2,1.1,2.9c1,1,2.6,1.5,3.9,1.7c1.3,0.2,2.5,0.8,3.8,1.1c1.1,0.3,2.3-0.3,3.4-0.4
					c1.1-0.1,2.4,0.3,2.5,1.4c0,0.6-0.4,1.2-0.3,1.8c0.1,0.7,0.8,1.1,1.4,1.2c0.7,0.1,1.3-0.1,2-0.3C282.5,62.5,284.7,62,286.6,62z"
					/>
				<path class="st14" d="M277.4,60.9c0,0,4.7-4,0.3-6.8c-1.9-1.2-7,1.9-7.7,3.9c-0.6,2,0.3,4.5,0.3,4.5L277.4,60.9z"/>
				<path class="st14" d="M275,77.5c0,0,0.7,3.5,1.8,2.7c1.7-1.2,7.7-5.6,7.7-5.6L275,77.5z"/>
				<path class="st10" d="M288.6,75.2l1.6-0.5c0,0-0.3-5-3.8-6.3l-0.2,0.1C286.3,68.5,288.3,69.5,288.6,75.2z"/>
				<path class="st9" d="M273.6,78c0,0-1-3.1-1-5.3l1.4,5.2L273.6,78z"/>
			</g>
		</g>
	</g>
</g>
<g id="圖層_2" class="st53">
	<g class="st54">
		<text transform="matrix(1 0 0 1 5.8671 -6.1764)" class="st55 st56 st57">16 min CHT</text>
	</g>
</g>
</svg>
