<?xml version="1.0" encoding="utf-8"?>
<!-- Generator: Adobe Illustrator 23.0.3, SVG Export Plug-In . SVG Version: 6.00 Build 0)  -->
<svg version="1.1" xmlns="http://www.w3.org/2000/svg" xmlns:xlink="http://www.w3.org/1999/xlink" x="0px" y="0px"
	 viewBox="0 0 350 137.3" style="enable-background:new 0 0 350 137.3;" xml:space="preserve">
<style type="text/css">
	.st0{fill:#5237FD;}
	.st1{fill:url(#SVGID_1_);}
	.st2{fill:url(#SVGID_2_);}
	.st3{fill:#F08265;}
	.st4{fill:#2E3F77;}
	.st5{fill:#D9A280;}
	.st6{fill:#EEB591;}
	.st7{fill:none;stroke:#221815;stroke-width:0.8843;stroke-miterlimit:10;}
	.st8{fill:#16253E;}
	.st9{fill:#FFFFFF;}
	.st10{fill:#14243D;}
	.st11{fill-rule:evenodd;clip-rule:evenodd;fill:#14243D;}
	.st12{fill-rule:evenodd;clip-rule:evenodd;fill:#EEB591;}
	.st13{fill-rule:evenodd;clip-rule:evenodd;fill:#FFFFFF;}
	.st14{fill:#F0B58C;}
	.st15{fill-rule:evenodd;clip-rule:evenodd;fill:#E7322B;}
	.st16{fill-rule:evenodd;clip-rule:evenodd;fill:#961E23;}
	.st17{fill-rule:evenodd;clip-rule:evenodd;fill:#D9A280;}
	.st18{fill:#D26560;}
	.st19{fill:#E2B89B;}
	.st20{fill-rule:evenodd;clip-rule:evenodd;fill:#334959;}
	.st21{fill:none;}
	.st22{fill:#DCAFA3;}
	.st23{fill:#E1BBAF;}
	.st24{fill:#548397;}
	.st25{fill:#CCCCCC;}
	.st26{fill:#C9A194;}
	.st27{fill:#C05C89;}
	.st28{fill:#F8BA8E;}
	.st29{fill:url(#SVGID_3_);}
	.st30{fill:url(#SVGID_4_);}
	.st31{fill:url(#SVGID_5_);}
	.st32{fill:url(#SVGID_6_);}
	.st33{fill:url(#SVGID_7_);}
	.st34{fill:url(#SVGID_8_);}
	.st35{fill:none;stroke:#FFFFFF;stroke-width:1.848;stroke-linecap:round;stroke-linejoin:round;}
	.st36{fill:none;stroke:#FFFFFF;stroke-width:1.848;stroke-linecap:round;stroke-linejoin:round;stroke-dasharray:3.8976,5.8464;}
	.st37{fill:none;stroke:#FFFFFF;stroke-width:1.848;stroke-linecap:round;stroke-linejoin:round;stroke-dasharray:3.4567,5.185;}
	.st38{fill:url(#SVGID_9_);}
	.st39{fill:#6460FF;}
	.st40{fill:url(#SVGID_10_);}
	.st41{fill:url(#SVGID_11_);}
	.st42{fill:url(#SVGID_12_);}
	.st43{fill:url(#SVGID_13_);}
	.st44{fill:url(#SVGID_14_);}
	.st45{fill:url(#SVGID_15_);}
	.st46{fill:url(#SVGID_16_);}
	.st47{fill:url(#SVGID_17_);}
	.st48{fill:url(#SVGID_18_);}
	.st49{fill:url(#SVGID_19_);}
	.st50{fill:url(#SVGID_20_);}
	.st51{fill:url(#SVGID_21_);}
	.st52{fill:url(#SVGID_22_);}
	.st53{display:none;}
	.st54{display:inline;}
</style>
<g id="圖層_1">
	<path class="st4" d="M150.4,17.2c0-3.3-1.2-5.9-2.7-6.5l0-0.1l-0.3,0c-0.2,0-0.3-0.1-0.5,0l-1.1-0.1c-0.2,0-0.3-0.1-0.5,0
		c-1.9,0.1-3.3,3.3-3.3,7.1c0.1,3.8,1.6,6.8,3.5,6.7l1.1,0.1c0.2,0,0.3,0.1,0.5,0C149,24.2,150.5,21,150.4,17.2z"/>
	<path class="st4" d="M151,16.3c0-3.3-1.2-5.9-2.7-6.5l0-0.1l-0.3,0c-0.2,0-0.3-0.1-0.5,0l-1.1-0.1c-0.2,0-0.3-0.1-0.5,0
		c-1.9,0.1-3.3,3.3-3.3,7.1c0.1,3.8,1.6,6.8,3.5,6.7l1.1,0.1c0.2,0,0.3,0.1,0.5,0C149.6,23.3,151.1,20.1,151,16.3z"/>
	<polygon class="st10" points="129.4,87.1 129.4,92.7 196.6,92.7 195.5,87.1 	"/>
	<rect x="204.4" y="85.5" class="st10" width="20.1" height="12.1"/>
	<polygon class="st4" points="129.4,80 125.7,83 125.7,87.1 128.7,89.4 195.5,89.4 199.2,77.9 	"/>
	<rect x="199.9" y="81.6" class="st4" width="29.3" height="6.6"/>
	<path class="st9" d="M233.2,96.9c0,0-2.2,3.9-2.2,5.2c0,1.3,0,5.9,0,5.9s6,1.1,7.6,0c1.6-1.1,7-0.4,7-0.4s6.8-0.1,7.5-3
		c0.7-2.9-1.8-2.8-1.8-2.8l-4.3-0.1l-4.8-3.5l-1.8,6.4l-4.3-1.9L233.2,96.9z"/>
	<path class="st4" d="M198,65.7l9.3-1.8l5.1-1.7c0,0,20-2.2,22.4-1.8s3.5,3.6,3.4,5.3s0.3,10.3,0,10.8c-0.3,0.5,2.1,24.5,2.1,24.5
		l-8.9-11.3c0,0-2.2-10-2.8-11S198,65.7,198,65.7z"/>
	<path class="st10" d="M190.6,65.7h5.9h5.7c0,0,4.6-1.3,8.2,0l9.6,2.5c0,0,11.7,1.7,13.8,2.4c2.1,0.7,3.5,0.1,6,1.6
		c2.5,1.4,3,5.1,2.9,6.2c-0.1,1.1,0,8.8,0,8.8s0.7,6.9,0.7,9.2c0,2.2-0.9,10.2,0,12.8s2.2,7.1,2.2,7.1l-4.6,4.2l-3.8-0.5
		c0,0-0.4-8-0.7-9.5c-0.3-1.4-2-7.2-2.2-8.2s-2.8-5.5-3-8.8c-0.3-3.3,1.4-10.6,1.4-10.6l-6.8-0.7c0,0-10.9,1.8-14.7,2.6
		s-11.5,1.2-14.6,0.7c-3.1-0.5-4.7-2.5-4.9-3.1C191.6,81.9,190.6,65.7,190.6,65.7z"/>
	<path class="st6" d="M146.9,67.2c0,0,1.3-6.5,3.1-8.3c0,0-0.2-7,0.5-8.8c0.6-1.8,1.3-3.5,1-4c-0.2-0.5-0.6-3.9-0.6-5.4
		c0.1-1.5,1.8-9.9,1.9-10.3c0.1-0.4,0.6-7.2,0.6-7.2s-1.2-1.3-2.2-1.6c-1-0.3-1.8-0.3-1.8-0.8s-0.1-3.6-0.1-3.6s1.3-1.6,1.3-2.1
		c0-0.5,0.6-1.3,0.6-1.3s1.3-0.3,1.7,0c0.4,0.3,0.9,0.3,1.4,0.4c0.6,0.1,1.7-0.5,2,0.5c0,0,0.7-0.3,1,0.1s1.1,1.9,1.1,1.9v6.3
		l0.6,8.7c0,0-0.2,9.6-0.4,11c-0.2,1.4-0.4,3.9-0.4,3.9l-0.4,1.3l0.1,3.9c0,0,1.1,3.1,1.1,5.5c0,2.3,0,3.8,0,3.8l-6.1,8.4l-4.1,0.8
		L146.9,67.2z"/>
	<path class="st9" d="M196.6,85.5c-7.2-7.7-3.6-20-3.6-20c-1.6-1.5-9.6-2.6-9.6-2.6c-5.9-3.8-19.1-2.1-19.1-2.1
		c-4.6-1.4-10,1.9-11.3,2.5c-1.3,0.5-2.4,3.6-2.4,3.6c-1.7,0.5-11.1,9.4-11.1,9.4l7.6,10.6c0,0,5.9,1.1,14.3-1
		c8.4-2.1,15.3-3.3,18.8-2.8C183.6,83.5,196.6,85.5,196.6,85.5z"/>
	<path class="st9" d="M237,115.9l-1.3,2.4l-0.5,6l-0.9,1.1c0,0,0.7,1.9,1.4,2.2c0.7,0.3,4.7,1.4,7.1,1.2c2.4-0.2,6,2.1,6,2.1
		s4.6,1.7,7,1.1s5.8-2,5.8-2s-0.1-2.2,0-2.6c0.1-0.4-6.2-4.3-8.2-5.3c-2-0.9-6.6-6.4-6.6-6.4l-1.5-1.2c0,0-3,2.7-3.6,3.5
		c-0.7,0.8-2.5,1.1-2.5,1.1S237,117.1,237,115.9z"/>
	
		<rect x="127.9" y="96.7" transform="matrix(0.8741 -0.4857 0.4857 0.8741 -29.756 84.3819)" class="st4" width="40.1" height="5.8"/>
	
		<rect x="127.5" y="100.2" transform="matrix(0.9853 -0.1708 0.1708 0.9853 -15.0141 31.5821)" class="st4" width="97.2" height="5.8"/>
	<polygon class="st4" points="231.7,119.1 225.2,119.1 215.9,96.9 222.4,96.9 	"/>
	<polygon class="st4" points="115.6,120.4 125.8,120.4 133.7,102.7 129.4,102.7 	"/>
	<path class="st10" d="M127.4,73.7c0,0-0.7-1.9,0.4-3.6c0,0,0.5-3.9,2.1-3.5s0.6,3.8,0.6,3.8l-0.9,3.6L127.4,73.7z"/>
	<path class="st6" d="M130.7,68.2c0,0,3.1-1.7,4.7-2h1.4l2.4-2.2c0,0,1.2,0.3,1.1,1.3l1.5,0.2l0.9,1.1l1.4-0.9h1.3
		c0,0,1.5-1,2.1,0.4c0.6,1.4,0.7,2.6,0.5,3.2c-0.2,0.6-5.7,5.1-5.7,5.1l-8,1.8l-4.6-1.7c0,0-0.6-3.5,0.3-4.4
		C130.8,69.2,130.7,68.2,130.7,68.2z"/>
	<path class="st10" d="M135.7,66.9c0,0-0.8-0.3-1.2,0.8c-0.5,1.1-0.5,2.5-0.5,2.5h0.3c0,0,0.4-2,0.6-2.3
		C135.2,67.5,135.7,67.3,135.7,66.9z"/>
	<path class="st4" d="M89.4,72.6c-3.8,1.4-6.3,3.7-5.5,5.2l0.6,1.1c0.7,1.5,4.4,1.6,8.2,0.2c3.8-1.4,6.3-3.7,5.5-5.2l-0.6-1.1
		C96.8,71.2,93.2,71.2,89.4,72.6z"/>
	<path class="st4" d="M95.6,86.6c-3.8,1.4-6.3,3.7-5.5,5.2l0.6,1.1c0.7,1.5,4.4,1.6,8.2,0.2c3.8-1.4,6.3-3.7,5.5-5.2l-0.6-1.1
		C103,85.3,99.4,85.2,95.6,86.6z"/>
	<path class="st4" d="M165.7,17.2c0-3.3-1.2-5.9-2.7-6.5l0-0.1l-0.3,0c-0.2,0-0.3-0.1-0.5,0l-1.1-0.1c-0.2,0-0.3-0.1-0.5,0
		c-1.9,0.1-3.3,3.3-3.3,7.1c0.1,3.8,1.6,6.8,3.5,6.7l1.1,0.1c0.2,0,0.3,0.1,0.5,0C164.2,24.2,165.7,21,165.7,17.2z"/>
	<path class="st4" d="M149.8,15.6c0-3.3-1.2-5.9-2.7-6.5l0-0.1l-0.3,0c-0.2,0-0.3-0.1-0.5,0l-1.1-0.1c-0.2,0-0.3-0.1-0.5,0
		c-1.9,0.1-3.3,3.3-3.3,7.1c0.1,3.8,1.6,6.8,3.5,6.7l1.1,0.1c0.2,0,0.3,0.1,0.5,0C148.3,22.6,149.8,19.5,149.8,15.6z"/>
	
		<rect x="91.7" y="74.9" transform="matrix(0.9164 -0.4002 0.4002 0.9164 -25.767 44.6021)" class="st4" width="4.4" height="18.2"/>
	
		<rect x="153.9" y="13.5" transform="matrix(5.822574e-02 -0.9983 0.9983 5.822574e-02 128.905 172.6214)" class="st4" width="4" height="9"/>
	<path class="st6" d="M92.8,79.9c0,0,15.5-7.2,17.8-7.6c2.3-0.4,5.4,0,5.4,0s2.5-1.2,4.7-0.2c0,0,4.8-0.7,6.1,0.4
		c0,0,7.8,0.5,10.4,1.9c0,0,8.2-0.7,10.7,1.3c2.5,2,4.2,5.9,3.3,7.8c-1,1.9-1.9,2.8-4.2,3.1s-8.6-0.1-12.1-2
		c-3.5-1.9-4.9-2.8-4.9-2.8s-7-1-8.4-2l-3.1,0.1c0,0-2.4,0.8-4.2,1c-1.7,0.1-8.5,0.1-8.5,0.1s-3.7,1.3-6.3,1.2c0,0-0.6,0.6-0.6,1.8
		s-3.4,2.5-3.4,2.5l-2,1.6l-1.2-1.3l-1.3-0.1v-1.4c0,0-0.7-1-0.6-1.6c0,0-1.2-1.4-0.3-1.9C91.1,81.2,92.8,79.9,92.8,79.9z"/>
	<path class="st6" d="M153.7,13.9l3.5,0.7l0.6,0.7c0,0,0,1.4-0.5,2.2c-0.5,0.7-1.2,0.7-1.2,0.7c-0.6,1.7-1.8,0.4-1.8,0.4
		c-0.9,0.2-1.4,0-1.4,0c-0.6,0.1-1.5-1.2-1.5-1.2v-1.5l-0.3-2.1L153.7,13.9z"/>
</g>
<g id="圖層_2" class="st53">
</g>
</svg>
