<?xml version="1.0" encoding="utf-8"?>
<!-- Generator: Adobe Illustrator 23.0.3, SVG Export Plug-In . SVG Version: 6.00 Build 0)  -->
<svg version="1.1" xmlns="http://www.w3.org/2000/svg" xmlns:xlink="http://www.w3.org/1999/xlink" x="0px" y="0px"
	 viewBox="0 0 350 137.3" style="enable-background:new 0 0 350 137.3;" xml:space="preserve">
<style type="text/css">
	.st0{fill:#5237FD;}
	.st1{fill:url(#SVGID_1_);}
	.st2{fill:url(#SVGID_2_);}
	.st3{fill:#F08265;}
	.st4{fill:#2E3F77;}
	.st5{fill:#D9A280;}
	.st6{fill:#EEB591;}
	.st7{fill:none;stroke:#221815;stroke-width:0.8843;stroke-miterlimit:10;}
	.st8{fill:#16253E;}
	.st9{fill:#FFFFFF;}
	.st10{fill:#14243D;}
	.st11{fill-rule:evenodd;clip-rule:evenodd;fill:#14243D;}
	.st12{fill-rule:evenodd;clip-rule:evenodd;fill:#EEB591;}
	.st13{fill-rule:evenodd;clip-rule:evenodd;fill:#FFFFFF;}
	.st14{fill:#F0B58C;}
	.st15{fill-rule:evenodd;clip-rule:evenodd;fill:#E7322B;}
	.st16{fill-rule:evenodd;clip-rule:evenodd;fill:#961E23;}
	.st17{fill-rule:evenodd;clip-rule:evenodd;fill:#D9A280;}
	.st18{fill:#D26560;}
	.st19{fill:#E2B89B;}
	.st20{fill-rule:evenodd;clip-rule:evenodd;fill:#334959;}
	.st21{fill:none;}
	.st22{fill:#DCAFA3;}
	.st23{fill:#E1BBAF;}
	.st24{fill:#548397;}
	.st25{fill:#CCCCCC;}
	.st26{fill:#C9A194;}
	.st27{fill:#C05C89;}
	.st28{fill:#F8BA8E;}
	.st29{fill:url(#SVGID_3_);}
	.st30{fill:url(#SVGID_4_);}
	.st31{fill:url(#SVGID_5_);}
	.st32{fill:url(#SVGID_6_);}
	.st33{fill:url(#SVGID_7_);}
	.st34{fill:url(#SVGID_8_);}
	.st35{fill:none;stroke:#FFFFFF;stroke-width:1.848;stroke-linecap:round;stroke-linejoin:round;}
	.st36{fill:none;stroke:#FFFFFF;stroke-width:1.848;stroke-linecap:round;stroke-linejoin:round;stroke-dasharray:3.8976,5.8464;}
	.st37{fill:none;stroke:#FFFFFF;stroke-width:1.848;stroke-linecap:round;stroke-linejoin:round;stroke-dasharray:3.4567,5.185;}
	.st38{fill:url(#SVGID_9_);}
	.st39{fill:#6460FF;}
	.st40{fill:url(#SVGID_10_);}
	.st41{fill:url(#SVGID_11_);}
	.st42{fill:url(#SVGID_12_);}
	.st43{fill:url(#SVGID_13_);}
	.st44{fill:url(#SVGID_14_);}
	.st45{fill:url(#SVGID_15_);}
	.st46{fill:url(#SVGID_16_);}
	.st47{fill:url(#SVGID_17_);}
	.st48{fill:url(#SVGID_18_);}
	.st49{fill:url(#SVGID_19_);}
	.st50{fill:url(#SVGID_20_);}
	.st51{fill:url(#SVGID_21_);}
	.st52{fill:url(#SVGID_22_);}
	.st53{display:none;}
	.st54{display:inline;}
</style>
<g id="圖層_1">
	<g>
		<g>
			<path class="st11" d="M189,96.5l31.9-3.2l-1.8,2c-2.6,3-4.1,6.8-4,10.8l0.2,20h6.5l12.8-33.6c1.8-4.6-1.4-9.7-6.4-10.1l-30.6-2.4
				L189,96.5L189,96.5z"/>
			<path class="st11" d="M197.7,80.1L176,121l-56.1,3.1l-2.8-4.2l35.5-10.2c2.1-0.6,4.3-0.8,6.4-0.6l6.3,0.7l3.2-19.4
				c-5.3-9.2,3.9-16.6,11.1-21L197.7,80.1L197.7,80.1z"/>
			<path class="st13" d="M194.5,34.2l4.4,2.1l1,7.4c0.7,5.8-1.6,13.3-1.6,13.3l0.5,17.9l-1.1,5.3L184.6,76l-8.4-4.4l-0.4-7.8l-3-8.5
				L170.6,45c-0.8-4,0.8-8.1,4.2-10.4l0.2-0.1l8.9-1.4L194.5,34.2L194.5,34.2z"/>
			<polygon class="st11" points="204.6,80.7 197.7,80.1 188.6,89 189,96.5 201.8,94.9 204.6,80.7 			"/>
			<path class="st11" d="M197.7,80.1L189,96.5h0l-2.2,4.1l-15.1-8.2c1.6-5.4-7-14.7,4.4-20.7l8.4,4.4L197.7,80.1L197.7,80.1z"/>
			<polygon class="st17" points="198.6,65.3 211.8,76.5 223.7,82.2 217.2,81.7 208.2,78.3 198.8,72.1 198.6,65.3 			"/>
			<polygon class="st12" points="177.8,35.1 181.9,38.6 185.1,65.8 213.5,79 219.4,81.8 213.3,81.4 179.5,71.8 171.5,40.2 
				174.6,35.7 177.8,35.1 			"/>
			<path class="st12" d="M184,33.1l3.6-3.3l-1.4-1.5c4,0,2.1-0.3,5,0.5c2.2,0.6,4,1.6,6.2,2.1l-3-0.1l0.1,3.4l0,0l0.1,9.6l-9.9-8.1
				l-1-2.6l6.9,0.7L184,33.1z"/>
			<path class="st13" d="M215.5,126.2l-2.4,4.3l1.7,2.4h16.8c4.8-0.8,4.8-2,2.8-3.2c-5.8-0.4-10.7-1.3-12.6-3.4H215.5L215.5,126.2z"
				/>
			<path class="st13" d="M117.1,119.9l-5.4,0.3l-1.5,2.5l6.7,10.2h4.8c3.6-1.3,3.6-2.1,1.5-2.6l-3.2-0.7c-1.7-0.5-1-3.2-0.1-5.6
				L117.1,119.9L117.1,119.9z"/>
		</g>
		<g>
			<path class="st14" d="M202,24.7c0,0-0.7,6.3-1.7,10.3c-0.2,0.9-8.5-1.9-9.5-3.4c-1.2-1.8-1.7-6.1-1-7.6c0.3-0.7,2.1-4.1,4.9-5.5
				c3-1.5,5.8-0.9,7.7-0.7C203.1,17.9,202.9,23.3,202,24.7z"/>
			<path class="st10" d="M194.9,20.3c0.1-0.2,0.2-0.3,0.3-0.5c0.6-1,2.2-1.6,3.3-1.8c1.1-0.2,2.2-0.1,3.3,0.2
				c0.4,0.1,0.8,0.3,1.2,0.3c0.4,0,0.9-0.4,1.2-0.6c0.7-0.4,1.4-1,1.7-1.8c0.5-1.2-0.1-2.6-1.1-3.6c-0.6-0.7-1.5-1.2-2.5-1.1
				c-0.5,0-0.9,0.4-1.4,0.4c-0.4,0-1-0.2-1.4-0.3c-1-0.1-2,0-2.9,0.2c-0.4,0.1-0.8,0.2-1.2,0.3c-0.9,0.1-1.7-0.3-2.6-0.5
				c-1.8-0.3-3,0.6-4.1,1.8c-0.9,1-2.7,1-3.5,2.1c-0.9,1.1-0.2,2.8-1,3.9c-0.4,0.5-1,0.9-1.4,1.3c-0.8,0.9-0.8,2.1-0.4,3.1
				c0.4,1,1.4,1.8,1.5,2.8c0.1,0.6-0.4,1.4-1.1,1.4c-0.1,0-0.3,0-0.4,0c-0.4,0-0.7,0.4-0.8,0.7c-0.1,0.4,0.1,0.7,0.2,1
				c0.3,0.6,0.8,1,1.5,1.3c0.6,0.3,1.4,0.3,2.1,0.1c0.8-0.3,1.6-1,2.1-1.7c0.5-0.7,1.2-1.1,1.7-1.8c0.5-0.5,0.4-1.3,0.7-1.9
				c0.2-0.6,0.9-1.2,1.5-1c0.4,0.1,0.6,0.5,1,0.6c0.4,0.1,0.9-0.1,1.1-0.5c0.2-0.3,0.3-0.7,0.3-1.1
				C194.1,22.6,194.3,21.3,194.9,20.3z"/>
			<path class="st14" d="M191.7,25c0,0-1.1-3.5-4.1-1.8c-1.3,0.7-0.7,4.2,0.3,5.1c1,0.8,2.8,0.9,2.8,0.9L191.7,25z"/>
			<path class="st14" d="M201.2,30.3c0,0,2.3,0.5,2.1-0.3c-0.3-1.2-1.3-5.5-1.3-5.5L201.2,30.3z"/>
			<path class="st10" d="M203.4,22.4l0.1-1c0,0-3.1-1-4.8,0.5l0,0.1C198.8,22,199.9,21.2,203.4,22.4z"/>
			<path class="st9" d="M201.1,31.1c0,0-2.2-0.2-3.5-0.7l3.5,0.5L201.1,31.1z"/>
		</g>
	</g>
</g>
<g id="圖層_2" class="st53">
</g>
</svg>
