<?xml version="1.0" encoding="utf-8"?>
<!-- Generator: Adobe Illustrator 23.0.3, SVG Export Plug-In . SVG Version: 6.00 Build 0)  -->
<svg version="1.1" xmlns="http://www.w3.org/2000/svg" xmlns:xlink="http://www.w3.org/1999/xlink" x="0px" y="0px"
	 viewBox="0 0 350 137.3" style="enable-background:new 0 0 350 137.3;" xml:space="preserve">
<style type="text/css">
	.st0{fill:#5237FD;}
	.st1{fill:url(#SVGID_1_);}
	.st2{fill:url(#SVGID_2_);}
	.st3{fill:#F08265;}
	.st4{fill:#2E3F77;}
	.st5{fill:#D9A280;}
	.st6{fill:#EEB591;}
	.st7{fill:none;stroke:#221815;stroke-width:0.8843;stroke-miterlimit:10;}
	.st8{fill:#16253E;}
	.st9{fill:#FFFFFF;}
	.st10{fill:#14243D;}
	.st11{fill-rule:evenodd;clip-rule:evenodd;fill:#14243D;}
	.st12{fill-rule:evenodd;clip-rule:evenodd;fill:#EEB591;}
	.st13{fill-rule:evenodd;clip-rule:evenodd;fill:#FFFFFF;}
	.st14{fill:#F0B58C;}
	.st15{fill-rule:evenodd;clip-rule:evenodd;fill:#E7322B;}
	.st16{fill-rule:evenodd;clip-rule:evenodd;fill:#961E23;}
	.st17{fill-rule:evenodd;clip-rule:evenodd;fill:#D9A280;}
	.st18{fill:#D26560;}
	.st19{fill:#E2B89B;}
	.st20{fill-rule:evenodd;clip-rule:evenodd;fill:#334959;}
	.st21{fill:none;}
	.st22{fill:#DCAFA3;}
	.st23{fill:#E1BBAF;}
	.st24{fill:#548397;}
	.st25{fill:#CCCCCC;}
	.st26{fill:#C9A194;}
	.st27{fill:#C05C89;}
	.st28{fill:#F8BA8E;}
	.st29{fill:url(#SVGID_3_);}
	.st30{fill:url(#SVGID_4_);}
	.st31{fill:url(#SVGID_5_);}
	.st32{fill:url(#SVGID_6_);}
	.st33{fill:url(#SVGID_7_);}
	.st34{fill:url(#SVGID_8_);}
	.st35{fill:none;stroke:#FFFFFF;stroke-width:1.848;stroke-linecap:round;stroke-linejoin:round;}
	.st36{fill:none;stroke:#FFFFFF;stroke-width:1.848;stroke-linecap:round;stroke-linejoin:round;stroke-dasharray:3.8976,5.8464;}
	.st37{fill:none;stroke:#FFFFFF;stroke-width:1.848;stroke-linecap:round;stroke-linejoin:round;stroke-dasharray:3.4567,5.185;}
	.st38{fill:url(#SVGID_9_);}
	.st39{fill:#6460FF;}
	.st40{fill:url(#SVGID_10_);}
	.st41{fill:url(#SVGID_11_);}
	.st42{fill:url(#SVGID_12_);}
	.st43{fill:url(#SVGID_13_);}
	.st44{fill:url(#SVGID_14_);}
	.st45{fill:url(#SVGID_15_);}
	.st46{fill:url(#SVGID_16_);}
	.st47{fill:url(#SVGID_17_);}
	.st48{fill:url(#SVGID_18_);}
	.st49{fill:url(#SVGID_19_);}
	.st50{fill:url(#SVGID_20_);}
	.st51{fill:url(#SVGID_21_);}
	.st52{fill:url(#SVGID_22_);}
	.st53{display:none;}
	.st54{display:inline;}
</style>
<g id="圖層_1">
	<g>
		<path class="st10" d="M175.7,43.8l17.9-3.4l18.6,3.5c0,0-20.1,15-23,26.7c0,0-19.9-6.4-25.2-7.8c-5.4-1.5-29.7-3.1-29.7-3.1
			l-15.7,8.7L78.9,79.9l-13.2,1.4L64,86.1c0,0,1.5,6.6,3.4,6.9c2,0.2,9.3-1.5,9.3-1.5s31.1,0.7,36.5-0.7
			c5.4-1.5,24.9-11.8,24.9-11.8l27.3,14c0,0,16.9,17.1,25.7,16.2c8.8-1,27.7-2.7,27.7-2.7l5.9-35.1L240,46l5.5-15.1
			c0,0-1.1-8.3-4.6-8.8c-3.5-0.6-11.2,0-11.2,0l-36.2,8.5l-29.8,3.9c0,0,5.9,7.5,7.3,8C172.5,43,175.7,43.8,175.7,43.8z"/>
		<polygon class="st6" points="286.4,40.9 290,38.9 301.4,45.5 299.6,55.5 292,62.6 290.7,66.3 290.8,72.1 274.8,54.2 276,48.9 		
			"/>
		<path class="st10" d="M286.4,40.9c0,0,1-7.3,8.3-2c0,0,7.1,0.9,9.3,4.7c0,0,8.6,7.1,4.5,13.6s-9.2,9.2-9.2,9.2s-4.5,3.2-6,0
			c-1.5-3.2-1.6-5.1-1.6-5.1l3.6-3.6c0,0,0.5-3.4-1.8-2.9c0,0-3.9,1-3.6-0.1s0.9-2.2,0.9-2.2L286.4,40.9z"/>
		<path class="st9" d="M149.8,29.6l-2.7,2l1.3,5.8l8.7,7.4l7.4,3.6c0,0,12.1,7.2,14.1,6.4c2-0.9,1.2-4.4,1.2-4.4l4-8.1
			c0,0-2.5,0.9-4.8,0s-2.9-4.4-2.9-4.4l-3.3-6l-4.4-1l-7.1,2.7l-8-1.6L149.8,29.6z"/>
		<path class="st9" d="M41.9,75.8l-4,3.4c0,0-1.1,7.2,2,10.5c3.1,3.3,5,4.7,6.8,5.1c1.8,0.5,7.6,2.2,7.6,2.2s6.1,7.4,9.7,7.6
			c3.6,0.2,8.6,0.7,9.8-2v-3.2l3.1-6.3v-3l-8.7-2.4l-0.4-6.8l-4.9-2.2l-4,1.3l-6-0.4C52.8,79.9,47.2,76.9,41.9,75.8z"/>
		<path class="st9" d="M269,59.7c0,0-18.5,0.6-25.3,7.5l-18.9,4.2c0,0-9.6,26.2-5.9,35.1l17.6-2.9c0,0,29.9,0,39-6.6
			c9.1-6.6,12.5-12.5,15-17.6c2.5-5.1,2-15.3-5.5-20.7S269,59.7,269,59.7z"/>
		<path class="st6" d="M239,39l0.9,7l14.2,12.5c0,0,4,4.8,9.4,7.4c5.3,2.6,7.7,7.5,7.7,7.5s8.5,5.3,14.3-2.2s-0.6-13.6-3.7-14.9
			c-3.1-1.3-9.9-3.9-9.9-3.9l-9.2-5.9c0,0,10.5,1.1,13.2,2.4l4.8,4.5L281,55c0,0,5.8,4.2,6.9,2.5l0.8-1.7l-2.8-2.1l-2.4-3.1l4.8,0.6
			c0,0,7.2,3.8,8.2,3c1-0.7,0.5-1,0.5-1l-4-2.8l2.6-0.2c0,0,1.7,0.7,3.2,0.3c0,0-1.1-2.5-3-3.2l1.3-1.1c0,0-3.2-2.8-5.5-2.8
			l-2.8-2.5l-7.7,0.1l-2.9,0.5l-2.8-1.1l-1.8,0.2c0,0-15.7-4.5-24.5-4.2l-4.5,0C244.5,36.2,240.2,36.5,239,39z"/>
	</g>
</g>
<g id="圖層_2" class="st53">
</g>
</svg>
