<?xml version="1.0" encoding="utf-8"?>
<!-- Generator: Adobe Illustrator 23.0.3, SVG Export Plug-In . SVG Version: 6.00 Build 0)  -->
<svg version="1.1" xmlns="http://www.w3.org/2000/svg" xmlns:xlink="http://www.w3.org/1999/xlink" x="0px" y="0px"
	 viewBox="0 0 350 137.3" style="enable-background:new 0 0 350 137.3;" xml:space="preserve">
<style type="text/css">
	.st0{fill:#5237FD;}
	.st1{fill:url(#SVGID_1_);}
	.st2{fill:url(#SVGID_2_);}
	.st3{fill:#F08265;}
	.st4{fill:#2E3F77;}
	.st5{fill:#D9A280;}
	.st6{fill:#EEB591;}
	.st7{fill:none;stroke:#221815;stroke-width:0.8843;stroke-miterlimit:10;}
	.st8{fill:#16253E;}
	.st9{fill:#FFFFFF;}
	.st10{fill:#14243D;}
	.st11{fill-rule:evenodd;clip-rule:evenodd;fill:#14243D;}
	.st12{fill-rule:evenodd;clip-rule:evenodd;fill:#EEB591;}
	.st13{fill-rule:evenodd;clip-rule:evenodd;fill:#FFFFFF;}
	.st14{fill:#F0B58C;}
	.st15{fill-rule:evenodd;clip-rule:evenodd;fill:#E7322B;}
	.st16{fill-rule:evenodd;clip-rule:evenodd;fill:#961E23;}
	.st17{fill-rule:evenodd;clip-rule:evenodd;fill:#D9A280;}
	.st18{fill:#D26560;}
	.st19{fill:#E2B89B;}
	.st20{fill-rule:evenodd;clip-rule:evenodd;fill:#334959;}
	.st21{fill:none;}
	.st22{fill:#DCAFA3;}
	.st23{fill:#E1BBAF;}
	.st24{fill:#548397;}
	.st25{fill:#CCCCCC;}
	.st26{fill:#C9A194;}
	.st27{fill:#C05C89;}
	.st28{fill:#F8BA8E;}
	.st29{fill:url(#SVGID_3_);}
	.st30{fill:url(#SVGID_4_);}
	.st31{fill:url(#SVGID_5_);}
	.st32{fill:url(#SVGID_6_);}
	.st33{fill:url(#SVGID_7_);}
	.st34{fill:url(#SVGID_8_);}
	.st35{fill:none;stroke:#FFFFFF;stroke-width:1.848;stroke-linecap:round;stroke-linejoin:round;}
	.st36{fill:none;stroke:#FFFFFF;stroke-width:1.848;stroke-linecap:round;stroke-linejoin:round;stroke-dasharray:3.8976,5.8464;}
	.st37{fill:none;stroke:#FFFFFF;stroke-width:1.848;stroke-linecap:round;stroke-linejoin:round;stroke-dasharray:3.4567,5.185;}
	.st38{fill:url(#SVGID_9_);}
	.st39{fill:#6460FF;}
	.st40{fill:url(#SVGID_10_);}
	.st41{fill:url(#SVGID_11_);}
	.st42{fill:url(#SVGID_12_);}
	.st43{fill:url(#SVGID_13_);}
	.st44{fill:url(#SVGID_14_);}
	.st45{fill:url(#SVGID_15_);}
	.st46{fill:url(#SVGID_16_);}
	.st47{fill:url(#SVGID_17_);}
	.st48{fill:url(#SVGID_18_);}
	.st49{fill:url(#SVGID_19_);}
	.st50{fill:url(#SVGID_20_);}
	.st51{fill:url(#SVGID_21_);}
	.st52{fill:url(#SVGID_22_);}
	.st53{display:none;}
	.st54{display:inline;}
</style>
<g id="圖層_1">
	<path class="st10" d="M149,49.2c0,0,13.3-2.2,18.7-2s41.1,5.1,41.1,5.1l15.5-0.9c0,0,10.1-1.5,13.6-1.7c3.5-0.2,36.6,4.4,36.6,4.4
		l9-1.6l0.6,11.4c0,0-9.4-2.8-11.1-2.8s-26.9,5.6-29.8,6.1s-14.6-1.7-14.6-1.7s-10.3,2.3-11.9,2.8s-16.3,2.5-16.3,2.5L182.2,75
		l-0.4,1.6c0,0,26.2-0.9,31.6,0c5.4,0.9,13.7,0.9,13.7,0.9s10.2-3.2,11.9-3.2c4.2,0,10.6,0.6,10.6,0.6h17.7l6.4-1.2l4.1-2l6.5,4.2
		l-2.9,4.8l-8.5,1L247,89.9l-8.7,1.7l-11.9-0.6l-10.9,1.7l-3-0.7c0,0-16.9,5.6-22.6,5.8s-45.3,0-45.3,0L149,49.2z"/>
	<path class="st6" d="M80.1,48c0,0-2.3-6.4,1.2-11s6.4-4.5,8.4-4.3c2,0.1,7.2,2.2,7.2,2.2l5.9,3.4l1.1,14.8l-16.2,0.7L80.1,48z"/>
	<polygon class="st5" points="69.2,48 74.1,50 75.7,49.5 79.3,55.1 79.3,63.4 67.1,50.7 	"/>
	<path class="st9" d="M68.3,74.5l1.2-2.6L69.1,69l6.2-21l4-6c0,0,5.3,7.6,10.2,8.1c4.9,0.5,8.8-0.1,10.7-2.9s2.5-7.4,2.5-9
		l23.5,13.1l5.5-0.4l17.2-1.7c0,0,1,25.1,0,31c-1,5.9-4.3,17.7-4.3,17.7H108C108,97.9,77.8,84.2,68.3,74.5z"/>
	<path class="st6" d="M90.2,85c0,0,8.6,1.9,10.4,4.1c0,0,7.2-11.6,9.5-13.1c2.3-1.5,8.3-14.1,8.3-14.1l-0.2-1.5c0,0-1.8-1.5-1.9-2.7
		c-0.1-1.2-0.9-4.4-0.9-4.4l-2-4c0,0-1.9-3.1-0.7-3.4c1.2-0.3,2.2,0.4,2.7,1.1s1.9,3.9,1.9,3.9l2.5,1.8l2.4-0.3l-0.6-3
		c0,0,0.3-1.4,1.2-1.4c0.9-0.1,1.6,2.4,1.6,2.4l1.5,0.9c0,0,1.1-1.9,1.7-2c0.5,0,1.5,0.8,1.5,0.8v2.7l1.1-1.5c0,0,1.2-0.6,1.7,0.5
		c0,0,1.1-0.1,1.4,0.2s0.8,1.3,0.8,1.3l-0.3,2.1l-1.5,3.5l-2.5,4.3l-2.8,1.7l-3.3,5.9c0,0-3.8,13.1-4.9,15.9
		c-1.2,2.8-6.6,11.4-6.6,11.4l-1.2,3l-2.1,1l-5-1c0,0-10.7,0.1-15.3-1.2c-4.6-1.3-19.1-8-20.2-9.3c-1.1-1.3-2.4-4.9-2.1-5.8
		s2.1-10,2.1-10l17,9.6L90.2,85z"/>
	<path class="st6" d="M100.1,71c0.6-1.2-0.2-4.7-0.2-4.7s1-11.3,0.6-13.9c-0.4-2.6-2.8-12.2-2.8-12.2l-0.9-5.4c0,0-3.1-2.8-9-2.2
		C82,33.2,81.2,37,80,39.4c-1.3,2.3-0.7,2.7-0.7,2.7s-0.2,3.9,0.8,6l4.5,9.4l0.4,4.9c-0.2,3.7,1.9,9.7,1.9,9.7s-1.3,2.4-1.8,4.2
		c-0.6,1.8-5,22.8-5,22.8l-5.7,1l-3.7-0.6c0,0-2,0.4-4,0.5c-1.9,0.1-2.7,1.3-2.7,1.3s-6,2.1-7.4,2.6c-1.4,0.5-0.5,1.5-0.5,1.5
		s-0.9,1-0.4,1.6c0.5,0.7,2.1,0.5,2.1,0.5c-0.9,1.3,1.2,2,1.8,2c0.7,0,4.4-0.8,4.4-0.8l4.2,0c4.6,1.4,13.4,0.6,13.4,0.6
		s2.6-3.9,6.8-8.7c4.2-4.8,10.1-21.9,10.1-21.9s1.9-3.8,2-4.6C100.7,73.4,100.1,71,100.1,71z"/>
	<path class="st9" d="M297.2,62.5l-15.3,0.8V61l-1.3-0.9v-5.8l0.9-0.5l0.3-1.5c0,0,2.8-0.2,4.5,0l2.5-1.3l7-1.4l5-2.4
		c0,0,3.1-1.2,5.3,0c2.2,1.2,3.2,3.3,3.3,5.1c0.1,1.8,0.5,7,0.5,7s-0.1,3.3-3.5,3.3c-3.4,0-4.2-0.5-4.2-0.5L297.2,62.5z"/>
	<path class="st9" d="M273.5,73.7c0,0,3.1-3.6,4.2-3.9c0,0,2-2.3,2.9-2.8v-2c0,0,2.4-2.3,6.7-1.9l6.8-1.3c0,0,1.2-2.4,3.5-1.8
		s5.8,4.3,6.3,5.8c0,0,4.3,3.9,3.8,5.5c-0.6,1.6-3.9,2.5-3.9,2.5s-3.3,1.3-6.8,1.4l-10.1,4.5l-4.4,2.7c0,0-3.7-2.6-4.2-3.6l0.4-1.6
		l-2.3-4.9L273.5,73.7z"/>
	<path class="st10" d="M61.6,67.3c0,0-2.2,1.1-4.2,0.8S54,66.3,54,66.3s-2-0.2-2.9-1.5h-2.9c0,0-4.4-1.4-5.1-3.4
		c0,0-1.8-2.5-0.4-5.1c0,0-1.2-3.9,0.3-5.3c0,0-0.3-1.4,1.4-2.4c0,0,0.6-4.2,4.9-5.3c0,0,2.8-2.7,6.2-1.7c0,0,5.5,0,8.1,3.5
		s4.6,6.1,4.6,6.1l-5.2,6.4L61.6,67.3z"/>
	<path class="st6" d="M48.8,62.7l7.1,3.5c0,0,9,2.7,9.8,2.7s7,0.1,7.6,0c0.7-0.1,4-0.2,5.3-3.1c1.4-2.9,0-7.4,0-7.4s-2.1-4.8-4-6.3
		c-1.8-1.4-5.8-2.9-5.8-2.9s0.7-1.9,0-3.1c-0.7-1.2-6-3.6-6.9-2.3c-0.9,1.3,1.9,3.2,1.9,3.2s1.6,1.4,1.4,1.6s-3.9-0.8-3.9-0.8
		l-2.4-0.3c0,0-1.7,1.3-4.6,1.2c0,0-0.2,7.1-2.1,9.2s-3.7,3.1-3.7,3.1V62.7z"/>
	<polygon class="st10" points="60.5,57.4 61.6,57.4 61.6,54.7 62.4,51.7 61.5,52.5 60.5,54.6 	"/>
	<polygon class="st10" points="59.8,61.4 58.5,61.4 56.8,63.9 57.3,65.3 58,63.4 	"/>
	<polygon class="st10" points="67.1,64.6 68.8,62.5 69.6,60.1 69.9,62.9 	"/>
</g>
<g id="圖層_2" class="st53">
</g>
</svg>
