<?xml version="1.0" encoding="utf-8"?>
<!-- Generator: Adobe Illustrator 23.0.3, SVG Export Plug-In . SVG Version: 6.00 Build 0)  -->
<svg version="1.1" id="圖層_1" xmlns="http://www.w3.org/2000/svg" xmlns:xlink="http://www.w3.org/1999/xlink" x="0px" y="0px"
	 viewBox="0 0 590.3 230.4" style="enable-background:new 0 0 590.3 230.4;" xml:space="preserve">
<style type="text/css">
	.st0{fill:#14243D;}
	.st1{fill:#EEB591;}
	.st2{fill:#D9A280;}
	.st3{fill:#FFFFFF;}
</style>
<path class="st0" d="M251.3,83c0,0,22.5-3.7,31.5-3.4c9,0.2,69.4,8.5,69.4,8.5l26.1-1.5c0,0,17.1-2.5,23-2.8
	c5.9-0.4,61.8,7.5,61.8,7.5l15.1-2.7l1,19.3c0,0-15.9-4.6-18.8-4.6c-2.9,0-45.4,9.5-50.3,10.3c-4.9,0.7-24.7-2.9-24.7-2.9
	s-17.3,3.9-20.1,4.6c-2.8,0.7-27.5,4.2-27.5,4.2l-30.5,7.1l-0.7,2.7c0,0,44.2-1.5,53.2,0c9,1.5,23.1,1.5,23.1,1.5s17.2-5.4,20.1-5.4
	c7.1,0,17.8,1,17.8,1h29.8l10.7-2l6.8-3.4l11,7.1l-4.9,8.1l-14.4,1.7l-43.2,13.9l-14.7,2.9l-20-1l-18.3,2.9l-5.1-1.2
	c0,0-28.6,9.5-38.1,9.8c-9.5,0.2-76.4,0-76.4,0L251.3,83z"/>
<path class="st1" d="M135.1,81c0,0-3.9-10.7,2-18.6c5.9-7.8,10.7-7.6,14.2-7.3c3.4,0.2,12.2,3.7,12.2,3.7l9.9,5.7l1.8,25l-27.4,1.2
	L135.1,81z"/>
<polygon class="st2" points="116.8,81 125,84.3 127.7,83.5 133.8,92.9 133.8,106.9 113.3,85.6 "/>
<path class="st3" d="M115.2,125.7l2.1-4.3l-0.6-4.9L127,81l6.8-10.1c0,0,9,12.8,17.3,13.7c8.3,0.9,14.8-0.1,18.1-4.9
	c3.3-4.8,4.3-12.5,4.2-15.1L213,86.7l9.3-0.7l29.1-2.9c0,0,1.7,42.3,0,52.3c-1.7,10-7.3,29.8-7.3,29.8h-61.9
	C182.1,165.1,131.2,142,115.2,125.7z"/>
<path class="st1" d="M152.2,143.4c0,0,14.6,3.3,17.5,6.8c0,0,12.1-19.5,16-22.1c3.9-2.6,14-23.8,14-23.8l-0.3-2.5
	c0,0-3.1-2.5-3.3-4.6c-0.2-2-1.5-7.5-1.5-7.5l-3.4-6.7c0,0-3.2-5.2-1.2-5.7c2-0.5,3.7,0.7,4.5,1.9c0.7,1.2,3.2,6.6,3.2,6.6l4.2,3
	l4.1-0.6l-1.1-5c0,0,0.6-2.3,2-2.4c1.5-0.2,2.7,4,2.7,4l2.6,1.4c0,0,1.9-3.2,2.8-3.3c0.9-0.1,2.6,1.3,2.6,1.3v4.5l1.9-2.6
	c0,0,1.9-1,2.9,0.9c0,0,1.8-0.2,2.3,0.3c0.5,0.5,1.4,2.2,1.4,2.2l-0.5,3.6L223,99l-4.2,7.3l-4.6,2.8l-5.6,9.9c0,0-6.3,22.1-8.3,26.7
	c-2,4.6-11.2,19.3-11.2,19.3l-2,5.1l-3.5,1.7l-8.5-1.7c0,0-18.1,0.1-25.9-2.1c-7.8-2.2-32.3-13.6-34.1-15.8c-1.8-2.2-4-8.3-3.5-9.8
	s3.5-16.9,3.5-16.9l28.7,16.2L152.2,143.4z"/>
<path class="st1" d="M168.9,119.7c1-2.1-0.4-8-0.4-8s1.7-19,1-23.4c-0.7-4.4-4.6-20.5-4.6-20.5l-1.5-9c0,0-5.2-4.6-15.1-3.7
	c-9.9,0.9-11.2,7.4-13.3,11.3c-2.1,3.9-1.1,4.5-1.1,4.5s-0.4,6.7,1.3,10.1l7.7,15.8l0.7,8.3c-0.3,6.2,3.3,16.4,3.3,16.4
	s-2.1,4.1-3.1,7.2c-1,3.1-8.5,38.4-8.5,38.4l-9.6,1.6l-6.2-1c0,0-3.4,0.7-6.7,0.8c-3.3,0.2-4.5,2.1-4.5,2.1s-10.1,3.6-12.6,4.4
	c-2.4,0.8-0.8,2.6-0.8,2.6s-1.5,1.6-0.7,2.8c0.8,1.1,3.6,0.8,3.6,0.8c-1.5,2.1,2,3.4,3.1,3.4c1.1,0,7.3-1.3,7.3-1.3l7.1-0.1
	c7.7,2.4,22.6,1,22.6,1s4.4-6.6,11.5-14.7c7.1-8.1,17.1-36.9,17.1-36.9s3.2-6.3,3.4-7.7C169.9,123.8,168.9,119.7,168.9,119.7z"/>
<path class="st3" d="M501.3,105.5l-25.7,1.4v-4l-2.2-1.5v-9.8l1.6-0.9l0.4-2.6c0,0,4.7-0.3,7.7,0l4.3-2.1l11.8-2.4l8.5-4.1
	c0,0,5.2-2,9,0c3.7,2,5.4,5.5,5.5,8.6s0.8,11.7,0.8,11.7s-0.2,5.5-5.9,5.5c-5.7,0-7-0.8-7-0.8L501.3,105.5z"/>
<path class="st3" d="M461.4,124.3c0,0,5.2-6.1,7-6.6c0,0,3.4-3.9,5-4.7v-3.4c0,0,4.1-3.9,11.3-3.2l11.5-2.2c0,0,2-4.1,5.9-3.1
	c3.9,1,9.8,7.3,10.6,9.8c0,0,7.3,6.5,6.3,9.3c-1,2.8-6.5,4.2-6.5,4.2s-5.5,2.2-11.4,2.4l-17.1,7.7l-7.5,4.6c0,0-6.2-4.4-7-6l0.7-2.8
	l-3.9-8.2L461.4,124.3z"/>
<path class="st0" d="M104,113.4c0,0-3.7,1.9-7.2,1.4s-5.7-3-5.7-3s-3.4-0.3-4.9-2.5h-4.9c0,0-7.5-2.3-8.6-5.7c0,0-3.1-4.3-0.7-8.6
	c0,0-2-6.6,0.5-9c0,0-0.5-2.3,2.4-4.1c0,0,1-7.1,8.3-8.9c0,0,4.7-4.6,10.5-2.8c0,0,9.2,0,13.6,5.9c4.4,5.9,7.8,10.3,7.8,10.3
	L106.4,97L104,113.4z"/>
<path class="st1" d="M82.3,105.8l12,6c0,0,15.1,4.6,16.6,4.6c1.5,0,11.7,0.2,12.9,0c1.1-0.2,6.7-0.4,9-5.3c2.3-4.8,0-12.5,0-12.5
	s-3.6-8.1-6.7-10.6c-3.1-2.4-9.8-4.9-9.8-4.9s1.1-3.3,0-5.2c-1.1-2-10.1-6-11.6-3.9c-1.5,2.1,3.3,5.4,3.3,5.4s2.7,2.3,2.4,2.8
	c-0.3,0.5-6.5-1.3-6.5-1.3l-4.1-0.5c0,0-2.9,2.1-7.8,2c0,0-0.3,12-3.6,15.5c-3.3,3.5-6.2,5.2-6.2,5.2V105.8z"/>
<polygon class="st0" points="102.1,96.8 103.9,96.8 103.9,92.3 105.3,87.3 103.7,88.5 102.1,92 "/>
<polygon class="st0" points="100.9,103.6 98.7,103.6 95.9,107.8 96.7,110.2 97.8,106.9 "/>
<polygon class="st0" points="113.3,108.9 116,105.4 117.4,101.3 117.9,106 "/>
</svg>
