<?xml version="1.0" encoding="utf-8"?>
<!-- Generator: Adobe Illustrator 23.0.3, SVG Export Plug-In . SVG Version: 6.00 Build 0)  -->
<svg version="1.1" xmlns="http://www.w3.org/2000/svg" xmlns:xlink="http://www.w3.org/1999/xlink" x="0px" y="0px"
	 viewBox="0 0 350 137.3" style="enable-background:new 0 0 350 137.3;" xml:space="preserve">
<style type="text/css">
	.st0{fill:#5237FD;}
	.st1{fill:url(#SVGID_1_);}
	.st2{fill:url(#SVGID_2_);}
	.st3{fill:#F08265;}
	.st4{fill:#2E3F77;}
	.st5{fill:#D9A280;}
	.st6{fill:#EEB591;}
	.st7{fill:none;stroke:#221815;stroke-width:0.8843;stroke-miterlimit:10;}
	.st8{fill:#16253E;}
	.st9{fill:#FFFFFF;}
	.st10{fill:#14243D;}
	.st11{fill-rule:evenodd;clip-rule:evenodd;fill:#14243D;}
	.st12{fill-rule:evenodd;clip-rule:evenodd;fill:#EEB591;}
	.st13{fill-rule:evenodd;clip-rule:evenodd;fill:#FFFFFF;}
	.st14{fill:#F0B58C;}
	.st15{fill-rule:evenodd;clip-rule:evenodd;fill:#E7322B;}
	.st16{fill-rule:evenodd;clip-rule:evenodd;fill:#961E23;}
	.st17{fill-rule:evenodd;clip-rule:evenodd;fill:#D9A280;}
	.st18{fill:#D26560;}
	.st19{fill:#E2B89B;}
	.st20{fill-rule:evenodd;clip-rule:evenodd;fill:#334959;}
	.st21{fill:none;}
	.st22{fill:#DCAFA3;}
	.st23{fill:#E1BBAF;}
	.st24{fill:#548397;}
	.st25{fill:#CCCCCC;}
	.st26{fill:#C9A194;}
	.st27{fill:#C05C89;}
	.st28{fill:#F8BA8E;}
	.st29{fill:url(#SVGID_3_);}
	.st30{fill:url(#SVGID_4_);}
	.st31{fill:url(#SVGID_5_);}
	.st32{fill:url(#SVGID_6_);}
	.st33{fill:url(#SVGID_7_);}
	.st34{fill:url(#SVGID_8_);}
	.st35{fill:none;stroke:#FFFFFF;stroke-width:1.848;stroke-linecap:round;stroke-linejoin:round;}
	.st36{fill:none;stroke:#FFFFFF;stroke-width:1.848;stroke-linecap:round;stroke-linejoin:round;stroke-dasharray:3.8976,5.8464;}
	.st37{fill:none;stroke:#FFFFFF;stroke-width:1.848;stroke-linecap:round;stroke-linejoin:round;stroke-dasharray:3.4567,5.185;}
	.st38{fill:url(#SVGID_9_);}
	.st39{fill:#6460FF;}
	.st40{fill:url(#SVGID_10_);}
	.st41{fill:url(#SVGID_11_);}
	.st42{fill:url(#SVGID_12_);}
	.st43{fill:url(#SVGID_13_);}
	.st44{fill:url(#SVGID_14_);}
	.st45{fill:url(#SVGID_15_);}
	.st46{fill:url(#SVGID_16_);}
	.st47{fill:url(#SVGID_17_);}
	.st48{fill:url(#SVGID_18_);}
	.st49{fill:url(#SVGID_19_);}
	.st50{fill:url(#SVGID_20_);}
	.st51{fill:url(#SVGID_21_);}
	.st52{fill:url(#SVGID_22_);}
	.st53{display:none;}
	.st54{display:inline;}
	.st55{fill:#040000;}
	.st56{font-family:'Montserrat-SemiBold';}
	.st57{font-size:26.0105px;}
</style>
<g id="圖層_1">
	<g>
		<g>
			<path class="st22" d="M208.7,102.5c0.1-0.2,0.2-0.3,0.3-0.4C209,102.2,208.9,102.4,208.7,102.5z"/>
			<path class="st22" d="M208.7,102.5c0.1-0.2,0.2-0.3,0.3-0.4C209,102.2,208.9,102.4,208.7,102.5z"/>
			<path class="st22" d="M209.2,101.9c0.1-0.1,0.2-0.3,0.2-0.4C209.4,101.6,209.3,101.7,209.2,101.9z"/>
			<path class="st22" d="M209.2,101.9c0.1-0.1,0.2-0.3,0.2-0.4C209.4,101.6,209.3,101.7,209.2,101.9z"/>
			<path class="st22" d="M205.8,105.2c0.2-0.1,0.4-0.3,0.7-0.4C206.3,104.9,206.1,105,205.8,105.2z"/>
			<path class="st22" d="M205.8,105.2c0.2-0.1,0.4-0.3,0.7-0.4C206.3,104.9,206.1,105,205.8,105.2z"/>
			<path class="st22" d="M206.7,104.5c0.2-0.2,0.4-0.3,0.6-0.5C207.1,104.2,206.9,104.4,206.7,104.5z"/>
			<path class="st22" d="M206.7,104.5c0.2-0.2,0.4-0.3,0.6-0.5C207.1,104.2,206.9,104.4,206.7,104.5z"/>
			<path class="st22" d="M209.9,100.4c0.1-0.3,0.1-0.6,0.1-0.9C210,99.9,209.9,100.1,209.9,100.4z"/>
			<path class="st22" d="M209.9,100.4c0.1-0.3,0.1-0.6,0.1-0.9C210,99.9,209.9,100.1,209.9,100.4z"/>
			<path class="st22" d="M208.6,102.7c-0.3,0.4-0.7,0.8-1.2,1.3C207.9,103.5,208.3,103.1,208.6,102.7z"/>
			<path class="st22" d="M208.6,102.7c-0.3,0.4-0.7,0.8-1.2,1.3C207.9,103.5,208.3,103.1,208.6,102.7z"/>
			<path class="st22" d="M209.9,100.4c0,0.1-0.1,0.3-0.1,0.4c-0.1,0.2-0.1,0.3-0.2,0.5c0.1-0.2,0.2-0.3,0.2-0.5
				C209.8,100.7,209.8,100.6,209.9,100.4z"/>
			<path class="st22" d="M209.9,100.4c0,0.1-0.1,0.3-0.1,0.4c-0.1,0.2-0.1,0.3-0.2,0.5c0.1-0.2,0.2-0.3,0.2-0.5
				C209.8,100.7,209.8,100.6,209.9,100.4z"/>
			<path class="st22" d="M204.7,105.8c0.3-0.2,0.6-0.3,0.9-0.5c-1.8,1.1-4,1.8-6.6,1.4c-5.8-0.9-16.4-3.7-27-5.5
				c-6.5-1.1-11.6-1.2-15.2-1.1c-0.5-1.2-1-3-0.5-4.9c0.7-2.3,3.5-3.2,5-3.2c1.4,0,2.8,0,4.1,0c5.5,0,18.2-0.9,21.3-0.5
				C190.5,94.3,201.4,106.7,204.7,105.8z"/>
			<path class="st10" d="M204.7,105.8c0.3-0.2,0.6-0.3,0.9-0.5c-1.8,1.1-4,1.8-6.6,1.4c-5.8-0.9-16.4-3.7-27-5.5
				c-6.5-1.1-11.6-1.2-15.2-1.1c-0.5-1.2-1-3-0.5-4.9c0.7-2.3,3.5-3.2,5-3.2c1.4,0,2.8,0,4.1,0c5.5,0,18.2-0.9,21.3-0.5
				C190.5,94.3,201.4,106.7,204.7,105.8z"/>
			<path class="st22" d="M207.3,91.6c-0.4-0.8-0.8-1.7-1.3-2.6C206.5,90,207,90.8,207.3,91.6z"/>
			<path class="st22" d="M207.3,91.6c-0.4-0.8-0.8-1.7-1.3-2.6C206.5,90,207,90.8,207.3,91.6z"/>
			<path class="st22" d="M210,99.5c0-0.3,0-0.7-0.1-1C209.9,98.9,210,99.2,210,99.5z"/>
			<path class="st22" d="M210,99.5c0-0.3,0-0.7-0.1-1C209.9,98.9,210,99.2,210,99.5z"/>
			<path class="st25" d="M156.3,95.2c-0.6,1.9,0,3.7,0.5,4.9c0.1,0.3,0.2,0.5,0.3,0.7c0.5,1.2-1.8,1.8-2.8,1.5
				c-1-0.3-6.8-0.3-8.7,1.3c-1.9,1.6-4.7,4.6-5.3,5.9s-4.3,0.6-3.2-5c1.1-5.6,4.6-9.6,7.1-12.7c2.4-3.1,7.4-10.1,10.2-9.6
				c0.8,0.2,6.7,6.6,7.4,7.6c0.7,1,1.2,2.2-0.4,2.2C159.8,92,157,92.9,156.3,95.2z"/>
			<path class="st25" d="M156.3,95.2c-0.6,1.9,0,3.7,0.5,4.9c0.1,0.3,0.2,0.5,0.3,0.7c0.5,1.2-1.8,1.8-2.8,1.5
				c-1-0.3-6.8-0.3-8.7,1.3c-1.9,1.6-4.7,4.6-5.3,5.9s-4.3,0.6-3.2-5c1.1-5.6,4.6-9.6,7.1-12.7c2.4-3.1,7.4-10.1,10.2-9.6
				c0.8,0.2,6.7,6.6,7.4,7.6c0.7,1,1.2,2.2-0.4,2.2C159.8,92,157,92.9,156.3,95.2z"/>
			<path class="st10" d="M193.1,67.9c0.5,0,0.8-0.2,1.1-0.6c0.8,1.3,1.8,2.8,2.8,4.6c0.9,1.4,1.8,2.9,2.7,4.5
				c0.4,0.6,0.7,1.3,1.1,1.9c1.6,2.8,3.2,5.7,4.4,8.2c0.3,0.6,0.5,1.1,0.8,1.6c0.5,1,0.9,1.9,1.3,2.8c0.8,1.7,1.4,3.1,1.8,4.3
				c0.4,1.2,0.7,2.1,0.8,2.9c0.1,0.4,0.1,0.8,0.1,1.1c0,0,0,0,0,0c0,0.3,0,0.6-0.1,0.9c0,0.1-0.1,0.3-0.1,0.4
				c-0.1,0.2-0.1,0.3-0.2,0.5c0,0.1-0.1,0.1-0.1,0.2c-0.1,0.1-0.2,0.3-0.2,0.4c0,0.1-0.1,0.1-0.1,0.2c-0.1,0.2-0.2,0.3-0.3,0.5
				c0,0.1-0.1,0.1-0.1,0.2c-0.3,0.4-0.8,0.9-1.2,1.3c-0.1,0.1-0.1,0.1-0.2,0.2c-0.2,0.2-0.4,0.3-0.6,0.5c-0.1,0.1-0.1,0.1-0.2,0.2
				c-0.2,0.2-0.4,0.3-0.7,0.5c-0.1,0-0.1,0.1-0.2,0.1c-0.3,0.2-0.6,0.4-1,0.5c-3.4,1-14.8-12.2-18.7-15.1c0,0-11.3-9.7-15.6-16.9
				c3.4-1.9,5.7-3.7,7.5-4.5C181,67.9,189.9,67.9,193.1,67.9z"/>
			<path class="st10" d="M109.5,88.9c-7,2.1-16.4,3.2-21.6,6c-0.9,0.5-1.8,0.9-2.6,1.3c-2.1-0.5-7.5,0.5-8.3-1.8
				c-1.1-3.1,1.3-6.1,2.1-6.9c0.1-0.1,0.1-0.1,0.1-0.1c0.6-0.3,1.3-0.6,2.1-0.9c7.1-2.7,16.4-7.2,23.7-10.7
				c7.3-3.5,13.7-3.4,18.7-3.4c0.1,0,0.1,0,0.2,0c0,0,0,0.1,0,0.1l3.7,13.4l0,0"/>
			<path class="st23" d="M253.6,46.6c0.2-0.7,0.5-1.5,0.9-2.2c0-0.1,0-0.1,0-0.2c-0.3,0.5-0.6,0.6,0-0.1c0-0.3-0.1-0.7-0.1-1
				c0-1.1,0.4-2.4,0.6-3.7c-0.1-0.8-0.2-1.7-0.2-2.7c-1.2-0.9-2.2-2-2.9-3.2c-0.4,0.1-0.7,0.1-1.1,0.1h-5.4c0.4,0.3,0.8,0.7,1.2,1.1
				c2.4,2.6,1.4,6.7,0.8,8.5c0.1,0.8,0.2,1.6,0.2,2.4c0,0.3,0,0.6,0,1c2.5,0,4.8,0,5.7,0C253.5,46.6,253.6,46.6,253.6,46.6z"/>
			<path class="st23" d="M253.6,46.6c0.2-0.7,0.5-1.5,0.9-2.2c0-0.1,0-0.1,0-0.2c-0.3,0.5-0.6,0.6,0-0.1c0-0.3-0.1-0.7-0.1-1
				c0-1.1,0.4-2.4,0.6-3.7c-0.1-0.8-0.2-1.7-0.2-2.7c-1.2-0.9-2.2-2-2.9-3.2c-0.4,0.1-0.7,0.1-1.1,0.1h-5.4c0.4,0.3,0.8,0.7,1.2,1.1
				c2.4,2.6,1.4,6.7,0.8,8.5c0.1,0.8,0.2,1.6,0.2,2.4c0,0.3,0,0.6,0,1c2.5,0,4.8,0,5.7,0C253.5,46.6,253.6,46.6,253.6,46.6z"/>
			<path class="st22" d="M195.4,59.7c-0.1-4.6-3.7-11.4-4.8-13.4c1.6,0,3.1,0,4.4-0.1c6.2-0.4,18.6-6.6,18.6-6.6l0,0
				c0.1,3.5,2.2,18.4,3.4,24c0,0.1,0.1,0.2,0.1,0.3c-1.8,0.6-3.6,1.2-5.3,1.7c-7,2.1-15.1,3.3-17,3.6c0-0.1,0.1-0.2,0.1-0.4
				C195.1,67.1,195.5,63.6,195.4,59.7z"/>
			<path class="st22" d="M195.4,59.7c-0.1-4.6-3.7-11.4-4.8-13.4c1.6,0,3.1,0,4.4-0.1c6.2-0.4,18.6-6.6,18.6-6.6l0,0
				c0.1,3.5,2.2,18.4,3.4,24c0,0.1,0.1,0.2,0.1,0.3c-1.8,0.6-3.6,1.2-5.3,1.7c-7,2.1-15.1,3.3-17,3.6c0-0.1,0.1-0.2,0.1-0.4
				C195.1,67.1,195.5,63.6,195.4,59.7z"/>
			<path class="st26" d="M234.3,46.1l0.3,7.8c-0.4-0.1-0.8-0.2-1.2-0.3L234.3,46.1L234.3,46.1z"/>
			<path class="st14" d="M234.3,46.1l0.3,7.8c-0.4-0.1-0.8-0.2-1.2-0.3L234.3,46.1L234.3,46.1z"/>
			<path class="st27" d="M213.6,39.6c0-0.4,0-0.7,0.1-0.7c0.5-0.5,6.9-1.9,9.9-3.1c3-1.1,11-2.8,13.3-3.4c2.4-0.6,5.8-1,8.7,1.1
				c0.4,0.3,0.8,0.7,1.2,1.1c2.4,2.6,1.4,6.7,0.8,8.5c-0.1-0.9-0.3-1.8-0.6-2.7c-0.1-1.2-0.2-2.3-0.4-3.1c-0.4-1.9-4.4-5-6.7-4.8
				c-3.7,0.4-15.5,3.5-16.4,4.5c-2,2-2.4,5.1,1.2,11.1c1.6,2.7,5.3,4.3,8.8,5.2c0.4,0.1,0.8,0.2,1.2,0.3h0l0.2,5.8
				c0,0.8,0,1.7,0.1,2.8c-1.7,1.4-3.5,2.6-5.2,3c-5.3,1.1-9.4-1.7-9.4-1.7s-2.5,1.2-3.2,0.3c-0.1-0.1-0.1-0.2-0.1-0.3
				C215.8,58,213.7,43.1,213.6,39.6z"/>
			<path class="st9" d="M189.9,45.4c0.5-0.5,29-10.4,32-11.5c3-1.1,13.3-3.1,15.6-3.6c2.4-0.6,5.2,1.2,8,3.3
				c0.4,0.3,0.8,0.7,1.2,1.1c2.4,2.6,1.4,6.7,0.8,8.5c-0.1-0.9-0.3-1.8-0.6-2.7c-0.1-1.2-0.2-2.3-0.4-3.1c-0.4-1.9-4.4-5-6.7-4.8
				c-3.7,0.4-15.5,3.5-16.4,4.5c-2,2-2.4,5.1,1.2,11.1c1.6,2.7,5.3,4.3,8.8,5.2c0.4,0.1,0.8,0.2,1.2,0.3h0l0.2,5.8
				c0,0.8,0,1.7,0.1,2.8c-1.7,1.4-3.5,2.6-5.2,3c-5.3,1.1-34.8,4.7-34.8,4.7S189.8,45.4,189.9,45.4z"/>
			<path class="st22" d="M234.8,59.6l-0.2-5.8h0l-0.3-7.8l0,0l-0.9,7.5c-3.5-1-7.1-2.6-8.8-5.2c-3.6-6-3.2-9.1-1.2-11.1
				c1-1,12.8-4.1,16.4-4.5c2.3-0.2,6.3,2.9,6.7,4.8c0.1,0.7,0.3,1.9,0.4,3.1c0.3,0.9,0.5,1.8,0.6,2.7c0.1,0.8,0.2,1.6,0.2,2.4
				c0,0.3,0,0.6,0,1c-0.2,4.9-1.9,11.2-1.9,13.9c0,2.9,0,16.7,0,18.3c0,1.6,1.9,9.1,0.5,14c-1.4,4.9-2.1,18.3-2.1,20.7
				c0,2.3,3.7,2.2,4.6,2.3c0.9,0.2,12.5,2.1,12.6,2.7c0.2,0.6,0.2,1.5-2.3,1.5s-14.2,0-16.6,0s-4.8-2-4.8-8.5s-0.4-24.1-0.9-29.3
				c-0.5-4.4-1.6-14-1.9-19.8C234.8,61.3,234.8,60.4,234.8,59.6z"/>
			<path class="st14" d="M234.8,59.6l-0.2-5.8h0l-0.3-7.8l0,0l-0.9,7.5c-3.5-1-7.1-2.6-8.8-5.2c-3.6-6-3.2-9.1-1.2-11.1
				c1-1,12.8-4.1,16.4-4.5c2.3-0.2,6.3,2.9,6.7,4.8c0.1,0.7,0.3,1.9,0.4,3.1c0.3,0.9,0.5,1.8,0.6,2.7c0.1,0.8,0.2,1.6,0.2,2.4
				c0,0.3,0,0.6,0,1c-0.2,4.9-1.9,11.2-1.9,13.9c0,2.9,0,16.7,0,18.3c0,1.6,1.9,9.1,0.5,14c-1.4,4.9-2.1,18.3-2.1,20.7
				c0,2.3,3.7,2.2,4.6,2.3c0.9,0.2,12.5,2.1,12.6,2.7c0.2,0.6,0.2,1.5-2.3,1.5s-14.2,0-16.6,0s-4.8-2-4.8-8.5s-0.4-24.1-0.9-29.3
				c-0.5-4.4-1.6-14-1.9-19.8C234.8,61.3,234.8,60.4,234.8,59.6z"/>
			<path class="st10" d="M123.8,72.3c0-0.3,0.1-0.6,0.4-0.7c2.7-0.9,14.4-4.7,21.9-9c8.5-4.8,11-4.9,17.9-12.3
				c6.9-7.4,13.6-6.4,19.4-5.7c2.6,0.3,5.1,0.6,6.2,0.7c0.4,0,0.8,0.3,0.9,0.6c0,0,0,0,0,0c1.1,2,4.8,8.8,4.8,13.4
				c0.1,3.8-0.3,7.4-0.5,9.1c0,0.1-0.1,0.2-0.1,0.4c0,0.1-0.1,0.1-0.1,0.2c-0.2,0.3-0.6,0.6-1,0.6c-3.1,0-11.7,0-14.7,1.3
				c-1.7,0.8-4,2.5-7.3,4.3c-3.6,2-8.3,4.2-14.7,5.4c-10.9,2.1-25.7,5.1-28.8,5.8c-0.3,0.1-0.6-0.1-0.7-0.4l0-0.1L123.8,72.3
				C123.8,72.3,123.8,72.3,123.8,72.3z"/>
			<path class="st25" d="M66.1,90.7c2-0.9,11-4.3,12.1-4.3c1,0,1.5,0.6,0.9,1.3c0,0-0.1,0.1-0.1,0.1c-0.8,0.8-3.2,3.9-2.1,6.9
				c0.9,2.4,6.2,1.3,8.3,1.8c0.3,0.1,0.6,0.2,0.7,0.4c1.1,1.3-1,4.6-1.6,5.6c-0.6,1-1.2,4.3-0.7,7.2c0.5,3,4.4,5.8,4.4,7
				S87,120,83.6,120c-3.4,0-9-3.7-11.2-6.8c-2.2-3.1-1.1-7.7-2.7-8.6s-4.2-6.4-4.9-9C64.1,93,64.1,91.6,66.1,90.7z"/>
			<path class="st25" d="M66.1,90.7c2-0.9,11-4.3,12.1-4.3c1,0,1.5,0.6,0.9,1.3c0,0-0.1,0.1-0.1,0.1c-0.8,0.8-3.2,3.9-2.1,6.9
				c0.9,2.4,6.2,1.3,8.3,1.8c0.3,0.1,0.6,0.2,0.7,0.4c1.1,1.3-1,4.6-1.6,5.6c-0.6,1-1.2,4.3-0.7,7.2c0.5,3,4.4,5.8,4.4,7
				S87,120,83.6,120c-3.4,0-9-3.7-11.2-6.8c-2.2-3.1-1.1-7.7-2.7-8.6s-4.2-6.4-4.9-9C64.1,93,64.1,91.6,66.1,90.7z"/>
		</g>
	</g>
	<g>
		<path class="st14" d="M265.4,45c0,0-6.8,3.6-11.4,5.4c-1.1,0.4-4-9.7-3.1-11.8c1-2.4,4.9-5.9,6.8-6.2c1-0.1,5.5-0.7,8.8,1.1
			c3.6,2,4.8,5.2,6,7.1C272.9,41.4,267.5,44.9,265.4,45z"/>
		<path class="st10" d="M264.8,34.9c0.2,0,0.4-0.1,0.6-0.1c1.4-0.1,3.1,1,4.1,2.1c0.9,1,1.6,2.1,2.1,3.4c0.2,0.5,0.2,1,0.5,1.4
			c0.3,0.3,1,0.6,1.4,0.8c0.9,0.4,2,0.7,2.9,0.5c1.6-0.4,2.6-1.9,2.9-3.6c0.2-1.1,0.2-2.4-0.6-3.3c-0.4-0.4-1-0.6-1.4-1.1
			c-0.3-0.4-0.5-1.2-0.7-1.6c-0.6-1-1.3-2-2.2-2.7c-0.4-0.3-0.8-0.6-1.1-1c-0.7-0.8-0.8-1.9-1.3-2.9c-1-2-2.7-2.6-4.6-2.8
			c-1.6-0.2-2.8-2-4.5-2.1c-1.7-0.1-2.9,1.7-4.6,1.7c-0.8,0-1.5-0.4-2.3-0.5c-1.4-0.2-2.6,0.6-3.3,1.7c-0.7,1.1-0.8,2.6-1.8,3.5
			c-0.6,0.5-1.6,0.6-2.1-0.1c-0.1-0.1-0.2-0.3-0.3-0.4c-0.3-0.4-0.9-0.5-1.3-0.3c-0.4,0.2-0.7,0.6-0.9,1c-0.3,0.7-0.5,1.5-0.3,2.4
			c0.2,0.8,0.6,1.6,1.3,2.1c0.9,0.6,2.1,0.9,3.1,0.9c1,0,1.9,0.4,2.9,0.5c0.8,0.1,1.6-0.5,2.4-0.7c0.7-0.2,1.8,0,2,0.8
			c0.1,0.5-0.1,1,0.1,1.4c0.2,0.5,0.8,0.8,1.2,0.8c0.5,0,0.9-0.2,1.4-0.4C262,35.6,263.5,35.1,264.8,34.9z"/>
		<path class="st14" d="M258,35c0,0,2.7-3.5-1-5.3c-1.6-0.8-4.7,2.2-4.8,3.8c-0.1,1.6,1,3.4,1,3.4L258,35z"/>
		<path class="st14" d="M259.3,48c0,0,1.1,2.7,1.8,1.9c1-1.1,4.6-5.1,4.6-5.1L259.3,48z"/>
		<path class="st10" d="M268.7,44.8l1.1-0.6c0,0-1.1-3.8-3.8-4.4l-0.1,0.1C265.8,39.9,267.5,40.5,268.7,44.8z"/>
		<path class="st9" d="M258.3,48.5c0,0-1.3-2.3-1.7-4l1.9,3.9L258.3,48.5z"/>
	</g>
</g>
<g id="圖層_2" class="st53">
	<g class="st54">
		<text transform="matrix(1 0 0 1 5.8673 -6.6801)" class="st55 st56 st57">20 min CHT</text>
	</g>
</g>
</svg>
