<?xml version="1.0" encoding="utf-8"?>
<!-- Generator: Adobe Illustrator 23.0.3, SVG Export Plug-In . SVG Version: 6.00 Build 0)  -->
<svg version="1.1" xmlns="http://www.w3.org/2000/svg" xmlns:xlink="http://www.w3.org/1999/xlink" x="0px" y="0px"
	 viewBox="0 0 350 137.3" style="enable-background:new 0 0 350 137.3;" xml:space="preserve">
<style type="text/css">
	.st0{fill:#5237FD;}
	.st1{fill:url(#SVGID_1_);}
	.st2{fill:url(#SVGID_2_);}
	.st3{fill:#F08265;}
	.st4{fill:#2E3F77;}
	.st5{fill:#D9A280;}
	.st6{fill:#EEB591;}
	.st7{fill:none;stroke:#221815;stroke-width:0.8843;stroke-miterlimit:10;}
	.st8{fill:#16253E;}
	.st9{fill:#FFFFFF;}
	.st10{fill:#14243D;}
	.st11{fill-rule:evenodd;clip-rule:evenodd;fill:#14243D;}
	.st12{fill-rule:evenodd;clip-rule:evenodd;fill:#EEB591;}
	.st13{fill-rule:evenodd;clip-rule:evenodd;fill:#FFFFFF;}
	.st14{fill:#F0B58C;}
	.st15{fill-rule:evenodd;clip-rule:evenodd;fill:#E7322B;}
	.st16{fill-rule:evenodd;clip-rule:evenodd;fill:#961E23;}
	.st17{fill-rule:evenodd;clip-rule:evenodd;fill:#D9A280;}
	.st18{fill:#D26560;}
	.st19{fill:#E2B89B;}
	.st20{fill-rule:evenodd;clip-rule:evenodd;fill:#334959;}
	.st21{fill:none;}
	.st22{fill:#DCAFA3;}
	.st23{fill:#E1BBAF;}
	.st24{fill:#548397;}
	.st25{fill:#CCCCCC;}
	.st26{fill:#C9A194;}
	.st27{fill:#C05C89;}
	.st28{fill:#F8BA8E;}
	.st29{fill:url(#SVGID_3_);}
	.st30{fill:url(#SVGID_4_);}
	.st31{fill:url(#SVGID_5_);}
	.st32{fill:url(#SVGID_6_);}
	.st33{fill:url(#SVGID_7_);}
	.st34{fill:url(#SVGID_8_);}
	.st35{fill:none;stroke:#FFFFFF;stroke-width:1.848;stroke-linecap:round;stroke-linejoin:round;}
	.st36{fill:none;stroke:#FFFFFF;stroke-width:1.848;stroke-linecap:round;stroke-linejoin:round;stroke-dasharray:3.8976,5.8464;}
	.st37{fill:none;stroke:#FFFFFF;stroke-width:1.848;stroke-linecap:round;stroke-linejoin:round;stroke-dasharray:3.4567,5.185;}
	.st38{fill:url(#SVGID_9_);}
	.st39{fill:#6460FF;}
	.st40{fill:url(#SVGID_10_);}
	.st41{fill:url(#SVGID_11_);}
	.st42{fill:url(#SVGID_12_);}
	.st43{fill:url(#SVGID_13_);}
	.st44{fill:url(#SVGID_14_);}
	.st45{fill:url(#SVGID_15_);}
	.st46{fill:url(#SVGID_16_);}
	.st47{fill:url(#SVGID_17_);}
	.st48{fill:url(#SVGID_18_);}
	.st49{fill:url(#SVGID_19_);}
	.st50{fill:url(#SVGID_20_);}
	.st51{fill:url(#SVGID_21_);}
	.st52{fill:url(#SVGID_22_);}
	.st53{display:none;}
	.st54{display:inline;}
	.st55{fill:#040000;}
	.st56{font-family:'Montserrat-SemiBold';}
	.st57{font-size:26.0105px;}
</style>
<g id="圖層_1">
	<g>
		<g>
			<g>
				<path class="st14" d="M242.8,86.5c2.3,5.6,4,14.3,4,14.3l1.5,24.6c0.1,1.7,1.3,3.4,3.3,4.4c0.1,0,0.2,0.1,0.3,0.1
					c1.5,0.6,3.4,0.4,2.2-0.6c-2.3-2.1,2.6-1,7.5-0.7c4.9,0.3,4.1-1.5-0.7-2.3c-3.9-0.6-4.6-0.8-6.3-1.1c0,0,0.5-22.6,0.2-26.3
					c-0.2-2.9-3.4-20.7-3.8-24.8L242.8,86.5z"/>
				<g>
					<path class="st14" d="M252.3,60.3L236.9,63l5.1,10.7l15.5-6.2C255.3,65.3,253.2,63,252.3,60.3z"/>
					<path class="st19" d="M252.3,60.3l-4.1,0.7c-0.2,3.3,1.6,6.5,4.5,7.4l4.7-0.8C255.3,65.3,253.2,63,252.3,60.3z"/>
				</g>
				<path class="st10" d="M80.8,83.8l-21.3-7.5c0,0,0-0.6,0.5-1.1c0.2-0.2,0.6-0.5,1.1-0.6c1.2-0.3,11,0.6,14.5,0.1
					c0.2,0,0.5,0,0.9,0.1l57.1-3.4l4.6,11.2l-52.5,0C84.8,83.8,82.7,84.3,80.8,83.8z"/>
				<path class="st10" d="M196.4,85.6l-69.1-2.9l1.2-2.1c-0.7-5,3-9.5,8-9.8l42.2-6.3L196.4,85.6z"/>
				<path class="st10" d="M84.3,111c0,0,1.2,10.8,1.7,13c0.5,1.8,9.7,2.7,9.7,2.7s0.3-0.6,0.1-1.2c-0.1-0.3-0.3-0.6-0.7-0.8
					c-1-0.6-2.7-6.9-1.2-9.2c0.1-0.1,0.1-0.3,0-0.7l42.6-6.6l-4.9-13.5l-44.6,13.1C85.1,108.3,83.9,109.6,84.3,111z"/>
				<path class="st9" d="M88.3,81.6c-1.1-1.7-2-5.7-3.3-7.2c-0.3-0.1-1.8,0.2-2.2,0c-1.4,0.1-0.3,0.1-2.2,0.2L77,74
					c-0.5-0.1-0.9,0.1-1.1,0.2c-4.1,0.6-15.7-0.8-17.1-0.4c-0.6,0.2-1,0.4-1.3,0.7C57,75.1,57,75.8,57,75.8l25.2,8.8
					c2.2,0.6,4.6,0,5.8-1.4l1.7-0.6C89.2,82.1,88.7,82.2,88.3,81.6z"/>
				<path class="st9" d="M95.1,124.7c-1-0.6-2.7-6.9-1.2-9.2c0.1-0.1,0.1-0.3,0-0.7l4.8-0.7c-0.9-1-1.7-2.1-2.7-3
					c-0.7-0.5-1.4-1-2-1.7c-0.2-0.1-0.3-0.2-0.5-0.3c-1.1-0.7-1.9-1.5-2.4-2.4l-4.2,1.2c-1.9,0.4-3,1.8-2.7,3.1c0,0,1.2,10.8,1.7,13
					c0.5,1.8,9.7,2.7,9.7,2.7s0.3-0.6,0.1-1.2C95.7,125.3,95.5,125,95.1,124.7z"/>
				<polygon class="st10" points="194.7,78.7 131.5,94.8 136.2,108.4 196.4,101.3 				"/>
				<path class="st9" d="M251.8,73.5c-0.2,0.2-3.8,12.8-9,15.5c-14.2,7.3-40.6,9.9-46.4,12.3c0,0-9.3-8.1-12.9-13.5
					c-0.8-1.2-1.5-2.4-2.1-3.6c-2.9-5.5-2.6-19.7-2.6-19.7c2.2-0.4,4.9,2.3,10.8,1.1c12.9-2.7,30.9-7.4,42.8-8.8
					c5.8-0.6,11.4,1.2,11.8,1.3c0.7,0.3,0.3,1.4,1.3,2.8c0.2,0.3,0.4,0.6,0.4,0.6c0,0-0.1,0.1-0.2,0.2c-8.4,7.3-2.3,9.8,4.5,8.7
					C250.2,70.3,252.5,73.1,251.8,73.5z"/>
				<path class="st14" d="M232.9,57c1.5-5.6,3.6-23.2,3.6-23.6c0,0,0.4-1.2,0.4-1.2l-1.4-13.4c-0.8-1.1-1.6-2.3-1.9-2.9
					c-0.5-1.2,0.2-2.4,1.4-1.4c2.4,2.1,2-1.5,2.8-5c0.8-3.4,3-2.5,3,1c0,2.8,0.1,3.3,0,4.6c0,0,1.7,16,2.6,22.1
					c0.3,2.1-0.6,16.3-0.5,20.4L232.9,57z"/>
			</g>
		</g>
		<g>
			<path class="st14" d="M267.9,67c0,0-7,4.3-12,5.6c-2.6,0.7-6-11.5-4.6-13.4c1.4-1.9,4.7-6,6.7-6.6c1-0.3,5.6-1.5,9-0.1
				c3.7,1.5,6.2,5.7,7.4,7.5C274.8,60.7,269.8,65.7,267.9,67z"/>
			<path class="st10" d="M265.4,60.8l1.1-0.8c0,0-1.7-2.9-4.5-3.2l-0.4,0.4C261.7,57.2,263.7,58.2,265.4,60.8z"/>
			<path class="st10" d="M267.7,63.8l0.9-0.8c0,0,0.9,1.2,0.6,2.8l-0.5,0.4C268.8,66.1,268.8,64.8,267.7,63.8z"/>
			<path class="st10" d="M259.8,66.5l1.5,2.1c0,0-0.3,0-0.6-0.1C260.4,68.4,259.8,66.5,259.8,66.5z"/>
			<path class="st10" d="M262.6,53.1c1.8-0.3,3.7,0.5,5.2,1.8c1.5,1.3,2.5,3.1,3.1,5c0.3,0.9,0.5,1.9,1.1,2.7c1,1.4,4.4-1.2,5.2-1.8
				c0.9-0.7,1.9-1.4,2.8-2.1c0.4-0.3,0.6-0.5,0.7-0.9c0.1-0.8-0.8-2-1.3-2.5c-0.9-0.9-1.7-1.2-2.3-2.5c-0.4-0.9-0.8-1.9-1.6-2.6
				c-0.8-0.7-1.9-0.8-2.7-1.5c-0.8-0.6-1.2-1.5-1.8-2.4c-0.5-0.9-1.3-1.7-2.2-1.9c-1-0.2-2,0.5-3,0.5c-0.9,0-1.7-0.7-2.6-0.7
				c-0.7,0-1.5,0.6-2.1,0.9c-1.8,0.9-3.4,2-4.9,3.4c-3,2.7-5.6,6.4-6.9,10.2c0.1-0.2,2.9-1.2,3.4-1.5c0.8-0.7,1.2-1.6,2.3-2
				c0.8-0.3,1.5,0.1,2.3,0.1C259.2,55.2,260.6,53.4,262.6,53.1z"/>
			<path class="st14" d="M256.9,55.2c0,0,2.1-2.9,0.1-4.1c-2-1.2-5.1,3.1-5,4.7c0.1,1.6,1.3,2.7,1.3,2.7L256.9,55.2z"/>
		</g>
	</g>
</g>
<g id="圖層_2" class="st53">
	<g class="st54">
		<text transform="matrix(1 0 0 1 -3.669406e-04 -6.6799)" class="st55 st56 st57">20 min LIPT</text>
	</g>
</g>
</svg>
