<?xml version="1.0" encoding="utf-8"?>
<!-- Generator: Adobe Illustrator 23.0.3, SVG Export Plug-In . SVG Version: 6.00 Build 0)  -->
<svg version="1.1" id="圖層_1" xmlns="http://www.w3.org/2000/svg" xmlns:xlink="http://www.w3.org/1999/xlink" x="0px" y="0px"
	 viewBox="0 0 355.5 304.5" style="enable-background:new 0 0 355.5 304.5;" xml:space="preserve">
<style type="text/css">
	.st0{fill:#5237FD;}
	.st1{fill:#479BC1;stroke:#FFFFFF;stroke-miterlimit:10;}
	.st2{fill:#2E3F77;}
	.st3{fill:#D9A280;}
	.st4{fill:#EEB591;}
	.st5{fill:none;stroke:#221815;stroke-width:0.8843;stroke-miterlimit:10;}
	.st6{fill:#16253E;}
	.st7{fill:#FFFFFF;}
	.st8{fill:#14243D;}
	.st9{fill:#404F9E;}
	.st10{fill-rule:evenodd;clip-rule:evenodd;fill:#14243D;}
	.st11{fill-rule:evenodd;clip-rule:evenodd;fill:#EEB591;}
	.st12{fill-rule:evenodd;clip-rule:evenodd;fill:#FFFFFF;}
	.st13{fill:#F0B58C;}
	.st14{fill-rule:evenodd;clip-rule:evenodd;fill:#E7322B;}
	.st15{fill-rule:evenodd;clip-rule:evenodd;fill:#961E23;}
	.st16{fill-rule:evenodd;clip-rule:evenodd;fill:#D9A280;}
	.st17{fill:#D26560;}
	.st18{fill:#E2B89B;}
	.st19{fill-rule:evenodd;clip-rule:evenodd;fill:#334959;}
	.st20{fill:none;}
	.st21{fill:#DCAFA3;}
	.st22{fill:#E1BBAF;}
	.st23{fill:#548397;}
	.st24{fill:#CCCCCC;}
	.st25{fill:#C9A194;}
	.st26{fill:#C05C89;}
	.st27{fill:none;stroke:#FFFFFF;stroke-miterlimit:10;}
	.st28{fill:#48A4CD;}
	.st29{fill:none;stroke:#FFFFFF;stroke-width:2;stroke-miterlimit:10;}
	.st30{fill:none;stroke:#FFFFFF;stroke-width:2;stroke-miterlimit:10;stroke-dasharray:7.3514,4.2008;}
</style>
<path class="st28" d="M156.4,161l-6.1,95.4c-0.1,1.2,0.9,2.2,2.1,2.2h5.4c1,0,1.8-0.7,2-1.6l16.7-76.6c0.3-1.2,1.9-1.2,2.2,0
	l16.7,76.6c0.2,1,1.1,1.6,2,1.6h5.4c1.2,0,2.2-1,2.1-2.2L199,161H156.4z"/>
<g>
	<circle class="st29" cx="177.7" cy="60.7" r="14.8"/>
	<g>
		<g>
			<line class="st29" x1="149" y1="123.9" x2="152.5" y2="123.9"/>
			<line class="st30" x1="156.7" y1="123.9" x2="200.8" y2="123.9"/>
			<line class="st29" x1="202.9" y1="123.9" x2="206.4" y2="123.9"/>
		</g>
	</g>
	<g>
		<g>
			<line class="st29" x1="149" y1="161" x2="152.5" y2="161"/>
			<line class="st30" x1="156.7" y1="161" x2="200.8" y2="161"/>
			<line class="st29" x1="202.9" y1="161" x2="206.4" y2="161"/>
		</g>
	</g>
	<path class="st29" d="M243.6,136.2l-36.8-45c-3.9-4.8-9.8-7.6-16-7.6h-13h-13c-6.2,0-12.1,2.8-16,7.6l-36.8,45
		c-1.3,1.6-1.3,3.9,0.1,5.5l0.7,0.8c1.6,1.8,4.3,1.9,6,0.4l37.4-33.8c1.4-1.3,3.6-0.2,3.5,1.7l-9.3,145.7c-0.1,1.2,0.9,2.2,2.1,2.2
		h5.4c1,0,1.8-0.7,2-1.6l16.7-76.6c0.3-1.2,1.9-1.2,2.2,0l16.7,76.6c0.2,1,1.1,1.6,2,1.6h5.4c1.2,0,2.2-1,2.1-2.2l-9.3-145.7
		c-0.1-1.9,2.1-3,3.5-1.7l37.4,33.8c1.8,1.6,4.5,1.4,6-0.4l0.7-0.8C244.8,140.1,244.9,137.8,243.6,136.2z"/>
</g>
</svg>
