<?xml version="1.0" encoding="utf-8"?>
<!-- Generator: Adobe Illustrator 23.0.3, SVG Export Plug-In . SVG Version: 6.00 Build 0)  -->
<svg version="1.1" id="圖層_1" xmlns="http://www.w3.org/2000/svg" xmlns:xlink="http://www.w3.org/1999/xlink" x="0px" y="0px"
	 viewBox="0 0 283.7 131" style="enable-background:new 0 0 283.7 131;" xml:space="preserve">
<style type="text/css">
	.st0{fill:#F08E93;}
	.st1{fill:none;stroke:#040000;stroke-width:5.2329;stroke-linecap:round;stroke-linejoin:round;stroke-miterlimit:10;}
	.st2{fill:#040000;}
	.st3{fill:none;stroke:#040000;stroke-width:5.8373;stroke-linecap:round;stroke-linejoin:round;stroke-miterlimit:10;}
	.st4{fill:#E83C3C;}
	.st5{fill:#A52224;}
	.st6{fill:#D93030;}
	.st7{fill:#DB9451;}
	.st8{fill:#F4B55E;}
	.st9{fill:#EC6519;}
	.st10{fill:#EF7C33;}
	.st11{fill:#CCCCCC;}
	.st12{fill:#E6E6E5;}
	.st13{fill:#B75320;}
	.st14{fill:#B3B3B3;}
	.st15{fill-rule:evenodd;clip-rule:evenodd;fill:#4D4D4D;}
	.st16{fill:#4D4D4D;}
	.st17{fill:#323333;}
	.st18{fill:#9C4623;}
	.st19{fill-rule:evenodd;clip-rule:evenodd;fill:#CBE8F0;}
	.st20{fill-rule:evenodd;clip-rule:evenodd;fill:#E1F0F3;}
	.st21{fill-rule:evenodd;clip-rule:evenodd;fill:#9ECCD5;}
	.st22{fill-rule:evenodd;clip-rule:evenodd;fill:#323333;}
	.st23{fill-rule:evenodd;clip-rule:evenodd;fill:#666666;}
	.st24{fill:none;stroke:#F4B55E;stroke-width:2.6164;stroke-miterlimit:10;}
</style>
<path class="st3" d="M37.3,93.6l-16.1,14.5"/>
<path class="st3" d="M22.9,81.8L6.8,96.3"/>
<path class="st3" d="M48,103.7l-9.5,15.4"/>
<path class="st3" d="M61.2,108l-6,18"/>
<path class="st4" d="M68.6,10.7c0,0,108.8,30.6,191.5-1.5c0,0,19.8-1.4,4.6,16.4c0,0,20.3,3.8,8.1,16.8
	c-12.2,13-67.7,55.2-213.1,8.4c0,0-22.1-20.6,1-18.7C60.8,32,43.1,10.2,68.6,10.7z"/>
<path class="st4" d="M59.8,50.7c0,0-34.4,6.2-44.8,29.5c0,0,30.9,31,52.5,28.1l26.3-47.6L59.8,50.7z"/>
</svg>
