<?xml version="1.0" encoding="utf-8"?>
<!-- Generator: Adobe Illustrator 23.0.3, SVG Export Plug-In . SVG Version: 6.00 Build 0)  -->
<svg version="1.1" id="圖層_1" xmlns="http://www.w3.org/2000/svg" xmlns:xlink="http://www.w3.org/1999/xlink" x="0px" y="0px"
	 viewBox="0 0 210.3 110.1" style="enable-background:new 0 0 210.3 110.1;" xml:space="preserve">
<style type="text/css">
	.st0{fill:#F08E93;}
	.st1{fill:none;stroke:#040000;stroke-width:5.2329;stroke-linecap:round;stroke-linejoin:round;stroke-miterlimit:10;}
	.st2{fill:#040000;}
	.st3{fill:none;stroke:#040000;stroke-width:5.8373;stroke-linecap:round;stroke-linejoin:round;stroke-miterlimit:10;}
	.st4{fill:#E83C3C;}
	.st5{fill:#A52224;}
	.st6{fill:#D93030;}
	.st7{fill:#DB9451;}
	.st8{fill:#F4B55E;}
	.st9{fill:#EC6519;}
	.st10{fill:#EF7C33;}
	.st11{fill:#CCCCCC;}
	.st12{fill:#E6E6E5;}
	.st13{fill:#B75320;}
	.st14{fill:#B3B3B3;}
	.st15{fill-rule:evenodd;clip-rule:evenodd;fill:#4D4D4D;}
	.st16{fill:#4D4D4D;}
	.st17{fill:#323333;}
	.st18{fill:#9C4623;}
	.st19{fill-rule:evenodd;clip-rule:evenodd;fill:#CBE8F0;}
	.st20{fill-rule:evenodd;clip-rule:evenodd;fill:#E1F0F3;}
	.st21{fill-rule:evenodd;clip-rule:evenodd;fill:#9ECCD5;}
	.st22{fill-rule:evenodd;clip-rule:evenodd;fill:#323333;}
	.st23{fill-rule:evenodd;clip-rule:evenodd;fill:#666666;}
	.st24{fill:none;stroke:#F4B55E;stroke-width:2.6164;stroke-miterlimit:10;}
</style>
<path class="st9" d="M175.1,40.9H85.6v52.8h89.5V40.9z"/>
<path class="st10" d="M95.6,54h-10v26.5h10V54z"/>
<path class="st11" d="M175.1,93.4H85.6v13.1h89.5V93.4z"/>
<path class="st12" d="M95.6,93.4h-10v13.1h10V93.4z"/>
<path class="st11" d="M175.1,40.9H85.6V54h89.5V40.9z"/>
<path class="st12" d="M95.6,40.9h-10V54h10V40.9z"/>
<path class="st13" d="M175.1,54h-10v26.5h10V54z"/>
<path class="st14" d="M175.1,93.4h-10v13.1h10V93.4z"/>
<path class="st14" d="M175.1,40.9h-10V54h10V40.9z"/>
<path class="st15" d="M143.7,34.2c-8.1,0-18.7,0-26.8,0l-2.5,6.6c9.8,0,22,0,31.8,0L143.7,34.2z"/>
<path class="st16" d="M105,36.3H93.5v4.6H105V36.3z"/>
<path class="st16" d="M167.2,36.3h-11.5v4.6h11.5V36.3z"/>
<path class="st17" d="M99.6,36.3h-0.9v4.6h0.9V36.3z"/>
<path class="st17" d="M95.6,36.3h-0.9v4.6h0.9V36.3z"/>
<path class="st17" d="M97.6,36.3h-0.9v4.6h0.9V36.3z"/>
<path class="st17" d="M101.6,36.3h-0.9v4.6h0.9V36.3z"/>
<path class="st17" d="M103.6,36.3h-0.9v4.6h0.9V36.3z"/>
<path class="st13" d="M165.1,54H95.6v1.3h69.4V54z"/>
<path class="st18" d="M175.1,54h-10v1.3h10V54z"/>
<path class="st9" d="M95.6,54h-10v1.3h10V54z"/>
<path class="st13" d="M165.1,79.2H95.6v1.3h69.4V79.2z"/>
<path class="st18" d="M175.1,79.2h-10v1.3h10V79.2z"/>
<path class="st9" d="M95.6,79.2h-10v1.3h10V79.2z"/>
<path class="st16" d="M130.5,89.9c12.5-0.1,22.5-10.3,22.4-22.8c-0.1-12.5-10.3-22.5-22.8-22.4c-12.5,0.1-22.5,10.3-22.4,22.8
	C107.9,80,118.1,90,130.5,89.9z"/>
<path class="st19" d="M148,67.3c0-9.7-7.9-17.7-17.7-17.7c-9.7,0-17.7,7.9-17.7,17.7c0,9.7,7.9,17.7,17.7,17.7S148,77,148,67.3z"/>
<path class="st20" d="M123.1,63.3c4.2-4.3,7.1-9.1,8.6-13.6c-0.4,0-0.9-0.1-1.4-0.1c-9.8,0-17.7,7.9-17.7,17.7
	c0,1.2,0.1,2.4,0.3,3.5C116.4,69,119.9,66.5,123.1,63.3z"/>
<path class="st21" d="M136.1,67.3c0-3.2-2.6-5.8-5.8-5.8c-3.2,0-5.8,2.6-5.8,5.8s2.6,5.8,5.8,5.8C133.5,73,136.1,70.5,136.1,67.3z"
	/>
<path class="st22" d="M143.7,34.2h-8.4l2.5,6.6h8.3L143.7,34.2z"/>
<path class="st23" d="M84.3,47.8h1.2v-1.7h-2.1c-0.7,0-1.2,0.6-1.2,1.3v3.9c0,0.7,0.5,1.3,1.2,1.3h2.1V51h-1.2
	c-0.3,0-0.5-0.3-0.5-0.6v-1.9C83.8,48.1,84,47.8,84.3,47.8z"/>
<path class="st23" d="M176.3,51h-1.2v1.7h2.1c0.7,0,1.2-0.6,1.2-1.3v-3.9c0-0.7-0.5-1.3-1.2-1.3h-2.1v1.7h1.2c0.3,0,0.5,0.3,0.5,0.6
	v1.9C176.9,50.7,176.6,51,176.3,51z"/>
<path class="st24" d="M4.4,4.9c0,0,51.2,36.2,81.2,44.5"/>
<path class="st24" d="M176.9,48.4c0,0,29.3-28.2,27.6-44.2"/>
</svg>
