<?xml version="1.0" encoding="utf-8"?>
<!-- Generator: Adobe Illustrator 23.0.3, SVG Export Plug-In . SVG Version: 6.00 Build 0)  -->
<svg version="1.1" id="圖層_1" xmlns="http://www.w3.org/2000/svg" xmlns:xlink="http://www.w3.org/1999/xlink" x="0px" y="0px"
	 viewBox="0 0 97.6 71.4" style="enable-background:new 0 0 97.6 71.4;" xml:space="preserve">
<style type="text/css">
	.st0{fill:#F08E93;}
	.st1{fill:none;stroke:#040000;stroke-width:5.2329;stroke-linecap:round;stroke-linejoin:round;stroke-miterlimit:10;}
	.st2{fill:#040000;}
	.st3{fill:none;stroke:#040000;stroke-width:5.8373;stroke-linecap:round;stroke-linejoin:round;stroke-miterlimit:10;}
	.st4{fill:#E83C3C;}
	.st5{fill:#A52224;}
	.st6{fill:#D93030;}
	.st7{fill:#DB9451;}
	.st8{fill:#F4B55E;}
	.st9{fill:#EC6519;}
	.st10{fill:#EF7C33;}
	.st11{fill:#CCCCCC;}
	.st12{fill:#E6E6E5;}
	.st13{fill:#B75320;}
	.st14{fill:#B3B3B3;}
	.st15{fill-rule:evenodd;clip-rule:evenodd;fill:#4D4D4D;}
	.st16{fill:#4D4D4D;}
	.st17{fill:#323333;}
	.st18{fill:#9C4623;}
	.st19{fill-rule:evenodd;clip-rule:evenodd;fill:#CBE8F0;}
	.st20{fill-rule:evenodd;clip-rule:evenodd;fill:#E1F0F3;}
	.st21{fill-rule:evenodd;clip-rule:evenodd;fill:#9ECCD5;}
	.st22{fill-rule:evenodd;clip-rule:evenodd;fill:#323333;}
	.st23{fill-rule:evenodd;clip-rule:evenodd;fill:#666666;}
	.st24{fill:none;stroke:#F4B55E;stroke-width:2.6164;stroke-miterlimit:10;}
</style>
<path class="st7" d="M93.6,46.1c0,0-1.1-6.8-11-6.4c-10.8,5.1-21.6,7.7-31.1,8.9c-6.1,0.8-11.7,0.9-16.5,0.8c-8-0.2-14.7-1.1-19.3-2
	c-3.4,1.1-10.6,4.2-9.7,9.4c0,0,1,8.6,17.5,10.2c0,0,25.3,2.7,59.7-9.3C83.3,57.8,94.8,52.4,93.6,46.1z"/>
<path class="st8" d="M81.6,35.9l-2.4-13.3c0,0-2.8-11.3-14.8-13.3c0,0-17.8-2.1-33.7,2.9c0,0-13.2,4.6-13.3,17.3l0,14.3
	c4.4,0.8,10.5,1.6,17.8,1.8C47.2,45.7,64.4,44.2,81.6,35.9z"/>
</svg>
