<?xml version="1.0" encoding="utf-8"?>
<!-- Generator: Adobe Illustrator 23.0.3, SVG Export Plug-In . SVG Version: 6.00 Build 0)  -->
<svg version="1.1" id="圖層_1" xmlns="http://www.w3.org/2000/svg" xmlns:xlink="http://www.w3.org/1999/xlink" x="0px" y="0px"
	 viewBox="0 0 87.1 60.5" style="enable-background:new 0 0 87.1 60.5;" xml:space="preserve">
<style type="text/css">
	.st0{fill:#F08E93;}
	.st1{fill:none;stroke:#040000;stroke-width:5.2329;stroke-linecap:round;stroke-linejoin:round;stroke-miterlimit:10;}
	.st2{fill:#040000;}
	.st3{fill:none;stroke:#040000;stroke-width:5.8373;stroke-linecap:round;stroke-linejoin:round;stroke-miterlimit:10;}
	.st4{fill:#E83C3C;}
	.st5{fill:#A52224;}
	.st6{fill:#D93030;}
	.st7{fill:#DB9451;}
	.st8{fill:#F4B55E;}
	.st9{fill:#EC6519;}
	.st10{fill:#EF7C33;}
	.st11{fill:#CCCCCC;}
	.st12{fill:#E6E6E5;}
	.st13{fill:#B75320;}
	.st14{fill:#B3B3B3;}
	.st15{fill-rule:evenodd;clip-rule:evenodd;fill:#4D4D4D;}
	.st16{fill:#4D4D4D;}
	.st17{fill:#323333;}
	.st18{fill:#9C4623;}
	.st19{fill-rule:evenodd;clip-rule:evenodd;fill:#CBE8F0;}
	.st20{fill-rule:evenodd;clip-rule:evenodd;fill:#E1F0F3;}
	.st21{fill-rule:evenodd;clip-rule:evenodd;fill:#9ECCD5;}
	.st22{fill-rule:evenodd;clip-rule:evenodd;fill:#323333;}
	.st23{fill-rule:evenodd;clip-rule:evenodd;fill:#666666;}
	.st24{fill:none;stroke:#F4B55E;stroke-width:2.6164;stroke-miterlimit:10;}
</style>
<path class="st5" d="M35.1,14.9c0,0-5.2-3.7-1.9-7.2c0,0,3-3.3,3-3.7c0,0,2.3-0.4,1.7,2.1c0,0-2.6,5.4-0.4,7.8L35.1,14.9z"/>
<path class="st6" d="M76.9,11.5C59,2.4,36,12.4,36,12.4S12.3,20.8,5.5,39.7c0,0-2.6,6.2,2,9.7l10.1,7.2l31-12.2l31-12.2L82,19.9
	C83,14.3,76.9,11.5,76.9,11.5z"/>
</svg>
