<svg width="40" height="41" viewBox="0 0 40 41" fill="none" xmlns="http://www.w3.org/2000/svg">
<path fill-rule="evenodd" clip-rule="evenodd" d="M20.0002 40.0833C30.5856 40.0833 39.1668 31.3156 39.1668 20.5C39.1668 9.68443 30.5856 0.916672 20.0002 0.916672C9.41471 0.916672 0.833496 9.68443 0.833496 20.5C0.833496 31.3156 9.41471 40.0833 20.0002 40.0833ZM29.0221 17.9681C29.7706 17.2033 29.7706 15.9634 29.0221 15.1986C28.2736 14.4338 27.06 14.4338 26.3115 15.1986L18.0835 23.6055L13.6888 19.1153C12.9403 18.3505 11.7267 18.3505 10.9782 19.1153C10.2297 19.88 10.2297 21.12 10.9782 21.8848L16.7282 27.7598C17.4767 28.5245 18.6903 28.5245 19.4388 27.7598L29.0221 17.9681Z" fill="#6460FF"/>
</svg>
