<?xml version="1.0" encoding="utf-8"?>
<!-- Generator: Adobe Illustrator 23.0.3, SVG Export Plug-In . SVG Version: 6.00 Build 0)  -->
<svg version="1.1" id="圖層_1" xmlns="http://www.w3.org/2000/svg" xmlns:xlink="http://www.w3.org/1999/xlink" x="0px" y="0px"
	 viewBox="0 0 300 350" style="enable-background:new 0 0 300 350;" xml:space="preserve">
<style type="text/css">
	.st0{fill:#A52224;}
	.st1{fill:#D93030;}
	.st2{fill:none;stroke:#18191F;stroke-width:4.2762;stroke-linecap:round;stroke-linejoin:round;stroke-miterlimit:10;}
	.st3{fill:#E83C3C;}
	.st4{fill:none;stroke:#18191F;stroke-width:5.4044;stroke-linecap:round;stroke-linejoin:round;stroke-miterlimit:10;}
	.st5{fill:#F08E93;}
	.st6{fill:#18191F;}
	.st7{fill:#FF353B;}
	.st8{fill:#FFFFFF;}
	.st9{fill:#23B5F3;}
	.st10{fill:#CCCCFF;}
	.st11{fill:#6460FF;}
	.st12{fill:#DB9451;}
	.st13{fill:#F4B55E;}
	.st14{fill:#EC6519;}
	.st15{fill:#EF7C33;}
	.st16{fill:#CCCCCC;}
	.st17{fill:#E6E6E5;}
	.st18{fill:#B75320;}
	.st19{fill:#B3B3B3;}
	.st20{fill-rule:evenodd;clip-rule:evenodd;fill:#4D4D4D;}
	.st21{fill:#4D4D4D;}
	.st22{fill:#323333;}
	.st23{fill:#9C4623;}
	.st24{fill-rule:evenodd;clip-rule:evenodd;fill:#CBE8F0;}
	.st25{fill-rule:evenodd;clip-rule:evenodd;fill:#E1F0F3;}
	.st26{fill-rule:evenodd;clip-rule:evenodd;fill:#9ECCD5;}
	.st27{fill-rule:evenodd;clip-rule:evenodd;fill:#323333;}
	.st28{fill-rule:evenodd;clip-rule:evenodd;fill:#666666;}
	.st29{fill:none;stroke:#F4B55E;stroke-width:2.051;stroke-linecap:round;stroke-linejoin:round;stroke-miterlimit:10;}
	.st30{fill:#C7B79C;}
	.st31{fill:#D4C9B4;}
	.st32{fill:#51524E;}
	.st33{fill:#E1E1E1;}
	.st34{fill:#43312B;}
	.st35{fill:#C6C6C6;}
	.st36{fill:#AAAAAA;}
	.st37{fill:#939393;}
	.st38{fill:#E0E0E0;}
	.st39{fill:#2B451C;}
	.st40{fill:#395527;}
	.st41{fill:none;stroke:#18191F;stroke-width:5.3533;stroke-linecap:round;stroke-linejoin:round;stroke-miterlimit:10;}
	.st42{fill:none;stroke:#18191F;stroke-width:4.5;stroke-linecap:round;stroke-linejoin:round;stroke-miterlimit:10;}
	.st43{fill:none;stroke:#F4B55E;stroke-width:2.378;stroke-linecap:round;stroke-linejoin:round;stroke-miterlimit:10;}
	.st44{fill:none;stroke:#F4B55E;stroke-width:3.459;stroke-linecap:round;stroke-linejoin:round;stroke-miterlimit:10;}
	.st45{fill:#FF9398;}
	.st46{fill:none;stroke:#18191F;stroke-width:4.5;stroke-linecap:round;stroke-miterlimit:10;}
	.st47{fill:none;stroke:#18191F;stroke-width:4.0241;stroke-linecap:round;stroke-linejoin:round;stroke-miterlimit:10;}
	.st48{fill:none;stroke:#F4B55E;stroke-width:1.5623;stroke-linecap:round;stroke-linejoin:round;stroke-miterlimit:10;}
	.st49{fill:none;stroke:#18191F;stroke-width:3.0579;stroke-linecap:round;stroke-linejoin:round;stroke-miterlimit:10;}
	.st50{fill:none;stroke:#18191F;stroke-width:2.7483;stroke-linecap:round;stroke-linejoin:round;stroke-miterlimit:10;}
</style>
<path class="st9" d="M223.8,124.1c-5.2-5.2-17.4,1.1-22.7,6.1c-1,0.9-2.5,0.1-2.4-1.2c0.9-14.6,1.2-25.4-0.4-40.1
	c-1.6-14.6-5.2-32.9-17-43c-15.2-13-34.7-5.9-46.6,8.6c-9,10.9-14.2,24-16.9,37.8c-1.3,7-2,14.1-2.5,21.2
	c-0.3,4.5,0.9,13.5-3.4,16.4c-2.6,1.8-6.6,2.8-9.5,2.1c-6.4-1.7-22.8-6.1-26.8,1.4c-6.6,12.5,22.9,20.1,29.7,21.8
	c4.5,1.1,7.6,5.1,7.6,9.7c0,10.9-0.1,30.4-0.1,41.8c0,31.8-7,86.6,17.2,112.7c2.1,2.3,5.3,6.3,6.7,9.2c2.3,4.9,3.3,20.6,10.6,21.4
	c8.7,1,8.1-12.2,8.8-16.7c0.3-1.7,1.7-2.9,3.3-2.9c1.5-0.1,3-0.2,4.5-0.4c1.8-0.2,3.6,0.8,3.9,2.7c1.5,8.2,1.4,15.4,6,15.8
	c7.2,0.7,8.1-9,9.5-18.7c0.7-4.7,3.2-8.7,6.2-12.4c8.2-10.4,9.1-22.9,9.5-28.1c2-26.1-0.6-51.7-2.9-82.5
	c-1.1-15.1-0.4-30.2,0.6-45.3c0.2-2.5,1.2-4.8,3-6.5C216.9,138.1,230.3,130.6,223.8,124.1z"/>
<path class="st6" d="M149.3,68c-1.1,2.7-3.5,4.2-5.5,3.5c-2-0.8-2.7-3.6-1.7-6.3c0.3-0.7,0.6-1.3,1-1.8c1.2-1.5,3-2.3,4.4-1.7
	C149.6,62.5,150.3,65.3,149.3,68z"/>
<path class="st6" d="M161.9,73c-1.1,2.7-3.5,4.2-5.5,3.5c-2-0.8-2.7-3.6-1.7-6.3c0.5-1.2,1.2-2.1,2-2.8c1.1-0.8,2.3-1.1,3.4-0.7
	C162.2,67.5,163,70.3,161.9,73z"/>
<path class="st46" d="M137.1,51.6c0,0,10.5-6.5,12.9,2.8"/>
<path class="st46" d="M158.3,57.8c0,0,11.4-4,16.2,5"/>
</svg>
