<?xml version="1.0" encoding="utf-8"?>
<!-- Generator: Adobe Illustrator 23.0.3, SVG Export Plug-In . SVG Version: 6.00 Build 0)  -->
<svg version="1.1" id="圖層_1" xmlns="http://www.w3.org/2000/svg" xmlns:xlink="http://www.w3.org/1999/xlink" x="0px" y="0px"
	 viewBox="0 0 300 350" style="enable-background:new 0 0 300 350;" xml:space="preserve">
<style type="text/css">
	.st0{fill:#A52224;}
	.st1{fill:#D93030;}
	.st2{fill:none;stroke:#18191F;stroke-width:4.2762;stroke-linecap:round;stroke-linejoin:round;stroke-miterlimit:10;}
	.st3{fill:#E83C3C;}
	.st4{fill:none;stroke:#18191F;stroke-width:5.4044;stroke-linecap:round;stroke-linejoin:round;stroke-miterlimit:10;}
	.st5{fill:#F08E93;}
	.st6{fill:#18191F;}
	.st7{fill:#FF353B;}
	.st8{fill:#FFFFFF;}
	.st9{fill:#23B5F3;}
	.st10{fill:#CCCCFF;}
	.st11{fill:#6460FF;}
	.st12{fill:#DB9451;}
	.st13{fill:#F4B55E;}
	.st14{fill:#EC6519;}
	.st15{fill:#EF7C33;}
	.st16{fill:#CCCCCC;}
	.st17{fill:#E6E6E5;}
	.st18{fill:#B75320;}
	.st19{fill:#B3B3B3;}
	.st20{fill-rule:evenodd;clip-rule:evenodd;fill:#4D4D4D;}
	.st21{fill:#4D4D4D;}
	.st22{fill:#323333;}
	.st23{fill:#9C4623;}
	.st24{fill-rule:evenodd;clip-rule:evenodd;fill:#CBE8F0;}
	.st25{fill-rule:evenodd;clip-rule:evenodd;fill:#E1F0F3;}
	.st26{fill-rule:evenodd;clip-rule:evenodd;fill:#9ECCD5;}
	.st27{fill-rule:evenodd;clip-rule:evenodd;fill:#323333;}
	.st28{fill-rule:evenodd;clip-rule:evenodd;fill:#666666;}
	.st29{fill:none;stroke:#F4B55E;stroke-width:2.051;stroke-linecap:round;stroke-linejoin:round;stroke-miterlimit:10;}
	.st30{fill:#C7B79C;}
	.st31{fill:#D4C9B4;}
	.st32{fill:#51524E;}
	.st33{fill:#E1E1E1;}
	.st34{fill:#43312B;}
	.st35{fill:#C6C6C6;}
	.st36{fill:#AAAAAA;}
	.st37{fill:#939393;}
	.st38{fill:#E0E0E0;}
	.st39{fill:#2B451C;}
	.st40{fill:#395527;}
	.st41{fill:none;stroke:#18191F;stroke-width:5.3533;stroke-linecap:round;stroke-linejoin:round;stroke-miterlimit:10;}
	.st42{fill:none;stroke:#18191F;stroke-width:4.5;stroke-linecap:round;stroke-linejoin:round;stroke-miterlimit:10;}
	.st43{fill:none;stroke:#F4B55E;stroke-width:2.378;stroke-linecap:round;stroke-linejoin:round;stroke-miterlimit:10;}
	.st44{fill:none;stroke:#F4B55E;stroke-width:3.459;stroke-linecap:round;stroke-linejoin:round;stroke-miterlimit:10;}
	.st45{fill:#FF9398;}
	.st46{fill:none;stroke:#18191F;stroke-width:4.5;stroke-linecap:round;stroke-miterlimit:10;}
	.st47{fill:none;stroke:#18191F;stroke-width:4.0241;stroke-linecap:round;stroke-linejoin:round;stroke-miterlimit:10;}
	.st48{fill:none;stroke:#F4B55E;stroke-width:1.5623;stroke-linecap:round;stroke-linejoin:round;stroke-miterlimit:10;}
	.st49{fill:none;stroke:#18191F;stroke-width:3.0579;stroke-linecap:round;stroke-linejoin:round;stroke-miterlimit:10;}
	.st50{fill:none;stroke:#18191F;stroke-width:2.7483;stroke-linecap:round;stroke-linejoin:round;stroke-miterlimit:10;}
</style>
<path class="st9" d="M220.1,267.8c-3.5-37.9-17.2-73.1-21.5-110.3c-3.2-28.1,4.9-56.6-4.4-84.2c-6.3-18.9-21-30.8-37-33.6
	c-16.7-2.9-34.9,4.1-46.1,23.5c-8.5,14.6-10.9,31.8-13.2,48.5c-5.4,39.6-10.7,79.2-16.1,118.8c-1.6,11.9-3.2,23.9-1.6,35.8
	c2.7,20.7,14.4,34.9,30,43.8c7.4,4.2,9.8,12.8,10.5,19.9c0.4,4.7,0.8,10.6,3.7,14.3c3.4,4.3,8.4,4.6,12.5,1.9
	c6.9-4.5,6.6-15.4,8.7-22.8c0.4-1.4,1.7-2.2,3.1-2.1c3.4,0.3,6.9,0.4,10.3,0.4c1.4,0,2.6,1,2.9,2.3c1.6,7,1.4,15.2,5,21.8
	c4.2,7.7,13.2,3.6,15.5-3.5c3-9.2,2.1-19.6,11.3-26c4.7-3.3,10.7-4.5,15-8.5C219.2,298,221.4,282.1,220.1,267.8z"/>
<path class="st42" d="M106.2,211.6c0,0,3.1,21.6,16,17.7c9.4-2.9,5-26.9,5-26.9"/>
<path class="st42" d="M144.2,205.4c0,0-9.3,19.3,0,25.1c8.5,5.3,15.7-10,15.7-10"/>
<path class="st6" d="M126.2,90.2c0,3.2-1.9,5.9-4.2,5.9c-2.4,0-4.3-2.6-4.3-5.8c0-3.2,1.9-5.9,4.2-5.9c1.2,0,2.3,0.6,3,1.7
	C125.7,87.1,126.2,88.6,126.2,90.2z"/>
<path class="st6" d="M141.4,90.1c0,3.2-1.9,5.9-4.2,5.9c-2.4,0-4.3-2.6-4.3-5.8c0-3.2,1.9-5.9,4.2-5.9c1.2,0,2.3,0.6,3,1.7
	S141.4,88.5,141.4,90.1z"/>
<path class="st42" d="M106.2,77.3c0,0,5-12.5,16.5-6.5"/>
<path class="st42" d="M130.6,70.7c0,0,10.5-10.3,26.1,4"/>
</svg>
