<?xml version="1.0" encoding="utf-8"?>
<!-- Generator: Adobe Illustrator 23.0.3, SVG Export Plug-In . SVG Version: 6.00 Build 0)  -->
<svg version="1.1" id="圖層_1" xmlns="http://www.w3.org/2000/svg" xmlns:xlink="http://www.w3.org/1999/xlink" x="0px" y="0px"
	 viewBox="0 0 300 300" style="enable-background:new 0 0 300 300;" xml:space="preserve">
<style type="text/css">
	.st0{fill:#A52224;}
	.st1{fill:#D93030;}
	.st2{fill:none;stroke:#040000;stroke-width:4.2762;stroke-linecap:round;stroke-linejoin:round;stroke-miterlimit:10;}
	.st3{fill:#E83C3C;}
	.st4{fill:none;stroke:#040000;stroke-width:5.4044;stroke-linecap:round;stroke-linejoin:round;stroke-miterlimit:10;}
	.st5{fill:#6460FF;}
	.st6{fill:#CCCCFF;}
	.st7{fill:#23B5F3;}
	.st8{fill:#FF353B;}
	.st9{fill:#FFFFFF;}
	.st10{fill:#F08E93;}
	.st11{fill:#DB9451;}
	.st12{fill:#F4B55E;}
	.st13{fill:#EC6519;}
	.st14{fill:#EF7C33;}
	.st15{fill:#CCCCCC;}
	.st16{fill:#E6E6E5;}
	.st17{fill:#B75320;}
	.st18{fill:#B3B3B3;}
	.st19{fill-rule:evenodd;clip-rule:evenodd;fill:#4D4D4D;}
	.st20{fill:#4D4D4D;}
	.st21{fill:#323333;}
	.st22{fill:#9C4623;}
	.st23{fill-rule:evenodd;clip-rule:evenodd;fill:#CBE8F0;}
	.st24{fill-rule:evenodd;clip-rule:evenodd;fill:#E1F0F3;}
	.st25{fill-rule:evenodd;clip-rule:evenodd;fill:#9ECCD5;}
	.st26{fill-rule:evenodd;clip-rule:evenodd;fill:#323333;}
	.st27{fill-rule:evenodd;clip-rule:evenodd;fill:#666666;}
	.st28{fill:none;stroke:#F4B55E;stroke-width:2.051;stroke-linecap:round;stroke-linejoin:round;stroke-miterlimit:10;}
	.st29{fill:#231F20;}
	.st30{fill:#C7B79C;}
	.st31{fill:#D4C9B4;}
	.st32{fill:#51524E;}
	.st33{fill:#E1E1E1;}
	.st34{fill:#43312B;}
	.st35{fill:#C6C6C6;}
	.st36{fill:#AAAAAA;}
	.st37{fill:#939393;}
	.st38{fill:#E0E0E0;}
	.st39{fill:#2B451C;}
	.st40{fill:#395527;}
	.st41{fill:none;stroke:#040000;stroke-width:5.3533;stroke-linecap:round;stroke-linejoin:round;stroke-miterlimit:10;}
	.st42{fill:none;stroke:#040000;stroke-width:4.5;stroke-linecap:round;stroke-linejoin:round;stroke-miterlimit:10;}
	.st43{fill:#040000;}
	.st44{fill:none;stroke:#F4B55E;stroke-width:2.378;stroke-linecap:round;stroke-linejoin:round;stroke-miterlimit:10;}
	.st45{fill:none;stroke:#F4B55E;stroke-width:3.459;stroke-linecap:round;stroke-linejoin:round;stroke-miterlimit:10;}
	.st46{fill:none;stroke:#000000;stroke-width:4.5;stroke-linecap:round;stroke-linejoin:round;stroke-miterlimit:10;}
	.st47{fill:#FF9398;}
	.st48{fill:none;stroke:#000000;stroke-width:4.5;stroke-linecap:round;stroke-miterlimit:10;}
	.st49{fill:none;stroke:#040000;stroke-width:4.0241;stroke-linecap:round;stroke-linejoin:round;stroke-miterlimit:10;}
	.st50{fill:none;stroke:#F4B55E;stroke-width:1.5623;stroke-linecap:round;stroke-linejoin:round;stroke-miterlimit:10;}
	.st51{fill:none;stroke:#040000;stroke-width:3.0579;stroke-linecap:round;stroke-linejoin:round;stroke-miterlimit:10;}
	.st52{fill:none;stroke:#040000;stroke-width:2.7483;stroke-linecap:round;stroke-linejoin:round;stroke-miterlimit:10;}
	.st53{fill:url(#SVGID_1_);}
	.st54{fill:url(#SVGID_2_);}
</style>
<path class="st6" d="M149.6,54.2c-49-1.4-96.8,48-95.2,96.5c1.7,53.2,42.6,95.3,95.9,95.2c52.2-0.2,95.9-43.9,95.5-95.8
	C245.4,98.4,201.2,55.6,149.6,54.2z M179.4,215.2c-9.7,5.1-19.7,6.2-27.9,5.8c-54-0.5-89.2-56.9-65.7-100.9
	c4.4-8.2,7.5-9.5,14.4-2.5c27,27.5,54.2,54.9,81.8,81.8C190,207,188,210.6,179.4,215.2z M209,186.5c-9.1,3.4-13.7-8.7-19.6-14.5
	c-23.3-22.4-45.9-45.4-68.7-68.3C109.1,92,109.8,89,125.8,83.6c47.1-15.8,95.4,19.3,94.9,71.1c-0.1,1,0.1,4.2-0.6,7.1
	C217.8,170.8,217.8,183.2,209,186.5z"/>
</svg>
