<?xml version="1.0" encoding="utf-8"?>
<!-- Generator: Adobe Illustrator 23.0.3, SVG Export Plug-In . SVG Version: 6.00 Build 0)  -->
<svg version="1.1" id="圖層_1" xmlns="http://www.w3.org/2000/svg" xmlns:xlink="http://www.w3.org/1999/xlink" x="0px" y="0px"
	 viewBox="0 0 300 300" style="enable-background:new 0 0 300 300;" xml:space="preserve">
<style type="text/css">
	.st0{fill:#A52224;}
	.st1{fill:#D93030;}
	.st2{fill:none;stroke:#040000;stroke-width:4.2762;stroke-linecap:round;stroke-linejoin:round;stroke-miterlimit:10;}
	.st3{fill:#E83C3C;}
	.st4{fill:none;stroke:#040000;stroke-width:5.4044;stroke-linecap:round;stroke-linejoin:round;stroke-miterlimit:10;}
	.st5{fill:#6460FF;}
	.st6{fill:#CCCCFF;}
	.st7{fill:url(#SVGID_1_);}
	.st8{fill:#FF353B;}
	.st9{fill:#FFFFFF;}
	.st10{fill:#F08E93;}
	.st11{fill:#DB9451;}
	.st12{fill:#F4B55E;}
	.st13{fill:#EC6519;}
	.st14{fill:#EF7C33;}
	.st15{fill:#CCCCCC;}
	.st16{fill:#E6E6E5;}
	.st17{fill:#B75320;}
	.st18{fill:#B3B3B3;}
	.st19{fill-rule:evenodd;clip-rule:evenodd;fill:#4D4D4D;}
	.st20{fill:#4D4D4D;}
	.st21{fill:#323333;}
	.st22{fill:#9C4623;}
	.st23{fill-rule:evenodd;clip-rule:evenodd;fill:#CBE8F0;}
	.st24{fill-rule:evenodd;clip-rule:evenodd;fill:#E1F0F3;}
	.st25{fill-rule:evenodd;clip-rule:evenodd;fill:#9ECCD5;}
	.st26{fill-rule:evenodd;clip-rule:evenodd;fill:#323333;}
	.st27{fill-rule:evenodd;clip-rule:evenodd;fill:#666666;}
	.st28{fill:none;stroke:#F4B55E;stroke-width:2.051;stroke-linecap:round;stroke-linejoin:round;stroke-miterlimit:10;}
	.st29{fill:#231F20;}
	.st30{fill:#C7B79C;}
	.st31{fill:#D4C9B4;}
	.st32{fill:#51524E;}
	.st33{fill:#E1E1E1;}
	.st34{fill:#43312B;}
	.st35{fill:#C6C6C6;}
	.st36{fill:#AAAAAA;}
	.st37{fill:#939393;}
	.st38{fill:#E0E0E0;}
	.st39{fill:#2B451C;}
	.st40{fill:#395527;}
	.st41{fill:none;stroke:#040000;stroke-width:5.3533;stroke-linecap:round;stroke-linejoin:round;stroke-miterlimit:10;}
	.st42{fill:none;stroke:#040000;stroke-width:4.5;stroke-linecap:round;stroke-linejoin:round;stroke-miterlimit:10;}
	.st43{fill:#040000;}
	.st44{fill:url(#SVGID_2_);}
	.st45{fill:none;stroke:#F4B55E;stroke-width:2.378;stroke-linecap:round;stroke-linejoin:round;stroke-miterlimit:10;}
	.st46{fill:none;stroke:#F4B55E;stroke-width:3.459;stroke-linecap:round;stroke-linejoin:round;stroke-miterlimit:10;}
	.st47{fill:none;stroke:#000000;stroke-width:4.5;stroke-linecap:round;stroke-linejoin:round;stroke-miterlimit:10;}
	.st48{fill:url(#SVGID_3_);}
	.st49{fill:#FF9398;}
	.st50{fill:url(#SVGID_4_);}
	.st51{fill:none;stroke:#000000;stroke-width:4.5;stroke-linecap:round;stroke-miterlimit:10;}
	.st52{fill:url(#SVGID_5_);}
	.st53{fill:none;stroke:#040000;stroke-width:4.0241;stroke-linecap:round;stroke-linejoin:round;stroke-miterlimit:10;}
	.st54{fill:none;stroke:#F4B55E;stroke-width:1.5623;stroke-linecap:round;stroke-linejoin:round;stroke-miterlimit:10;}
	.st55{fill:none;stroke:#040000;stroke-width:3.0579;stroke-linecap:round;stroke-linejoin:round;stroke-miterlimit:10;}
	.st56{fill:none;stroke:#040000;stroke-width:2.7483;stroke-linecap:round;stroke-linejoin:round;stroke-miterlimit:10;}
</style>
<g>
	<path class="st35" d="M157.9,117.2c2.9-2.2,5.8-4.5,8.6-6.8c8-6.4,16-12.8,24-19.2c5.3-4.2,11.9-4.4,17.3-0.5
		c3.6,2.6,5.4,6.4,6.3,10.8c2.3,10.2,4.7,20.3,7,30.5c0,0.2,0,0.5,0.1,0.6c-0.4,0.1-0.6-0.2-0.7-0.5c-1.5-2.8-4.1-4-6.7-4.9
		c-4.3-1.4-8.8-1.4-13.2-1.1c-10.7,0.8-20.3,5.2-29.8,10.2c-2.4,1.3-4.7,2.5-7,3.9c-0.6,0.3-1.1,0.7-1.8,0.7c-0.8-0.3-0.6-1-0.7-1.7
		c-0.8-5.2-1.5-10.5-2.3-15.7c-0.2-1.6-0.4-3.1-1-4.6C157.7,118.3,157.6,117.7,157.9,117.2z"/>
	<path class="st35" d="M80.1,153.6c-0.3-4.4-0.7-8.8-1-13.3c-0.4-6.8-0.9-13.6-1.3-20.3c-0.7-11.1,8.9-19.1,18.8-15.4
		c8.1,3,16.2,6.4,24.2,9.7c5,2,10,4.1,15,6.1c0.1,0.1,0.3,0,0.5,0c0.2,0.2,0.3,0.4,0.3,0.7c0.2,6.8,1.8,13.4,2.6,20.2
		c0.1,0.9,0.4,1.8,0,2.7c-0.7,0.7-1.4,0.3-2.2,0.1c-7.8-1.9-15.6-3.3-23.5-3.9c-8.3-0.6-16.4,0.5-24.1,3.8c-2.9,1.2-5.7,2.8-7.6,5.7
		c-0.7,1-1.3,2-1.3,3.2C80.6,153.2,80.6,153.6,80.1,153.6z"/>
	<path class="st36" d="M180.7,148.2c0.9,1.9,2.2,3.5,3.3,5.2c7.4,10.9,14.8,21.7,22.2,32.6c0.3,0.5,0.6,1,0.9,1.5
		c-0.7,0.3-1.1-0.1-1.6-0.2c-5.6-2.1-11.3-4.1-16.9-6.2c-1-0.3-1.4-0.4-1.4,1c0.2,6.6,0.2,13.2,0.3,19.7c0,0.4,0,0.7,0,1.1
		c-0.5,0.2-0.6-0.3-0.8-0.5c-11.6-17.1-23.3-34.2-35-51.3c-0.1-0.2-0.3-0.5-0.4-0.7c-0.1-0.2-0.2-0.4-0.3-0.6
		c-0.8-1-0.7-1.4,0.5-1.7c0.9-0.2,1.8-0.3,2.7-0.4c2.2-0.2,4.1-1.1,5.4-3.2c0.3-0.5,0.7-1,1.2-1.1c1.9,1.2,4.1,1.4,6.3,1.9
		c4.1,1,8.2,1.7,12.3,2.4C180,147.7,180.5,147.8,180.7,148.2z"/>
	<path class="st36" d="M150.4,150.1c-1.7,5.5-3.3,10.9-5.1,16.4c-4.5,14.4-9.1,28.9-13.7,43.3c-0.2,0.5-0.3,1-0.6,1.9
		c-0.9-3.2-1.7-5.9-2.5-8.7c-1.1-3.9-2.2-7.9-3.3-11.9c-0.3-1.1-0.6-1.3-1.5-0.6c-4.8,3.7-9.7,7.3-14.5,10.9
		c-0.4,0.3-0.8,0.6-1.3,0.9c-0.4-0.6,0-1,0.2-1.4c4.3-13.9,8.7-27.8,13.1-41.6c0.2-0.6,0.5-1.1,0.3-1.7c0.2-0.9,1.1-1,1.7-1.3
		c5.4-2.5,10.7-5.3,15.8-8.4c0.8-0.5,1.3-1.1,1.4-2.1c0.9-0.1,1.6,0.6,2,1.2c1.3,1.8,3,1.7,4.7,1.7c0.6,0,1.3-0.2,2-0.3
		C150.5,148.3,150.7,148.4,150.4,150.1z"/>
	<path class="st37" d="M140.4,145.8c0.6,1,0.4,1.5-0.6,2.1c-5.7,3.5-11.5,6.6-17.5,9.2c-0.3,0.1-0.6,0.4-0.9,0.5
		c-5.8,2.4-11.8,4.7-18.1,5.2c-5.2,0.5-10.4,0.6-15.6-1c-2.1-0.6-4.1-1.6-5.6-3.3c-1.3-1.4-2.1-3-2-5c0.4-5.2,4-7.4,7.7-9.4
		c3.2-1.8,6.7-2.7,10.2-3.5c9.3-2.1,18.5-1.1,27.9,0.5c4.4,0.8,8.7,1.8,13,2.8C140,144,140.4,144.7,140.4,145.8z"/>
	<path class="st37" d="M180.7,148.2c-6.2-0.9-12.3-2.2-18.4-3.7c-0.6-0.2-1.2-0.3-1.2-1.1c-0.2-1.2,0.1-2.2,1.1-2.8
		c8.1-4.7,16.3-9.2,25.1-12.2c5.8-2,11.8-2.9,17.9-2.8c3.6,0.1,7.2,0.5,10.6,2c2.4,1,4.3,2.4,5.4,5.1c1.1,2.9,0.2,5.4-1.6,7.5
		c-3,3.6-7.1,5.3-11.3,6.7c-8.1,2.7-16.5,2.9-24.9,1.9C182.5,148.5,181.7,148.4,180.7,148.2z"/>
	<path class="st38" d="M162.2,140.6c-0.8,0.8-0.7,1.9-1.1,2.8c-0.4,0.5-0.8,1-1.2,1.5c-1.2,1.8-2.7,2.8-4.8,3.1
		c-0.9,0.1-1.7,0.3-2.5,0.4c-1.7,0.3-1.7,0.3-1,1.9c-0.4-0.2-0.7-1.2-1.2-0.2c0.1-1.5-0.7-1.5-1.7-1.2c-1.1,0.3-2.3,0.3-3.5,0.2
		c-1.2-0.2-2.2-0.6-3.1-1.7c-0.4-0.5-0.9-1.3-1.7-1.5c-0.5-0.6-0.6-1.5-1.5-1.8c0.4-0.6,0.1-1.2,0.1-1.7c-0.8-5.5-1.6-10.9-2.4-16.5
		c-0.3-1.8-0.7-3.6-0.2-5.5c0.7-3.4,2.7-5.4,5.8-5.9c2.8-0.4,5.6-0.9,8.4-1.2c3.2-0.4,5.6,1,7.3,4c0.7,1.8,1.2,3.6,1.4,5.5
		c0.8,5.8,1.6,11.6,2.4,17.4C161.8,140.5,161.9,140.5,162.2,140.6z"/>
</g>
</svg>
