<?xml version="1.0" encoding="utf-8"?>
<!-- Generator: Adobe Illustrator 23.0.3, SVG Export Plug-In . SVG Version: 6.00 Build 0)  -->
<svg version="1.1" id="圖層_1" xmlns="http://www.w3.org/2000/svg" xmlns:xlink="http://www.w3.org/1999/xlink" x="0px" y="0px"
	 viewBox="0 0 300 300" style="enable-background:new 0 0 300 300;" xml:space="preserve">
<style type="text/css">
	.st0{fill:#A52224;}
	.st1{fill:#D93030;}
	.st2{fill:none;stroke:#040000;stroke-width:4.2762;stroke-linecap:round;stroke-linejoin:round;stroke-miterlimit:10;}
	.st3{fill:#E83C3C;}
	.st4{fill:none;stroke:#040000;stroke-width:5.4044;stroke-linecap:round;stroke-linejoin:round;stroke-miterlimit:10;}
	.st5{fill:#6460FF;}
	.st6{fill:#CCCCFF;}
	.st7{fill:url(#SVGID_1_);}
	.st8{fill:#FF353B;}
	.st9{fill:#FFFFFF;}
	.st10{fill:#F08E93;}
	.st11{fill:#DB9451;}
	.st12{fill:#F4B55E;}
	.st13{fill:#EC6519;}
	.st14{fill:#EF7C33;}
	.st15{fill:#CCCCCC;}
	.st16{fill:#E6E6E5;}
	.st17{fill:#B75320;}
	.st18{fill:#B3B3B3;}
	.st19{fill-rule:evenodd;clip-rule:evenodd;fill:#4D4D4D;}
	.st20{fill:#4D4D4D;}
	.st21{fill:#323333;}
	.st22{fill:#9C4623;}
	.st23{fill-rule:evenodd;clip-rule:evenodd;fill:#CBE8F0;}
	.st24{fill-rule:evenodd;clip-rule:evenodd;fill:#E1F0F3;}
	.st25{fill-rule:evenodd;clip-rule:evenodd;fill:#9ECCD5;}
	.st26{fill-rule:evenodd;clip-rule:evenodd;fill:#323333;}
	.st27{fill-rule:evenodd;clip-rule:evenodd;fill:#666666;}
	.st28{fill:none;stroke:#F4B55E;stroke-width:2.051;stroke-linecap:round;stroke-linejoin:round;stroke-miterlimit:10;}
	.st29{fill:#231F20;}
	.st30{fill:#C7B79C;}
	.st31{fill:#D4C9B4;}
	.st32{fill:#51524E;}
	.st33{fill:#E1E1E1;}
	.st34{fill:#43312B;}
	.st35{fill:#C6C6C6;}
	.st36{fill:#AAAAAA;}
	.st37{fill:#939393;}
	.st38{fill:#E0E0E0;}
	.st39{fill:#2B451C;}
	.st40{fill:#395527;}
	.st41{fill:none;stroke:#040000;stroke-width:5.3533;stroke-linecap:round;stroke-linejoin:round;stroke-miterlimit:10;}
	.st42{fill:none;stroke:#040000;stroke-width:4.5;stroke-linecap:round;stroke-linejoin:round;stroke-miterlimit:10;}
	.st43{fill:#040000;}
	.st44{fill:url(#SVGID_2_);}
	.st45{fill:none;stroke:#F4B55E;stroke-width:2.378;stroke-linecap:round;stroke-linejoin:round;stroke-miterlimit:10;}
	.st46{fill:none;stroke:#F4B55E;stroke-width:3.459;stroke-linecap:round;stroke-linejoin:round;stroke-miterlimit:10;}
	.st47{fill:none;stroke:#000000;stroke-width:4.5;stroke-linecap:round;stroke-linejoin:round;stroke-miterlimit:10;}
	.st48{fill:url(#SVGID_3_);}
	.st49{fill:#FF9398;}
	.st50{fill:url(#SVGID_4_);}
	.st51{fill:none;stroke:#000000;stroke-width:4.5;stroke-linecap:round;stroke-miterlimit:10;}
	.st52{fill:url(#SVGID_5_);}
	.st53{fill:none;stroke:#040000;stroke-width:4.0241;stroke-linecap:round;stroke-linejoin:round;stroke-miterlimit:10;}
	.st54{fill:none;stroke:#F4B55E;stroke-width:1.5623;stroke-linecap:round;stroke-linejoin:round;stroke-miterlimit:10;}
	.st55{fill:none;stroke:#040000;stroke-width:3.0579;stroke-linecap:round;stroke-linejoin:round;stroke-miterlimit:10;}
	.st56{fill:none;stroke:#040000;stroke-width:2.7483;stroke-linecap:round;stroke-linejoin:round;stroke-miterlimit:10;}
</style>
<path d="M182.4,125.3l-13.5,10.3c-1.5,1.2-3.6,0.9-5.1-0.5c-4.3-4-10.2-6.2-16.4-5.3c-6.3,0.8-11.4,4.4-14.5,9.3
	c-1.1,1.7-3,2.5-4.8,1.7l-15.7-6.6l-26.8-11.2c-4.8-2-10,2-9.3,7.1c10.9,17.2,13.6,38.2,7.4,57.6c0.7,5.2,6.7,7.7,10.8,4.5
	l23.1-17.6l13.5-10.3c1.5-1.2,3.6-0.9,5.1,0.5c4.3,4,10.2,6.2,16.4,5.3c6.3-0.8,11.4-4.4,14.5-9.3c1.1-1.7,3-2.5,4.8-1.7l15.7,6.6
	l26.8,11.2c4.8,2,10-2,9.3-7.1c-10.9-17.2-13.6-38.2-7.4-57.6c-0.7-5.2-6.7-7.7-10.8-4.5L182.4,125.3z"/>
</svg>
