<?xml version="1.0" encoding="utf-8"?>
<!-- Generator: Adobe Illustrator 23.0.3, SVG Export Plug-In . SVG Version: 6.00 Build 0)  -->
<svg version="1.1" id="圖層_1" xmlns="http://www.w3.org/2000/svg" xmlns:xlink="http://www.w3.org/1999/xlink" x="0px" y="0px"
	 viewBox="0 0 300 300" style="enable-background:new 0 0 300 300;" xml:space="preserve">
<style type="text/css">
	.st0{fill:#A52224;}
	.st1{fill:#D93030;}
	.st2{fill:none;stroke:#040000;stroke-width:4.2762;stroke-linecap:round;stroke-linejoin:round;stroke-miterlimit:10;}
	.st3{fill:#E83C3C;}
	.st4{fill:none;stroke:#040000;stroke-width:5.4044;stroke-linecap:round;stroke-linejoin:round;stroke-miterlimit:10;}
	.st5{fill:#6460FF;}
	.st6{fill:#CCCCFF;}
	.st7{fill:url(#SVGID_1_);}
	.st8{fill:#FF353B;}
	.st9{fill:#FFFFFF;}
	.st10{fill:#F08E93;}
	.st11{fill:#DB9451;}
	.st12{fill:#F4B55E;}
	.st13{fill:#EC6519;}
	.st14{fill:#EF7C33;}
	.st15{fill:#CCCCCC;}
	.st16{fill:#E6E6E5;}
	.st17{fill:#B75320;}
	.st18{fill:#B3B3B3;}
	.st19{fill-rule:evenodd;clip-rule:evenodd;fill:#4D4D4D;}
	.st20{fill:#4D4D4D;}
	.st21{fill:#323333;}
	.st22{fill:#9C4623;}
	.st23{fill-rule:evenodd;clip-rule:evenodd;fill:#CBE8F0;}
	.st24{fill-rule:evenodd;clip-rule:evenodd;fill:#E1F0F3;}
	.st25{fill-rule:evenodd;clip-rule:evenodd;fill:#9ECCD5;}
	.st26{fill-rule:evenodd;clip-rule:evenodd;fill:#323333;}
	.st27{fill-rule:evenodd;clip-rule:evenodd;fill:#666666;}
	.st28{fill:none;stroke:#F4B55E;stroke-width:2.051;stroke-linecap:round;stroke-linejoin:round;stroke-miterlimit:10;}
	.st29{fill:#231F20;}
	.st30{fill:#C7B79C;}
	.st31{fill:#D4C9B4;}
	.st32{fill:#51524E;}
	.st33{fill:#E1E1E1;}
	.st34{fill:#43312B;}
	.st35{fill:#C6C6C6;}
	.st36{fill:#AAAAAA;}
	.st37{fill:#939393;}
	.st38{fill:#E0E0E0;}
	.st39{fill:#2B451C;}
	.st40{fill:#395527;}
	.st41{fill:none;stroke:#040000;stroke-width:5.3533;stroke-linecap:round;stroke-linejoin:round;stroke-miterlimit:10;}
	.st42{fill:none;stroke:#040000;stroke-width:4.5;stroke-linecap:round;stroke-linejoin:round;stroke-miterlimit:10;}
	.st43{fill:#040000;}
	.st44{fill:url(#SVGID_2_);}
	.st45{fill:none;stroke:#F4B55E;stroke-width:2.378;stroke-linecap:round;stroke-linejoin:round;stroke-miterlimit:10;}
	.st46{fill:none;stroke:#F4B55E;stroke-width:3.459;stroke-linecap:round;stroke-linejoin:round;stroke-miterlimit:10;}
	.st47{fill:none;stroke:#000000;stroke-width:4.5;stroke-linecap:round;stroke-linejoin:round;stroke-miterlimit:10;}
	.st48{fill:url(#SVGID_3_);}
	.st49{fill:#FF9398;}
	.st50{fill:url(#SVGID_4_);}
	.st51{fill:none;stroke:#000000;stroke-width:4.5;stroke-linecap:round;stroke-miterlimit:10;}
	.st52{fill:url(#SVGID_5_);}
	.st53{fill:none;stroke:#040000;stroke-width:4.0241;stroke-linecap:round;stroke-linejoin:round;stroke-miterlimit:10;}
	.st54{fill:none;stroke:#F4B55E;stroke-width:1.5623;stroke-linecap:round;stroke-linejoin:round;stroke-miterlimit:10;}
	.st55{fill:none;stroke:#040000;stroke-width:3.0579;stroke-linecap:round;stroke-linejoin:round;stroke-miterlimit:10;}
	.st56{fill:none;stroke:#040000;stroke-width:2.7483;stroke-linecap:round;stroke-linejoin:round;stroke-miterlimit:10;}
</style>
<g>
	<path class="st13" d="M246.3,124.7l-118.1,8l4.7,69.7l118.1-8L246.3,124.7z"/>
	<path class="st14" d="M142.6,149.1l-13.2,0.9l2.4,35L145,184L142.6,149.1z"/>
	<path class="st15" d="M251,194l-118.1,8l1.2,17.3l118.1-8L251,194z"/>
	<path class="st16" d="M146.1,201l-13.2,0.9l1.2,17.3l13.2-0.9L146.1,201z"/>
	<path class="st15" d="M246.3,124.7l-118.1,8l1.2,17.3l118.1-8L246.3,124.7z"/>
	<path class="st17" d="M247.5,142l-13.2,0.9l2.4,35l13.2-0.9L247.5,142z"/>
	<path class="st18" d="M251,194l-13.2,0.9l1.2,17.3l13.2-0.9L251,194z"/>
	<path class="st19" d="M204.3,118.6c-10.7,0.7-24.7,1.7-35.4,2.4l-2.7,8.9c12.9-0.9,29-2,42-2.8L204.3,118.6z"/>
	<path class="st20" d="M153.4,124.9l-15.2,1l0.4,6.1l15.2-1L153.4,124.9z"/>
	<path class="st20" d="M235.5,119.3l-15.2,1l0.4,6.1l15.2-1L235.5,119.3z"/>
	<path class="st21" d="M146.3,125.3l-1.2,0.1l0.4,6.1l1.2-0.1L146.3,125.3z"/>
	<path class="st21" d="M141,125.7l-1.2,0.1l0.4,6.1l1.2-0.1L141,125.7z"/>
	<path class="st21" d="M143.7,125.5l-1.2,0.1l0.4,6.1l1.2-0.1L143.7,125.5z"/>
	<path class="st21" d="M148.9,125.2l-1.2,0.1l0.4,6.1l1.2-0.1L148.9,125.2z"/>
	<path class="st21" d="M151.6,125l-1.2,0.1l0.4,6.1l1.2-0.1L151.6,125z"/>
	<path class="st17" d="M234.3,142.9l-91.7,6.2l0.1,1.7l91.6-6.2l-0.1-1.7L234.3,142.9z"/>
	<path class="st22" d="M247.5,142l-13.2,0.9l0.1,1.7l13.2-0.9L247.5,142z"/>
	<path class="st13" d="M142.6,149.1l-13.2,0.9l0.1,1.7l13.2-0.9L142.6,149.1z"/>
	<path class="st17" d="M236.5,176.1l-91.7,6.2l0.1,1.7l91.6-6.2l-0.1-1.7L236.5,176.1z"/>
	<path class="st22" d="M249.7,175.2l-13.2,0.9l0.1,1.7l13.2-0.9L249.7,175.2z"/>
	<path class="st13" d="M144.9,182.3l-13.2,0.9l0.1,1.7L145,184L144.9,182.3z"/>
	<path class="st20" d="M191.8,193.3c16.5-1.2,28.8-15.6,27.5-32.1s-15.6-28.8-32.1-27.5c-16.5,1.2-28.8,15.6-27.5,32.1
		C161.2,182.3,175.5,194.5,191.8,193.3z"/>
	<path class="st23" d="M212.9,161.9c-0.9-12.8-12-22.6-24.9-21.8c-12.8,0.9-22.6,12-21.8,24.9c0.9,12.8,12,22.6,24.9,21.8
		C204.1,186,213.8,174.7,212.9,161.9z"/>
	<path class="st24" d="M179.7,158.9c5.2-6,8.6-12.6,10.1-18.7c-0.5,0-1.2-0.1-1.9,0c-12.9,0.9-22.6,12-21.8,24.9
		c0.1,1.6,0.3,3.2,0.7,4.6C171.4,167,175.8,163.4,179.7,158.9z"/>
	<path class="st25" d="M197.2,163c-0.3-4.2-3.9-7.4-8.2-7.1c-4.2,0.3-7.4,3.9-7.1,8.2c0.3,4.2,3.9,7.4,8.2,7.1
		C194.3,170.7,197.5,167.2,197.2,163z"/>
	<path class="st26" d="M204.3,118.6l-11.1,0.7l3.9,8.5l10.9-0.7L204.3,118.6z"/>
	<path class="st27" d="M127.1,141.9l1.6-0.1l-0.2-2.2l-2.8,0.2c-0.9,0.1-1.5,0.9-1.5,1.8l0.3,5.1c0.1,0.9,0.8,1.7,1.7,1.6l2.8-0.2
		L129,146l-1.6,0.1c-0.4,0-0.7-0.4-0.7-0.7l-0.2-2.5C126.5,142.3,126.8,141.9,127.1,141.9z"/>
	<path class="st46" d="M15.7,91.4c0,0,74.9,44.3,115.2,52.5"/>
	<path class="st27" d="M248.8,137.9l-1.6,0.1l0.2,2.2l2.8-0.2c0.9-0.1,1.5-0.9,1.5-1.8l-0.3-5.1c-0.1-0.9-0.8-1.7-1.7-1.6l-2.8,0.2
		l0.2,2.2l1.6-0.1c0.4,0,0.7,0.4,0.7,0.7l0.2,2.5C249.6,137.5,249.2,137.9,248.8,137.9z"/>
	<path class="st46" d="M243.2,137.3c0,0,38.6-35.2,38.4-56.5"/>
	<path class="st16" d="M141.4,131.8l-13.2,0.9l1.2,17.3l13.2-0.9L141.4,131.8z"/>
	<path class="st18" d="M246.3,124.7l-13.2,0.9l1.2,17.3l13.2-0.9L246.3,124.7z"/>
</g>
</svg>
