<?xml version="1.0" encoding="utf-8"?>
<!-- Generator: Adobe Illustrator 23.0.3, SVG Export Plug-In . SVG Version: 6.00 Build 0)  -->
<svg version="1.1" id="圖層_1" xmlns="http://www.w3.org/2000/svg" xmlns:xlink="http://www.w3.org/1999/xlink" x="0px" y="0px"
	 viewBox="0 0 300 300" style="enable-background:new 0 0 300 300;" xml:space="preserve">
<style type="text/css">
	.st0{fill:#A52224;}
	.st1{fill:#D93030;}
	.st2{fill:none;stroke:#040000;stroke-width:4.2762;stroke-linecap:round;stroke-linejoin:round;stroke-miterlimit:10;}
	.st3{fill:#E83C3C;}
	.st4{fill:none;stroke:#040000;stroke-width:5.4044;stroke-linecap:round;stroke-linejoin:round;stroke-miterlimit:10;}
	.st5{fill:#6460FF;}
	.st6{fill:#CCCCFF;}
	.st7{fill:url(#SVGID_1_);}
	.st8{fill:#FF353B;}
	.st9{fill:#FFFFFF;}
	.st10{fill:#F08E93;}
	.st11{fill:#DB9451;}
	.st12{fill:#F4B55E;}
	.st13{fill:#EC6519;}
	.st14{fill:#EF7C33;}
	.st15{fill:#CCCCCC;}
	.st16{fill:#E6E6E5;}
	.st17{fill:#B75320;}
	.st18{fill:#B3B3B3;}
	.st19{fill-rule:evenodd;clip-rule:evenodd;fill:#4D4D4D;}
	.st20{fill:#4D4D4D;}
	.st21{fill:#323333;}
	.st22{fill:#9C4623;}
	.st23{fill-rule:evenodd;clip-rule:evenodd;fill:#CBE8F0;}
	.st24{fill-rule:evenodd;clip-rule:evenodd;fill:#E1F0F3;}
	.st25{fill-rule:evenodd;clip-rule:evenodd;fill:#9ECCD5;}
	.st26{fill-rule:evenodd;clip-rule:evenodd;fill:#323333;}
	.st27{fill-rule:evenodd;clip-rule:evenodd;fill:#666666;}
	.st28{fill:none;stroke:#F4B55E;stroke-width:2.051;stroke-linecap:round;stroke-linejoin:round;stroke-miterlimit:10;}
	.st29{fill:#231F20;}
	.st30{fill:#C7B79C;}
	.st31{fill:#D4C9B4;}
	.st32{fill:#51524E;}
	.st33{fill:#E1E1E1;}
	.st34{fill:#43312B;}
	.st35{fill:#C6C6C6;}
	.st36{fill:#AAAAAA;}
	.st37{fill:#939393;}
	.st38{fill:#E0E0E0;}
	.st39{fill:#2B451C;}
	.st40{fill:#395527;}
	.st41{fill:none;stroke:#040000;stroke-width:5.3533;stroke-linecap:round;stroke-linejoin:round;stroke-miterlimit:10;}
	.st42{fill:none;stroke:#040000;stroke-width:4.5;stroke-linecap:round;stroke-linejoin:round;stroke-miterlimit:10;}
	.st43{fill:#040000;}
	.st44{fill:url(#SVGID_2_);}
	.st45{fill:none;stroke:#F4B55E;stroke-width:2.378;stroke-linecap:round;stroke-linejoin:round;stroke-miterlimit:10;}
	.st46{fill:none;stroke:#F4B55E;stroke-width:3.459;stroke-linecap:round;stroke-linejoin:round;stroke-miterlimit:10;}
	.st47{fill:none;stroke:#000000;stroke-width:4.5;stroke-linecap:round;stroke-linejoin:round;stroke-miterlimit:10;}
	.st48{fill:url(#SVGID_3_);}
	.st49{fill:#FF9398;}
	.st50{fill:url(#SVGID_4_);}
	.st51{fill:none;stroke:#000000;stroke-width:4.5;stroke-linecap:round;stroke-miterlimit:10;}
	.st52{fill:url(#SVGID_5_);}
	.st53{fill:none;stroke:#040000;stroke-width:4.0241;stroke-linecap:round;stroke-linejoin:round;stroke-miterlimit:10;}
	.st54{fill:none;stroke:#F4B55E;stroke-width:1.5623;stroke-linecap:round;stroke-linejoin:round;stroke-miterlimit:10;}
	.st55{fill:none;stroke:#040000;stroke-width:3.0579;stroke-linecap:round;stroke-linejoin:round;stroke-miterlimit:10;}
	.st56{fill:none;stroke:#040000;stroke-width:2.7483;stroke-linecap:round;stroke-linejoin:round;stroke-miterlimit:10;}
</style>
<g>
	<path class="st30" d="M86.2,151.1c-0.6-1.2,0.4-2.3,0.7-3.4c1.7-5.6,3.1-11.2,5.2-16.7c4-10.6,11.3-19.3,21.3-26.1
		c8.3-5.6,17.7-8.6,28.1-8.7c11.5-0.1,22,3.1,31.6,8.5c9.1,5.2,16.4,11.9,22.4,19.9c2,2.6,4.2,5.2,6.2,7.8c-1.2,1.4-3.1,2-4.7,3
		c-7.1,4.6-14.4,8.8-22.2,12.1c-9.3,4-19.1,6.8-29.4,8.3c-16.6,2.4-32.9,1.3-49-2.5c-2.6-0.6-5.1-1.7-7.7-2.4
		C87.9,150.6,87.1,150.6,86.2,151.1z"/>
	<path class="st31" d="M205.9,141.3c8,4.3,15.9,8.5,23.8,12.8c1,0.5,1.9,1.2,2.9,1.8c-0.2,0.5-0.6,0.9-1.1,1.3
		c-16.2,12.5-34.1,22.1-54.9,27.1c-8,1.9-16,3.4-24.2,4c-5.4,0.4-10.8,1-16.2,1.2c-18.6,0.9-36.9-0.3-54.8-4.6
		c-4.4-1.1-8.7-2.4-12.7-4.3c1.2-2.4,3.3-4.3,5-6.4c4.9-5.8,9.1-12,12.2-18.7c0.9,0.5,0.8,1.3,0.6,2.1c-0.5,2.4,0.7,4,2.9,5.2
		c5.5,3.1,11.4,5.2,17.7,6.4c8,1.6,16.1,1.9,24.3,1.7c12.6-0.2,24.9-2.2,37.1-5.2c9.7-2.3,18.9-5.7,26.9-11.3
		c4.5-3.2,8.1-6.9,9.6-11.9C205.3,141.9,205.5,141.5,205.9,141.3z"/>
	<path class="st30" d="M68.7,180.4c0.8-0.1,1.4,0.1,2.1,0.4c12.2,4.7,25.2,6.7,38.5,7.7c7,0.6,14.1,0.6,21.2,0.5
		c9.4-0.1,18.8-0.8,28.1-2c16.3-2.1,31.9-6.4,46.4-13.7c9.1-4.6,17.4-10,25.3-16c0.7-0.5,1.5-1,2.3-1.5c0.5,0.3,1,0.6,1.4,0.9
		c1.7,1.2,1.7,2.4,0.1,3.8c-3,2.7-5.9,5.5-8.8,8.3c-11.4,11.1-24.6,20.2-40.2,26.2c-8.2,3.1-16.7,5.4-25.5,6.6
		c-7.4,1-14.7,1.7-22.1,2c-18.9,0.7-37.3-1.5-54.9-7.6c-6.2-2.2-11.6-5.5-17.4-8.3c-0.9-0.4-0.7-0.8-0.4-1.4
		C65.9,184.2,67.1,182.2,68.7,180.4z"/>
	<path class="st32" d="M205.9,141.3c-1,5.9-5.2,9.9-10.1,13.4c-6.8,4.9-14.6,8-22.9,10.2c-19.6,5.4-39.5,8-59.8,5.6
		c-9-1.1-17.5-3.5-25.1-8.1c-1.7-1-2.4-2.2-2.2-3.9c0.1-1,0-2.1,0-3.2c0.1-1.4,0.2-2.8,0.2-4.2c0.2-1.2,0.7-1.5,2-1
		c8.8,3.2,18,5,27.5,5.9c9.7,0.9,19.3,0.7,29-0.6c19.6-2.6,36.7-10.3,52.5-20.6c1.5-0.9,2.9-1.9,4.7-2.4
		C203.2,135.4,204.6,138.4,205.9,141.3z"/>
	<path class="st33" d="M149.6,145.8c0.2,3.3-1.7,5.3-5.6,5.6c-2.9,0.2-5.4-1.9-5.6-4.8c-0.2-2.8,2.5-5.4,5.8-5.6
		C146.9,140.8,149.3,143,149.6,145.8z"/>
	<path class="st33" d="M120.5,148.6c-0.6-3.5,2.1-4.8,5.7-5.5c2.6-0.5,5.3,2.1,5.4,4.9c0.2,3-1.9,5.1-5.3,5.3
		C122.9,153.5,120.7,151.8,120.5,148.6z"/>
	<path class="st34" d="M148,145.8c0.2,2.1-1.3,3.7-3.6,3.9c-2.2,0.2-4-1.3-4.2-3.3c-0.1-2,1.6-3.8,3.9-4
		C146,142.2,147.8,143.8,148,145.8z"/>
	<path class="st34" d="M129.9,147.8c0.2,2.1-1.3,3.8-3.5,4c-2.2,0.2-4.1-1.3-4.2-3.3c-0.1-1.9,1.6-3.8,3.9-4.1
		C128,144.3,129.7,145.7,129.9,147.8z"/>
</g>
</svg>
