<svg width="452" height="313" viewBox="0 0 452 313" fill="none" xmlns="http://www.w3.org/2000/svg">
<path fill-rule="evenodd" clip-rule="evenodd" d="M400.51 137.64C359.93 113.46 324.5 81.55 297.11 43.06C296.561 42.2962 296.015 41.5284 295.469 40.7592C295.15 40.3098 294.831 39.8599 294.51 39.41C268.2 2.44 218.77 -10.8 178.2 9.53C172.42 12.42 166.76 16.02 161.37 20.46C124.246 51.0253 125.519 100.045 126.23 127.367L126.23 127.38C126.255 128.35 126.288 129.331 126.329 130.323C120.328 144.003 114.532 157.134 111.776 163.247C110.948 165.305 108.464 166.952 105.98 166.952H85.6949C79.4852 166.952 74.5173 162.012 74.5173 155.837V134.02C81.5551 132.373 86.5229 126.199 86.5229 118.377V112.203H91.9047V115.084C91.9047 122.082 97.7005 127.845 104.738 127.845C111.776 127.845 117.572 122.082 117.572 115.084V92.4437C117.572 85.4458 111.776 79.6827 104.738 79.6827C97.7005 79.6827 91.9047 85.4458 91.9047 92.4437V95.3253H86.5229C86.5229 86.6807 79.0712 79.6827 70.3775 79.6827H46.7803C38.0866 79.6827 30.6349 86.6807 30.6349 95.3253H25.6671V92.4437C25.6671 85.4458 19.8713 79.6827 12.8335 79.6827C5.7958 79.6827 0 85.4458 0 92.4437V115.084C0 122.082 5.7958 127.845 12.8335 127.845C19.8713 127.845 25.6671 122.082 25.6671 115.084V112.203H30.6349V126.61V134.843V174.361C30.6349 190.416 43.8824 204 60.4418 204H108.878H141.29C156.548 245.324 184.701 285.704 231.69 303.51C329.62 340.62 454.52 258.92 451.84 199.44C450.71 174.34 426.86 153.35 400.51 137.64Z" fill="url(#paint0_linear)"/>
<path d="M174.5 71C177.538 71 180 67.6422 180 63.5C180 59.3579 177.538 56 174.5 56C171.462 56 169 59.3579 169 63.5C169 67.6422 171.462 71 174.5 71Z" fill="white"/>
<path d="M197.5 71C200.538 71 203 67.6422 203 63.5C203 59.3579 200.538 56 197.5 56C194.462 56 192 59.3579 192 63.5C192 67.6422 194.462 71 197.5 71Z" fill="white"/>
<defs>
<linearGradient id="paint0_linear" x1="200.823" y1="287.398" x2="340.328" y2="58.4067" gradientUnits="userSpaceOnUse">
<stop stop-color="#2E1ED3"/>
<stop offset="1" stop-color="#2484C6"/>
</linearGradient>
</defs>
</svg>
