<?xml version="1.0" encoding="utf-8"?>
<!-- Generator: Adobe Illustrator 23.0.3, SVG Export Plug-In . SVG Version: 6.00 Build 0)  -->
<svg version="1.1" id="圖層_1" xmlns="http://www.w3.org/2000/svg" xmlns:xlink="http://www.w3.org/1999/xlink" x="0px" y="0px"
	 viewBox="0 0 300 350" style="enable-background:new 0 0 300 350;" xml:space="preserve">
<style type="text/css">
	.st0{fill:#A52224;}
	.st1{fill:#D93030;}
	.st2{fill:none;stroke:#18191F;stroke-width:4.2762;stroke-linecap:round;stroke-linejoin:round;stroke-miterlimit:10;}
	.st3{fill:#E83C3C;}
	.st4{fill:none;stroke:#18191F;stroke-width:5.4044;stroke-linecap:round;stroke-linejoin:round;stroke-miterlimit:10;}
	.st5{fill:#F08E93;}
	.st6{fill:#18191F;}
	.st7{fill:#FF353B;}
	.st8{fill:#FFFFFF;}
	.st9{fill:#23B5F3;}
	.st10{fill:#CCCCFF;}
	.st11{fill:#6460FF;}
	.st12{fill:#DB9451;}
	.st13{fill:#F4B55E;}
	.st14{fill:#EC6519;}
	.st15{fill:#EF7C33;}
	.st16{fill:#CCCCCC;}
	.st17{fill:#E6E6E5;}
	.st18{fill:#B75320;}
	.st19{fill:#B3B3B3;}
	.st20{fill-rule:evenodd;clip-rule:evenodd;fill:#4D4D4D;}
	.st21{fill:#4D4D4D;}
	.st22{fill:#323333;}
	.st23{fill:#9C4623;}
	.st24{fill-rule:evenodd;clip-rule:evenodd;fill:#CBE8F0;}
	.st25{fill-rule:evenodd;clip-rule:evenodd;fill:#E1F0F3;}
	.st26{fill-rule:evenodd;clip-rule:evenodd;fill:#9ECCD5;}
	.st27{fill-rule:evenodd;clip-rule:evenodd;fill:#323333;}
	.st28{fill-rule:evenodd;clip-rule:evenodd;fill:#666666;}
	.st29{fill:none;stroke:#F4B55E;stroke-width:2.051;stroke-linecap:round;stroke-linejoin:round;stroke-miterlimit:10;}
	.st30{fill:#C7B79C;}
	.st31{fill:#D4C9B4;}
	.st32{fill:#51524E;}
	.st33{fill:#E1E1E1;}
	.st34{fill:#43312B;}
	.st35{fill:#C6C6C6;}
	.st36{fill:#AAAAAA;}
	.st37{fill:#939393;}
	.st38{fill:#E0E0E0;}
	.st39{fill:#2B451C;}
	.st40{fill:#395527;}
	.st41{fill:none;stroke:#18191F;stroke-width:5.3533;stroke-linecap:round;stroke-linejoin:round;stroke-miterlimit:10;}
	.st42{fill:none;stroke:#18191F;stroke-width:4.5;stroke-linecap:round;stroke-linejoin:round;stroke-miterlimit:10;}
	.st43{fill:none;stroke:#F4B55E;stroke-width:2.378;stroke-linecap:round;stroke-linejoin:round;stroke-miterlimit:10;}
	.st44{fill:none;stroke:#F4B55E;stroke-width:3.459;stroke-linecap:round;stroke-linejoin:round;stroke-miterlimit:10;}
	.st45{fill:#FF9398;}
	.st46{fill:none;stroke:#18191F;stroke-width:4.5;stroke-linecap:round;stroke-miterlimit:10;}
	.st47{fill:none;stroke:#18191F;stroke-width:4.0241;stroke-linecap:round;stroke-linejoin:round;stroke-miterlimit:10;}
	.st48{fill:none;stroke:#F4B55E;stroke-width:1.5623;stroke-linecap:round;stroke-linejoin:round;stroke-miterlimit:10;}
	.st49{fill:none;stroke:#18191F;stroke-width:3.0579;stroke-linecap:round;stroke-linejoin:round;stroke-miterlimit:10;}
	.st50{fill:none;stroke:#18191F;stroke-width:2.7483;stroke-linecap:round;stroke-linejoin:round;stroke-miterlimit:10;}
</style>
<path class="st30" d="M157.8,16.8c0-0.5,0.5-0.7,0.8-1c1.5-1.6,3-3.3,4.7-4.8c3.2-2.9,7.2-4.6,11.8-5.2c3.8-0.5,7.5,0.2,11.1,2
	c3.9,2,6.9,4.9,9.2,8.4c2.2,3.3,3.5,6.9,4.1,10.6c0.2,1.3,0.5,2.5,0.8,3.7c-0.7,0.3-1.4,0.1-2.1,0.2c-3.2,0.3-6.4,0.5-9.7,0.2
	c-3.9-0.3-7.7-1-11.4-2.3c-6.1-2.1-11.4-5.3-16.2-9.4c-0.8-0.7-1.4-1.5-2.2-2.2C158.5,16.9,158.2,16.8,157.8,16.8z"/>
<path class="st31" d="M200.2,34.3c2,2.8,3.9,5.7,5.9,8.5c0.2,0.4,0.5,0.7,0.7,1.1c-0.2,0.2-0.4,0.2-0.6,0.2
	c-7.7,1.4-15.4,1.6-23.4-0.4c-3-0.8-6-1.6-8.9-2.9c-1.9-0.8-3.8-1.5-5.7-2.4c-6.5-2.9-12.5-6.5-17.8-11.1c-1.3-1.1-2.5-2.3-3.6-3.7
	c0.8-0.6,1.9-0.9,2.8-1.3c2.7-1.1,5.2-2.5,7.4-4.2c0.2,0.3,0,0.6-0.2,0.8c-0.6,0.7-0.5,1.5,0.1,2.3c1.3,2,3,3.7,4.9,5.3
	c2.4,1.9,5.1,3.5,8,4.8c4.3,2.1,8.9,3.6,13.5,4.7c3.7,0.9,7.4,1.4,11.1,0.8c2.1-0.3,4-0.9,5.4-2.4C199.9,34.4,200,34.3,200.2,34.3z"
	/>
<path class="st30" d="M146.8,23.7c0.3,0.1,0.5,0.3,0.7,0.5c3.3,3.7,7.4,6.7,11.7,9.3c2.3,1.4,4.7,2.7,7.1,3.9c3.2,1.6,6.5,3,9.9,4.2
	c5.9,2.1,11.9,3.4,18.1,3.4c3.9,0,7.6-0.4,11.4-1c0.3-0.1,0.7-0.1,1-0.1c0.1,0.2,0.2,0.4,0.3,0.6c0.4,0.7,0.2,1.1-0.6,1.3
	c-1.5,0.4-3,0.9-4.4,1.3c-5.8,1.8-11.9,2.6-18.2,1.9c-3.3-0.4-6.6-1.1-9.8-2.2c-2.7-0.9-5.3-2-7.8-3.2c-6.5-3.1-12.4-7-17.3-12.2
	c-1.7-1.8-3-3.9-4.5-5.8c-0.2-0.3-0.1-0.4,0.1-0.6C145.2,24.5,146,24,146.8,23.7z"/>
<path class="st32" d="M200.2,34.3c-1.4,1.8-3.5,2.5-5.8,2.8c-3.1,0.5-6.3,0.2-9.5-0.5c-7.6-1.6-14.8-4.2-21.3-8.5
	c-2.9-1.9-5.3-4.3-7.1-7.1c-0.4-0.6-0.4-1.2-0.1-1.7c0.2-0.3,0.4-0.7,0.6-1.1c0.3-0.5,0.5-0.9,0.8-1.4c0.3-0.4,0.5-0.4,0.9,0
	c2.4,2.6,5.2,4.8,8.3,6.8c3.1,2,6.4,3.6,10,4.9c7.1,2.5,14.2,2.9,21.4,2.1c0.7-0.1,1.3-0.1,2,0C200.3,31.8,200.3,33.1,200.2,34.3z"
	/>
<path class="st33" d="M180.3,26c-0.5,1.2-1.5,1.5-2.9,0.9c-1-0.4-1.5-1.6-1.1-2.6c0.4-1,1.8-1.4,3-0.9C180.3,23.8,180.7,25,180.3,26
	z"/>
<path class="st33" d="M169.9,21.9c0.4-1.3,1.6-1.3,2.9-0.9c1,0.3,1.4,1.6,1,2.6c-0.5,1.1-1.5,1.4-2.7,0.9
	C169.9,24,169.5,23,169.9,21.9z"/>
<path class="st34" d="M179.7,25.7c-0.3,0.7-1.1,1-1.9,0.7c-0.8-0.3-1.1-1.1-0.8-1.9c0.3-0.7,1.2-1,2-0.7
	C179.7,24.2,180,25,179.7,25.7z"/>
<path class="st34" d="M173.3,23.3c-0.3,0.7-1.1,1.1-1.9,0.7c-0.8-0.3-1.2-1.1-0.9-1.9c0.3-0.7,1.2-1,2-0.7
	C173.2,21.7,173.6,22.5,173.3,23.3z"/>
</svg>
