<svg width="27" height="30" viewBox="0 0 27 30" fill="none" xmlns="http://www.w3.org/2000/svg">
<path fill-rule="evenodd" clip-rule="evenodd" d="M20.768 3.8378V3.34702C20.5227 1.62928 19.173 0.156935 17.3326 0.0342391C15.4921 -0.211152 14.0198 0.893108 13.2836 2.36545C12.9155 3.22432 12.1793 3.8378 11.1977 3.9605C4.69483 4.94206 -0.458416 10.8314 0.0323697 17.8251C0.523155 24.2053 5.6764 29.4812 12.1793 29.9719C19.7865 30.4627 26.1667 24.4506 26.1667 16.9662C26.1667 13.408 24.6943 10.218 22.4858 7.88675C21.3815 6.78249 20.768 5.31015 20.768 3.8378ZM10.3386 15.0033C10.9485 15.0033 11.4429 14.3441 11.4429 13.5309C11.4429 12.7178 10.9485 12.0586 10.3386 12.0586C9.72877 12.0586 9.23438 12.7178 9.23438 13.5309C9.23438 14.3441 9.72877 15.0033 10.3386 15.0033ZM16.9641 13.5309C16.9641 14.3441 16.4698 15.0033 15.86 15.0033C15.2502 15.0033 14.7559 14.3441 14.7559 13.5309C14.7559 12.7178 15.2502 12.0586 15.86 12.0586C16.4698 12.0586 16.9641 12.7178 16.9641 13.5309Z" fill="#6460FF"/>
</svg>
