<svg width="14" height="14" viewBox="0 0 14 14" fill="none" xmlns="http://www.w3.org/2000/svg">
<path fill-rule="evenodd" clip-rule="evenodd" d="M10.3085 12.7833C10.9919 13.4668 12.0999 13.4668 12.7833 12.7833C13.4668 12.0999 13.4668 10.9919 12.7833 10.3085L9.36135 6.88647L13.0104 3.23739C13.6938 2.55398 13.6938 1.44594 13.0104 0.76252C12.327 0.0791027 11.219 0.0791027 10.5356 0.76252L6.88647 4.4116L3.23739 0.76252C2.55398 0.0791027 1.44594 0.0791027 0.76252 0.76252C0.0791027 1.44594 0.0791027 2.55398 0.76252 3.23739L4.4116 6.88647L0.989614 10.3085C0.306196 10.9919 0.306196 12.0999 0.989614 12.7833C1.67303 13.4668 2.78107 13.4668 3.46449 12.7833L6.88647 9.36135L10.3085 12.7833Z" fill="#6460FF"/>
</svg>
