<svg width="16" height="27" viewBox="0 0 16 27" fill="none" xmlns="http://www.w3.org/2000/svg">
<path fill-rule="evenodd" clip-rule="evenodd" d="M7.07137 4.02302C7.07137 4.54171 7.49554 4.96609 8.01398 4.96609C8.53241 4.96609 8.95658 4.54171 8.95658 4.02302V1.44845C8.95658 0.929754 8.53241 0.505371 8.01398 0.505371C7.49554 0.505371 7.07137 0.929754 7.07137 1.44845V4.02302ZM4.27222 5.66404C4.02715 5.66404 3.79148 5.56972 3.60296 5.39054L2.20793 3.99477C1.84032 3.62697 1.84032 3.03282 2.20793 2.66502C2.57554 2.29722 3.16938 2.29722 3.537 2.66502L4.93203 4.06079C5.29964 4.42859 5.29964 5.02274 4.93203 5.39054C4.75293 5.56972 4.50787 5.66404 4.27222 5.66404ZM11.0966 5.39054C11.2852 5.56972 11.5208 5.66404 11.7659 5.66404C12.0015 5.66404 12.2466 5.56972 12.4257 5.39054L13.8207 3.99477C14.1883 3.62697 14.1883 3.03282 13.8207 2.66502C13.4531 2.29722 12.8593 2.29722 12.4917 2.66502L11.0966 4.06079C10.729 4.42859 10.729 5.02274 11.0966 5.39054ZM6.1949 11.7375C6.73629 11.7375 7.17518 11.1632 7.17518 10.4549C7.17518 9.74653 6.73629 9.17231 6.1949 9.17231C5.65351 9.17231 5.21464 9.74653 5.21464 10.4549C5.21464 11.1632 5.65351 11.7375 6.1949 11.7375ZM9.83343 11.7375C10.3748 11.7375 10.8137 11.1632 10.8137 10.4549C10.8137 9.74653 10.3748 9.17231 9.83343 9.17231C9.29204 9.17231 8.85314 9.74653 8.85314 10.4549C8.85314 11.1632 9.29204 11.7375 9.83343 11.7375ZM6.88575 21.2622C6.69182 20.2185 6.06236 19.3039 5.13924 18.7916C3.07497 17.6505 1.88731 15.3777 2.11353 13.02C2.36803 10.2945 4.62083 8.01227 7.33549 7.71049C7.56171 7.6822 7.79734 7.67279 8.02356 7.67279C9.48457 7.67279 10.8702 8.19146 11.9824 9.18168C13.2455 10.3039 13.9619 11.9166 13.9619 13.6047C13.9619 15.7361 12.8119 17.7165 10.9456 18.7728C10.0069 19.3006 9.36196 20.218 9.16305 21.2622H6.88575ZM6.94902 23.1484V23.5164C6.94902 24.1106 7.42973 24.5821 8.02356 24.5821C8.61739 24.5821 9.09813 24.1011 9.09813 23.5164V23.1484H6.94902ZM10.9645 22.3393V23.5353C10.9739 25.1479 9.64483 26.4777 8.01415 26.4777C6.38347 26.4777 5.05441 25.148 5.05441 23.5259V21.9604C5.05441 21.3191 4.73393 20.7438 4.20608 20.4514C1.49143 18.9425 -0.0732743 15.953 0.228354 12.8503C0.577113 9.19113 3.47086 6.24874 7.11868 5.84322C9.33377 5.59802 11.5677 6.30532 13.2267 7.78595C14.8856 9.26658 15.8282 11.3979 15.8282 13.6141C15.8282 16.4339 14.3012 19.0368 11.8505 20.4326C11.3038 20.7438 10.9645 21.3285 10.9645 21.9698V22.0714C10.9708 22.1151 10.974 22.1599 10.974 22.2053C10.974 22.2508 10.9708 22.2955 10.9645 22.3393Z" fill="#6460FF"/>
</svg>
