<svg width="28" height="28" viewBox="0 0 28 28" fill="none" xmlns="http://www.w3.org/2000/svg">
<path fill-rule="evenodd" clip-rule="evenodd" d="M3.5 12.6667C3.5 7.60406 7.60406 3.5 12.6667 3.5C17.7293 3.5 21.8333 7.60406 21.8333 12.6667C21.8333 15.1327 20.8595 17.3713 19.2755 19.0189C19.2284 19.0559 19.183 19.0961 19.1395 19.1395C19.0961 19.183 19.0559 19.2284 19.0189 19.2755C17.3713 20.8595 15.1327 21.8333 12.6667 21.8333C7.60406 21.8333 3.5 17.7293 3.5 12.6667ZM20.1439 22.2652C18.081 23.8745 15.4858 24.8333 12.6667 24.8333C5.9472 24.8333 0.5 19.3861 0.5 12.6667C0.5 5.9472 5.9472 0.5 12.6667 0.5C19.3861 0.5 24.8333 5.9472 24.8333 12.6667C24.8333 15.4858 23.8745 18.081 22.2652 20.1439L27.0609 24.9395C27.6466 25.5253 27.6466 26.4751 27.0609 27.0609C26.4751 27.6466 25.5253 27.6466 24.9395 27.0609L20.1439 22.2652Z" fill="#6460FF"/>
</svg>
