<svg width="220" height="34" viewBox="0 0 220 34" fill="none" xmlns="http://www.w3.org/2000/svg">
<path d="M16.2391 0.0407715H2.92304C1.29913 0.0407715 0 1.33858 0 2.96084V30.9719C0 32.5942 1.29913 33.892 2.92304 33.892H8.55259C10.1765 33.892 11.4756 32.5942 11.4756 30.9719V26.3214C11.4756 25.8888 11.8004 25.5644 12.2335 25.5644H16.2391C25.6578 25.5644 31.6121 20.5894 31.6121 12.8026C31.7204 5.01571 25.766 0.0407715 16.2391 0.0407715ZM15.5895 16.8042H12.2335C11.8004 16.8042 11.3674 16.4797 11.3674 15.9389V9.6662C11.3674 9.23359 11.6922 8.80099 12.2335 8.80099H15.5895C18.7291 8.80099 20.2447 10.3151 20.2447 12.8026C20.2447 15.29 18.7291 16.8042 15.5895 16.8042Z" fill="white"/>
<path d="M122.335 0.0407715H118.004C117.03 0.0407715 116.055 0.581526 115.514 1.44673L111.184 8.69284C110.426 9.99065 108.477 9.99065 107.611 8.69284L103.281 1.44673C102.848 0.581526 101.982 0.0407715 100.899 0.0407715H95.5942C93.429 0.0407715 92.0216 2.52824 93.1042 4.47496L102.848 20.8057C103.064 21.2383 103.281 21.7791 103.281 22.3198V31.0801C103.281 32.7023 104.58 34.0001 106.204 34.0001H111.833C113.457 34.0001 114.756 32.7023 114.756 31.0801V22.5361C114.756 21.9954 114.865 21.4546 115.189 21.022L124.933 4.58311C126.015 2.52824 124.608 0.0407715 122.335 0.0407715Z" fill="white"/>
<path d="M183.502 0.0407715H176.898C175.599 0.0407715 174.516 1.12228 174.516 2.42009V31.4045C174.516 32.7023 175.599 33.7838 176.898 33.7838H183.502C184.801 33.7838 185.884 32.7023 185.884 31.4045V2.42009C185.992 1.12228 184.909 0.0407715 183.502 0.0407715Z" fill="white"/>
<path d="M217.712 0.0407715H191.297C189.998 0.0407715 188.915 1.12228 188.915 2.42009V6.52982C188.915 7.82763 189.998 8.90914 191.297 8.90914H196.385C197.684 8.90914 198.767 9.99065 198.767 11.2885V31.4045C198.767 32.7023 199.849 33.7838 201.148 33.7838H207.752C209.052 33.7838 210.134 32.7023 210.134 31.4045V11.2885C210.134 9.99065 211.217 8.90914 212.516 8.90914H217.604C218.903 8.90914 219.986 7.82763 219.986 6.52982V2.42009C220.094 1.12228 219.011 0.0407715 217.712 0.0407715Z" fill="white"/>
<path d="M96.8933 29.7821L86.1755 5.1237C84.4433 1.23027 79.8963 -1.04089 75.4576 0.473217C73.1842 1.23027 71.3437 3.06884 70.3694 5.34C68.4207 9.88234 63.982 20.0485 62.5746 23.1849C62.3581 23.7256 61.7085 24.1582 61.059 24.1582H55.7542C54.1303 24.1582 52.8312 22.8604 52.8312 21.2382V15.5062C54.6716 15.0736 55.9707 13.4513 55.9707 11.3965V9.77419H57.3781V10.5312C57.3781 12.3698 58.8938 13.8839 60.7342 13.8839C62.5746 13.8839 64.0903 12.3698 64.0903 10.5312V4.58295C64.0903 2.74438 62.5746 1.23027 60.7342 1.23027C58.8938 1.23027 57.3781 2.74438 57.3781 4.58295V5.34H55.9707C55.9707 3.06884 54.022 1.23027 51.7486 1.23027H45.5777C43.3042 1.23027 41.3555 3.06884 41.3555 5.34H40.0564V4.58295C40.0564 2.74438 38.5408 1.23027 36.7003 1.23027C34.8599 1.23027 33.3442 2.74438 33.3442 4.58295V10.5312C33.3442 12.3698 34.8599 13.8839 36.7003 13.8839C38.5408 13.8839 40.0564 12.3698 40.0564 10.5312V9.77419H41.3555V13.5595V15.7225V26.105C41.3555 30.3228 44.8199 33.8918 49.1503 33.8918H61.8168H92.6711H94.1867C96.352 33.8918 97.7594 31.7288 96.8933 29.7821ZM75.3494 12.8024C74.6998 12.8024 74.2668 12.1535 74.2668 11.2883C74.2668 10.4231 74.8081 9.77419 75.3494 9.77419C75.999 9.77419 76.432 10.4231 76.432 11.2883C76.432 12.1535 75.999 12.8024 75.3494 12.8024ZM81.1955 12.8024C80.5459 12.8024 80.1129 12.1535 80.1129 11.2883C80.1129 10.4231 80.5459 9.77419 81.1955 9.77419C81.845 9.77419 82.2781 10.4231 82.2781 11.2883C82.2781 12.1535 81.845 12.8024 81.1955 12.8024Z" fill="white"/>
<path d="M168.454 0.0407715H145.719C144.42 0.0407715 143.337 1.12228 143.337 2.42009V31.4045C143.337 32.7023 144.42 33.7838 145.719 33.7838H152.323C153.622 33.7838 154.705 32.7023 154.705 31.4045V25.3481C154.705 24.0503 155.787 22.9687 157.086 22.9687H166.397C167.696 22.9687 168.778 21.8872 168.778 20.5894V16.8041C168.778 15.5063 167.696 14.4248 166.397 14.4248H165.964H156.762C155.571 14.4248 154.705 13.4515 154.705 12.37V10.6396C154.705 9.44989 155.679 8.58469 156.762 8.58469H165.964H168.345C169.645 8.58469 170.727 7.50318 170.727 6.20537V2.42009C170.944 1.12228 169.861 0.0407715 168.454 0.0407715Z" fill="white"/>
</svg>
