<?xml version="1.0" encoding="utf-8"?>
<!-- Generator: Adobe Illustrator 23.0.3, SVG Export Plug-In . SVG Version: 6.00 Build 0)  -->
<svg version="1.1" id="圖層_1" xmlns="http://www.w3.org/2000/svg" xmlns:xlink="http://www.w3.org/1999/xlink" x="0px" y="0px"
	 viewBox="0 0 300 350" style="enable-background:new 0 0 300 350;" xml:space="preserve">
<style type="text/css">
	.st0{fill:#A52224;}
	.st1{fill:#D93030;}
	.st2{fill:none;stroke:#18191F;stroke-width:4.2762;stroke-linecap:round;stroke-linejoin:round;stroke-miterlimit:10;}
	.st3{fill:#E83C3C;}
	.st4{fill:none;stroke:#18191F;stroke-width:5.4044;stroke-linecap:round;stroke-linejoin:round;stroke-miterlimit:10;}
	.st5{fill:#F08E93;}
	.st6{fill:#18191F;}
	.st7{fill:#FF353B;}
	.st8{fill:#FFFFFF;}
	.st9{fill:#23B5F3;}
	.st10{fill:#CCCCFF;}
	.st11{fill:#6460FF;}
	.st12{fill:#DB9451;}
	.st13{fill:#F4B55E;}
	.st14{fill:#EC6519;}
	.st15{fill:#EF7C33;}
	.st16{fill:#CCCCCC;}
	.st17{fill:#E6E6E5;}
	.st18{fill:#B75320;}
	.st19{fill:#B3B3B3;}
	.st20{fill-rule:evenodd;clip-rule:evenodd;fill:#4D4D4D;}
	.st21{fill:#4D4D4D;}
	.st22{fill:#323333;}
	.st23{fill:#9C4623;}
	.st24{fill-rule:evenodd;clip-rule:evenodd;fill:#CBE8F0;}
	.st25{fill-rule:evenodd;clip-rule:evenodd;fill:#E1F0F3;}
	.st26{fill-rule:evenodd;clip-rule:evenodd;fill:#9ECCD5;}
	.st27{fill-rule:evenodd;clip-rule:evenodd;fill:#323333;}
	.st28{fill-rule:evenodd;clip-rule:evenodd;fill:#666666;}
	.st29{fill:none;stroke:#F4B55E;stroke-width:2.051;stroke-linecap:round;stroke-linejoin:round;stroke-miterlimit:10;}
	.st30{fill:#C7B79C;}
	.st31{fill:#D4C9B4;}
	.st32{fill:#51524E;}
	.st33{fill:#E1E1E1;}
	.st34{fill:#43312B;}
	.st35{fill:#C6C6C6;}
	.st36{fill:#AAAAAA;}
	.st37{fill:#939393;}
	.st38{fill:#E0E0E0;}
	.st39{fill:#2B451C;}
	.st40{fill:#395527;}
	.st41{fill:none;stroke:#18191F;stroke-width:5.3533;stroke-linecap:round;stroke-linejoin:round;stroke-miterlimit:10;}
	.st42{fill:none;stroke:#18191F;stroke-width:4.5;stroke-linecap:round;stroke-linejoin:round;stroke-miterlimit:10;}
	.st43{fill:none;stroke:#F4B55E;stroke-width:2.378;stroke-linecap:round;stroke-linejoin:round;stroke-miterlimit:10;}
	.st44{fill:none;stroke:#F4B55E;stroke-width:3.459;stroke-linecap:round;stroke-linejoin:round;stroke-miterlimit:10;}
	.st45{fill:#FF9398;}
	.st46{fill:none;stroke:#18191F;stroke-width:4.5;stroke-linecap:round;stroke-miterlimit:10;}
	.st47{fill:none;stroke:#18191F;stroke-width:4.0241;stroke-linecap:round;stroke-linejoin:round;stroke-miterlimit:10;}
	.st48{fill:none;stroke:#F4B55E;stroke-width:1.5623;stroke-linecap:round;stroke-linejoin:round;stroke-miterlimit:10;}
	.st49{fill:none;stroke:#18191F;stroke-width:3.0579;stroke-linecap:round;stroke-linejoin:round;stroke-miterlimit:10;}
	.st50{fill:none;stroke:#18191F;stroke-width:2.7483;stroke-linecap:round;stroke-linejoin:round;stroke-miterlimit:10;}
</style>
<path class="st35" d="M160.1,133.5c1.9-0.7,3.7-1.4,5.6-2.1c5.2-2,10.4-4,15.7-5.9c3.5-1.3,6.9-0.3,9,2.6c1.4,1.9,1.7,4.2,1.5,6.6
	c-0.5,5.6-1,11.3-1.5,16.9c0,0.1-0.1,0.2-0.1,0.3c-0.2,0-0.3-0.2-0.3-0.4c-0.3-1.7-1.4-2.8-2.7-3.7c-2-1.4-4.3-2.2-6.7-2.8
	c-5.7-1.4-11.4-0.7-17.1,0.3c-1.4,0.3-2.8,0.5-4.3,0.8c-0.3,0.1-0.7,0.2-1.1,0c-0.3-0.3-0.2-0.6-0.1-1c0.5-2.8,1-5.7,1.4-8.5
	c0.1-0.8,0.3-1.7,0.3-2.6C159.8,134.1,159.9,133.8,160.1,133.5z"/>
<path class="st35" d="M113.8,139.4c0.6-2.4,1.1-4.7,1.7-7c0.9-3.6,1.8-7.2,2.7-10.7c1.5-5.8,7.8-8.4,12.3-4.8
	c3.7,2.9,7.3,6,10.9,9.1c2.2,1.9,4.5,3.8,6.7,5.7c0.1,0.1,0.2,0,0.2,0.1c0.1,0.1,0.1,0.3,0.1,0.4c-1,3.6-1.3,7.3-2,10.9
	c-0.1,0.5-0.1,1-0.5,1.4c-0.5,0.2-0.8-0.1-1.2-0.3c-3.7-2.3-7.5-4.3-11.5-6c-4.2-1.7-8.6-2.5-13.1-2.1c-1.7,0.1-3.4,0.5-4.9,1.7
	c-0.5,0.4-1,0.8-1.2,1.5C114.1,139.2,114,139.4,113.8,139.4z"/>
<path class="st36" d="M166.7,153.4c0.1,1.1,0.5,2.2,0.9,3.2c2,6.9,4,13.7,6,20.6c0.1,0.3,0.2,0.6,0.2,0.9c-0.4,0.1-0.6-0.2-0.8-0.4
	c-2.6-2-5.2-4-7.7-6c-0.5-0.3-0.7-0.4-0.9,0.3c-1,3.4-2.1,6.9-3.1,10.3c-0.1,0.2-0.1,0.4-0.2,0.6c-0.3,0-0.3-0.3-0.3-0.4
	c-3.2-10.8-6.3-21.6-9.5-32.4c0-0.1-0.1-0.3-0.1-0.4c0-0.1,0-0.2-0.1-0.3c-0.3-0.7-0.1-0.8,0.5-0.8c0.5,0,1,0.1,1.5,0.2
	c1.2,0.3,2.3,0.1,3.3-0.8c0.2-0.2,0.5-0.4,0.8-0.4c0.8,1,1.9,1.4,2.9,2c1.9,1.2,3.9,2.3,6,3.3C166.4,153,166.7,153.2,166.7,153.4z"
	/>
<path class="st36" d="M150.7,149.3c-1.8,2.5-3.6,5.1-5.4,7.6c-4.8,6.7-9.6,13.4-14.3,20.1c-0.2,0.2-0.3,0.5-0.6,0.9
	c0.1-1.8,0.1-3.3,0.2-4.9c0.1-2.2,0.2-4.5,0.3-6.7c0-0.6-0.1-0.8-0.7-0.6c-3.1,1.1-6.2,2.1-9.3,3.2c-0.3,0.1-0.5,0.2-0.8,0.3
	c-0.1-0.4,0.2-0.5,0.3-0.7c4.6-6.5,9.2-12.9,13.7-19.3c0.2-0.3,0.5-0.5,0.4-0.8c0.3-0.5,0.7-0.4,1.1-0.4c3.2-0.4,6.4-0.9,9.6-1.7
	c0.5-0.1,0.9-0.4,1.1-0.9c0.5,0.1,0.7,0.6,0.8,0.9c0.4,1.1,1.3,1.4,2.1,1.7c0.3,0.1,0.7,0.1,1.1,0.2
	C151.1,148.4,151.1,148.5,150.7,149.3z"/>
<path class="st37" d="M146.3,145.4c0.1,0.6-0.1,0.8-0.7,1c-3.5,0.8-7,1.5-10.6,1.8c-0.2,0-0.4,0.1-0.6,0.1
	c-3.4,0.3-6.9,0.4-10.2-0.3c-2.8-0.6-5.5-1.4-7.9-3.1c-1-0.7-1.8-1.5-2.4-2.6c-0.4-0.9-0.6-1.9-0.2-2.9c1.1-2.6,3.3-3.1,5.6-3.6
	c2-0.4,3.9-0.3,5.9-0.1c5.1,0.5,9.8,2.5,14.3,4.9c2.1,1.1,4.2,2.4,6.3,3.6C146.3,144.4,146.5,144.8,146.3,145.4z"/>
<path class="st37" d="M166.7,153.4c-3-1.5-6-3.2-8.9-5c-0.3-0.2-0.6-0.3-0.4-0.8c0.1-0.7,0.4-1.1,1.1-1.3c5-1.1,10-2,15-2.1
	c3.3-0.1,6.6,0.5,9.7,1.5c1.9,0.6,3.6,1.4,5.2,2.8c1,0.9,1.8,2,1.9,3.5c0.1,1.7-0.8,2.8-2.1,3.6c-2.2,1.4-4.5,1.5-6.9,1.6
	c-4.7,0-9-1.3-13.2-3.2C167.6,153.9,167.2,153.7,166.7,153.4z"/>
<path class="st38" d="M158.4,146.4c-0.5,0.3-0.7,0.9-1.1,1.3c-0.3,0.2-0.6,0.4-0.8,0.6c-0.9,0.8-1.9,1-3,0.8
	c-0.5-0.1-0.9-0.2-1.4-0.2c-0.9-0.2-0.9-0.2-0.9,0.8c-0.2-0.2-0.1-0.7-0.6-0.3c0.3-0.8-0.1-0.9-0.7-0.9c-0.6,0-1.3-0.2-1.8-0.5
	c-0.6-0.3-1-0.7-1.3-1.4c-0.1-0.3-0.3-0.8-0.6-1.1c-0.2-0.4-0.1-0.9-0.5-1.2c0.3-0.2,0.3-0.6,0.3-0.9c0.5-3,1-5.9,1.5-8.9
	c0.2-1,0.3-2,0.8-2.9c0.9-1.6,2.3-2.4,4-2.1c1.5,0.2,3.1,0.5,4.6,0.8c1.7,0.3,2.7,1.4,3.1,3.3c0.1,1,0,2.1-0.2,3.1
	c-0.6,3.1-1.1,6.3-1.7,9.4C158.2,146.3,158.3,146.3,158.4,146.4z"/>
</svg>
