<?xml version="1.0" encoding="utf-8"?>
<!-- Generator: Adobe Illustrator 23.0.3, SVG Export Plug-In . SVG Version: 6.00 Build 0)  -->
<svg version="1.1" id="圖層_1" xmlns="http://www.w3.org/2000/svg" xmlns:xlink="http://www.w3.org/1999/xlink" x="0px" y="0px"
	 viewBox="0 0 300 350" style="enable-background:new 0 0 300 350;" xml:space="preserve">
<style type="text/css">
	.st0{fill:#A52224;}
	.st1{fill:#D93030;}
	.st2{fill:none;stroke:#18191F;stroke-width:4.2762;stroke-linecap:round;stroke-linejoin:round;stroke-miterlimit:10;}
	.st3{fill:#E83C3C;}
	.st4{fill:none;stroke:#18191F;stroke-width:5.4044;stroke-linecap:round;stroke-linejoin:round;stroke-miterlimit:10;}
	.st5{fill:#F08E93;}
	.st6{fill:#18191F;}
	.st7{fill:#FF353B;}
	.st8{fill:#FFFFFF;}
	.st9{fill:#23B5F3;}
	.st10{fill:#CCCCFF;}
	.st11{fill:#6460FF;}
	.st12{fill:#DB9451;}
	.st13{fill:#F4B55E;}
	.st14{fill:#EC6519;}
	.st15{fill:#EF7C33;}
	.st16{fill:#CCCCCC;}
	.st17{fill:#E6E6E5;}
	.st18{fill:#B75320;}
	.st19{fill:#B3B3B3;}
	.st20{fill-rule:evenodd;clip-rule:evenodd;fill:#4D4D4D;}
	.st21{fill:#4D4D4D;}
	.st22{fill:#323333;}
	.st23{fill:#9C4623;}
	.st24{fill-rule:evenodd;clip-rule:evenodd;fill:#CBE8F0;}
	.st25{fill-rule:evenodd;clip-rule:evenodd;fill:#E1F0F3;}
	.st26{fill-rule:evenodd;clip-rule:evenodd;fill:#9ECCD5;}
	.st27{fill-rule:evenodd;clip-rule:evenodd;fill:#323333;}
	.st28{fill-rule:evenodd;clip-rule:evenodd;fill:#666666;}
	.st29{fill:none;stroke:#F4B55E;stroke-width:2.051;stroke-linecap:round;stroke-linejoin:round;stroke-miterlimit:10;}
	.st30{fill:#C7B79C;}
	.st31{fill:#D4C9B4;}
	.st32{fill:#51524E;}
	.st33{fill:#E1E1E1;}
	.st34{fill:#43312B;}
	.st35{fill:#C6C6C6;}
	.st36{fill:#AAAAAA;}
	.st37{fill:#939393;}
	.st38{fill:#E0E0E0;}
	.st39{fill:#2B451C;}
	.st40{fill:#395527;}
	.st41{fill:none;stroke:#18191F;stroke-width:5.3533;stroke-linecap:round;stroke-linejoin:round;stroke-miterlimit:10;}
	.st42{fill:none;stroke:#18191F;stroke-width:4.5;stroke-linecap:round;stroke-linejoin:round;stroke-miterlimit:10;}
	.st43{fill:none;stroke:#F4B55E;stroke-width:2.378;stroke-linecap:round;stroke-linejoin:round;stroke-miterlimit:10;}
	.st44{fill:none;stroke:#F4B55E;stroke-width:3.459;stroke-linecap:round;stroke-linejoin:round;stroke-miterlimit:10;}
	.st45{fill:#FF9398;}
	.st46{fill:none;stroke:#18191F;stroke-width:4.5;stroke-linecap:round;stroke-miterlimit:10;}
	.st47{fill:none;stroke:#18191F;stroke-width:4.0241;stroke-linecap:round;stroke-linejoin:round;stroke-miterlimit:10;}
	.st48{fill:none;stroke:#F4B55E;stroke-width:1.5623;stroke-linecap:round;stroke-linejoin:round;stroke-miterlimit:10;}
	.st49{fill:none;stroke:#18191F;stroke-width:3.0579;stroke-linecap:round;stroke-linejoin:round;stroke-miterlimit:10;}
	.st50{fill:none;stroke:#18191F;stroke-width:2.7483;stroke-linecap:round;stroke-linejoin:round;stroke-miterlimit:10;}
</style>
<path class="st14" d="M91.4,164.1l68.5,15.3l9-40.4l-68.5-15.3L91.4,164.1z"/>
<path class="st15" d="M154.5,167.5l7.7,1.7l4.5-20.3l-7.7-1.7L154.5,167.5z"/>
<path class="st16" d="M89.2,173.9l68.5,15.3l2.2-10l-68.5-15.3L89.2,173.9z"/>
<path class="st17" d="M150,187.4l7.7,1.7l2.2-10l-7.7-1.7L150,187.4z"/>
<path class="st16" d="M98.1,133.7l68.5,15.3l2.2-10l-68.5-15.3L98.1,133.7z"/>
<path class="st18" d="M93.6,154l7.7,1.7l4.5-20.3l-7.7-1.7L93.6,154z"/>
<path class="st19" d="M89.2,173.9l7.7,1.7l2.2-10l-7.7-1.7L89.2,173.9z"/>
<path class="st20" d="M122.5,128.5c7.5,1.7,16.8,3.8,24.3,5.4l-0.8-5.5c-6.2-1.4-14.3-3.2-20.5-4.6L122.5,128.5z"/>
<path class="st21" d="M154,135.6l8.8,2l0.8-3.5l-8.8-2L154,135.6z"/>
<path class="st21" d="M106.4,125l8.8,2l0.8-3.5l-8.8-2L106.4,125z"/>
<path class="st22" d="M158.1,136.6l0.7,0.2l0.8-3.5l-0.7-0.2L158.1,136.6z"/>
<path class="st22" d="M161.2,137.2l0.7,0.2l0.8-3.5l-0.7-0.2L161.2,137.2z"/>
<path class="st22" d="M159.7,136.9l0.7,0.2l0.8-3.5l-0.7-0.2L159.7,136.9z"/>
<path class="st22" d="M156.6,136.2l0.7,0.2l0.8-3.5l-0.7-0.2L156.6,136.2z"/>
<path class="st22" d="M155.1,135.9l0.7,0.2l0.8-3.5l-0.7-0.2L155.1,135.9z"/>
<path class="st18" d="M105.9,135.4l-0.2,1l53.1,11.8l0.2-1L105.9,135.4L105.9,135.4z"/>
<path class="st23" d="M97.9,134.7l7.7,1.7l0.2-1l-7.7-1.7L97.9,134.7z"/>
<path class="st14" d="M158.8,148.3l7.7,1.7l0.2-1l-7.7-1.7L158.8,148.3z"/>
<path class="st18" d="M101.6,154.7l-0.2,1l53.1,11.8l0.2-1L101.6,154.7L101.6,154.7z"/>
<path class="st23" d="M93.6,154l7.7,1.7l0.2-1l-7.7-1.7L93.6,154z"/>
<path class="st14" d="M154.5,167.5l7.7,1.7l0.2-1l-7.7-1.7L154.5,167.5z"/>
<path class="st21" d="M147.4,155.5c2.2-9.5-3.7-19.1-13.3-21.3c-9.5-2.2-19.1,3.7-21.3,13.3c-2.2,9.5,3.7,19.1,13.3,21.3
	C135.6,171,145.1,165.1,147.4,155.5z"/>
<path class="st24" d="M127.1,165.1c7.5,1.7,14.9-3.1,16.6-10.5c1.7-7.5-3.1-14.9-10.5-16.6c-7.5-1.7-14.9,3.1-16.6,10.5
	C115,155.9,119.6,163.4,127.1,165.1z"/>
<path class="st25" d="M142.9,157.2c0.3-0.8,0.6-1.7,0.8-2.6c1.7-7.5-3-14.9-10.5-16.6c-0.4-0.1-0.8-0.1-1.1-0.2
	c0.4,3.7,1.8,7.9,4.3,11.9C138.3,152.7,140.5,155.2,142.9,157.2z"/>
<path class="st26" d="M129.2,156c2.4,0.5,4.9-1,5.4-3.4c0.5-2.4-1-4.9-3.4-5.4c-2.4-0.5-4.9,1-5.4,3.4
	C125.2,153,126.7,155.3,129.2,156z"/>
<path class="st27" d="M122.6,128.6l6.4,1.4l3-4.6l-6.4-1.4L122.6,128.6z"/>
<path class="st28" d="M168.9,145.1l-0.3,1.5c-0.1,0.2-0.3,0.4-0.5,0.4l-0.9-0.2l-0.3,1.2l1.6,0.4c0.5,0.1,1-0.3,1.1-0.8l0.7-3
	c0.1-0.5-0.2-1.1-0.7-1.2l-1.6-0.4l-0.3,1.3l0.9,0.2C168.9,144.5,169,144.8,168.9,145.1z"/>
<path class="st29" d="M166.3,145.3c24.4-1.2,70.5-17.8,70.5-17.8"/>
<path class="st28" d="M97.5,130.7l0.3-1.5c0.1-0.2,0.3-0.4,0.5-0.4l0.9,0.2l0.3-1.3l-1.6-0.4c-0.5-0.1-1,0.3-1.1,0.8l-0.7,3
	c-0.1,0.5,0.2,1.1,0.7,1.2l1.6,0.4l0.3-1.3l-0.9-0.2C97.5,131.2,97.3,130.9,97.5,130.7z"/>
<path class="st29" d="M83.5,92.4c-2.1,12.5,17.6,39,17.6,39"/>
<path class="st17" d="M159,147.3l7.7,1.7l2.2-10l-7.7-1.7L159,147.3z"/>
<path class="st19" d="M98.1,133.7l7.7,1.7l2.2-10l-7.7-1.7L98.1,133.7z"/>
</svg>
